<svg id="Layer_1" data-name="Layer 1" xmlns="http://www.w3.org/2000/svg" viewBox="0 0 66.44 226.89"><defs><style>.cls-1{fill:#ccb808;}.cls-2{fill:#fee50a;}.cls-3{fill:#ea9505;}.cls-4{fill:#fea205;}.cls-5{fill:#d3be08;}.cls-6{fill:#cbb808;}.cls-7{fill:#f1da0a;}.cls-8{fill:#e2cc09;}</style></defs><path d="M58.91,226.89l-8.41-8.43c0-.13,0-.25,0-.37a38.59,38.59,0,0,1,8-8l.37,0,8.43,8.42Z"/><path d="M16.83,218.45q-4.2,4.22-8.41,8.44L0,218.47l8.44-8.42.37,0a39.18,39.18,0,0,1,8,8C16.82,218.2,16.83,218.33,16.83,218.45Z"/><path d="M25.26,24.91c-2.47-2.47-4.92-5-7.44-7.4-.76-.73-.9-1.17-.05-2q7.53-7.42,15-15c.72-.73,1.12-.73,1.85,0q7.44,7.53,15,15c.84.82.71,1.26-.06,2-2.51,2.43-5,4.93-7.43,7.4l-.36,0c-2.45-1.41-4.06-3.72-6.08-5.6s-2-1.85-3.93,0-3.63,4.19-6.08,5.61Z"/><path d="M16.85,50.15c-2.47-2.46-4.89-5-7.43-7.36-.93-.88-.78-1.33.05-2.14C14.76,35.43,20,30.16,25.26,24.91h0a1.92,1.92,0,0,1,1.26.48C29,27.82,31.65,30,33.7,32.87a1.31,1.31,0,0,1,0,.76c-1.36,2.36-3.61,3.91-5.41,5.88a31.1,31.1,0,0,1-2.65,2.61c-2.23,2.35-4.56,4.6-6.85,6.89a3.87,3.87,0,0,1-1.6,1.13Z"/><path d="M50.48,67c5.21,5.21,10.4,10.44,15.66,15.6,1,.94,1.1,1.45,0,2.43-2.5,2.33-4.87,4.81-7.29,7.22l-.37,0c-3-1.95-5.11-4.82-7.67-7.23l-.77-.78c-.38-.31-.69-.69-1.05-1-2-1.87-3.89-3.84-5.82-5.78a3.44,3.44,0,0,1-1.21-2,1.4,1.4,0,0,1,.3-.92c2.44-2.67,4.76-5.46,7.79-7.52Z"/><path d="M42.07,24.91c5.21,5.2,10.39,10.43,15.65,15.59,1,.94,1.1,1.45.05,2.43-2.5,2.33-4.86,4.81-7.29,7.22l-.39,0a5.71,5.71,0,0,1-2.17-1.66q-6.3-6.28-12.58-12.58c-.74-.74-1.6-1.42-1.68-2.59v.05a2.49,2.49,0,0,1,.72-1.59q3-3.15,6.13-6.13a2.42,2.42,0,0,1,1.58-.72Z"/><path d="M8.44,92.23C6,89.77,3.54,87.26,1,84.87c-.93-.88-.78-1.33.05-2.14C6.35,77.51,11.59,72.24,16.85,67l.38,0c3.08,2.44,6.12,4.92,8.09,8.43a3.39,3.39,0,0,1-1.2,2c-2.26,2.27-4.47,4.58-6.81,6.77s-4.5,4.53-6.76,6.8a4.45,4.45,0,0,1-1.73,1.24Z"/><path d="M16.85,67c-2.51-2.5-5-5-7.54-7.49-.74-.71-.75-1.13,0-1.84,2.55-2.46,5-5,7.54-7.5h0a2.08,2.08,0,0,1,1.27.48,89.42,89.42,0,0,1,6.8,6.83,1.86,1.86,0,0,1,.44,1.08,2.94,2.94,0,0,1-1,1.86c-1.83,1.9-3.7,3.76-5.59,5.6a2.85,2.85,0,0,1-1.88,1Z"/><path d="M8.44,109.06c-2.51-2.5-5-5-7.55-7.49-.74-.71-.74-1.13,0-1.85,2.55-2.46,5-5,7.55-7.49h0c.2,0,.42,0,.57.12,3,2.38,5.9,4.86,7.94,8.18a1.33,1.33,0,0,1-.26.92A45.31,45.31,0,0,1,8.82,109Z"/><path d="M50.48,50.15c2.51,2.51,5,5,7.54,7.5.75.71.74,1.13,0,1.84-2.55,2.46-5,5-7.54,7.49h0a2,2,0,0,1-1.26-.48,87.64,87.64,0,0,1-6.8-6.83A1.74,1.74,0,0,1,42,58.59a3,3,0,0,1,1-1.85c1.83-1.9,3.7-3.76,5.59-5.6a2.93,2.93,0,0,1,1.88-1Z"/><path d="M8.44,125.89c-2.51-2.5-5-5-7.55-7.49-.74-.71-.74-1.13,0-1.85,2.55-2.45,5-5,7.55-7.49h0c.2,0,.42,0,.57.12,3,2.38,5.9,4.86,7.94,8.18a1.33,1.33,0,0,1-.26.92,44.94,44.94,0,0,1-7.82,7.59Z"/><path d="M58.9,193.22c2.5,2.5,5,5,7.54,7.49.74.72.74,1.14,0,1.85-2.55,2.46-5,5-7.54,7.49h0a2.25,2.25,0,0,1-1.43-.59q-3.31-3.11-6.41-6.41c-.69-.75-1-1.66-.23-2.48,2.41-2.58,4.66-5.34,7.64-7.33Z"/><path d="M8.44,142.73c-2.51-2.51-5-5-7.55-7.49-.74-.72-.74-1.14,0-1.85,2.55-2.46,5-5,7.55-7.5h0c.2,0,.42,0,.57.11,3,2.38,5.9,4.86,7.94,8.18a1.36,1.36,0,0,1-.26.93,45.68,45.68,0,0,1-7.82,7.59Z"/><path d="M8.44,159.56c-2.51-2.5-5-5-7.55-7.49-.74-.72-.74-1.14,0-1.85,2.55-2.46,5-5,7.55-7.49h0c.2,0,.42,0,.57.12A32.45,32.45,0,0,1,16.9,151a1.36,1.36,0,0,1-.26.93,45.68,45.68,0,0,1-7.82,7.59Z"/><path d="M58.9,92.23c2.5,2.5,5,5,7.54,7.49.74.72.74,1.14,0,1.85-2.55,2.46-5,5-7.54,7.49l-.38,0c-3-2.06-5.33-4.86-7.8-7.5a1.53,1.53,0,0,1,0-1.83c2-2.39,4.28-4.43,6.45-6.62a2.6,2.6,0,0,1,1.73-.86Z"/><path d="M8.44,176.39c-2.51-2.5-5-5-7.55-7.49-.74-.72-.74-1.13,0-1.85,2.55-2.46,5-5,7.55-7.49h0c.2,0,.42,0,.57.12,3,2.38,5.9,4.86,7.94,8.18a1.35,1.35,0,0,1-.26.92,45.68,45.68,0,0,1-7.82,7.59Z"/><path d="M58.9,109.06c2.5,2.51,5,5,7.54,7.5.74.71.74,1.13,0,1.84-2.55,2.46-5,5-7.54,7.5l-.39,0c-3-2-5.19-4.73-7.61-7.28a1.52,1.52,0,0,1-.19-2,86.82,86.82,0,0,1,6.63-6.8,2.42,2.42,0,0,1,1.59-.74Z"/><path d="M8.44,193.22c-2.51-2.5-5-5-7.55-7.49-.74-.72-.74-1.13,0-1.85,2.55-2.46,5-5,7.55-7.49h0c.2,0,.42,0,.57.12,3,2.38,5.9,4.86,7.94,8.18a1.35,1.35,0,0,1-.26.92,45.68,45.68,0,0,1-7.82,7.59Z"/><path d="M58.9,125.9c2.5,2.5,5,5,7.54,7.49.74.71.74,1.13,0,1.85-2.55,2.45-5,5-7.54,7.49l-.4,0c-3-2-5.22-4.74-7.65-7.32a1.43,1.43,0,0,1-.09-2,53.33,53.33,0,0,1,7.41-7.31,1.36,1.36,0,0,1,.76-.18Z"/><path d="M8.44,210.05c-2.51-2.5-5-5-7.55-7.49-.74-.71-.74-1.13,0-1.85,2.55-2.46,5-5,7.55-7.49h0a2.08,2.08,0,0,1,1.27.48,89.42,89.42,0,0,1,6.8,6.83,1.79,1.79,0,0,1,.44,1.08,3,3,0,0,1-1,1.86c-1.83,1.9-3.7,3.76-5.59,5.6a2.94,2.94,0,0,1-1.89,1Z"/><path d="M58.9,142.73c2.5,2.5,5,5,7.54,7.49.74.71.74,1.13,0,1.85-2.55,2.45-5,5-7.54,7.49l-.4,0c-3-2-5.22-4.74-7.65-7.32a1.43,1.43,0,0,1-.09-2,53.33,53.33,0,0,1,7.41-7.31,1.36,1.36,0,0,1,.76-.18Z"/><path d="M58.9,159.56c2.5,2.5,5,5,7.54,7.49.74.72.74,1.13,0,1.85-2.55,2.46-5,5-7.54,7.49l-.4,0c-3-2-5.22-4.75-7.65-7.32a1.44,1.44,0,0,1-.09-2,53.33,53.33,0,0,1,7.41-7.31,1.45,1.45,0,0,1,.76-.18Z"/><path d="M58.9,176.39c2.5,2.5,5,5,7.54,7.49.74.72.74,1.13,0,1.85-2.55,2.46-5,5-7.54,7.49h0a2.25,2.25,0,0,1-1.43-.59c-2.22-2.06-4.37-4.2-6.42-6.42a1.72,1.72,0,0,1-.23-2.49A61,61,0,0,1,58,176.66a1.78,1.78,0,0,1,.94-.27Z"/><path d="M33.66,218.45c-2.5,2.51-5,5-7.49,7.55-.72.74-1.13.74-1.85,0-2.46-2.55-5-5-7.49-7.54v0c0-.19,0-.42.12-.57,2.38-3,4.86-5.9,8.18-7.93a1.29,1.29,0,0,1,.92.26,45.31,45.31,0,0,1,7.59,7.82C33.65,218.19,33.66,218.32,33.66,218.45Z"/><path d="M50.5,218.46c-2.51,2.5-5,5-7.5,7.54-.72.74-1.13.74-1.85,0-2.45-2.55-5-5-7.49-7.54v0a2,2,0,0,1,.49-1.26c2.43-2.48,4.65-5.17,7.49-7.22a1.24,1.24,0,0,1,.76,0c3.05,2.5,6.2,4.91,8.09,8.51Z"/><path class="cls-1" d="M50.49,218.49l-8.42-8.38c0-1,.69-1.54,1.27-2.14,1.67-1.7,3.33-3.41,5.06-5,1-1,.94-1.69,0-2.62-1.68-1.58-3.3-3.24-4.91-4.9s-1.73-2.59,0-4.34,3.22-3.33,4.92-4.9c1.09-1,1-1.78,0-2.76-1.69-1.58-3.31-3.24-4.91-4.9s-1.64-2.54,0-4.21,3.21-3.34,4.92-4.89c1.19-1.09,1.06-1.88-.06-2.92-1.69-1.57-3.31-3.22-4.91-4.9s-1.52-2.45,0-4.08,3.14-3.22,4.76-4.78c1.14-1.11,1.15-2.06,0-3.17-1.61-1.56-3.23-3.13-4.75-4.78s-1.5-2.48,0-4.09,3.13-3.22,4.75-4.78c1.15-1.11,1.16-2.06,0-3.18-1.61-1.56-3.22-3.13-4.75-4.78s-1.5-2.49,0-4.1,3.14-3.22,4.75-4.78c1.15-1.11,1.14-2.06,0-3.17-1.61-1.58-3.23-3.13-4.75-4.79s-1.48-2.52,0-4.09,3.32-3.41,5-5c1-.93,1-1.67,0-2.62-1.68-1.59-3.3-3.24-4.91-4.91s-1.73-2.63-.06-4.36,3.45-3.47,5.19-5.19a2.6,2.6,0,0,1,1.85-1l.56.56a3.22,3.22,0,0,1-1.28,2.14c-1.41,1.46-2.87,2.88-4.3,4.32a1.66,1.66,0,0,0,0,2.7c1.43,1.44,2.89,2.87,4.3,4.33A3.2,3.2,0,0,1,51,100a.77.77,0,0,0,0,1.22,3.23,3.23,0,0,1-1.28,2.13c-1.41,1.46-2.87,2.88-4.3,4.32a1.66,1.66,0,0,0,0,2.7c1.43,1.45,2.89,2.87,4.3,4.33A3.23,3.23,0,0,1,51,116.87c-.76.9.16,1.26.6,1.7,2.42,2.46,4.87,4.89,7.32,7.33-2.48,2.47-4.93,5-7.45,7.39-.82.78-.82,1.26,0,2,2.52,2.42,5,4.93,7.45,7.4-2.48,2.47-4.93,5-7.45,7.39-.82.79-.82,1.26,0,2,2.52,2.42,5,4.93,7.45,7.4-2.48,2.47-4.93,5-7.45,7.4-.82.78-.82,1.25,0,2,2.52,2.43,5,4.93,7.45,7.4-2.48,2.47-4.93,5-7.45,7.4-.82.78-.82,1.25,0,2,2.52,2.43,5,4.93,7.45,7.4-2.48,2.47-4.93,5-7.45,7.4-.82.78-.82,1.26,0,2,2.52,2.42,5,4.92,7.45,7.39Z"/><path class="cls-2" d="M25.26,210.1l-8.43,8.39-8.44-8.44,8.4-8.41h.38a36.91,36.91,0,0,1,8.09,8.08Z"/><path class="cls-3" d="M42.09,24.91l-8.43,8.44-8.43-8.44c2.48-2.48,5-4.92,7.42-7.44.78-.81,1.25-.81,2,0C37.11,20,39.62,22.43,42.09,24.91Z"/><path class="cls-3" d="M50.51,50.15l-8.45,8.41-.38,0c-2.15-1.16-3.52-3.17-5.26-4.77-1.11-1-2.18-2.12-3.21-3.24-2.33-2.19-4.54-4.49-6.8-6.76a2.83,2.83,0,0,1-1.12-2l8.37-8.49Z"/><path class="cls-4" d="M25.29,41.79l8.39,8.4a1.3,1.3,0,0,1-.2.74,44.13,44.13,0,0,1-7.84,7.61h-.38l-8.45-8.4Z"/><path class="cls-5" d="M50.45,83.86c-2.29,2.29-4.53,4.63-6.89,6.85-1.22,1.15-1.15,2,0,3.08,1.75,1.61,3.38,3.34,5.06,5s1.82,1.83.07,3.59-3.52,3.59-5.34,5.32c-1,.93-1,1.69,0,2.64,2,1.87,3.81,3.86,5.78,5.72,1.07,1,1,1.79,0,2.79-1.87,1.77-3.59,3.7-5.5,5.43-1.32,1.2-1.2,2.08.06,3.22,1.8,1.65,3.42,3.5,5.22,5.15,1.25,1.14,1.37,2,.05,3.22-1.9,1.73-3.63,3.66-5.5,5.43-1.06,1-1.08,1.77,0,2.78,2,1.87,3.81,3.85,5.77,5.73,1,.95.95,1.71,0,2.64-1.77,1.68-3.47,3.44-5.19,5.17-1.91,1.91-1.91,1.91.06,3.88,1.68,1.68,3.33,3.4,5.06,5,1,1,1.12,1.77,0,2.79-2,1.86-3.82,3.85-5.78,5.72-1,1-1,1.7,0,2.64,1.91,1.83,3.69,3.78,5.64,5.58,1.23,1.14,1.14,2-.05,3.07-1.75,1.61-3.38,3.35-5.06,5-1.82,1.83-1.82,1.83-.06,3.6s3.41,3.51,5.2,5.17c1.13,1.05,1.16,1.85,0,2.93-2.39,2.28-4.68,4.67-7,7l0,0a.76.76,0,0,1-.67-.73c.29-1.94,1.86-3,3.07-4.23,3.95-4.09,3.92-2.93,0-7-1.19-1.22-2.58-2.29-3.13-4a3.78,3.78,0,0,1,0-1.77c.86-2.41,3-3.78,4.61-5.52,1.95-2.07,1.95-2,0-4-1.65-1.75-3.76-3.12-4.64-5.52a3.78,3.78,0,0,1,0-1.77c.87-2.4,3-3.77,4.62-5.52,1.92-2,1.92-2,0-4.05-1.7-1.79-3.82-3.24-4.75-5.68-1.2-2.6-3.66-4.09-5.45-6.17-.8-.93-2-1.61-2.16-3,.32-1.54,1.63-2.33,2.6-3.36,1.16-1.25,2.38-2.45,3.61-3.63,1-1,1.05-1.8,0-2.8-1.61-1.54-3.18-3.13-4.73-4.73a4.14,4.14,0,0,1-1.5-2.25A3.79,3.79,0,0,1,35,132.08c1.56-1.6,3.12-3.2,4.74-4.73,1.12-1.07,1-1.93-.05-2.95-1.57-1.49-3.08-3-4.6-4.59a4.42,4.42,0,0,1-1.52-2.24A3.55,3.55,0,0,1,35,115.3c1.63-1.68,3.31-3.3,4.95-5a5,5,0,0,0,1.25-1.95c1-2.48,3.15-4,4.89-5.82s1.76-1.91,0-3.77-3.86-3.2-4.77-5.66a3.74,3.74,0,0,1,0-1.82A23.29,23.29,0,0,1,49.61,83Z"/><path class="cls-5" d="M42.06,58.56,50.51,67,42.13,75.4h-.38a40.85,40.85,0,0,1-8.15-8,1.2,1.2,0,0,1,0-.75c2.08-2.93,4.81-5.23,7.39-7.67a1.87,1.87,0,0,1,1.11-.37Z"/><path class="cls-5" d="M49.61,83c-2.68,2.9-5.86,5.33-8.09,8.65a1.42,1.42,0,0,1-1.09-.37,51.42,51.42,0,0,1-6.8-7,1.17,1.17,0,0,1,0-.76c2.44-3.07,4.94-6.08,8.4-8.1h.14Z"/><path class="cls-6" d="M51,100c-2.15-2.14-4.26-4.32-6.45-6.42-1.05-1-1.05-1.77,0-2.78,2.19-2.09,4.3-4.27,6.45-6.42l7.92,7.81Z"/><path class="cls-7" d="M16.81,67l8.45-8.43,0,0a2.27,2.27,0,0,1,1.43.59c2.24,2.1,4.44,4.26,6.51,6.53a1.92,1.92,0,0,1,.51,1.25l-.06.11a1.07,1.07,0,0,1-.17.75,43.13,43.13,0,0,1-7.85,7.6h-.38Z"/><path class="cls-2" d="M16.79,100.65l-8.4-8.42,8.49-8.36a1.67,1.67,0,0,1,1.26.49c2.44,2.41,5.09,4.61,7.13,7.4a1.28,1.28,0,0,1,.06.75,37.72,37.72,0,0,1-8.16,8.14Z"/><path class="cls-7" d="M25.25,92.23l-8.37-8.36Q21,79.63,25.21,75.4h.07a2.54,2.54,0,0,1,1.7.87q3,2.87,5.83,5.83a2.63,2.63,0,0,1,.85,1.72,2.41,2.41,0,0,1-.73,1.57q-3,3.14-6.12,6.12A2.07,2.07,0,0,1,25.25,92.23Z"/><path class="cls-2" d="M16.79,117.48l-8.4-8.42,8.4-8.41h.07A1.67,1.67,0,0,1,18,101a62.83,62.83,0,0,1,7.32,7.54,1.38,1.38,0,0,1,.06.75,37.32,37.32,0,0,1-8.16,8.15Z"/><path class="cls-2" d="M16.79,134.31l-8.4-8.41,8.4-8.42h.07a1.67,1.67,0,0,1,1.09.39,62.18,62.18,0,0,1,7.32,7.55,1.34,1.34,0,0,1,.06.74,37.32,37.32,0,0,1-8.16,8.15Z"/><path class="cls-2" d="M16.79,151.14l-8.4-8.41,8.4-8.42h.07a1.67,1.67,0,0,1,1.09.39,62.91,62.91,0,0,1,7.32,7.55,1.36,1.36,0,0,1,.06.75,37.5,37.5,0,0,1-8.16,8.14Z"/><path class="cls-2" d="M16.79,168l-8.4-8.41,8.4-8.42h.08a1.62,1.62,0,0,1,1.08.4,62.09,62.09,0,0,1,7.32,7.54,1.36,1.36,0,0,1,.06.75A37.77,37.77,0,0,1,17.17,168Z"/><path class="cls-6" d="M51,116.87c-2.15-2.14-4.26-4.32-6.45-6.42-1.05-1-1.05-1.77,0-2.78,2.19-2.09,4.3-4.27,6.45-6.41l7.92,7.8Z"/><path class="cls-2" d="M16.79,184.81l-8.4-8.42,8.4-8.42h.07a1.68,1.68,0,0,1,1.09.4,62.09,62.09,0,0,1,7.32,7.54,1.36,1.36,0,0,1,.06.75,37.77,37.77,0,0,1-8.16,8.15Z"/><path class="cls-2" d="M16.79,201.64l-8.4-8.42,8.4-8.41h.07a1.62,1.62,0,0,1,1.09.39,59.16,59.16,0,0,1,7.34,7.59,1.23,1.23,0,0,1,0,.76c-2.47,3-4.93,6.13-8.46,8.09Z"/><path class="cls-8" d="M41.52,209.49l.57.6-8.43,8.4-8.4-8.39L25.2,210a2,2,0,0,1,.56-1.22c2.45-2.43,4.63-5.14,7.47-7.16a1.31,1.31,0,0,1,.76,0C36.85,203.87,39.78,206.11,41.52,209.49Z"/><path class="cls-7" d="M33.66,201.64,25.2,210l-8.34-8.34,8.39-8.42a1.46,1.46,0,0,1,1.09.36,83.11,83.11,0,0,1,7,7A1.49,1.49,0,0,1,33.66,201.64Z"/><path d="M33.67,66.94l-8.45-8.37,8.46-8.38,8.42,8.38Z"/><path class="cls-8" d="M25.25,92.23l8.41-8.41,7.86,7.85a.73.73,0,0,1,0,1.12,1.72,1.72,0,0,1-.39,1.1,50.31,50.31,0,0,1-7,6.8,1.23,1.23,0,0,1-.76,0C30.3,98.22,27.16,95.81,25.25,92.23Z"/><path class="cls-8" d="M41.52,108.5c.64.9-.2,1.3-.66,1.76-2.38,2.42-4.79,4.82-7.19,7.22h-.38c-3.08-2.43-6.13-4.88-8-8.41h0a2.41,2.41,0,0,1,.73-1.57q3-3.13,6.11-6.11a2.41,2.41,0,0,1,1.57-.73h0a2.46,2.46,0,0,1,1.57.73q2.85,2.7,5.55,5.55A2.46,2.46,0,0,1,41.52,108.5Z"/><path class="cls-8" d="M33.67,117.48c2.41,2.41,4.79,4.86,7.25,7.22.92.89.93,1.5,0,2.39-2.46,2.36-4.84,4.81-7.25,7.22h-.38c-3.08-2.43-6.13-4.87-8-8.4h0a2.36,2.36,0,0,1,.73-1.57q3-3.14,6.11-6.12a2.41,2.41,0,0,1,1.57-.73Z"/><path class="cls-8" d="M33.67,134.31c2.41,2.41,4.79,4.86,7.25,7.22.93.89.93,1.5,0,2.39-2.46,2.36-4.84,4.81-7.25,7.22h-.38c-3.08-2.43-6.13-4.87-8-8.4a2.36,2.36,0,0,1,.73-1.57Q29,138,32.09,135a2.41,2.41,0,0,1,1.57-.73Z"/><path class="cls-8" d="M33.67,151.14c2.4,2.41,4.81,4.8,7.19,7.22.46.47,1.3.86.66,1.76a1.72,1.72,0,0,1-.39,1.1,50.31,50.31,0,0,1-7,6.8,1.31,1.31,0,0,1-.76,0c-3-2.51-6.17-4.91-8.08-8.49A2.39,2.39,0,0,1,26,158q3-3.13,6.11-6.11a2.37,2.37,0,0,1,1.57-.74Z"/><path class="cls-8" d="M41.52,175.83a.73.73,0,0,1,0,1.12,1.72,1.72,0,0,1-.39,1.1,50.31,50.31,0,0,1-7,6.8,1.23,1.23,0,0,1-.76,0c-3-2.5-6.17-4.91-8.08-8.49a2.41,2.41,0,0,1,.73-1.57q3-3.13,6.11-6.11a2.37,2.37,0,0,1,1.57-.74h0a2.42,2.42,0,0,1,1.57.74q2.85,2.7,5.55,5.55A2.46,2.46,0,0,1,41.52,175.83Z"/><path class="cls-8" d="M33.66,201.64l-8.41-8.42a2.41,2.41,0,0,1,.73-1.57q3-3.14,6.11-6.11a2.32,2.32,0,0,1,1.57-.73h0a2.41,2.41,0,0,1,1.57.73q2.85,2.7,5.55,5.55a2.46,2.46,0,0,1,.73,1.57.73.73,0,0,1,0,1.12,2.41,2.41,0,0,1-.73,1.57q-2.7,2.85-5.55,5.55a2.42,2.42,0,0,1-1.57.74Z"/><path class="cls-5" d="M41.52,108.5l-7.85-7.85,7.85-7.86c1.63,2.6,4,4.52,6.13,6.65.91.92.91,1.5,0,2.41C45.52,104,43.15,105.9,41.52,108.5Z"/><path class="cls-5" d="M33.67,201.64l7.85-7.86c1.63,2.6,4,4.52,6.13,6.65.91.92.91,1.5,0,2.41-2.12,2.14-4.5,4-6.13,6.65Z"/><path class="cls-5" d="M41.52,175.83,33.67,168q3.93-3.91,7.85-7.85c1.63,2.6,4,4.51,6.13,6.65.91.91.91,1.49,0,2.41C45.52,171.32,43.15,173.23,41.52,175.83Z"/><path class="cls-5" d="M41.52,192.66q-3.93-3.93-7.85-7.85L41.52,177c1.63,2.6,4,4.51,6.13,6.65.91.92.91,1.5,0,2.41C45.52,188.15,43.15,190.06,41.52,192.66Z"/><path class="cls-8" d="M33.66,83.82,25.28,75.4l8.33-8.35L42,75.4Z"/><path class="cls-7" d="M33.66,100.65q-4.21,4.2-8.41,8.41l-8.39-8.41,8.39-8.42Z"/><path class="cls-7" d="M33.66,117.48q-4.21,4.2-8.41,8.42-4.2-4.22-8.39-8.42l8.39-8.42Z"/><path class="cls-7" d="M33.66,134.31l-8.41,8.42-8.39-8.42,8.39-8.41Z"/><path class="cls-7" d="M33.66,151.14l-8.41,8.42-8.38-8.42q4.18-4.2,8.38-8.41Q29.45,146.93,33.66,151.14Z"/><path class="cls-7" d="M33.66,168l-8.41,8.42L16.86,168l8.39-8.41Z"/><path class="cls-7" d="M33.66,184.81l-8.41,8.41-8.39-8.41,8.39-8.42Z"/></svg>