<?xml version="1.0" encoding="utf-8"?>
<!-- Generator: Adobe Illustrator 25.0.0, SVG Export Plug-In . SVG Version: 6.00 Build 0)  -->
<svg version="1.1" id="Layer_1" xmlns="http://www.w3.org/2000/svg" xmlns:xlink="http://www.w3.org/1999/xlink" x="0px" y="0px"
	 viewBox="0 0 500 500" style="enable-background:new 0 0 500 500;" xml:space="preserve">
<style type="text/css">
	.st0{fill:#8B675E;}
	.st1{fill:#343333;}
	.st2{fill:#353434;}
	.st3{fill:#8A685E;}
	.st4{fill:#8B695E;}
	.st5{fill:#333333;}
	.st6{fill:#343332;}
	.st7{fill:#353331;}
	.st8{fill:#343433;}
	.st9{fill:#644C45;}
	.st10{fill:#654A40;}
	.st11{fill:#C09287;}
	.st12{fill:#644840;}
	.st13{fill:#624942;}
	.st14{fill:#353233;}
	.st15{fill:#634940;}
	.st16{fill:#634941;}
	.st17{fill:#343232;}
	.st18{fill:#8A675E;}
	.st19{fill:#BF9186;}
	.st20{fill:#BC9287;}
	.st21{fill:#9B503A;}
	.st22{fill:#644941;}
	.st23{fill:#EA9781;}
	.st24{fill:#353332;}
	.st25{fill:#9C4E36;}
	.st26{fill:#343233;}
	.st27{fill:#644940;}
	.st28{fill:#343434;}
	.st29{fill:#D57558;}
	.st30{fill:#BE9188;}
	.st31{fill:#BC9289;}
	.st32{fill:#DCDCDD;}
	.st33{fill:#9F4D35;}
	.st34{fill:#9E4F37;}
	.st35{fill:#E79780;}
	.st36{fill:#674A3F;}
	.st37{fill:#8C685D;}
	.st38{fill:#C39C83;}
	.st39{fill:#B7B8BB;}
	.st40{fill:#363332;}
	.st41{fill:#323333;}
	.st42{fill:#E7B99B;}
	.st43{fill:#DBDCDE;}
	.st44{fill:#FDFDFD;}
	.st45{fill:#FAD8C5;}
	.st46{fill:#C39B84;}
	.st47{fill:#353433;}
	.st48{fill:#DBDDDF;}
	.st49{fill:#343231;}
	.st50{fill:#333331;}
	.st51{fill:#B6B8BC;}
	.st52{fill:#DCDCDB;}
	.st53{fill:#DBDDDD;}
	.st54{fill:#FAD9C6;}
	.st55{fill:#353432;}
	.st56{fill:#393633;}
	.st57{fill:#F9D8C4;}
	.st58{fill:#E7B99C;}
	.st59{fill:#353533;}
	.st60{fill:#F9D9C7;}
	.st61{fill:#373532;}
	.st62{fill:#FCFBF9;}
	.st63{fill:#FCFCFA;}
	.st64{fill:#C39B83;}
	.st65{fill:#E6B99C;}
	.st66{fill:none;}
	.st67{fill:#C29C84;}
	.st68{fill:#353535;}
	.st69{fill:#89665D;}
	.st70{fill:#D87458;}
	.st71{fill:#EB9782;}
	.st72{fill:#FAD8C6;}
	.st73{fill:#9D4E36;}
	.st74{fill:#F9DAC7;}
</style>
<path class="st0" d="M121.8,51.3c0.7-5.5-1.6-11.3,1.3-16.7c2.3,2.6,1.8,5.8,1.7,8.8c-0.2,4.7,1.7,6.6,6.5,6.5c4.6,0,6.2-2,6.1-6.3
	c-0.1-3.2-0.6-6.6,1.7-9.5l-0.1,0.1c5.5-3,11.2-2.2,17-0.8c3.3,2.9,2.2,6.9,2.2,10.4c0,4.7,2.2,5.9,6.5,6c4.6,0.1,6.4-1.8,6.1-6.3
	c-0.2-2.9-0.2-5.8,0-8.7c0.7-5.9,0.8-11.8,0.5-17.8c2.7-2.8,0.9-6.2,1.4-9.3c0.4-2.3-0.9-4.9,0.9-7c2.6,2.4,2,5.7,2.1,8.7
	c0.1,3.5,1.7,5.3,5.3,5.3c2.3,0,4.5,0.1,6.8,0.1c43,0,85.9,0,128.9,0c3.6,0,7.5-0.6,10.7,1.9l10.8,0.2c-2.8,4.8-7.5,2.1-11.3,2.8
	c-24.7,0.3-49.5,0-74.2,0.1c-8.4,0-8.5,0-9.1,8.4c-0.3,5-2.4,7.6-7.6,7.6H230c-4.8,0-7.4-2.3-7.2-7.2c0.2-8.8-1-8.9-9.9-8.8
	c-4.3,0-8.7,0.1-13,0c-4.5-0.1-6.9,1.4-6.8,6.4c0,4.7,2.4,6,6.6,5.9c5.8-0.1,11.5-0.2,17.3,0c7.1,0.2,8.9,2.1,9.5,9.3
	c0.6,7.6,0.6,7.6,8.3,7.9c7.3,0.3,8.8,1.4,8.9,8c0.1,9.6,1.2,9.3,9.5,9.3c1.7-0.1,3.3,0.2,4.9,0.7c0.7,0.3,1.3,0.7,1.7,1.3
	c2.2,4.9,0.8,10.1,1,15.2c5.4,1,11.1-1.5,16.2,1.9c0.8,1.2,1.2,2.6,1.2,4.1c1.3,11.8-0.4,13.7-12.3,13.7c-6,0-11.9,0.1-17.9,0
	c-6.3-0.2-7.5-1.4-8-7.6c-0.7-8.2-0.7-8.2-8.7-8.2c-11.1-0.1-22.2,0-33.4,0c-9.8-0.1-10.5-0.9-9.8-10.8c0.4-5.9,1.7-11.8,0.7-17.8
	c-0.7-4.2-2.8-6-7.1-6c-4.1,0-6.1,1.5-6,5.8c0,7.4,0,14.8,0,22.2c0,2.4,0.3,5.1-2.9,6c-5.4,1-10.8,0.5-16.2,0.4
	c-8.6,0.2-17.3,0.2-25.9,0.1c-5-0.1-7.1,2-6.9,7c0.2,5.9,0.1,11.9,0,17.9c0,2.3,0,4.6-1.3,6.6c-2.7,2.5-6.2,1.9-9.4,1.9
	c-4,0-5.5,1.8-5.4,5.6c0.2,3.5,0,7-0.6,10.4c-1.5,11-0.3,22.1-0.7,33.1c-0.1,2.7,0,5.3,0,8c0,11.6-2.2,13.5-13.8,12.1
	c-1.4-0.1-2.8-0.6-4-1.3c-2.2-2.6-1.8-5.8-1.9-8.8c-0.1-14.9-0.1-29.9,0-44.8c0-5.3-0.5-10.6-0.5-15.9c2.4-2.2,1.1-5,1.3-7.5
	c0.7-8.7-1.1-17.5,1-26.2c2.4,2.3,2,5.3,2,8.1c0.1,6.2,0,12.4,0.1,18.5c0.1,4.3,2.7,5,6.2,5s6.1-0.6,6.1-5c0-6.6,0-13.2,0-19.8
	c0-3.3-1.6-4.8-4.9-4.9s-6.7,0.6-9.4-2.1c3.7-1.9,7.6-0.8,11.3-0.8s5-0.9,4.9-4.8c-0.3-8.4-0.1-16.8-0.1-25.1c0-1.3-0.8-3,1.2-3.6
	c2,2.2,1.8,4.9,1.9,7.5c0.1,5.9-0.1,11.9,0.1,17.8c0.2,5.3,1.5,6,7.5,6.2c4.7,0.1,4.7-2.8,4.7-6c0-6.1,0-12.3,0-18.4
	C120.1,56.3,120,53.6,121.8,51.3z"/>
<path class="st1" d="M429.7,120.9c0.1,36,0.1,72,0.2,108c0,41.8,0,83.5,0,125.2c0,2.4,1.5,6.5-3.8,5.4c-3.2-0.9-6.5-0.5-9.6-0.4
	c-4,0.2-5.5-1.7-5.7-5.3c-0.2-3.8-0.2-7.7,0-11.5c-0.2-5.9-0.2-11.8,0-17.7c-0.3-45.2-0.3-90.3,0-135.5c-0.3-19.9-0.1-39.8-0.1-59.8
	c-0.1-1.9,0.2-3.7,0.7-5.5c0.8-2,2-3.6,4.4-3.5C420.4,120.6,425.1,119.7,429.7,120.9z"/>
<path class="st1" d="M86,119.9c2.9,1.7,2.3,4.5,2.3,7.1c0,20.7,0,41.3,0.1,62c2,2.2,1.9,4.9,1.9,7.6c-0.3,36.8,0.3,73.7-0.3,110.5
	c-0.1,6,0.9,11.9-0.3,17.9c-1.2,3.7-0.6,7.6-0.8,11.4c-0.1,2.4,0.3,4.9-2.1,6.5c-4.9,0.2-10.9,1.9-14.5-0.5c-4.2-2.6-1.6-9-1.7-13.8
	c-0.2-40.7-0.1-81.4-0.1-122c0-26.7,0-53.5,0-80.2c0-2.2-0.8-4.5,0.8-6.6L86,119.9z"/>
<path class="st2" d="M327.5,17c-48.6,0-97.2,0-145.8,0.3c-6.1,0-8.8-1.2-7.8-7.7c0.4-2.8-0.1-5.8-0.1-8.6c1.8-1.5,4-0.8,5.9-0.8
	c47.3,0,94.8,0.1,142.1-0.1c4.8,0,6.1,1.5,5.7,5.9C327.3,9.6,327.3,13.3,327.5,17z"/>
<path class="st3" d="M412.5,375.8c-3.7,2.5-7.8,1.1-11.7,1.1s-4.9,1.3-4.7,5c0.2,7.8,0.1,15.5,0,23.3c0,1.7,0.9,3.7-0.9,5.1
	c-2.8-3.4-1.6-7.4-1.8-11.2c-0.2-4.3,0-8.6-0.1-12.9c-0.1-6.6-1.5-7.8-8.1-7.3c-2.4,0.2-4.2,1.4-6.3,2.2c-7.4-3.4-15.3-1.8-23-2.2
	c-3.8-0.2-7.8,0.9-11.3-1.5c0.2-4.2,3.7-3.2,5.9-3.2c8.7,0,9.8-0.2,9.5-9.1c-0.1-4.9,2.4-7.2,7.1-7.1c9.4,0.3,8.9-1.7,8.9-9.1
	c0-2.2,0-4.5,1.5-6.5c5.3-3.1,10.9-1.9,16.5-1.2c0.7,0.3,1.3,0.7,1.7,1.3c1.6,5.3,1.7,10.7,1.5,16.2c-0.2,4.9-2.2,10,1.4,14.6
	C403.1,375.1,408.4,372.3,412.5,375.8z"/>
<path class="st4" d="M429.7,120.9c-3.9,0-7.7,0-11.5-0.2c-2.5-0.1-4.4,0.4-5.5,2.8c-9.2-0.7-18.4-1.6-27.6-2
	c-2.2-0.1-4.5-0.1-6.4-1.7c-1.8-9.8-2.6-19.8-2.4-29.7c0.1-3.7,2.6-5.2,6.1-5.5c3.2-0.3,6.6,0.9,9.4-1.5c3-6.7,0.8-13.7,1.5-20.6
	c0.4-3.6-0.8-7.4,1.9-10.6c2.3,8.3,0.6,16.8,1,25.2c0.4,9.3-1,7.8,8.2,8.2c2.7,0.1,5.6-1.2,8,1c-3,2.6-6.6,1.7-10,1.9
	s-5.2,1.8-5.3,5.3c-0.1,6.3,0,12.7,0,19c0,4,2.1,5.3,5.8,5.4c3.4,0.1,7-0.5,10,1.8C418.5,120.3,424.3,118.2,429.7,120.9z"/>
<path class="st2" d="M171.4,17.3c3.9,5.5,1.2,11.4,1.2,17.1c-5,2.8-11.1,2.8-16.2,0.1L139,34.3c0.7-5.6-2.5-13.2,1.5-16.3
	c3.4-2.7,10.6-0.7,16.1-0.8C161.6,17.2,166.5,17.3,171.4,17.3z"/>
<path class="st5" d="M413,119.7c-17.6,0.2-17.6,0.2-17.6-17.6c0-15.5,0-15.5,15.2-15.7c0.6,0,1.2-0.1,1.8-0.1L413,119.7z"/>
<path class="st6" d="M327.3,18.3c3.6-0.7,7.5,0.8,11-1h16.2c6.7,0.8,6.7,0.8,6.7,8.1c0,10.9,0,11.1-10.8,10.8
	c-7.4-0.2-14.8,0.6-22.1-0.9C323.6,30,324.5,24.2,327.3,18.3z"/>
<path class="st7" d="M121.8,51.3c0,9.8,0,19.7,0.2,29.5c0.1,3.7-1,4.8-4.9,4.6c-11.4-0.7-11.4-0.4-11.4-12.1
	c0-7.2,0.1-14.3,0.1-21.5L121.8,51.3z"/>
<path class="st1" d="M395.2,51.9c0,9.1,0,18.3-0.2,27.5c0,2,0.7,4.1-1,5.8c-0.8,0.1,0.3,0.1-0.6,0.2c-16.5,1.6-16.9,1.3-16.2-16.2
	c0.4-5.9-1.7-12.1,1.8-17.7L395.2,51.9z"/>
<path class="st8" d="M378.9,380.8c0-4.4,3.2-3.9,6-3.8c11.9,0.2,10-1.5,10.1,10c0.1,7.8,0.1,15.5,0.2,23.3
	c-4.9,0.9-9.8,0.4-14.7,0.2c-3.3-0.3-2.9-3-3.1-5c-0.3-4.1-0.3-8.1-0.1-12.2C377.5,389.1,376.3,384.6,378.9,380.8z"/>
<path class="st9" d="M379,393c1,5.8-1.5,11.9,1.5,17.6c-3.3,4.9-0.9,10.3-1.4,15.4c-0.2,2.1,1.8,1.7,3.2,1.8
	c4.3,0.1,8.6,0.2,12.9,0.2c0,0.3-0.1,0.7-0.2,1c-5,3.3-10.7,1-15.9,2.2c-5.6-0.9-11.6,0.7-17-1.7c-0.5-0.5-0.6-1.3-0.3-1.9
	c2.9-2.2,6.3-1.5,9.5-1.6c4.3,0,5-2.5,5-6s-0.3-6.6-5.1-6.6c-3,0-6.2,0.3-9.1-0.7c-1-0.4-1.8-1.3-2-2.3c0.4-5.4-1.2-11,1.7-16.2
	C367.3,391.4,373.2,392.4,379,393z"/>
<path class="st0" d="M328.4,34.5c9.2,0,18.4-0.1,27.6,0c3.4,0.1,5-1,4.7-4.5c-0.2-1.4-0.2-2.9,0-4.3c1.1-5.2-1-7.9-6.2-8.4
	c5.9-1.6,8,0.6,7.5,6.7c-0.2,3.5-1.5,7.3,1.1,10.6c1,5,0.9,10.3-0.5,15.2c-5.3,6.1-11.6,4-18,2.3c-2.5-2.7-1.9-6.1-1.9-9.2
	c0-3.8-1.6-5.3-5.5-5.5C334.2,37.2,330.2,38.9,328.4,34.5z"/>
<path class="st10" d="M396.5,375.7c-2-1.5-1.2-3.7-1.2-5.7c-0.1-9.2,0-18.5,0-27.7c0.5-0.6,1.1-1,1.9-1.3c5.2-0.5,10.5-1.8,15.4,1.2
	c0.1,4.9-1.2,10.5,0.7,14.5c2.2,4.5,8.8-0.2,12.9,2.7c-4.4,1.2-9.2-1.2-13.5,1.4c-2.3,1.2-4.8,0.5-7.2,0.6c-6.5,0.1-6.9,0.4-7.2,6.8
	C398.1,370.8,398.5,373.5,396.5,375.7z"/>
<path class="st0" d="M379.2,51.5L379,68.9c-4.6,3.3-9.7,2.2-14.6,1.2c-2.4-0.5-3.7-2.5-4-4.9c-0.5-4.4-1.2-8.9,0.8-13.1
	c2.5-3,6-2.2,9.1-2.2c4.1,0,5.9-1.6,5.9-5.8c0-3.2-0.8-6.6,1.7-9.3C380.6,40.2,378.5,46,379.2,51.5z"/>
<path class="st7" d="M139.1,34.2c0,2.5,0,4.9,0,7.4c0,10-3.6,12.6-13.7,10.1c-2.6-0.6-2.5-2.3-2.5-4.1c0-4.3,0.1-8.6,0.2-12.9
	L139.1,34.2z"/>
<path class="st1" d="M377.9,34.8c0,0.4,0,0.8,0,1.2c0.3,16.2,0.3,16.2-16,15.6c-0.7-0.6-0.7-1.7-0.1-2.4c0.6-4.8-1.4-9.9,1.4-14.6
	L377.9,34.8z"/>
<path class="st5" d="M396.5,375.7c0-1.2,0-2.4,0-3.7c0-13.3,3-15.4,16.1-11.2c0,5,0,10,0,15L396.5,375.7z"/>
<path class="st11" d="M328.4,34.5c2.1,1.9,4.7,1,7,1c10.3,0.2,8.9-1,9,9.3c0,2.2,0,4.5-0.1,6.8c-0.2,0.3-0.5,0.5-0.7,0.8
	c-3.1,1.6-6.5,1.2-9.7,1.1c-3.8-0.2-5.4,1.3-5.1,5c0.1,0.8,0,1.6,0,2.5c-0.1,8.9-1.2,10-9.9,9.9s-10.4-1.6-10.9-10.3
	c-0.4-6.3-1.1-7-7.3-7c-3.8,0-6.5,0.8-6.3,5.4c0.1,4.1-0.1,8,5.7,8.2c3.7,0.2,8.8-1.3,10.5,3.2c2,5.3,2.3,11.2-1,16.6
	c-11,2-22.1,2.9-33.1-0.5c-0.2,0-0.4,0-0.6,0c-5.6-0.5-13.2,2.5-16.4-1.3c-2.7-3.2-0.4-10.6-0.4-16.1c3-2.5,6.7-1.7,10.1-1.8
	c5.5-0.1,5.3-3.9,5.5-7.7c0.1-4.1-1.3-6-5.7-6.1c-7.1-0.1-7.9,0.5-8.1,7.4c-0.1,2.8,0.4,5.8-1.7,8.3c-4.3,0-8.6-0.2-13,0
	c-3.1,0.1-4.4-1-4.4-4.2c-0.1-4.1,1.8-9.1-0.9-11.9s-7.8-1-11.8-1c-3.6,0-4.5-1.4-4.6-4.8c-0.4-12.5-0.5-12.5-13-12.5
	c-5.3,0-10.7-0.1-16,0c-3.1,0.1-4.2-1-4.4-4.3c-0.7-12-0.8-12,10.9-12c6,0,11.9,0.2,17.9-0.1c3.9-0.2,4.8,1.4,4.9,5.1
	c0.2,11.4,0.3,11.2,11.5,11.2c4.1,0,5.8-1,5.8-5.5c-0.1-10.7,0.1-10.8,10.6-10.8h74.7C328,23.7,326.2,29.2,328.4,34.5z"/>
<path class="st12" d="M276.5,86.4l33.2-0.2l0.8,0.7c2.2,4.4,0.6,9.2,1.1,13.8c5.4,1,11.1-2,15.9,2.2c-2.1,3.5-5.6,2.5-8.7,2.7
	c-3,0.2-6.1,0.1-9.1-0.1c-45.2,0-90.3,0.7-135.4-0.3c-2.9,0.2-5.7,0.3-8.6,0.3c-6.8,0.1-6.8,0.3-7.3,6.9c-0.2,2.7,0.7,5.9-2.6,7.6
	c-3-2.2-2.1-5.6-2.1-8.5c0-4.4-1.7-6.2-6.2-6.2c-4.7,0-6.8,1.7-6.5,6.4c0.3,2.4,0,4.9-0.8,7.2c-0.3,0.6-0.8,1.2-1.4,1.5
	c-5,1.6-10,1.2-15.1,0.4c-0.7-0.2-1.3-0.7-1.8-1.3c0-9.2,0.2-18.5,0-27.7c-0.1-4.3,1.6-5.8,5.8-5.7c9.6,0.2,19.3,0.1,28.9,0.1
	c2.4,2.8,1.7,6.3,1.8,9.5c0.1,4.4,2.9,4.7,6.3,4.7s6.1-0.4,6.2-4.8c0-3.2-0.6-6.7,1.8-9.5c1.7-0.2,1.5-1.2,1.4-2.6
	c-0.2-9,0-18.1-0.3-27.2c-0.1-3.8,1.3-4.9,5-5c11.4-0.2,12.4,0.4,12.3,12.1c0,6.1-0.4,12.3-1.2,18.4c-0.5,3.9,0.9,4.3,4.2,4.3
	c13.8-0.2,27.6,0.2,41.4-0.2c5.1-0.1,7.2,1.4,6.5,6.6c-0.2,1.4,0.1,2.9,0,4.3c-0.4,3.9,0.9,5.6,5.1,5.4c8-0.3,16.1-0.3,24.1,0
	c4.4,0.2,5.9-1.4,5.5-5.7C276.3,93.4,276.5,89.9,276.5,86.4z"/>
<path class="st13" d="M105.7,326.4c-0.3-0.1-0.7-0.1-1-0.1c-5.4,0.7-10.8,1.5-16-0.7c-0.1-0.2-0.1-0.5-0.2-0.7
	c0-45.3,0-90.5,0-135.8c16.1-0.1,16.1-0.1,16.1-16c0-9.9,0-19.8,0-29.6c0-2.2-0.7-4.6,1.1-6.5c0.6,0.5,1.1,1.2,1.4,2
	c0.9,2.8,0.7,5.7,0.7,8.6c0.1,56.1,0.1,112.2,0,168.3C107.8,319.4,108.6,323.3,105.7,326.4z"/>
<path class="st14" d="M88.4,86.2c1,0.1,2,0.2,3.1,0.3c13.2,0.3,13.2,0.3,13.2,13.8c0,5.1-0.1,10.3,0,15.4c0.1,3.2-1.2,4.2-4.3,4.3
	c-11.8,0.6-11.8,0.7-11.8-10.9c0-7.6-0.2-15.2-0.2-22.8L88.4,86.2z"/>
<path class="st15" d="M105.8,138.3l-0.1-1.4c0-4.3,0.2-8.6,0-13c-0.1-3.2,1.2-4.4,4.4-4.3c3.9,0.2,7.8,0,11.7,0h1.3
	c1,5.8,0.4,11.6,0.4,17.4c-0.5,1-1.3,1.8-2.4,2.2C116,140.2,110.8,141.3,105.8,138.3z"/>
<path class="st16" d="M156.4,34.5l16.2-0.1c0,2.2,0,4.5,0,6.7c0,10.9-2.4,12.7-13.2,10.6c-2.4-0.5-2.9-1.8-2.9-3.8
	C156.5,43.4,156.5,39,156.4,34.5z"/>
<path class="st17" d="M172.6,86.3c0,1.8,0,3.7,0,5.5c0,10.9-2.3,12.6-13.2,10.6c-2.5-0.5-2.9-1.8-2.9-3.8c0-4.1,0-8.1,0-12.2
	L172.6,86.3z"/>
<path class="st18" d="M396.5,342.3h-1.3l0,0c-3.3-4.9-2.4-10.5-1.6-15.6c1.4-9.3,0.4-18.5,0.3-27.7c-0.1-19.5,1.6-39-0.4-58.4
	c-0.3-3.1,0.7-6.1,0.9-9.2c0.2-6-0.6-6.9-6.4-7.2c-1.6-0.1-3.3-0.1-4.9-0.2c-3.7-0.3-5.5-2.3-5.6-6c0-1.6-0.1-3.3-0.1-4.9
	c0-8.6,1-9.6,9.4-9.9c6.9-0.3,6.6-0.3,6.7-7.5c0.1-7.9-1.6-16,1.3-23.8c2.9-0.8,2.8,1.6,3.1,3.1c0.4,2.2,0.6,4.4,0.4,6.7
	c-0.1,3.9,1.6,5.5,5.5,5.5c3,0,6.1-0.4,8.7,1.8V325c-2.8,2.4-6.2,1.7-9.4,1.8s-4.7,1.6-4.8,4.9C398.1,335.3,399.1,339.1,396.5,342.3
	z"/>
<path class="st19" d="M412.5,189c-4.9-0.1-10.9,1.5-14.4-0.8c-4-2.6-1.1-9.1-1.6-13.8c0-1-0.4-2-1.3-2.6c-4.4,2.8-9.1,1.8-13.7,1.2
	c-1.5-0.1-2.8-1.1-3.2-2.6c-1.4-4.8-1.4-9.8,0-14.6c1.1-3.6,4.9-3.1,7.9-3.4c6.6-0.5,7.2-1.3,7.3-7.8c0.1-3.8-1.2-5.5-5.2-5.8
	c-11.3-0.9-14.6-8.2-8.9-19c9.8-1,19.5,1.7,29.4,1c2-0.1,3.7,0.3,4.1,2.7C412.7,145.4,412.6,167.2,412.5,189z"/>
<path class="st20" d="M396.5,342.3c0-4.3,0.1-8.6-0.1-13c-0.1-3.2,1.1-4.4,4.3-4.3c3.9,0.2,7.8,0,11.7,0c0,5.7,0,11.5,0,17.2
	L396.5,342.3z"/>
<path class="st21" d="M377.8,479.8l-13.3-0.4c4.8-1.2,9.5-1.5,14.2,0.2C378.5,479.6,378.1,479.6,377.8,479.8z"/>
<path class="st16" d="M379.3,119.9c-0.2,1-0.3,2-0.3,3.1c0.1,4.3-1.3,9.5,0.7,12.7c2.3,3.8,7.9,1.1,12.1,1.5
	c2.5,0.2,3.9,0.4,3.9,3.8c-0.1,12.5,0.1,12.6-12.6,13.3c-2.8,0.2-3.9,1-4.1,3.9c-1,13.3-1.1,13.3,11.8,13.4c1.4,0,2.9,0.1,4.3,0.2
	c0.5,9.8-0.9,19.7,1,29.5c0.5,2.7-0.6,3.9-3.3,3.8c-0.8,0-1.6,0-2.5,0c-11.5,0.1-11.2,0.1-11.4,11.5c0,4.6,1.3,6,5.9,6
	c13-0.1,13.6,0.8,10.7,13.6c-1,4.3,1.1,8.2,0.6,12.1c-1.6,12.4,0.8,24.8-0.5,37.3c-0.9,9.1-0.1,18.6,0.4,28
	c0.5,9.6-1.4,19.2-0.9,28.9l-17.2,0.1l-0.9-0.8c-1.8-3.5-1.2-7.2-1.2-10.9c0-59.9,0-119.9,0-179.8c0-1.9-0.1-3.7,0-5.6
	c0.1-3.6-1.4-5.3-5.1-5.2c-2.7,0.3-5.4,0-7.9-0.8c-0.7-0.3-1.3-0.7-1.7-1.3c-1.6-3.2-0.8-6.7-1.1-10.1c-0.2-2.1,0.4-4.7-2.8-5.2
	c-4.2-0.4-8.6,0.9-12.5-1.4c-0.5-0.6-0.6-1.4-0.1-2c4.9-2.6,10.1-1.1,15.1-1.4h2c2.5-0.1,4.9,0,7.4,0c6.5-0.1,9-3.9,6.8-10
	c-0.8-2.2-2.5-2.4-4.4-2.6c-2.9-0.2-5.7,0.1-8.6-0.3c-0.7-0.1-1.3-0.4-1.9-0.7l-0.8-0.7c-0.3-0.6-0.4-1.2-0.4-1.9
	c0.9-13.1,0.9-13.1-11.8-14c-1.2-0.1-2.4-0.3-3.6-0.4c-6,1.1-12.1,0-18.1,0.4c-5,0-10,1.1-14.9-0.9c-2.2-8.1,1.1-14.4,9-15.2
	c6.2-0.7,7.8-3,7.5-8.9c-0.5-8.6-0.1-8.6,8.3-9.3c2.8-0.4,5.6-1,8.3-1.9l-0.1-0.1c3.9,0,7.7-0.1,11.6,0.2c2.2,0.3,4.5-0.7,5.7-2.6
	c0,0.8,0.1,1.6,0.1,2.4v0.6c-0.1,17.2-0.1,17.2,17.2,16.7c0,0.4,0.1,0.8,0.1,1.2c0.4,14.7,0.4,14.7,14.9,15.1c-3.6,2.3-7.5,1-11.3,1
	s-5,1.4-4.8,5.1C378.5,100.8,378.9,110.3,379.3,119.9z"/>
<path class="st22" d="M378.1,342.5c0,4.1-0.3,8.2-0.1,12.3c0.2,3.9-1.4,4.8-5.1,4.9c-10.8,0.2-11,0.3-11,10.9c0,4.1-1.5,5.2-5.4,5.3
	s-8.1-1.5-11.8,1.2c2.7,5,2,10.1,0.6,15.2c-3,3.3-7.1,2.7-10.8,2.9s-4.4,1.5-4.5,4.8c-0.1,3.6,1.6,7.8-2.4,10.5
	c-3-2.2-2.3-5.5-2.3-8.5c0-4.1-1.7-5.9-5.9-5.9c-6.4,0.1-12.7,0.2-19.1-0.1c-2.5-0.1-5.5,0.5-6.8-2.8c2.1-2.2,4.8-2,7.5-2
	c6.2-0.1,12.3-0.1,18.5,0c4.3,0,5.7-2.1,5.7-6.2s-1-6.3-5.5-6.2c-6.2,0.1-12.3,0.1-18.5,0c-3.8,0-5.7,1.5-5.7,5.5
	c0,2.8,0.4,5.8-1.5,8.4c-0.3,0.6-1.1,0.9-1.7,0.6c0,0,0,0-0.1,0c-2.1-2.4-1.7-5.5-1.6-8.3c0.2-4.4-1.5-6.5-6.1-6.2
	c-2.7,0.2-5.3,0.2-8,0c-5.7,0-11.3,0-17,0.1c-1.1,0-2.1-0.8-2.2-1.9c0.1-1.1,0.9-2,1.9-2.3c7.5-1.3,15.1-0.5,22.7-0.6
	c8.9-0.2,10.8-2.3,9.3-11.1c-0.3-1.2-0.6-2.4-0.8-3.6c0.1-3.8,0-7.7,0.3-11.5c0.1-2.2-0.4-5.1,3-5.7c2.5,2.8,1.8,6.2,1.7,9.4
	c-0.1,4.4,1.5,6.4,6,6.3c5.7-0.2,11.5-0.2,17.2,0c4.8,0.1,6.7-2,6.5-6.7c-0.1-3.1-0.1-6.1,0-9.2c-0.2-4.1-0.1-8.2,0-12.3
	s2.4-6.3,6.5-6.5s8.2-0.1,12.2-0.5c3.9,0.1,7.8,0.4,11.7,0.5c5,0.1,7.3,2.8,7.7,7.7c0.7,8.5,0.8,8.5,9.7,9.6
	c1.7,0.1,3.2,0.7,4.5,1.7L378.1,342.5z"/>
<path class="st19" d="M344.4,393.1l0.3-16c9.5-0.1,18.9,0,28.3-0.3c3.2-0.1,4.9,1.1,5.9,3.9c0,4.1,0,8.1,0.1,12.2
	c-5.5,2.4-11.4,0.5-17.1,1.2l-1,0.2c-5.3,0.3-10.6,1-15.9-0.6L344.4,393.1z"/>
<path class="st23" d="M293.8,393.2c8.4,2.2,16.9,0.6,25.3,0.9c9.2,0.3,7.9-1,8.2,8.2c0.1,2.7-1.3,5.7,1.1,8.1c2.2-1.9,4.9-1.9,7.5-2
	c6.1,0,12.2-0.1,18.3,0.1c2.2,0.1,4.5,0.1,6.1,2.1l1.2,1c3.2,5.3,3,10.6,0.3,16c-0.1,0.4-0.1,0.8,0,1.2c2.8,5,2.8,11.1,0,16.2h-16.1
	c-2.5-3.5-1.1-7.5-1.1-11.2c0-4.5-1.5-6.2-6.1-6.1c-10,0.2-20,0.1-30,0.2c-3.7,2.4-8.5,2.4-12.2,0c-2.1-0.3-3.7,0.1-3.8,2.7
	c0,1.2,0,2.5,0,3.7c-0.3,12,2.6,10.5-11.4,10.8c-4,0.1-4.9-1.7-4.7-5.2c0.2-4.1,0-8.2,0-12.3c-2.9-4.3-2-9-1.3-13.6
	c0.5-3.3,3.3-3.8,6-4.1c9.3-1.1,9.3-1.1,9.5-10.3c0-1.6,0.2-3.3,0.7-4.8c0.3-0.7,0.9-1.2,1.5-1.5c0.2,0,0.5-0.1,0.7-0.1L293.8,393.2
	z"/>
<path class="st24" d="M360.4,410.6l-31.9-0.2c0-0.6,0-1.2,0-1.9c0-15.5,0-15.5,15.9-15.4l0.1,0.1c5.7,1.4,11.7-0.4,17.4,1l0,0
	C361,399.6,363.4,405.4,360.4,410.6z"/>
<path class="st25" d="M361.9,445.1v-16.2c5.7,0.6,11.6-1.3,17.2,1.4c-0.1,5-0.2,10-0.2,15C373.1,447.8,367.4,448,361.9,445.1
	L361.9,445.1z"/>
<path class="st26" d="M361.9,427.7c-0.1-5.3-0.2-10.7-0.3-16c2,0,4.1,0,6.1,0c9.8,0,12.8,4.2,10.1,13.7c-0.6,2.2-2,2.3-3.7,2.3
	C370,427.7,366,427.7,361.9,427.7z"/>
<path class="st17" d="M105.8,138.3h16c2.7,2.7,1.8,6.2,1.8,9.4c0.6,48,0.1,96,0.3,144c0,2.1,0,4.1,0,6.2c0.1,8.5,0.2,8.6,8.5,9.2
	c7.2,0.5,8.6,1.8,8.7,9c0.1,2.9,0.2,5.8-1.1,8.5c-2.6,3.2-6.4,2.4-9.7,2.4c-4.7,0-6.7,1.9-6.6,6.6c0,3.2,0.7,6.6-1.9,9.4
	c-5.4,2.1-10.7,2.5-16-0.5l-0.1-16c0-40.9,0.1-81.8,0.1-122.8C105.8,181.9,105.8,160.1,105.8,138.3z"/>
<path class="st27" d="M121.9,342.4c0-4.1,0.1-8.2,0-12.3c-0.1-3.7,1.6-5.2,5.2-5.1c4.1,0.1,8.2,0,12.3,0c4.7-3.1,9.8-2,14.7-1.4
	c2.9,0.4,3.9,2.7,4.1,5.3c0.4,4,0.4,8.1,0.1,12.2c-0.2,16-0.2,16,15.3,16.5c0.8,0,1.6,0.1,2.4,0.1c11.9,0.5,12.7,0.2,12.1-10.6
	c-0.1-1.8,0.1-3.7,1.8-5c2.9,0.8,2.7,3.4,2.8,5.5c0.2,3.9,0.2,7.8,0.3,11.6c-1,3.7-1.6,7.4-0.9,11.3c0.7,2.8-0.5,5.8-3,7.3
	c-8.1,2-16.3,0.8-24.5,0.9c-4.7,0.1-6.7,1.7-6.5,6.5c0.1,4.1,1.8,5.9,5.9,5.9c5.9-0.1,11.9-0.1,17.8,0c2.6,0,5.4-0.3,7.6,1.7
	c-0.3,3.7-3.4,2.9-5.5,3.1c-5.8,0.4-11.5,0.1-17.3,0.1c-8.1,0.1-8,0.2-8.6,8.2c-0.2,2.8,1.4,7.1-3.9,7.4c-2-3.2-0.7-6.8-0.7-10.2
	c0-4-1.4-6-5.6-6.3c-2.8-0.2-5.8-0.2-8.4-1.6c-0.2-0.2-0.4-0.5-0.6-0.7c0-9.5-0.1-18.9,0.1-28.4c0.1-3.7-1.1-5-4.9-5.1
	c-11-0.2-11-0.4-11.3-11.4c0-1.6,0.3-3.3-1-4.7c-0.4-0.2-0.5-0.4-0.4-0.7S121.8,342.4,121.9,342.4z"/>
<path class="st5" d="M139.1,427.7l-16.1,0.3c-4.3-0.1-8.6-0.4-12.9-0.3c-3,0-4.6-0.6-4.5-4c0.1-14.1,0.1-28.3,0-42.4
	c0-3.1,1-4.2,4.2-4.4c11.9-0.7,11.9-0.8,12.1,14.9c1.7,4,1.9,8.2,1.8,12.5c-0.2,3.9,1.6,5.4,5.5,5.5c3.6,0,7.4-0.8,10.5,1.8
	C141.6,417,142.3,422.4,139.1,427.7z"/>
<path class="st28" d="M104.6,342.4c0,9-0.2,18.1,0.2,27.1c0.2,4.6-0.9,6.6-6.1,6.4c-12-0.5-9.9,1.2-10.1-10.2
	c-0.1-7.8-0.1-15.6-0.1-23.5C93.9,339.6,99.2,339.5,104.6,342.4z"/>
<path class="st29" d="M120.6,462.3l-13.5-0.1c-2.9-10.3-0.8-20.7-1.2-31.1c-0.1-2.2,2.1-2.2,3.7-2.2c4.1,0,8.2,0,12.3,0
	c0,8.8,0,17.5,0,26.2C121.9,457.6,122.2,460.1,120.6,462.3z"/>
<path class="st12" d="M139.2,411.6c-5.4-0.3-12.4,2.3-15.9-1c-3.9-3.6-0.8-10.8-1.3-16.4c0-0.8,0-1.6,0.1-2.4
	c5.4,5.2,11.4,1.6,17.1,1.2l0.2,0.2c2,2.4,1.7,5.4,1.5,8.1c-0.3,3.5,1,6.9,3.5,9.2C143.2,413.5,141.2,412.8,139.2,411.6z"/>
<path class="st30" d="M121.9,342.4c0,0.4,0.1,0.8,0.1,1.1c0,3.1-0.5,6.2-0.1,9.2c0.7,5.7-1.5,7.4-7.1,7.1c-9.9-0.6-9,1.2-9.1-9.5
	c0-2.7,0-5.3,0-8L121.9,342.4z"/>
<path class="st31" d="M104.6,342.4l-16.1-0.1l0.2-16.7c5.4-0.2,10.8-1.4,16,0.7L104.6,342.4z"/>
<path class="st5" d="M258,377l1,1.3c2.7,2.4,1.8,5.7,1.8,8.7c0,3.4,1.2,4.6,4.7,4.7c4.1,0.2,8.8-1.2,11.9,3.1
	c1.3,3.1,0.7,6.4,0.9,9.5c0.3,5.4-2.2,7.7-7.6,8c-9.6,0.4-9.6,0.6-9.7,10.1c0,1.8-0.1,3.7-0.5,5.5c-0.1,5.9,2.8,12.2-2.6,17.2
	c-9.6,0-19.1-0.1-28.7,0.1c-3.5,0.1-4.7-1.1-4.6-4.6c0.1-3.9-0.2-7.7-0.3-11.6c-0.4-0.6-0.7-1.1-1-1.8c-1.3-4.5,0.4-9.2-1.3-13.7
	c-1.9-2.4-4.6-1.3-6.9-1.5c-3-0.3-6.3,0.3-8.4-2.8c-0.3-0.7-0.4-1.4-0.4-2.1c0.3-2.2,0.4-4.5,0.3-6.7c0.2-7.9,1.5-9.2,9.4-9.2
	c2.2,0.1,4.4,0.3,6.5,0.8c0.8-5.2-1.6-10.8,2.1-15.5C235.9,374.4,246.9,373.5,258,377z"/>
<path class="st23" d="M224.4,427.8c0,0.4,0,0.8,0,1.3c-1,0-2.1-0.1-3.1-0.1c-12.1-0.1-12.2-0.1-12.8,11.8c-0.2,3.1-1.1,4.2-4.3,4.4
	c-13.4,0.8-14.7-0.2-14.1-13.6c0.2-5.7,0.9-11.2,0.5-17c-0.2-3-0.5-3.7-3.3-3.1c-1.2,0.2-2.5,0.2-3.7,0.2c-9.3,0.1-9.2,0.1-9.8,9.3
	c-0.1,1.1,0.7,2.7-0.9,3.2c-1.3,0.5-2.1-0.7-3-1.7c-3.5-4.3-7.5-8.2-12-11.5c2.6,7.8,9.8,10.1,12.7,15.9c-0.6,0.4-1,0.8-1.3,0.8
	c-12.6,0.4-12.6,0.4-12.9,17.3c-5.6-0.2-13,2.6-16.2-1.3c-2.8-3.3-0.9-10.5-1.1-15.9c0-5.3,0-10.7,0-16l5.2-1c3.2-2.6,6.3-2.6,9.5,0
	c3.4,1.4,2.6-1.2,2.8-2.9c0.4-4.4-2.2-10.4,1.4-12.8c3.1-2.1,8.7-0.5,13.2-0.8c6.3-0.4,12.6,1.2,18.8-1l0.9-0.4
	c0.6,0.3,1,0.7,1.3,1.3c0.2,0.6,0.4,1.2,0.5,1.8c0.1,0.8,0.1,1.6,0.1,2.5c-0.3,11.1-0.3,11.1,10.4,11.3c2.3,0,4,0.6,5.1,2.7
	c0.8,2,0.7,4,0.8,6c0.3,7.1,0.6,7.3,7.9,7.6C219.5,426,222.3,425.7,224.4,427.8z"/>
<path class="st26" d="M309.9,479.6c-14.8,0-29.6-0.2-44.5,0c-4.7,0.1-6.5-1-6.4-6.1c0.2-11.2,0-11.2,11-11.2c11.3,0,22.6,0.2,34-0.1
	c5-0.2,6.6,1.6,6.1,6.3C309.8,472.2,310,475.9,309.9,479.6L309.9,479.6z"/>
<path class="st32" d="M259.3,427.8c0-4.1,0.1-8.2-0.2-12.3s1.4-5.1,5-4.7c1.8,0.2,3.7-0.2,5.5,0.1c5.6,1.1,7.4-1.5,6.9-6.6
	c1.7-3,4.3-2.7,7-1.9s4.2,0.7,3.9-3c-0.3-3.4,0.8-6.1,5.2-5.1c0,1.2,0.1,2.5,0.1,3.7c-0.1,4.1,1.1,9-0.8,12
	c-2.2,3.5-7.5,1.2-11.5,1.4c-3.3,0.2-4.2,1.6-4.1,4.6c0.1,3.9,0.1,7.8,0.1,11.6l-14.6,0.5C261,428.6,260,428.5,259.3,427.8z"/>
<path class="st33" d="M296.4,427.9h12.2c2.7,4.8,1,10,1.2,15c0.1,1.4-1.1,2-2.5,2.1c-1.4,0.2-2.9,0.2-4.3,0c-3-0.5-8,1.9-8.6-1.8
	C293.5,438.3,291.4,432.4,296.4,427.9z"/>
<path class="st34" d="M259.3,427.8l2.6,0.3c1.1,0.4,2.3,0.6,3.5,0.8c10,0.4,11.9,3.1,10,13.4c-0.5,2.5-1.8,2.9-3.8,2.9
	c-4.5,0-9,0-13.5,0C260.2,439.4,258.4,433.5,259.3,427.8z"/>
<path class="st35" d="M361.8,445l17,0.2c0,5.5,2.4,12.5-1,16s-10.5,0.6-16,1.2C361.8,456.6,361.8,450.8,361.8,445z"/>
<path class="st36" d="M344.5,51.7c-3.6,2.5-7.3,4.3-11.9,3.7c-3.3-0.4-4.5,1.3-4.2,4.4c0.1,0.8,0.1,1.6,0,2.5
	c-0.2,5.4,2.5,12-8,11.2c-6-0.5-9.1,5.4-9.3,12.9c-0.2,0.3-0.7,0.4-1,0.2c0,0,0,0,0,0l-0.4-0.4c0.1-1.2,0.3-2.4,0.3-3.7
	c0.2-12.8,0.2-12.9-12.2-13.4c-3.8-0.2-4.9-1.6-5-5.2c-0.5-12.2,2-14.4,14.3-12.1c2,0.3,3,1.1,3,3.1c0,0.8,0,1.6,0,2.5
	c0.3,12.2,0.3,12.1,12.6,11.8c3.3-0.1,4.7-0.9,4.8-4.5c0.5-12.8,0.7-12.8,13.4-12.8C342.1,51.7,343.3,51.7,344.5,51.7z"/>
<path class="st37" d="M259.2,69.1c0.1-3.5,0.1-7-0.1-10.5c-0.5-5.2,1-7.9,6.6-6.9c3.4,0.6,8.1-1.7,9.8,1.3c2.2,3.7,0.9,8.8,0.6,13.2
	c-0.2,2.7-2.6,2.8-4.7,2.8L259.2,69.1L259.2,69.1z"/>
<path class="st38" d="M192.4,359.8c-2.7-3-0.7-6.6-1.3-9.9c-0.4-2.5,1.1-5.2-1.2-7.4c-2.2,1.9-4.9,1.7-7.6,1.7c-6.5,0-13,0.1-19.5,0
	c-2.3,0-4.5-0.4-6.2-2c0-4.5-0.1-9,0-13.6c0.1-2.6-1-3.7-3.7-3.6c-4.5,0.1-9,0-13.6,0c0-0.8,0-1.6-0.1-2.5
	c-0.1-4.3,1.2-9.6-0.8-12.6c-2.3-3.4-8-1.2-12.2-1.3c-5.1,0-4.2-3.4-4.2-6.4c0-33.3,0-66.6,0-99.9c0-21.4-0.1-42.8-0.2-64.1l1.3-1.4
	c2.8-2.4,6.2-1.6,9.4-1.7s4.7-1.6,4.9-4.9c0.2-3.6-0.9-7.4,2-10.5l-0.1,0.1c5.3-3.1,10.6-2.9,16-0.1c2.6-3.7,1-7.8,1.2-11.6
	c0.1-3.3,0.9-4.9,4.5-4.6c4.2,0.3,8.5,0.2,12.7,0.4c2.5,2.2,2.2,5.3,2.1,8.1c0,4.3,2.1,5.9,6.1,5.8c2.1,0,4.1,0,6.2,0
	c36.9,0,73.8,0,110.7,0c3.3,0,6.6-0.3,9.8,0.7c0.7,0.3,1.4,0.8,1.9,1.4c1.8,5.8,2.2,11.6-0.4,17.3c-4.7,2.7-9.7,1.8-14.7,1.1
	c-3.5-1.6-3-4.8-3.3-7.8c-0.2-2.5,0.9-5.4-2.2-7c-11.6-1.3-23.3-0.3-34.9-0.5c-4.7-0.1-9.4,0-14.1-0.1c-18.9,0.2-37.8,0-56.7,0.1
	c-8,0-8.1,0.2-8.9,8.2c-0.6,5.7-2.2,7.6-8.2,7.8c-7.7,0.2-8.6,0.3-8.7,8.8c-0.1,7.2-1.6,8.5-9,8.6c-3.2,0-6.6,0.6-9.6-1.3
	c-3-2.4-2.4-5.9-2.3-9.1c0.2-5.3-3-5.8-7.1-5.8c-3.9,0-5.5,1.6-5.5,5.5c0,4.2,0.5,7.3,5.8,7.1c3-0.1,6.2-0.5,8.7,1.9
	c2.3,2.9,1.7,6.3,1.6,9.5c-0.1,4.2,1.8,5.9,5.9,5.8c3.4,0,7-0.7,10.1,1.7c2.1,5.5,2.1,11.6,0.1,17.1c-2.5,2.1-5.4,1.4-8.3,1.3
	c-6.7-0.2-7.6,0.4-7.7,7.1c-0.1,15.8,0,31.7,0,47.5c0,7.2,0.1,14.4,0,21.6c-0.1,4.4,1.7,6.5,6.2,6.3c1.8-0.1,3.7,0,5.5,0.2
	c3.4,0.4,5.1,2.2,5.4,5.6c0.2,1.8,0.3,3.7,0.2,5.5c-0.2,4.2,1.7,5.8,5.8,6c9.5,0.5,9.7,0.9,10.6,10.4c0.5,5.1,0.4,10.3,0.8,15.4
	c0.6,7.1,0.8,7.4,8.2,7.5c5.8,0.1,11.5-0.1,17.3,0.1c6.9,0.3,8.3,1.7,8,8.6c-0.4,9.4,1.1,18.9-0.7,28.2
	C203,362.1,197.7,362.6,192.4,359.8z"/>
<path class="st5" d="M309.9,119.8l-90.8,0.1c-13,0-26-0.3-38.9,0.2c-5.7,0.2-7.3-1.7-6.6-7c0.2-3.1,0.2-6.2,0-9.2
	c17.6-0.1,35.1-0.2,52.7-0.2c27.9,0,55.8,0,83.8,0C312.6,109.1,312.8,114.4,309.9,119.8z"/>
<path class="st39" d="M309.9,119.8c0.1-5.3,0.1-10.7,0.2-16.1c5.6-1.1,11.4,0.9,16.9-1.3c-2.4-5.4-2.7-10.8,0.3-16
	c5.5-1.3,11.3,1,16.8-1.2c2.9,2.5,2.3,6,2.2,9.2c-0.1,4.4,1.5,6.5,6.1,6.3c2.8-0.1,5.8-0.6,8,2c0.2,0.3,0.3,0.6,0.3,1
	c-2.3,2.4-5.3,2-8,1.8c-4.8-0.2-6.7,1.8-6.4,6.5c0.3,2.2-0.1,4.5-1.1,6.5c-2.1,2.7-5.1,3.3-8.3,3.1c-5.2-0.4-7,2.1-6.6,7
	c0.2,2.8,0.4,5.8-1.4,8.4c-0.5,0.5-1.4,0.5-1.9,0c-1.8-2.2-1.5-5-1.5-7.6c-0.2-7.4-0.3-7.5-7.5-7.7
	C315.1,121.5,312.2,121.9,309.9,119.8L309.9,119.8z"/>
<path class="st40" d="M139.3,119.8c0,0.6-0.1,1.2-0.1,1.8c-0.2,15.8-0.2,15.8-16.2,15.3c-2-5.6-2-11.6,0-17.2L139.3,119.8z"/>
<path class="st41" d="M327.3,86.3c-0.1,5.3-0.2,10.7-0.3,16c-0.6,0-1.2,0-1.9,0c-5.1-0.3-12.1,2.2-14.7-1c-2.5-3-0.4-9.7-0.3-14.8
	c0.3-0.1,0.7-0.2,1-0.2L327.3,86.3z"/>
<path class="st17" d="M155.3,119.7l-16,0.1c0-2.5-0.1-4.9-0.1-7.4c0-8.9,0-8.5,8.9-9c6.2-0.3,8,1.9,7.3,7.7
	C155.1,114,155.1,116.9,155.3,119.7z"/>
<path class="st42" d="M292.5,121.1c2.5,2.7,0.8,6.1,1.3,9.1c0.4,2.3-0.9,4.9,1.3,6.8c-1.5,6,2.3,12.8-3,18.1c-2.5,1.1-5.2,1-7.9,0.9
	c-4.8-0.2-5.8,2.5-5.8,6.6c0,4.3,0.9,7.2,6.1,7.1c6-0.1,12-0.1,17.9,0c2.6,0,5.4-0.2,7.7,1.6c2.5,3.2,1.6,7,1.7,10.6
	s1.5,5.1,5.1,5.2c3.4,0,6.9-0.6,10.1,1.3c2.5,2.5,1.8,5.7,2,8.8c0.4,5.8,1.9,7.2,7.5,7.3c5,0.1,6.4-2.6,6.3-7c0-3-0.5-6.2,1.8-8.9
	c3-1.9,6.4-1.5,9.6-1.4c3,0.1,4.6-0.6,4.6-4c-0.1-12.6,0-25.1-0.1-37.7c0-4-2-5.5-5.8-5.4c-2.5,0-5,0.1-7.3-0.8
	c-0.7-0.3-1.2-0.9-1.5-1.6c0.1-0.7,0.6-1.4,1.3-1.7c5.5-0.8,11.1-2.5,16.2,1.4c-0.2,0.2-0.1,0.6,0.1,0.8c2.1,2.4,2,5.3,2,8.2
	c0,51,0,102,0,152.9c0,3,0.5,6.3-2.4,8.5c-3.5-1.6-2.6-4.9-2.6-7.5c-0.2-11.3-0.1-22.7-0.1-34c0-4.2,0.2-8-5.9-7.5
	c-5.7,0.4-6.4,0.9-6.4,7.9c-0.1,5.4,0,10.7,0,16.1c-0.1,8.4-1.8,10.5-10,10.6c-5.7,0-7.4,2.3-7.4,7.7c0,7.1-1.4,8.1-8.4,8.5
	c-8.8,0.4-8.6,0.4-8.9,9.2c-0.2,8,1,16-0.6,24c-5.5,2.3-11.7,2.3-17.2-0.1c-2.3,3.5-0.5,7.4-1.1,11.1c-0.3,2.1,0.9,4.5-1.5,6.1
	c-2,1.9-4.5,1.7-7,1.8c-8.4,0-16.8,0.2-25.1-0.1c-11.5,0.2-23,0.2-34.5,0c-5.4-0.4-11.2,1.7-16.2-1.9c-2.8-9.7-1.1-19.6-1-29.4
	c0-4.5-1.2-5.2-5-5.1c-7.8,0.2-15.7-0.1-23.5,0.1c-4.1,0.1-5.2-1.4-5.3-5.4c0-7.7-0.9-15.4-1-23.1c0-4.3-1.7-5.1-5.5-5.1
	c-10.6,0-10.9-0.2-10.6-10.8c0.1-5.2-1.5-6.7-6.6-6.6c-10.8,0.3-10.8,0-10.8-10.7c0-22.9,0.2-45.8-0.1-68.6c-0.1-6,2.1-7.8,7.6-7.1
	c3.4,0.4,6.8,0.6,10.2,0.9c2.5-2,5.5-1.6,8.3-1.4c5.1,0.2,7-2.1,6.9-7c-0.1-3-0.5-6.2,1.9-8.8c2.4-2.1,5.4-1.6,8.2-1.6
	c6.1-0.1,12.3,0.1,18.5-0.1c4.9-0.2,4.6-3.8,4.6-7.1s-0.1-6.3-4.6-6.4c-6.8-0.1-13.5-0.1-20.3,0c-3.4,0-4.6,1.9-4.7,5.1
	c-0.2,3.6,0.8,7.5-2.1,10.6c-5.7,2.5-11.4,2.7-17.1-0.3c-5.4-0.3-12.4,2.2-15.9-1c-3.9-3.6-0.8-10.7-1.4-16.3l0,0
	c4.1,0,8.3-0.2,12.4,0c3.7,0.2,5.1-1.1,5-4.9s-1.8-8.6,0.9-11.4s7.4-0.9,11.3-1c4.3-0.1,5.1-2.7,4.9-6.2c-0.6-9.9-0.6-9.9,9.1-9.9
	c19.4,0.1,38.7,0.1,58.1,0.2c3.2,2,2.9,5.3,2.8,8.3c0,4.3,2,5.8,6,5.7c11.5-0.1,23-0.1,34.5,0c4.7,0.1,6.8-1.7,6.6-6.5
	C290.6,126.1,290.5,123.3,292.5,121.1z"/>
<path class="st8" d="M360.7,307.8c1.9-2.1,0.9-4.7,1-7c0.1-54.2,0.2-108.3,0.2-162.5c3.1,0,6.2,0.4,9.2-0.1c5.5-0.9,7,0.8,7,6.6
	c-0.2,65.9-0.2,131.7-0.2,197.6c-1,0-2,0-3.1,0c-12.2,0-12.3,0.1-12.9-12.2c-0.2-3.6-1.5-5.1-5.2-5.2c-4-0.1-8.2,1.1-12-1.2
	c-3.2-4-2.2-8.5-1.4-12.9c0.5-2.6,2.8-3.4,5.2-3.6C352.6,307,356.7,306.5,360.7,307.8z"/>
<path class="st24" d="M360.4,102.6c-5-0.2-11.4,2.2-14.8-0.9c-3.2-2.9-0.6-9.3-1.1-14.1c-0.1-0.8-0.2-1.6-0.4-2.4
	c4.3,1.9,8.8,1.1,13.2,1.1c3.5,0,5,1.3,4.5,4.7C361.3,94.8,363.2,99,360.4,102.6z"/>
<path class="st43" d="M328.5,137c0-0.6,0-1.2,0-1.8c0.1-4.7-1.3-10.2,0.7-13.8c2.3-4,8.3-0.7,12.5-1.7c1-0.3,1.9-0.7,2.8-1.2
	c0.3,0.2,0.5,0.6,0.4,0.9c-0.1,0.3-0.2,0.5-0.3,0.5c0,0.4,0.1,0.7,0.2,1.1c1.7,2.3,1.5,4.9,1.5,7.5c0.1,3,0.4,6.1-1.8,8.6l0.1-0.1
	C339.6,139.9,333.4,139.9,328.5,137z"/>
<path class="st44" d="M344.6,119.9l-0.1-1.4c0.1-14.3,0.1-14.3,14.4-14.7c0.6,0,1.2-0.1,1.8-0.2l0,0c2.5,5.4,2.6,10.7-0.1,16
	L344.6,119.9z"/>
<path class="st26" d="M361.9,103.6h4.9c12.2,0,12,0,11.2,12.1c-0.2,3.3-1.6,4.2-4.6,4.1c-3.9-0.1-7.8,0-11.6-0.1
	C360.9,114.4,360.9,109,361.9,103.6z"/>
<path class="st8" d="M344.5,137.1l0.2-8.7c3.9-3.2,6.8,0.4,10.5,1.6c0.9-3.1-0.3-6.8,3-8.9c3.2-0.5,3.8,1.3,3.7,4
	c-0.1,4.1-0.1,8.2-0.1,12.3L344.5,137.1z"/>
<path class="st5" d="M358.1,121.1c-0.5,2.6-2,5-0.9,7.8c0.5,1.2,0.8,2.3-0.6,3.2c-1.6,1-2.8,0.4-3.7-0.9c-2.1-2.9-5.1-3.1-8.3-2.8
	c0-2.5,0-5,0.1-7.4L358.1,121.1z"/>
<path class="st39" d="M361.9,103.6l-0.1,16.1l-1.3-0.1c0-5.3,0.1-10.7,0.1-16L361.9,103.6z"/>
<path class="st45" d="M360.7,307.8c-3.4,1.4-7,0.8-10.3,0.5c-5.1-0.5-6.5,1.6-6,6.2c0.4,3,0.2,6.2,0.2,9.2c-4,2.8-8.6,1-12.9,1.2
	c-3.3,0.2-4.8,0.9-4.5,4.5c0.3,4.2,0,8.5,0,12.8c-5.4,2.9-10.7,3.1-16-0.1c-2.7-10.5-0.6-21.3-1.1-31.9c-0.1-1.8,1.2-2.5,2.9-2.5
	c1,0,2.1,0,3.1,0c10.9-0.1,11.1-0.1,11.1-11c0-4.1,1.5-5.2,5.4-5.2c12-0.1,12-0.2,12-12.1c0-5.6,0.2-11.1-0.1-16.7
	c-0.2-4.1,0.8-5.9,5.4-5.8c10.7,0,10.7-0.2,10.7,10.7C360.6,281,360.7,294.4,360.7,307.8z"/>
<path class="st46" d="M224.4,359.8h35c2.6,5,2.5,11-0.1,16L258,377h-33.5l-0.7-0.8c-0.3-0.6-0.6-1.3-0.7-2
	C223.1,369.3,221.6,364.4,224.4,359.8z"/>
<path class="st47" d="M311.1,342.2l16,0.1c0,4.3,0,8.6,0,12.9c0,3-1.4,4.5-4.5,4.5c-8.4,0-16.8-0.1-25.1,0c-3.1,0-3.8-1.5-3.8-4.2
	c0.1-4.3,0-8.6,0-12.9L311.1,342.2z"/>
<path class="st47" d="M259.3,375.8c0-5.3,0-10.7,0.1-16l32,0c1.5,1.8,2.9,14.2,1.5,15.2c-1.1,0.7-2.7,0.7-4.1,0.7
	C278.9,375.8,269.1,375.8,259.3,375.8z"/>
<path class="st26" d="M293.7,393.1c0.7-5-2.1-11.6,1.2-14.9c3.5-3.5,10.1-0.9,15.4-1.2c2.6-0.2,5.3,0,8,0c8.9,0,8.6,0,9,8.9
	c0.2,5.5-1.2,7.6-7.1,7.3C311.4,392.7,302.6,393.2,293.7,393.1L293.7,393.1z"/>
<path class="st48" d="M292.6,394.3c-3.9,0.9-4.5,3.6-3.6,6.9c1,3.7-0.2,4.5-3.7,3.2c-2.8-1.1-5.8-2.4-8.8-0.2l-0.2-9.6
	c-2.1-5.9-3.1-11.8,0.2-17.5c5.2,0,12-2.3,15.3,0.9s0.5,10,1.2,15.2C292.8,393.5,292.6,393.9,292.6,394.3z"/>
<path class="st39" d="M276.5,377.1c-0.1,5.9-0.2,11.7-0.2,17.5c-4.5-1.8-9.1-1-13.7-0.9c-2.7,0.1-3.6-0.7-3.5-3.3
	c0.1-4,0-8.1-0.1-12.1C264.7,375.5,270.7,377.5,276.5,377.1z"/>
<path class="st26" d="M336.2,342.4c-7.7,0-7.7,0-7.7-8.2c0-7.9,0-7.9,8.6-7.9c7.4,0,7.4,0,7.4,8.5
	C344.5,342.4,344.5,342.4,336.2,342.4z"/>
<path class="st9" d="M361.9,394.2c-5.8-0.3-11.7,1.4-17.4-1C350.3,393.8,356.2,392.1,361.9,394.2z"/>
<path class="st2" d="M156.5,342.2l33.3,0.4c0,1.8,0,3.7,0,5.5c0,11.8,0,11.7-11.5,11.6c-6-0.1-11.9-1.6-18-0.2
	c-2.8,0.6-3.8-1.7-3.8-4.3C156.6,350.8,156.5,346.5,156.5,342.2z"/>
<path class="st2" d="M224.4,359.8l0.1,16c-2.2,2.1-4.9,1.7-7.5,1.7c-8,0.1-15.9-0.1-23.9,0.1l-1.1,0.1l-1.1-0.1l-1-0.5
	c0.8-3,1.3-5.8,0.3-8.9c-0.9-2.8-1.1-6.1,2.1-8.2l16.1-0.3L224.4,359.8z"/>
<path class="st5" d="M190,393.1c-9.2,0-18.4-0.3-27.6,0c-4.6,0.1-6-1.3-5.9-5.9c0.4-11.9-1-10.1,10.1-10.2c7.8-0.1,15.6,0,23.4,0
	l0,0C192.5,382.1,192.6,388.1,190,393.1L190,393.1z"/>
<path class="st49" d="M153.8,410.6h-9.5c-4.1,0.1-5.6-1.8-5.2-5.9c0.4-3.8,0.2-7.6,0.2-11.5c4.5-1.1,8.8,1.5,13.3,0.7
	c1-0.3,2.1,0.3,2.4,1.3c0.1,0.2,0.1,0.4,0.1,0.7C154.8,400.8,156.9,405.9,153.8,410.6z"/>
<path class="st50" d="M139.2,334c0-7.7,0-7.7,8.2-7.7c7.9,0,7.9,0,7.9,8s0,8.1-8.5,8.1C139.2,342.4,139.2,342.4,139.2,334z"/>
<path class="st51" d="M191.1,394.4c-0.1-0.4-0.2-0.8-0.2-1.2c-0.4-5.4-0.8-10.8,0.2-16.2l0.1,0c11.1-0.9,22.3-0.9,33.4,0.1l-0.1-0.1
	c0.1,1,0.2,2,0.2,3.1c-0.1,4.3,1.3,9.6-0.8,12.6s-7.6,0.8-11.6,0.9c-3.1,0.1-4.4,1-4.4,4.3c0,3.5,0.8,7-0.5,10.4
	c-2.6-2.4-1.8-5.6-2-8.5c-0.2-3.4-1.7-4.7-5-4.2C197.2,395.9,194,396.7,191.1,394.4z"/>
<path class="st52" d="M191.1,394.4c2,0,4.1,0,6.1-0.2c9.7-1,9.7-1,9.8,9.1c0,1.6,0.2,3.2,0.3,4.9c0.1,0.2,0.1,0.5,0,0.7
	c0.3,0.7,0.5,1.4,0.4,2.2l-0.5,0.5c-2.9-1.7-5.9,0-8.9,0c-7-0.2-8.4-1.6-7.8-8.8C190.8,400,191,397.2,191.1,394.4z"/>
<path class="st53" d="M224.4,427.8c-3.4-0.2-6.9-0.2-10.3,0c-5.6,0.6-7.3-1.8-6.8-7c0.1-3,0.1-6.1-0.1-9.1l0,0
	c5.7-1,11.5-1,17.1,0.1C224.9,417,224.9,422.4,224.4,427.8z"/>
<path class="st51" d="M224.4,411.7l-17.1-0.1c0.1-0.9,0.1-1.8,0.2-2.7c2.8,3.1,6.4,1.1,9.6,1.7C219.5,411,222.2,409.5,224.4,411.7z"
	/>
<path class="st27" d="M191.1,377l-0.2,16.2h-0.4H190c0-5.4,0-10.8-0.1-16.1C190.3,377,190.7,377,191.1,377z"/>
<path class="st54" d="M292.5,121.1c0.3,15.9,0.3,15.9-15.4,15.9c-9.9,0-19.8-0.2-29.6,0.1c-4.3,0.1-5.9-1.3-5.6-5.6
	c0.2-3.4,0.8-7-0.9-10.3L292.5,121.1z"/>
<path class="st55" d="M309.9,119.7c0.6,0.1,1.2,0.2,1.8,0.3c5,0.6,11.8-2.3,14.6,1.2c3.1,3.8,0.8,10.5,0.9,16l-0.8,0.7
	c-5.1,1.5-10.6,1.5-15.7-0.1c-0.2-0.2-0.5-0.5-0.7-0.8L309.9,119.7z"/>
<path class="st56" d="M156.5,171.7l17.4,0.1l-0.1-0.1c-0.1,3.7-0.6,7.4-0.2,11c0.6,5.1-1.7,6.4-6.3,6.1c-3.4-0.3-6.9-0.1-10.4-0.1
	C156,183,156.6,177.3,156.5,171.7z"/>
<path class="st57" d="M292.6,154.2c2-5.5-2-11.9,2.4-17.1L310,137l0,0c2.9,5.9,2.6,11.7,0.2,17.7C304.3,157,298.4,157.6,292.6,154.2
	z"/>
<path class="st58" d="M139.2,154.3h-5.5c-10.7,0-12.8-2.8-10.6-13.4c0.4-2.1,1.5-2.5,3.3-2.8c11.8-1.6,12.8-0.8,12.8,11.2
	C139.2,151.1,139.2,152.7,139.2,154.3L139.2,154.3z"/>
<path class="st59" d="M328.5,137h16.1c0.1,0.4,0.1,0.8,0.2,1.3c2.7,4.1,1.8,8.7,1.4,13.1c-0.1,2.4-2,4.3-4.4,4.5
	c-4.9,0.5-9.8,1.4-14.4-1.2c-3-5.5-3-12.2,0-17.7l-0.1,0.1L328.5,137z"/>
<path class="st60" d="M327.2,154.1c5.5,0.5,12.4,2.4,16.1-0.6s0.5-10.1,1.4-15.3c15.9,0.1,15.9,0.1,15.9,16.1
	c0,9.6-0.2,19.3,0.1,28.9c0.1,4.3-0.2,7-5.7,5.9c-3.4-0.7-7-0.1-10.4-0.1c-0.2-0.2-0.5-0.5-0.7-0.7c-1.5-3.1-1-6.4-1-9.7
	c0-3.6-1.5-5.2-5.2-5.2c-3.4,0-7,0.6-10.1-1.6c-0.5-0.5-0.9-1-1.2-1.6c-1-4.7-1.1-9.6-0.3-14.3C326.2,155.1,326.6,154.5,327.2,154.1
	z"/>
<path class="st1" d="M190,239.4c2-4.1,0.7-8.4,0.8-12.6c0.1-3.2,1.2-4.1,4.3-4.2c12.5-0.5,12.5-0.6,12.5,12.1c0,5.8-0.2,11.5,0,17.2
	c0.1,3.5-0.6,5.2-4.6,5.1c-8.4-0.3-16.8-0.2-25.2,0c-3.2,0.1-4.4-1.1-4.2-4.3c0.3-4.3,0.2-8.6,0.4-12.9
	C179.2,236.7,184.6,237.1,190,239.4z"/>
<path class="st6" d="M292.6,239.4c1.8-3.9,0.6-8.1,0.7-12.1c0-3.3,0.8-4.6,4.5-4.7c12.3-0.2,12.3-0.4,12.3,11.8c0,6-0.1,12,0.1,17.9
	c0.1,3.2-0.5,4.9-4.3,4.8c-8.4-0.3-16.9-0.2-25.4,0c-3.1,0.1-4.5-0.8-4.3-4.2c0.3-4.3,0.2-8.6,0.3-13
	C281.8,236.7,287.2,237.1,292.6,239.4z"/>
<path class="st41" d="M292.6,154.2l17.2,0.3c3,5.3,1.9,10.8,0.8,16.4l-0.8,0.8c-9.5,0-18.9-0.2-28.4,0c-3.8,0.1-5.4-0.7-5.4-5
	c0-12.2-0.2-12.1,12.2-12.2C289.8,154.4,291.2,154.2,292.6,154.2z"/>
<path class="st1" d="M173.9,171.8c-1.6-17.4-1.6-17.4,15.3-17.4c4.7,0,9.5,0.2,14.2-0.1c3.3-0.2,4.1,1.1,4.2,4.3
	c0.5,13,0.6,13-12.2,13c-7.2,0-14.4,0.1-21.6,0.1L173.9,171.8z"/>
<path class="st6" d="M241.5,325.2H236c-11.9,0-13.2-1.7-11.3-13.8c0.4-2.5,1.6-2.9,3.7-2.9c9,0,18.1,0.1,27.1,0
	c2.6,0,3.4,1.1,3.6,3.7c1.1,13.1,1.2,13.1-12,13.1L241.5,325.2z"/>
<path class="st45" d="M344.5,189c0.1,2.7,0.1,5.3,0,8c-0.3,3,1.8,7.1-2.6,8.6c-4.3,1.4-9.1,1.2-13.2-0.7c-2-0.9-1.4-2.8-1.4-4.3
	c-0.1-3.9-0.2-7.8-0.2-11.7l0.5-0.9C333.5,184.7,339,186.9,344.5,189L344.5,189z"/>
<path class="st61" d="M327,188.8c-4.3,0-8.6-0.3-12.8-0.1c-3.3,0.1-4.3-1.1-4.2-4.3c0.2-4.3,0-8.6-0.1-12.8l-0.1,0.1
	c5.8-2.9,11.6-2.5,17.5-0.3C330.1,177.3,330.2,183.1,327,188.8L327,188.8z"/>
<path class="st62" d="M190,239.4c-5.4,1-10.7,0.2-16.1,0.4c-0.1-2.7-0.2-5.3-0.2-8c0-10.6-0.8-8.9,9.1-9.4c5.8-0.3,7.7,1.6,7.1,7.2
	C189.6,232.8,189.9,236.1,190,239.4z"/>
<path class="st63" d="M292.6,239.4c-5.3,1-10.7,0.3-16.1,0.5c-0.1-3.1-0.2-6.1-0.2-9.2c0-8.2,0-7.8,8.3-8.3c6.2-0.4,8.7,1.5,7.9,7.8
	C292.1,233.2,292.6,236.3,292.6,239.4z"/>
<path class="st27" d="M224.6,377l-33.4-0.1c5-2.4,10.4-0.8,15.6-1.1c5.9-0.3,11.8-0.1,17.7-0.1L224.6,377z"/>
<path class="st64" d="M327.1,171.8l-17.3-0.1c0-5.8,0-11.5,0-17.3s0.1-11.6,0.2-17.4l17.3,0.1v17.1c0.2,0.1,0.3,0.3,0.2,0.5
	c0,0,0,0.1-0.1,0.1c-3,1.9-6.4,1.4-9.6,1.4c-4.4,0-4.8,2.8-4.8,6.2s0.4,6.2,4.8,6.3c3.2,0.1,6.7-0.7,9.5,1.8l0,0
	c0.4,0.3,0.5,0.6,0.4,0.9S327.3,171.8,327.1,171.8z"/>
<path class="st65" d="M327.1,171.8v-1.3c4.1,2.1,8.4,1.1,12.7,1.1c3.3,0,4.9,1,4.7,4.6c-0.2,4.3,0,8.6,0,12.9
	c-5.9,1-11.7-2.9-17.6-0.2C327.7,183.2,327.4,177.5,327.1,171.8z"/>
<path class="st42" d="M327.1,170.5c-2,0-4.1,0-6.1,0c-11.2-0.2-9.5,1.6-10-9.6c-0.2-5.1,1.4-7.1,6.5-6.5c3.2,0.4,6.5,0.3,9.8,0.4
	C327.3,160,327.2,165.2,327.1,170.5z"/>
<g>
	<path class="st66" d="M378.1,479.6c-0.2,0-0.5,0.1-0.7,0.1c0.1,0,0.2,0.1,0.4,0.1C377.9,479.7,378,479.6,378.1,479.6z"/>
	<path class="st66" d="M378.8,479.5C378.8,479.5,378.8,479.5,378.8,479.5C378.8,479.5,378.8,479.5,378.8,479.5
		C378.8,479.5,378.8,479.5,378.8,479.5z"/>
	<path class="st66" d="M309.9,479.6c-2.5-2.8-1.9-6.4-1.9-9.8c0-3.8-1.6-5.6-5.5-5.6c-11.9,0-23.9,0-35.8,0c-4.5,0-5.6,2.3-5.6,6.2
		c0,4.1,0.6,7.3,5.9,7.3c11.3,0,22.7-0.1,34,0c3,0,6.2-0.5,8.9,1.8C309.8,479.5,309.8,479.6,309.9,479.6
		C309.9,479.6,309.9,479.6,309.9,479.6L309.9,479.6z"/>
	<path class="st66" d="M361.6,496.7C361.5,496.7,361.5,496.7,361.6,496.7l-0.9,0c0.3,0,0.6,0.1,0.9,0.1
		C361.6,496.8,361.6,496.8,361.6,496.7C361.6,496.7,361.6,496.7,361.6,496.7z"/>
	<path class="st66" d="M140,477.5c-0.3,0-0.6,0-0.8,0c0,0.3,0,0.5,0,0.8c0,0,0,0.1,0,0.1c0,0,0,0,0.1-0.1
		C139.6,478.1,139.8,477.8,140,477.5z"/>
	<path class="st66" d="M139.1,496.9c0,0,0.1,0,0.1,0.1c0,0,0,0,0,0c0,0,0,0,0,0C139.2,496.9,139.1,496.9,139.1,496.9z"/>
	<path class="st66" d="M105.6,479.9c0,0,0.1,0,0.1,0l0-0.1C105.7,479.8,105.7,479.8,105.6,479.9z"/>
	<path class="st66" d="M119.7,461.7c0-0.1,0-0.2,0-0.3c0.5-8.2,0.2-16.3,0.3-24.5c0-2.3-0.1-4.6,0.9-6.6c-2.3,0.8-4.7,0.7-7.1,0.5
		c-4.9-0.3-6.5,2-6.4,6.7c0.2,6.6,0,13.1,0.1,19.7c0,1.6,0.6,3.5-0.6,5c0,0,0.1,0,0.1,0C110.9,459.9,115.7,459.7,119.7,461.7z"/>
	<path class="st5" d="M345,496.9l-0.2,0c3.6-2.3,7.6-0.8,11.3-1c3.4-0.1,5-1.2,4.6-4.7c0-0.2,0-0.4,0-0.6c0.4-10.8,0.4-10.8-10.5-11
		c-1.9,0-4.2,1-5.6-1.2c0,0,0,0,0.1,0c0,0-0.1,0-0.1,0c-0.1-1.6-0.2-3.2-0.2-4.9c-0.2-11.4-2.9-13.5-14.4-11.2
		c-2.6,0.5-2.7,2-2.7,3.9l-0.2,13.4c0,0-0.1,0-0.1,0.1h0.2l0,20.4h17.5c0-1,0-2.1,0-3.1C344.9,496.9,344.9,496.9,345,496.9z"/>
	<path class="st67" d="M395.2,500h1.2c0-22.1,0-44.3,0-66.5c0-1.9,1.1-4.1-1.2-5.6c-0.3,0.3-0.6,0.7-0.8,1.1c0.2,0,0.4,0,0.6-0.1
		C395.1,452.6,395.2,476.3,395.2,500z"/>
	<path class="st67" d="M360.7,496.7l-1.9,0c-1.1,0.4-2.6,0.5-4.5,0.6c-2.6,0.1-5.5-0.7-7.3,2.1c-0.1,0.2-0.1,0.4-0.1,0.5h14.7
		c0-1,0-2.1,0-3.1C361.3,496.8,361,496.8,360.7,496.7z"/>
	<path class="st67" d="M378.8,479.5C378.8,479.5,378.8,479.5,378.8,479.5c-0.3,0-0.5,0-0.7,0.1c-0.1,0-0.2,0.1-0.3,0.2
		c0,0,0.1,0,0.1,0c0,6.7,0,13.5,0,20.2h1.3c0-4.6,0-9.2,0-13.8C379.2,484,378.9,481.8,378.8,479.5z"/>
	<path class="st67" d="M354.3,497.4c1.9-0.1,3.4-0.3,4.5-0.6l-13.8,0.1c-0.1,0-0.1,0-0.2,0c0,1,0,2.1,0,3.1h2.1
		c0.1-0.2,0.1-0.4,0.1-0.5C348.8,496.7,351.7,497.5,354.3,497.4z"/>
	<path class="st68" d="M156.5,468.9c0-4.9-1-7-6.4-6.8c-12.9,0.5-10.8-1.4-11,10.6c0,1.6,0,3.1,0,4.7c0.3,0,0.6,0,0.8,0
		c0.8-1.4,0.8-3.3,2.7-3.9c3.7-1.2,2.4-2.7,0-3.7c-1.6-0.7-2.7-1.5-1.9-3.1c2.5-4.8,7.2-2.9,11-3.2c3.3-0.2,3.4,2.2,3.4,4.6
		c0,10.6,0.1,21.2,0,31.8h1.2C156.4,489.6,156.4,479.3,156.5,468.9z"/>
	<path class="st68" d="M139.2,497C139.2,497,139.2,497,139.2,497l0,3h1.3C140.4,498.9,140,497.9,139.2,497
		C139.2,497,139.2,497,139.2,497z"/>
	<path class="st38" d="M105.6,479.9c-2,1.8-0.9,4.2-0.9,6.2c0,4.7,0,9.3,0,14h1.2l-0.1-20.2C105.7,479.8,105.7,479.8,105.6,479.9z"
		/>
	<path class="st38" d="M139.2,497c0,0-0.1,0-0.1-0.1c-5.4-1-11,0.9-16.3-1.2c0,0,0-0.1,0-0.1c0,0,0,0,0,0c-0.3,0-0.5-0.1-0.7-0.1
		c0,0,0,0,0,0.1c0,1.5,0,2.9,0,4.4h15.6c0.1-0.6,0.3-1.1,0.5-1.7C138.4,497.6,138.8,497.2,139.2,497z"/>
	<path class="st38" d="M139.2,497c-0.4,0.2-0.7,0.6-1.1,1.3c-0.2,0.6-0.3,1.1-0.5,1.7h1.6L139.2,497C139.2,497,139.2,497,139.2,497z
		"/>
	<path class="st69" d="M88.6,436.7c0-2.5-1.5-6.3,1.3-7.3c4.2-1.4,9-1.1,13.4-0.1c1.8,0.4,1.2,2.8,1.2,4.4c0,7.8-0.1,15.6,0.1,23.4
		c0,1.9-1.3,4.8,2.4,5c1.2-1.4,0.6-3.3,0.6-5c-0.1-6.6,0.1-13.2-0.1-19.7c-0.1-4.6,1.5-7,6.4-6.7c2.4,0.1,4.8,0.2,7.1-0.5
		c0.3-0.5,0.6-1,1-1.5l1.1-1c-0.1-0.1-0.1-0.3-0.2-0.4c-2.8-1.9-6-1.5-9-1.5c-4.3,0.1-6.3-1.5-6.3-6.1c0.1-11.5,0.1-23,0-34.5
		c0-4.2,1.4-6.5,6.1-6.5c4.4-0.1,6.6,1.4,6.4,6c-0.2,2.5,0.1,5,0.9,7.3c4.6,5.3,11.7,5.6,18.7,0.8c2.8-8,1.1-16.2,1.3-24.3
		c0.2-9.3-0.7-10.2-9.8-10.8c-4.3-0.2-6.2-1.9-6.2-6.3c0-2.9,0.8-6.3-2.7-8.2c-3,2.3-2.2,5.6-2.2,8.6c0.1,4.6-2.1,6-6.4,6
		c-4.6,0.1-6.4-1.7-6.2-6.2c0.2-3.3,0.1-6.6,0-9.9c-0.2-5.2,1.2-10.5-1.5-15.5c-0.6-0.4-1.5-0.3-2,0.3c-2.4,5.1-1.1,10.5-1.3,15.8
		c-0.2,8.4-0.1,16.9,0,25.3c0,4.4-1.7,6.2-6.2,6.3c-4.5,0-6.2-1.8-6.2-6.3c0.1-8.4,0.2-16.8,0-25.3c-0.2-5.6,1-11.3-1-16.8l-0.8-0.8
		c-2.4,5.7-0.4,11.8-1.2,17.6c0,0.4-0.1,0.8-0.1,1.2c0.1,6.8,0.2,13.6,0.2,20.4c0,12.6,0,12.7,12.7,12.9c3.5,0.1,4.6,1.1,4.5,4.6
		c-0.2,11.1-0.1,22.2-0.1,33.3c0,12.5,0,12.7-12.2,12.7c-4.3,0-5.1,1.6-5,5.4c0.2,11.1,0.1,22.2,0.1,33.3c0,11.2,0,22.5,0.1,33.7
		h1.1C88.6,478.9,88.6,457.8,88.6,436.7z"/>
	<path class="st70" d="M171.8,446.5c3,3.5,0.6,9.9,0.9,15c0.5,10-0.8,20.1,0.9,30.2c0.7,4,2.1,5.3,5.9,5.2
		c7.4-0.1,14.8,0.2,22.2-0.1c3.4-0.1,5.3,0.7,5.7,3.2h69.2c0.4-2.3,1.7-3.2,4.5-3.1c7.8,0.2,15.6-0.2,23.4,0.1
		c4.5,0.2,5.8-1.5,5.5-5.7c-0.3-3.9-0.1-7.8-0.1-11.7c0-0.1-0.1-0.1-0.1-0.2c-2.6-2.2-5.9-1.8-8.9-1.8c-11.3-0.1-22.7,0-34,0
		c-5.3,0-5.9-3.2-5.9-7.3c0-3.9,1.1-6.2,5.6-6.2c11.9,0,23.9,0,35.8,0c3.9,0,5.5,1.8,5.5,5.6c0,3.4-0.6,6.9,1.9,9.8h15.4
		c-0.2-4.2-0.2-8.5,0-12.7c0.2-3.9,2.2-6,6.1-6.3c1.6-0.1,3.3-0.2,4.9-0.2c8.3,0.1,9.6,1.3,10,9.5c-0.1,2,0.2,4.1,0.8,6
		c1.9,2.7,4.7,1.9,7.3,2c1.7,0.1,3,0.2,4,0.5c2.7-0.4,2.1-2.6,2.3-11.5c0.1-3.4-1.1-4.6-4.6-4.7c-12.3-0.5-13.4-2-11.5-14.3
		c0.3-1,0.6-1.9,1.1-2.8c0.3-0.2,0.7-0.4,1-0.5c-0.3-4-0.2-8-0.5-11.9c-0.4-3.8-2.3-6.3-6.2-6.5c-10.2-0.3-20.4-1.3-30.6,0.7
		c-2.9,3.4-1.1,7.5-1.2,11.2c-0.2,4.6-2.8,5.3-6.5,5.3c-3.9,0.1-6-0.9-6.3-5.5c-0.2-3.6,2.2-7.1,0.3-10.7c-3-0.9-4.1,1-4.6,3.4
		c-0.4,2-0.5,4.1-0.3,6.1c0.3,4.7-1.7,6.6-6.5,6.6c-4.6,0-6-2-6-6.4c0-3.4,0.8-7-2-9.9c-4.6-1.8-9.7-1.8-14.3,0.2
		c-0.3,4.2,3.2,3.4,5.3,3.4c5.4-0.1,6.2,2.8,6.2,7.4c0,5.1-3.2,5.3-6.9,5.2c-3-0.1-6.1,0.1-9.1-0.1c-7.8,0-15.6,0.1-23.4,0
		c-7-0.1-7.3-0.4-7.6-7.2c-0.1-2.2,0-4.5-1.1-6.6c-4.9-3.5-10.4-2.7-15.4-1.1c-4.5,1.4-2.8,6.3-3.2,9.8c-0.3,2.3-0.4,4.4-3.3,5.2
		c-7.5,2-11.6-0.9-11.8-8.6c-0.1-6.2,1.5-12.2,0.8-18.5c-0.5-4.7-2.3-6.3-7-6.2c-11.9,0.3-11.9,0.1-14,10.9
		c-2.7-1.7-4.3-4.4-6.7-6.3c-2-1.6-4.3-4.9-6.6-2.4c-2,2.2,1,4.8,2.5,6.8c1.8,2.3,4.7,3.7,6,6.7c-4,1.1-8.9-0.5-10.5,3.7
		c-1.9,5.2-2.9,10.7,0.3,15.8C161.8,445.6,168.5,442.6,171.8,446.5z"/>
	<path class="st70" d="M327.2,479.6l0.2-13.4c0-1.9,0.1-3.4,2.7-3.9c11.5-2.2,14.2-0.2,14.4,11.2c0,1.6,0.1,3.3,0.2,4.9
		c0,0,0.1,0,0.1,0c1.6,0,3.2,0.2,4.8,0.1c4.6-0.1,7.3,0.2,8.9-0.1c-1-0.3-2.3-0.4-4-0.5c-2.6-0.1-5.4,0.7-7.3-2
		c-0.6-1.9-0.9-4-0.8-6c-0.4-8.2-1.7-9.4-10-9.5c-1.6,0-3.3,0-4.9,0.2c-3.9,0.3-5.9,2.4-6.1,6.3c-0.2,4.2-0.2,8.5,0,12.7h1.8
		C327.1,479.6,327.1,479.6,327.2,479.6z"/>
	<path class="st71" d="M311.2,494.3c-0.5,3.6-3.6,4.2-6.6,4.3c-6.6,0.3-13.1,0.2-19.7,0.1c-2.1,0-3.6,0.4-4.7,1.2h44.9
		c0-6.5,0.1-13,0.2-19.5c-5,2.1-10.1,1.6-15.2-0.6c-0.1-0.1-0.1-0.1-0.2-0.2h0c0,0,0,0,0,0C313,484.3,311.9,489.4,311.2,494.3z"/>
	<path class="st71" d="M327.1,479.6c-0.6,0.3-1.2,0.6-1.8,0.8c-0.1,6.5-0.2,13-0.2,19.5h2.2l0-20.4H327.1z"/>
	<path class="st71" d="M284.9,498.8c6.6,0.1,13.2,0.2,19.7-0.1c3-0.1,6.1-0.7,6.6-4.3c0.6-4.9,1.8-10.1-1.3-14.7
		c0,3.9-0.2,7.8,0.1,11.7c0.3,4.2-1,5.9-5.5,5.7c-7.8-0.3-15.6,0-23.4-0.1c-2.9-0.1-4.1,0.8-4.5,3.1h3.7
		C281.3,499.1,282.8,498.7,284.9,498.8z"/>
	<path class="st71" d="M325.3,480.5c0-0.2,0-0.5,0-0.7c0,0,0-0.1,0-0.1h-15.4c0.1,0.1,0.1,0.1,0.2,0.2
		C315.2,482.1,320.2,482.5,325.3,480.5z"/>
	<path class="st71" d="M325.3,480.5c0.6-0.2,1.2-0.5,1.8-0.8h-1.8c0,0,0,0.1,0,0.1C325.3,480,325.3,480.2,325.3,480.5z"/>
	<path class="st21" d="M361.6,496.7c0.3-1.5,0.4-3,0.4-4.5c-0.3,2.4-1,3.7-2.7,4.4c0.5,0,0.9,0.1,1.4,0.2L361.6,496.7
		C361.5,496.7,361.5,496.7,361.6,496.7z"/>
	<path class="st21" d="M361.9,482.8c0.2-1.2,0.5-2.3,1.1-3.5c-0.5-1.2-0.8-2.4-1-3.7c-0.3,1.9-1,2.7-2.7,3.1
		C360.9,479.4,361.6,480.6,361.9,482.8z"/>
	<path class="st21" d="M346.6,449.2c-0.6,10.1-0.6,10.2,9.3,11.4c3.5,0.4,5.6,1.8,6.2,4.7c0-1,0-2-0.1-2.9c0.5-0.5,1.1-0.8,1.6-1.1
		c-0.1-5.3,0.8-10.6-0.9-15.7c-0.4-0.7-1-1.2-1.7-1.5c-4.8-0.9-9.7-1.9-14.3,0.5c0,0.1,0,0.2,0,0.3
		C346.8,446.3,346.7,447.7,346.6,449.2z"/>
	<path class="st21" d="M354.4,478.9c-3.2-0.1-6.5,0.7-9.6-0.6c0,0,0,0-0.1,0c1.4,2.3,3.7,1.3,5.6,1.2c10.9,0.2,10.9,0.2,10.5,11
		c0,0.2,0,0.4,0,0.6c0.4,3.5-1.2,4.6-4.6,4.7c-3.8,0.2-7.7-1.3-11.3,1l0.2,0c4.7-0.7,9.5-0.8,14.3-0.3c1.7-0.7,2.4-2,2.7-4.4
		c-0.1-3.1-0.5-6.3,0-9.4c-0.3-2.2-1-3.4-2.5-4.1C358.2,479,356.6,479,354.4,478.9z"/>
	<path class="st21" d="M358.8,496.8l1.9,0c-0.5-0.1-0.9-0.1-1.4-0.2C359.1,496.6,359,496.7,358.8,496.8z"/>
	<path class="st21" d="M345,496.9l13.8-0.1c0.2-0.1,0.3-0.1,0.5-0.2C354.5,496.1,349.7,496.2,345,496.9z"/>
	<path class="st21" d="M344.6,447.9c-1.8,12.3-0.8,13.8,11.5,14.3c3.5,0.1,4.6,1.4,4.6,4.7c-0.2,8.9,0.4,11-2.3,11.5
		c0.3,0.1,0.7,0.2,0.9,0.3c1.7-0.3,2.4-1.2,2.7-3.1c-0.5-3.4,0-6.9,0-10.4c-0.6-2.9-2.7-4.3-6.2-4.7c-9.9-1.2-9.9-1.3-9.3-11.4
		c0.1-1.4,0.2-2.9,0.2-4.3c0-0.1,0-0.2,0-0.3c-0.3,0.2-0.7,0.3-1,0.5C345.3,445.9,344.9,446.9,344.6,447.9z"/>
	<path class="st21" d="M349.6,478.5c-1.6,0-3.2-0.1-4.8-0.1c3.1,1.3,6.4,0.5,9.6,0.6c2.2,0,3.8,0,5-0.2c-0.3-0.1-0.6-0.2-0.9-0.3
		C356.9,478.7,354.2,478.4,349.6,478.5z"/>
	<path class="st28" d="M364,479.4h0.6c4.3-0.3,8.6-0.9,12.8,0.3c0.2,0,0.5,0,0.7-0.1c0.2-0.1,0.4-0.1,0.6-0.1c0,0,0.1,0,0.1,0
		c0,0,0,0,0,0c0.2,0,0.5,0.1,0.7,0.3c0,0,0,0,0,0c2.2,3.1,1.6,6.7,1.6,10.2c0,3.3,0,6.7,0,10h12.1c0-8.8,0-17.5,0.1-26.3
		c0.1-14.6-0.9-29.2,0.6-43.8c0.1-0.3,0.3-0.6,0.5-0.9c-5.1,0.5-10.4-1.5-15.4,1.2c-3.1,4.5-1.4,9.6-1.7,14.5
		c-0.1,3.5-0.1,6.9,0,10.4c0.1,3.9-1.7,5.5-5.5,5.5c-2.8,0-5.7-0.5-8.3,0.8c0,0.3,0,0.6,0,0.9C363.7,467.9,363.6,473.6,364,479.4z"
		/>
	<path class="st28" d="M381.1,490c0-3.5,0.6-7-1.6-10.2c0,0,0,0,0,0c-0.2-0.2-0.4-0.2-0.7-0.3c0.1,2.2,0.4,4.5,0.4,6.7
		c0,4.6,0,9.2,0,13.8h1.9C381.1,496.7,381.1,493.3,381.1,490z"/>
	<path class="st28" d="M378.1,479.6c0.2,0,0.4,0,0.6-0.1C378.5,479.5,378.3,479.5,378.1,479.6z"/>
	<path class="st28" d="M393.3,473.7c0,8.8-0.1,17.5-0.1,26.3h2c-0.1-23.7-0.1-47.4-0.2-71.1c-0.2,0-0.4,0-0.6,0.1
		c-0.2,0.3-0.4,0.6-0.5,0.9C392.5,444.5,393.4,459.1,393.3,473.7z"/>
	<path class="st28" d="M362.1,465.3c0.1,0.6,0.2,1.2,0.2,1.9c0,1.2,0.1,2.5,0,3.7c0,2.1-0.1,3.6-0.2,4.7c0.2,1.2,0.5,2.5,1,3.7h1
		c-0.4-5.7-0.3-11.5-0.4-17.2c0-0.3,0-0.6,0-0.9c-0.6,0.3-1.1,0.6-1.6,1.1C362,463.3,362.1,464.3,362.1,465.3z"/>
	<path class="st28" d="M362.2,467.2c0-0.7-0.1-1.4-0.2-1.9c0,3.5-0.5,7,0,10.4c0.2-1.2,0.2-2.7,0.2-4.7
		C362.3,469.7,362.2,468.5,362.2,467.2z"/>
	<path class="st72" d="M364,480.1c-0.3,3.5-0.3,7-0.4,10.5c-0.1,2.2,0.1,4.5-2,6c0,0,0,0,0,0c0,0,0,0.1,0,0.1c0.2,0,0.5,0.1,0.7,0.1
		c0.7,1,1.1,2,1.3,3H376c0-4.5,0-9,0-13.4c0-2.2,0-4.5,1.4-6.5c0.1-0.1,0.2-0.2,0.4-0.3c-0.1,0-0.2-0.1-0.4-0.1
		c-4.3,0.4-8.5,0.3-12.8,0.6C364.4,480.2,364.2,480.2,364,480.1z"/>
	<path class="st72" d="M377.8,479.7c-0.1,0.1-0.3,0.2-0.4,0.3c-1.4,2-1.4,4.2-1.4,6.5c0,4.5,0,9,0,13.4h1.9
		C377.9,493.3,377.9,486.5,377.8,479.7C377.8,479.8,377.8,479.7,377.8,479.7z"/>
	<path class="st72" d="M362.3,497c-0.2,0-0.5-0.1-0.7-0.1c0,1,0,2.1,0,3.1h2C363.3,499,362.9,497.9,362.3,497z"/>
	<path class="st72" d="M362.1,485.6c0,1.2,0,2.5,0,3.7c0,1.1-0.1,2.1-0.2,2.9c0,1.5,0,3-0.4,4.5c2.1-1.5,2-3.9,2-6
		c0.1-3.5,0.1-7,0.4-10.5c-0.4-0.1-0.8-0.4-1-0.8c-0.6,1.1-0.9,2.3-1.1,3.5C362,483.6,362.1,484.5,362.1,485.6z"/>
	<path class="st72" d="M362.1,485.6c0-1.1-0.1-2-0.2-2.7c-0.5,3.1,0,6.2,0,9.4c0.1-0.8,0.2-1.8,0.2-2.9
		C362.1,488,362.1,486.8,362.1,485.6z"/>
	<path class="st72" d="M364,480.1c0.2,0.1,0.4,0.1,0.6,0.1c4.3-0.3,8.6-0.2,12.8-0.6c-4.2-1.2-8.5-0.5-12.8-0.3H364
		c0,0.1,0,0.2,0,0.3C364,479.8,364,480,364,480.1z"/>
	<path class="st72" d="M364,480.1c0-0.2,0-0.3,0-0.5c0-0.1,0-0.2,0-0.3h-1C363.2,479.7,363.6,480,364,480.1z"/>
	<path class="st73" d="M121.8,430c-0.3,0.1-0.5,0.2-0.8,0.3c-1.1,2-0.9,4.4-0.9,6.6c-0.1,8.2,0.2,16.3-0.3,24.5c0,0.1,0,0.2,0,0.3
		c0.3,0.2,0.6,0.3,0.9,0.5c2.2,5.7,2,11.4,0.1,17.1c0,0,0,0,0,0h0c2.7,5.2,0.5,10.7,1.2,16.1c0.2-0.1,0.5-0.3,0.7-0.3
		c0,0,0.1,0,0.1,0c0.4-4.9-1.8-10.7,1-14.1c3-3.7,9.2-0.5,13.9-1.6c0.5-0.1,1-0.6,1.4-0.9c0,0,0-0.1,0-0.1c0-0.3,0-0.5,0-0.8
		c-0.3,0-0.6,0-0.9-0.1c-0.8-1.9-1.1-4-1-6c-0.2-9.5,1.3-11.1,11-11c8.6,0.1,10.1,1.4,10.2,10c0.1,9.9,0.1,19.7,0.1,29.6h44.7
		c-1.1-0.6-2.6-1-4.5-1.1c-5.9-0.2-11.9-0.1-17.9-0.1c-5.4,0-8.2-2.6-9.2-7.9c-1.5-8.4-0.6-16.8-0.9-25.3c0-0.8,0-1.6,0-2.5
		c-0.2-4.7,1.4-9.9-0.9-14c-2.6-4.6-8.6-0.9-12.5-3.2c-0.3-0.4-0.5-0.7-0.8-1.1c0,0-0.1,0-0.1,0c-2-1.8-4.5-1.7-7-1.9
		c-8.1-0.3-8.1-0.3-8.4-8.7c-0.1-2.6,0.2-5.4-2.1-7.4c-5.4-1.5-10.8-2.6-15.9,1l0,0C123.4,429,122.6,429.5,121.8,430z"/>
	<path class="st73" d="M158.5,470.4c0-8.6-1.6-9.9-10.2-10c-9.7-0.1-11.2,1.5-11,11c-0.1,2,0.2,4.1,1,6c0.3,0,0.6,0.1,0.9,0.1
		c0-1.6,0-3.2,0-4.7c0.2-12-1.9-10.1,11-10.6c5.4-0.2,6.4,1.9,6.4,6.8c-0.1,10.4-0.1,20.7-0.1,31.1h2.1
		C158.5,490.1,158.5,480.3,158.5,470.4z"/>
	<path class="st73" d="M122.8,495.7C122.8,495.7,122.8,495.7,122.8,495.7c0.1-0.2,0.1-0.4,0.1-0.6c0,0-0.1,0-0.1,0
		c-0.3,0.1-0.5,0.2-0.7,0.3c0,0,0,0.1,0,0.1C122.2,495.6,122.5,495.7,122.8,495.7z"/>
	<path class="st73" d="M120.9,430.4c0.3-0.1,0.5-0.2,0.8-0.3c0.8-0.6,1.6-1.1,1.2-2.1l-1.1,1C121.5,429.4,121.2,429.9,120.9,430.4z"
		/>
	<path class="st73" d="M169.8,449.2c2.3,4.1,0.7,9.3,0.9,14c0,0.8,0,1.6,0,2.5c0.3,8.4-0.6,16.9,0.9,25.3c0.9,5.3,3.8,7.9,9.2,7.9
		c6,0,12-0.1,17.9,0.1c1.9,0.1,3.4,0.4,4.5,1.1h4.1c-0.3-2.5-2.3-3.3-5.7-3.2c-7.4,0.3-14.8,0-22.2,0.1c-3.8,0.1-5.2-1.2-5.9-5.2
		c-1.6-10.1-0.4-20.2-0.9-30.2c-0.3-5.1,2.1-11.5-0.9-15c-3.3-3.9-10-0.9-15.2-1.6c0.2,0.4,0.5,0.7,0.8,1.1
		C161.2,448.3,167.2,444.6,169.8,449.2z"/>
	<path class="st5" d="M134.6,481.2c-8.6,1.2-8.6,1.2-9.8,10.2c-0.2,1.3-0.3,2.7-1.3,3.7c5.2,0.3,10.7-1.2,15.6,1.8
		c0.1,0,0.1,0,0.2,0c0,0,0,0,0,0c0.8-0.4,1.6,0.2,2.2,1.6c0.2,0.5,0.4,0.9,0.5,1.5h11.7c0-3,0-6,0-9c0-6.8,0-13.5,0-20.3
		c0-3.9-1.7-5.7-5.6-5.3c-2.8,0.3-4.7,0.7-2.9,4.5c1.7,3.6-1.1,7.1-4.9,7.5c-0.2,0.3-0.4,0.6-0.8,0.9c0,0,0,0-0.1,0.1
		C138.9,481.3,136.5,481,134.6,481.2z"/>
	<path class="st5" d="M141.4,498.5c-0.6-1.4-1.4-2-2.2-1.6c0.8,1,1.2,2,1.3,3.1h1.3C141.8,499.5,141.6,499,141.4,498.5z"/>
	<path class="st5" d="M155.3,468.2c0-2.4,0-4.8-3.4-4.6c-3.8,0.3-8.5-1.7-11,3.2c-0.9,1.7,0.3,2.5,1.9,3.1c2.4,1.1,3.7,2.5,0,3.7
		c-1.9,0.6-2,2.5-2.7,3.9c3.9-0.4,6.6-4,4.9-7.5c-1.8-3.9,0.1-4.2,2.9-4.5c3.9-0.4,5.6,1.4,5.6,5.3c0,6.8,0,13.5,0,20.3c0,3,0,6,0,9
		h1.7C155.3,489.4,155.3,478.8,155.3,468.2z"/>
	<path class="st5" d="M123.4,495.1c-0.2,0.2-0.4,0.4-0.7,0.5c0,0,0,0.1,0,0.1c5.3,2.1,10.9,0.1,16.3,1.2
		C134.1,493.9,128.6,495.4,123.4,495.1z"/>
	<path class="st5" d="M124.8,491.4c1.3-9,1.3-9,9.8-10.2c1.9-0.3,4.3,0.1,4.6-2.8c-0.5,0.4-0.9,0.8-1.4,0.9
		c-4.7,1-10.9-2.1-13.9,1.6c-2.8,3.5-0.6,9.3-1,14.1c0.2,0,0.4,0,0.6,0C124.4,494.1,124.6,492.8,124.8,491.4z"/>
	<path class="st5" d="M123.4,495.1c-0.2,0-0.4,0-0.6,0c0,0.2,0,0.4-0.1,0.6C123,495.5,123.3,495.3,123.4,495.1z"/>
	<path class="st68" d="M106.2,462.9c-4.2-0.5-3.5-4-3.6-6.7c-0.4-6.4-0.2-12.7-0.1-19.1c0-4-1.5-6-5.8-6c-4.3,0-6.4,1.8-6.4,6.2
		c0,10.9,0,21.8,0,32.7c0,10,0,20,0,30.1h12.4c0-3.9,0-7.8,0.1-11.7c0-2.9-1.6-7,2.8-8.4c0,0,0.1-0.1,0.1-0.1l0.3,0c0,0,0,0,0.1,0
		c0,0,0,0,0,0l13.6-0.4c0.5-5.9,0.5-11.8,0-17.6c-4-2.1-8.7-1.9-12.6,0.5c0,0-0.1,0-0.1,0C106.8,462.5,106.6,462.7,106.2,462.9z"/>
	<path class="st68" d="M106.1,479.7C106.1,479.7,106.1,479.7,106.1,479.7L106.1,479.7C106.1,479.7,106.1,479.7,106.1,479.7z"/>
	<path class="st68" d="M105.6,479.9c-4.4,1.5-2.8,5.5-2.8,8.4c0,3.9,0,7.8-0.1,11.7h1.9c0-4.7,0-9.3,0-14
		C104.7,484,103.6,481.6,105.6,479.9z"/>
	<path class="st68" d="M90.3,469.9c0-10.9,0-21.8,0-32.7c0-4.5,2.1-6.2,6.4-6.2c4.3,0,5.8,2,5.8,6c0,6.4-0.2,12.8,0.1,19.1
		c0.1,2.7-0.6,6.1,3.6,6.7c0.3-0.2,0.5-0.4,0.7-0.7c-3.7-0.2-2.4-3.2-2.4-5c-0.1-7.8-0.1-15.6-0.1-23.4c0-1.6,0.6-4-1.2-4.4
		c-4.4-1-9.2-1.4-13.4,0.1c-2.8,1-1.3,4.8-1.3,7.3c0,21.1,0,42.2,0,63.3h1.8C90.3,490,90.3,480,90.3,469.9z"/>
	<path class="st68" d="M119.7,479.4l1.1,0c0,0,0,0,0,0c1.9-5.7,2.1-11.4-0.1-17.1c-0.3-0.2-0.6-0.4-0.9-0.5
		C120.2,467.6,120.2,473.5,119.7,479.4z"/>
	<path class="st74" d="M105.8,479.8c0,0,0.1,0,0.1,0C105.8,479.8,105.8,479.7,105.8,479.8L105.8,479.8z"/>
	<path class="st74" d="M119.7,480c-4.4,2.7-8.9,2.1-13.4,0c1.5,2,1.5,4.4,1.5,6.7c0,4.4,0,8.9,0,13.3h12.6c0.1-1.2,0.3-2.3,0.5-3.5
		c0.2-0.4,0.5-0.8,0.9-1C118.5,490.7,120.7,485.1,119.7,480z"/>
	<path class="st74" d="M107.8,486.7c0-2.3,0.1-4.7-1.5-6.7c-0.2-0.1-0.3-0.1-0.5-0.2c0,0-0.1,0-0.1,0l0.1,20.2h2
		C107.8,495.6,107.8,491.1,107.8,486.7z"/>
	<path class="st74" d="M122,495.6C122,495.6,122,495.6,122,495.6C121.9,495.5,121.9,495.5,122,495.6c-0.5,0.2-0.8,0.5-1,1
		c-0.2,1.2-0.4,2.3-0.5,3.5h1.5C122,498.5,122,497.1,122,495.6C122,495.6,122,495.6,122,495.6z"/>
	<path class="st74" d="M121.9,495.5C121.9,495.4,122,495.4,121.9,495.5c-0.7-5.4,1.5-10.9-1.2-16.1h0c-0.3,0.2-0.7,0.5-1,0.7
		C120.7,485.1,118.5,490.7,121.9,495.5z"/>
	<path class="st74" d="M122,495.6C122,495.6,122,495.6,122,495.6c0,0,0-0.1,0-0.1C122,495.4,121.9,495.4,122,495.6
		C121.9,495.5,121.9,495.5,122,495.6z"/>
	<path class="st74" d="M119.7,480c0-0.1,0-0.2-0.1-0.3c0-0.1,0-0.2,0-0.3l-13.6,0.4c0.1,0.1,0.1,0.2,0.2,0.3
		C110.8,482.1,115.3,482.7,119.7,480z"/>
	<path class="st74" d="M105.8,479.7c0,0,0.1,0,0.1,0c0.1,0,0.1,0,0.2-0.1L105.8,479.7z"/>
	<path class="st74" d="M106,479.7c-0.1,0-0.1,0-0.2,0.1c0.2,0.1,0.3,0.1,0.5,0.2C106.3,479.9,106.2,479.8,106,479.7L106,479.7z"/>
	<path class="st74" d="M119.7,479.7c0,0.1,0,0.2,0.1,0.3c0.3-0.2,0.7-0.4,1-0.7l-1.1,0C119.7,479.5,119.7,479.6,119.7,479.7z"/>
</g>
</svg>
