<?xml version="1.0" encoding="utf-8"?>
<!-- Generator: Adobe Illustrator 25.0.0, SVG Export Plug-In . SVG Version: 6.00 Build 0)  -->
<svg version="1.1" id="vector" xmlns="http://www.w3.org/2000/svg" xmlns:xlink="http://www.w3.org/1999/xlink" x="0px" y="0px"
	 viewBox="0 0 438 438" style="enable-background:new 0 0 438 438;" xml:space="preserve">
<style type="text/css">
	.st0{fill:#FFFFFF;}
</style>
<path class="st0" d="M219.3-0.3C98.2-0.3,0,97.9,0,219s98.2,219.3,219.3,219.3S438.6,340.1,438.6,219S340.4-0.3,219.3-0.3z
	 M309.7,257.1c-5.2,12.2-12.2,22.6-21,31.4s-19.3,15.8-31.4,21c-12.1,5.2-24.9,7.8-38.2,7.8c-14.7,0-28.7-3.1-41.9-9.3
	c-13.2-6.2-24.5-14.9-33.8-26.2c-0.7-0.9-0.9-1.8-0.9-2.9c0.1-1,0.4-1.9,1.1-2.6l17.5-17.7c0.9-0.8,1.9-1.2,3.2-1.2
	c1.4,0.2,2.4,0.6,3,1.5c6.2,8.1,13.8,14.4,22.9,18.8c9,4.4,18.6,6.6,28.8,6.6c8.8,0,17.3-1.7,25.4-5.2c8-3.4,15-8.1,20.9-14
	c5.9-5.9,10.5-12.9,14-20.9s5.2-16.5,5.2-25.4c0-8.8-1.8-17.4-5.2-25.4c-3.4-8-8.1-15-14-20.9c-5.9-5.9-12.8-10.5-20.9-14
	c-8-3.5-16.5-5.2-25.4-5.2c-8.4,0-16.4,1.5-24.1,4.5s-14.5,7.3-20.5,13l17.5,17.7c2.7,2.5,3.2,5.5,1.8,8.8c-1.4,3.4-3.9,5.1-7.5,5.1
	h-57.4c-2.2,0-4.1-0.8-5.7-2.4c-1.6-1.6-2.4-3.5-2.4-5.7v-57.4c0-3.5,1.7-6.1,5.1-7.5c3.3-1.4,6.2-0.8,8.8,1.8l16.7,16.5
	c9.1-8.6,19.5-15.2,31.3-20c11.7-4.7,23.8-7.1,36.4-7.1c13.3,0,26,2.6,38.1,7.8c12.2,5.2,22.6,12.2,31.4,21s15.8,19.3,21,31.4
	c5.2,12.1,7.8,24.8,8,38.1C317.5,232.3,314.9,245,309.7,257.1z"/>
</svg>
