<svg id="Layer_1" data-name="Layer 1" xmlns="http://www.w3.org/2000/svg" viewBox="0 0 500 500"><defs><style>.cls-1{fill:#445685;}.cls-2{fill:#233b61;}.cls-3{fill:#1c0608;}.cls-4{fill:#011216;}.cls-5{fill:#c07c12;}.cls-6{fill:#995701;}.cls-7{fill:#632904;}.cls-8{fill:#1c0709;}.cls-9{fill:#632804;}.cls-10{fill:#1b0608;}.cls-11{fill:#632905;}.cls-12{fill:#5b1816;}.cls-13{fill:#be7b12;}.cls-14{fill:#05344a;}.cls-15{fill:#accfeb;}.cls-16{fill:#add0ec;}.cls-17{fill:#7ba2c2;}.cls-18{fill:#04344a;}.cls-19{fill:#011217;}.cls-20{fill:#7aa1c2;}.cls-21{fill:#00001e;}.cls-22{fill:#00000e;}.cls-23{fill:#1b2427;}.cls-24{fill:#030404;}.cls-25{fill:#622903;}.cls-26{fill:#00000d;}.cls-27{fill:#7ba1c2;}.cls-28{fill:#7aa0c0;}.cls-29{fill:#5d7e94;}.cls-30{fill:#622904;}.cls-31{fill:#622804;}.cls-32{fill:#1b0709;}.cls-33{fill:#632a05;}.cls-34{fill:#00002b;}.cls-35{fill:#011116;}.cls-36{fill:#001216;}</style></defs><path class="cls-1" d="M341.5,79.37c1.69,6.87.62,13.85.62,20.77,0,4.13,1.38,5.31,5.31,5.09,5.34-.29,10.71.15,16-.14,3.95-.21,5.47.9,5.27,5.12-.33,7.19-.05,14.4,0,21.59,3.41,5,1.75,10.68,2,16.06.32,7.88.46,8,8.34,8.34,5.39.22,11-1.37,16.11,1.81,1.9,2.74,1.58,5.9,1.6,9,.07,11.33-.06,22.65.06,34,.07,6.44.61,6.88,7.18,7.05,3.71.1,7.41,0,11.12.12,5.08.14,7.46,2.73,7.55,7.73.13,6.39.07,12.77.07,19.15,0,15.45.12,30.89,0,46.34-.09,8.18-1.7,9.66-9.82,10-.83,0,.2,0-.62,0-17,.27-15.35-2.1-15.46,15.68-.06,9.48.16,18.95-.09,28.42-.18,7.09-1.82,8.64-8.83,9-3.91.21-7.82.06-11.73.15-3.58.08-5.23,1.73-5.27,5.3s0,7-.07,10.5c-.21,8.5-1.59,9.86-10.27,10.07-2.47.06-4.95,0-7.42,0-7.8.12-8.14.48-8.25,8.58,0,3.08.1,6.18-.1,9.26-.43,7-2.39,9.1-9.57,9.26-11.73.27-23.47,0-35.21.11-7.87.05-8.18.41-8.28,8.47,0,2.89.07,5.77-.08,8.65-.38,7-1.89,8.61-9.08,8.75-12.14.23-24.29,0-36.44.1-6.86.07-7.36.63-7.55,7.4-.1,3.3.08,6.6-.11,9.88-.4,6.69-1.93,8.46-8.64,8.54-15,.18-30.06.38-45.09-.1-8.57.36-17.14.21-25.71.12-6.11-.11-12.23.17-18.34,0-4.48-.14-6.12,1.84-6.15,6.21,0,5.48.77,11-.78,16.44a3.24,3.24,0,0,1-1.59,1.59c-3-1.47-2.7-4.37-2.75-6.93-.12-6.32-.3-12.66.1-19-.32-5.9-.23-11.83-.1-17.74.1-4.6-1.57-6.7-6.39-6.57-5.9.16-11.83.23-17.75-.1-6.5.38-13,.21-19.5.1-2.39,0-5,0-6.52-2.42a2.33,2.33,0,0,1,1.26-1.76c5.41-1.83,11-.84,16.51-.93,4.25-.07,6.47-1.37,6.42-6-.11-11.92-.08-23.84,0-35.76,0-4.44-1.78-6.31-6.24-6.26-5.13.06-10.28.33-15.41-.31a8.49,8.49,0,0,1-2.19-.76,6.89,6.89,0,0,1-1.72-1.6,8,8,0,0,1-.94-4.76c1-36.64.15-73.28.48-109.92,0-4.54-1.09-9-.65-13.54a5.49,5.49,0,0,1,1-2.15,9.43,9.43,0,0,1,2-1.21c5.65-1.49,11.42-.74,17.13-.74,4.76,0,6.54-2,6.51-6.64q-.12-17.83,0-35.67c0-3.05-.29-6.2,1.67-8.9,4.42-3.2,9.51-1.83,14.32-1.94,9.94-.22,9.81-.08,10-9.81.1-4.83-1.19-9.9,1.78-14.4,2.66-2.1,5.83-1.79,8.88-1.81,11.74-.09,23.47.1,35.2-.09,6.36-.1,6.83-.85,7.23-7.22.36-5.67-1.26-11.56,1.72-17,2.49-2.68,5.81-2.92,9.12-2.93,38.06-.09,76.14-.92,114.16.37,16.42.56,32.84.66,49.25,1.1,2.63.07,5.42.49,7.51-1.77,2.32-5.36,1-10.93,1-16.4,0-2.88-2.07-3.72-4.59-3.86-3.7-.21-7.4,0-11.09-.14C341,108,339.38,106.62,339.61,98,339.77,91.76,337.72,85.23,341.5,79.37Z"/><path class="cls-2" d="M184.26,447.72c15.44-.07,30.88-.31,46.31-.12,4.6,0,6.31-1.29,6-6s.18-9.48-.15-14.2c-.33-4.54,1.15-6.12,5.86-6,13.79.28,27.6-.06,41.39.19,4.5.08,6.4-1.1,6-5.86s.25-9.49-.18-14.19c-.47-5.14,1.71-6.23,6.39-6.14,13.38.25,26.77-.09,40.14.18,5.14.1,7.1-1.64,6.76-6.78-.33-4.92.15-9.89-.14-14.81-.24-4.22,1.08-6,5.54-5.72s9.1-.33,13.57.17c6,.68,7.51-1.88,7-7.33-.4-4.71.07-9.48-.13-14.2-.15-3.55,1.34-4.7,4.74-4.59,5.35.18,10.72-.16,16.06.11,4.06.21,5.35-1.27,5.3-5.3-.19-14,.09-28-.17-42-.09-4.57,1.22-6.33,5.91-6,4.92.37,9.89-.11,14.82.14,3.91.2,5.47-1,5.44-5.18q-.24-34.59,0-69.19c0-3.9-1.52-5-5.13-4.86-5.14.2-10.31-.2-15.44.12-4.4.27-5.63-1.43-5.57-5.68.19-15.44.06-30.88.06-46.33,8.77-3.53,17.57-3,26.41-.25l-.22-.2c3,5.16,1.5,10.83,1.72,16.28.3,7.67.49,8.13,8,8.1,15.56,0,13.89,1.47,14.11-13.68,0-3.4-.77-7,2-10,1.65,7,.54,14.21.67,21.31.06,3.43,1,4.68,4.51,4.52,5.73-.27,11.51.16,17.24-.16,3.83-.2,4.87,1,4.83,4.84-.2,16-.07,32-.06,48.05,2.14,2.58,2.1,5.7,2.11,8.79q0,57,0,114c0,3.08,0,6.2-2.11,8.78l-.36,52.77c-4.47,3.72-9.8,1.88-14.74,2.07-8.76.33-8.83.19-8.88,9,0,3.27.16,6.56-.15,9.81-.21,2.15,0,4.65-2.87,5.5-2.61-2.16-2-5.22-2.13-8-.15-3.28-.14-6.58,0-9.87.14-4.27-1.39-6.44-6.05-6.4-18.55.17-15.73-1.61-16,15-.05,2.87.23,5.78-1,8.52a3.9,3.9,0,0,1-1.57,1.55c-5.21,1.82-10.6.91-15.91,1-9.05.16-18.1.12-27.15,0-4.44-.05-6.32,1.71-6.25,6.21.1,6,.24,11.92-.14,17.89.42,6.46.27,12.94.1,19.4-.06,2.5.28,5.44-2.94,6.66-2.71-2.14-1.74-5.22-2-8-.49-5,1.06-10.23-1.1-15.13-2.59-1.85-5.56-1.29-8.4-1.29q-80.62,0-161.25,0c-3.08,0-6.19.32-9.22-.53a4.52,4.52,0,0,1-1.92-1.42C181.87,464.72,181.23,456.19,184.26,447.72Z"/><path class="cls-3" d="M210.51,26.46c15.41.08,30.82.44,46.21.08,5.38-.12,6.62,1.58,6.2,6.51-.44,5.1.09,10.28-.17,15.4-.18,3.52,1,4.56,4.52,4.51,14.59-.18,29.18.06,43.76-.17,3.8-.06,5,.9,4.76,4.76-.39,7.16-.23,14.36-.3,21.55l-.87.79c-8.43,2.27-17,.79-25.52,1q-39.23.6-78.43,0c-6.68.39-13.35.21-20,.11-2.23,0-4.46-.23-6.3-1.76-3.3-8.68-2.59-17.43-.44-26.2,4.84-3.4,10.36-1.79,15.59-2,8.7-.3,8.65-.29,9-9.13C208.68,36.78,206.86,31.23,210.51,26.46Z"/><path class="cls-4" d="M473.82,368.61V237.05c7.21,0,14.41.23,21.61,0,3.31-.09,4.58.61,4.57,4.3q-.21,61.44,0,122.89c0,3.69-1.26,4.38-4.57,4.29C488.23,368.37,481,368.57,473.82,368.61Z"/><path class="cls-4" d="M341.5,79.37c-.05,7.38.06,14.77-.22,22.14-.16,3.95,1.53,4.94,5.1,4.81,5.74-.19,11.49.06,17.23-.09,2.89-.07,4,.92,3.94,3.88-.21,7-.2,13.94-.27,20.91-16.38,1.26-32.78.22-49.17.55-3.78.08-4.3-2.69-4.45-5.39a153.75,153.75,0,0,1,0-19.08c0-.79,0-1.59,0-2.39-.43-6.29-.15-12.59-.15-18.89,0-2.47.25-4.89,2-6.84l-.1.12Z"/><path class="cls-5" d="M53.06,183.59a3.44,3.44,0,0,0-.64.12c0-6.74-.14-13.49.21-20.21.21-4.19-1-5.6-5.37-5.58-6.86,0-13.79,1.11-20.6-.64,1.86-2.57,4.69-2.15,7.29-2.27,3.68-.16,7.38-.06,11.07-.09s5.15-1.71,5.16-5.28c.08-18.3,1.31-15.12-14-15.48-3.43-.08-7.05.62-10-2l-.5.05-.47-.18c-.2-1.53.95-1.94,2-2.42,8.42-1.19,16.89-.51,25.34-.48,17.42-.36,34.84-.39,52.26,0,8.4.13,16.84-1,25.2.69a3.43,3.43,0,0,1,1.63,1.54,2.05,2.05,0,0,1-1.14,1.78c-3.5,1.52-7.21.95-10.85,1-13.59.14-12.24-1.1-12.39,12.7,0,3.64.5,7.35-1,10.87a3.9,3.9,0,0,1-1.6,1.52c-6.25,1.87-12.66.8-19,1-8,.2-16,.14-24,0-4.49-.06-6.35,1.83-6.18,6.26.13,3.48.11,7-.06,10.48C55.26,179.34,55.46,181.94,53.06,183.59Z"/><path class="cls-6" d="M210.51,26.46c0,6.94-.29,13.9.1,20.82.27,4.77-1.53,5.92-6,5.72-6.72-.31-13.47,0-20.21,0-4.83,3.48-10.36,1.72-15.58,1.94-8,.34-8.13.38-8.4,8.41-.17,5.07,1.14,10.32-1.44,15.17a1.64,1.64,0,0,1-2,.42c-2.45-3.24-1.64-7-1.69-10.64-.19-14.87,1.29-13.15-13.69-13.33-3.23-.05-6.56.46-9.58-1.27l-.71-.83c.06-7.07,0-14.14.22-21.21,0-1.61-1.1-3.69,1.16-4.84l.68.78c1.91,5.19.89,10.58,1,15.88.08,4.23,1.32,6.47,6,6.43,17.52-.16,14.64,1.37,14.94-14.05,0-2.46-.13-4.95.64-7.35a6,6,0,0,1,1.88-2.45l.14-.34.37.06a8.68,8.68,0,0,1,5.72-2c13.39-.19,26.77-.17,40.15,0,2.3,0,4.53.43,6.15,2.33Z"/><path class="cls-7" d="M105.49,131l-53.32,0c-3.7-7.39-2.07-15.1-1.23-22.72.28-2.58,2.67-2.6,4.8-2.62,7.55-.1,15.09.28,22.63-.21a1.37,1.37,0,0,1,.88-.47,13.62,13.62,0,0,1,1.84-1.17c5-1.37,10.17-.65,15.25-.7,4.17,0,5.92-1.78,5.82-5.91-.1-3.88-.08-7.76,0-11.65.07-2.25.17-4.52,2-6.22l1.17-.33.83.89c1.25,2.25,1.18,4.75,1.19,7.2q.07,17.88,0,35.74C107.39,125.67,107.53,128.6,105.49,131Z"/><path class="cls-8" d="M210.42,26.18l-52-.35c-.08-7.4-.09-14.8-.28-22.19C158.05,1,158.9.13,161.63.15q22.51.2,45,0c2.91,0,3.93.78,3.84,3.82C210.29,11.37,210.43,18.77,210.42,26.18Z"/><path class="cls-4" d="M421.07,158l-26.41.25c-7,0-14-.32-21-.09-4.13.14-5.35-1.36-5.17-5.35.31-7,.14-14,.17-20.95,15.17,0,30.35.29,45.51,0,5.08-.1,7.32.7,6.8,6.49C420.43,144.79,421,151.4,421.07,158Z"/><path class="cls-5" d="M78.37,105.42C71.5,107,64.54,106,57.63,106c-4,0-5.48,1.15-5.35,5.24.22,6.57-.05,13.17-.11,19.75l-25.79,0a5.89,5.89,0,0,1-1.33-1.69c-2-6.43.63-13.28-1.8-19.66-4.42-3.33-9.5-1-14.21-1.64-2.88-.43-6.24,1-8.39-2.23,8.51-1.23,17.09,0,25.62-.63a34.1,34.1,0,0,1,26.24,0Z"/><path class="cls-4" d="M446.63,158.49c-.06,7-.33,13.92-.11,20.86.13,3.85-1.29,5-4.95,4.86-5.51-.22-11.05-.17-16.57,0-3.21.09-4.34-1.2-4.28-4.34.16-7.37.1-14.73.13-22.1Z"/><path class="cls-9" d="M52.51,105.12l-26.24,0c0-7.16.3-14.34,0-21.5-.17-4,1.25-4.85,4.91-4.67,5.72.29,11.47.27,17.19,0,3.19-.15,4.23.74,4.14,4C52.29,90.37,52.48,97.74,52.51,105.12Z"/><path class="cls-10" d="M105.38,79c0-7.57,0-15.13-.16-22.69-.07-2.68.78-3.51,3.46-3.45,7.56.17,15.13.08,22.69.09l0,.22c3.59,8.23,2,16.68,1,25.1A4,4,0,0,1,130.78,80c-8.52,1.33-17,2.65-25.38-.93Z"/><path class="cls-11" d="M26.16,132.14c7.2,0,14.41.06,21.61-.16,3.51-.11,4.72,1.19,4.59,4.65-.21,5.34-.2,10.71,0,16.05.13,3.56-1.31,4.64-4.72,4.56-7-.17-14,0-21,0Q26.4,144.71,26.16,132.14Z"/><path class="cls-8" d="M104.21,79.3c0,6.72-.18,13.44.09,20.14.17,4.12-1,5.94-5.43,5.68-6.08-.36-12.2-.17-18.3-.22a117.8,117.8,0,0,1,0-25.6Z"/><path class="cls-12" d="M.65,105.78c6.66.1,13.32.13,20,.36,1.84.06,4.11-1,5.45,1.32-4.39,3.33-9.49,1.74-14.28,1.92-8,.3-8.29.38-8.34,8.31,0,1.43.09,2.87,0,4.3-.27,4.24,1.83,5.61,5.88,5.85,5.6.33,11.51-1.68,16.74,1.91l.3,1.25-1.19,1c-7.31-.2-14.61-.48-21.93-.55-2.27,0-3.37-.56-3.22-3.08C.46,120.86-.64,113.29.65,105.78Z"/><path d="M80.6,79.3l0,25.6-1.32,0c0-7.27-.1-14.53,0-21.79C79.27,81.85,78.19,79.88,80.6,79.3Z"/><path class="cls-13" d="M157.89,26.11a.84.84,0,0,1-.15,1.06,34.12,34.12,0,0,1-25.14,0l.15-.32Z"/><path class="cls-14" d="M315.4,106.06c.06,6.14.43,12.29.08,18.4-.28,5,1.13,6.78,6.4,6.66,15.13-.34,30.27-.11,45.4-.11-.5.34-1,1-1.49,1-17.88-.16-35.77,1-53.64-.59-2.24-.21-4.51-.25-6.77-.25q-55.58,0-111.15,0a31.73,31.73,0,0,0-9.75,1.13c-.28-.3-.55-.6-.83-.89-1.83-7.26-.87-14.61-.67-21.92.11-4,3.17-4.86,6.52-4.86,6.94,0,13.89-.4,20.82.28a19.67,19.67,0,0,0,6.06.88h67.08a17.74,17.74,0,0,0,6.06-.84C298.17,104.86,306.9,102.92,315.4,106.06Z"/><path class="cls-14" d="M79.37,368.48l-24.72-.28c-1-1.71-.58-3.61-.58-5.43,0-39.48.08-79-.14-118.45,0-5.08,1.26-7,6.44-6.45,5.89.65,11.88-.69,17.76.67,2.46,27.93.74,55.92,1,83.88.14,14.37,1,28.78-.67,43.14C78.37,366.48,79.05,367.5,79.37,368.48Z"/><path class="cls-15" d="M131.37,263.32c0-15.8.15-31.61-.06-47.41-.05-4.18,1-5.9,5.43-5.6,5.31.37,10.68-.12,16,.15,3.67.19,5.16-.81,4.93-4.74-.33-5.53.1-11.09-.15-16.62-.17-3.67.91-5.12,4.81-5,7.37.27,14.77.08,22.16.09l-.09-.09c-.8,8.66,1.25,17.45-1.11,26.05-3.34-4.41-1.78-9.53-1.95-14.34-.3-8.18-.36-8.5-8.25-8.48-13.86,0-12.55-1.27-12.59,12.59,0,7.87.31,8,8.49,8.25,4.81.17,9.93-1.39,14.34,2-6.64,1.78-13.4.6-20.09.67-4,.05-5.26,1.17-5.2,5.2.22,13.93-.06,27.86.17,41.79.07,4.19-1,5.83-5.44,5.6-7.16-.37-14.34-.16-21.51-.19Z"/><path class="cls-14" d="M184.48,132.21c0,6.76-.24,13.52,0,20.27.13,4.31-1.59,5.73-5.79,5.7-15.77-.13-31.54,0-47.31,0l-.83-.84c-1.66-8.48-2.55-16.94.69-25.29l0,.06a5.81,5.81,0,0,1,2.36-2.3c8.17-1.73,16.28-.63,24.38.56,6.56.09,13.11,0,19.67,0,2.45,0,4.95-.09,6.93,1.8Z"/><path class="cls-16" d="M105.53,316.31c-.1-16.42-.16-32.85-.34-49.27,0-3,1.15-3.91,4-3.85,7.39.15,14.78.1,22.18.13l-.11-.1-.09,53.12A33.05,33.05,0,0,1,105.53,316.31Z"/><path class="cls-17" d="M184.49,184.22c0-7,0-14-.16-21-.1-3.48.68-5.26,4.72-5.2,14.39.19,28.79.13,43.19,0,3.16,0,4.45,1.09,4.36,4.31-.16,5.54-.25,11.11,0,16.65.21,4.11-1.37,5.3-5.34,5.24-15.63-.19-31.26-.12-46.89-.14Z"/><path class="cls-18" d="M78.84,237.24l.61-1.22c1.25-10.87.25-21.77.56-32.66.19-6.37-.35-12.76.29-19.13,8-3.77,16.11-2.38,24.26-.89l.84.85c0,15.83-.19,31.66,0,47.48,0,4.28-1.24,5.81-5.59,5.62C92.82,237,85.83,237.23,78.84,237.24Z"/><path class="cls-18" d="M80.42,368.72c7-.09,14-.12,20.94-.3,2.92-.08,4,1.14,4,4-.08,14.58-.1,29.16,0,43.74,0,3.34-1.37,4.24-4.43,4.16-6.77-.19-13.55-.16-20.32-.21-1.3-10-.42-20-.52-30C80,383,79.51,375.85,80.42,368.72Z"/><path class="cls-19" d="M184.34,473.79l-51.83-.39a3.3,3.3,0,0,1,.11-1.21c3.8-3,8.27-1.79,12.47-1.85,11.68-.16,11.68-.06,11.48-11.94,0-2-.2-4.09-.27-6.14s.12-3.72,2.26-4.55h25.7Q184.29,460.76,184.34,473.79Z"/><path class="cls-18" d="M131.35,158.21c0,7.13-.13,14.26,0,21.39.08,3.43-1.16,4.68-4.6,4.6-7.13-.17-14.26,0-21.39,0l-.13-.13a36.3,36.3,0,0,1,0-26l0,0a36.35,36.35,0,0,1,25.94-.06Z"/><path class="cls-20" d="M105.53,316.31l25.64,0c.07,7.2,0,14.4.26,21.6.13,3.61-1.42,4.61-4.76,4.5-5.55-.18-11.12-.19-16.67,0-3.38.12-4.87-.94-4.74-4.53C105.5,330.72,105.45,323.51,105.53,316.31Z"/><path class="cls-18" d="M131.31,447.55c-7.19,0-14.38-.23-21.56,0-3.45.11-4.67-.86-4.55-4.44.26-7.18.07-14.38.06-21.57,7.17,0,14.34.1,21.5-.09,3.44-.09,4.73,1.15,4.63,4.61C131.2,433.22,131.32,440.38,131.31,447.55Z"/><path class="cls-14" d="M158.56,447.71c0,6.21-.32,12.44,0,18.63.21,4.43-1,6.28-5.76,6-6.7-.38-13.44-.14-20.16-.16,0-6.53.14-13.08-.18-19.6-.2-4.12,1.39-5.31,5.31-5.14C144.67,447.75,151.62,447.64,158.56,447.71Z"/><path class="cls-21" d="M78.13,238.54c-5.77,0-11.55.27-17.3-.1-4.82-.32-6.35,1.2-6.31,6.18.23,28.83.11,57.67.11,86.51q0,18.54,0,37.08c-2.74-.75-1.52-3-1.52-4.55-.08-40.57,0-81.15-.15-121.72,0-3.8.94-5,4.77-4.76,6.78.34,13.58.14,20.38.16A2,2,0,0,1,78.13,238.54Z"/><path class="cls-22" d="M80.42,368.72l.18,51.4a3.94,3.94,0,0,1-1.08.18q-.12-26-.25-51.93A4.25,4.25,0,0,0,80.42,368.72Z"/><path class="cls-4" d="M420.94,447.63c0,6.35-.38,12.72,0,19,.35,5.3-.83,7.34-6.78,7.15-15.15-.5-30.32-.16-45.48-.16,0-7,.17-14-.12-21-.17-4.14,1.44-5.27,5.38-5.22C389.63,447.64,405.29,447.58,420.94,447.63Z"/><path class="cls-4" d="M472.63,211.4c0,7-.11,14,.05,21,.07,3.24-.68,5-4.42,4.85-5.34-.22-10.7-.2-16.05,0-3.63.14-4.53-1.49-4.51-4.81q.18-21.3,0-42.61c0-3.6,1.42-4.62,4.77-4.49,5.14.19,10.3.26,15.43,0,4-.22,4.89,1.51,4.79,5.09C472.49,197.4,472.63,204.4,472.63,211.4Z"/><path class="cls-4" d="M472.63,394.72c0,7-.15,14,.06,21,.11,3.54-1.22,4.7-4.66,4.56-5.34-.21-10.7-.2-16,0-3.28.11-4.29-1.23-4.27-4.35q.13-21.6,0-43.21c0-3.22,1.22-4.58,4.38-4.27.4,0,.82,0,1.23,0,6.12.34,13.94-2.53,17.92,1.13s.94,11.67,1.36,17.74C472.78,389.77,472.63,392.25,472.63,394.72Z"/><path class="cls-4" d="M446.62,447.17l-25.88.59c0-7.2.13-14.42,0-21.62-.08-3.43,1.11-4.83,4.63-4.7q8.34.31,16.69,0c3.58-.14,4.59,1.31,4.51,4.71C446.38,433.16,446.57,440.17,446.62,447.17Z"/><path class="cls-23" d="M184.57,474.73a1.86,1.86,0,0,1-.48-1q56.11-.1,112.23-.21,32.39,0,64.75.05c2.09,0,4.61-1.09,6.16,1.46-.88,5.94-.6,11.94-.26,17.86.3,5.15-1.66,6.05-6.31,6-33.37-.18-66.74-.1-100.12-.1q-34.91,0-69.83,0c-2.66,0-6.39,1.09-5.4-4,4.05-1.47,8.08.18,12.13.17,51.89-.13,103.78-.06,155.67-.14,3.12,0,7.37,1.35,8.94-2.22,1.81-4.14,1.21-8.92.2-13.38-.45-1.93-2.37-2.06-4-2.24a70.43,70.43,0,0,0-7.41-.16q-76.9,0-153.81,0c-3.49,0-7,.38-10.43-.73A7.29,7.29,0,0,1,184.57,474.73Z"/><path class="cls-24" d="M184.57,474.73c.37,0,.73,0,1.09,0a22,22,0,0,1,.1,19.79c-.21,4.94,3.52,3.57,6.07,3.58,25.7.07,51.39,0,77.08,0,30,0,60-.17,90,.14,6.08.07,7.71-1.8,7.43-7.63-.25-5.18-1.32-10.58.86-15.69q.16,12.17.31,24.32c-1.83.14-3.66.4-5.5.4-57.23,0-114.46,0-171.69.13-4.74,0-6.47-1-6.07-6C184.78,487.51,184.51,481.1,184.57,474.73Z"/><path class="cls-25" d="M105.31,158.1q0,13,0,26l-24.63.33a1,1,0,0,1-1.48-.1c-8.69-.6-17.43.62-26.1-.7.09-6.77.42-13.55.17-20.32-.14-4.08,1.26-5.24,5.24-5.2C74.08,158.25,89.7,158.12,105.31,158.1Z"/><path class="cls-26" d="M79.16,184.29l1.48.1c0,15.09,0,30.18-.09,45.27,0,2.13.86,4.52-1.1,6.36Q79.3,210.15,79.16,184.29Z"/><path class="cls-16" d="M210.47,79.2h79.07c3.44,8.67,3.17,17.36.18,26.07-1.67,1-3.54,1-5.38,1q-34.23,0-68.46,0c-1.84,0-3.72.14-5.41-.88A35.13,35.13,0,0,1,210.47,79.2Z"/><path class="cls-25" d="M158.29,78.78c.06-6.57.47-13.16.07-19.7C158.05,54,160,52.72,164.72,53c6.55.33,13.14.09,19.71.09q0,12.95,0,25.9l-.71.79a6.2,6.2,0,0,1-1.95.81c-7.31.35-14.63.94-21.92-.37A3.18,3.18,0,0,1,158.29,78.78Z"/><path class="cls-27" d="M210.47,79.2l.12,25.63c-8.12,1.69-16.33.4-24.49.72a2.46,2.46,0,0,1-2.71-2.07c-.44-8.08-2.5-16.26,1.22-24.13l-.19-.4Z"/><path class="cls-28" d="M289.42,104.84l.12-25.64,26-.22a171.09,171.09,0,0,1-.1,26C306.8,105.9,298.1,106.21,289.42,104.84Z"/><path class="cls-29" d="M289.42,104.84l26.07.15a1.52,1.52,0,0,1-.09,1.07l-25.88.26c-3.61,1.06-7.31.48-11,.5q-31,.09-62,0c-2,0-4.1.45-6.05-.5-7.4-.09-14.81-.1-22.21-.31-3-.09-3.88,1.18-3.83,4,.13,7.4,0,14.81.06,22.22l-26.93-.1c-2-1.58-2.28-3.84-2.23-6.1.15-6.7-.9-13.46.78-20.1a4.14,4.14,0,0,1,1.45-1.73c5.53-2.17,11.32-1.12,17-1.11,5.07,0,7-2,6.74-7a97.7,97.7,0,0,1,0-10.41c.11-2.41-.09-5,2.38-6.59a2.35,2.35,0,0,1,.91.19c0,6.77.18,13.54-.08,20.31-.15,3.91,1,5.54,5.14,5.34,7-.31,14-.13,20.92-.17Z"/><path class="cls-5" d="M105.4,79,131.31,79c2,1.86,2,4.37,2.07,6.8.28,13.24-.51,26.47-.34,39.71,0,2.07-.24,4.09-2.07,5.49l-25.48,0Z"/><path class="cls-30" d="M131,131q.17-26,.34-52l-.07.07a36.68,36.68,0,0,1,26-.16,2.87,2.87,0,0,0,1.09-.09l.28.3c2.69,8.85,4.19,17.65-1.16,26.14l.1,0c-4.89,3.05-10.34,1.52-15.54,1.77-6.87.33-7.07.58-7.46,7.33-.32,5.58,1.57,11.46-1.94,16.67l-1.39,1.16Q131.1,131.56,131,131Z"/><path class="cls-31" d="M131.22,158.08l-25.94.06c0-6.74.28-13.5,0-20.23-.21-4.44,1-6.27,5.74-6,6.73.4,13.49.13,20.23.15Q131.21,145.07,131.22,158.08Z"/><path class="cls-13" d="M157.2,78.88l-26,.16q.06-12.95.1-25.9c6.78,0,13.57.21,20.33-.07,4.18-.18,5.93,1,5.7,5.48C157,65.31,157.23,72.1,157.2,78.88Z"/><path class="cls-32" d="M132.6,27.19l25.13,0c-.07,6.78-.29,13.56-.16,20.34.07,3.45-1.12,4.85-4.61,4.63-6.53-.41-14.78,2.58-19.15-1.13s-1-12-1.4-18.28A49,49,0,0,1,132.6,27.19Z"/><path class="cls-33" d="M26.08,129.75c-6.57,0-13.14-.19-19.7,0-3.8.13-4.85-1.34-5-5C.9,107.49.8,107.49,18.07,107.49c2.67,0,5.34,0,8,0Z"/><path class="cls-34" d="M210.5,106.32h79c-1.25,1.52-3,1.14-4.59,1.14q-34.92,0-69.84,0C213.49,107.46,211.74,107.84,210.5,106.32Z"/><path class="cls-16" d="M183.33,210.15c-6.36,0-12.73-.22-19.08,0-4.05.15-5.77-.86-5.84-5.41-.32-19.95-.46-19.8,19.48-19.49,4.54.07,5.57,1.76,5.42,5.83-.24,6.35,0,12.72,0,19.08Z"/><path class="cls-35" d="M132.57,131c0-6.74.14-13.5-.16-20.24-.18-4.16,1-5.89,5.47-5.66,6.53.33,13.08.11,19.63.13q0,13.47.08,26.94C149.3,130.57,140.92,131.2,132.57,131Z"/><path class="cls-36" d="M185.76,494.56l-.09-19.79q86.78,0,173.57-.17c4.71,0,5.87,1.54,5.87,6,0,16.31.15,16.31-15.89,16.31H193.56C190.71,497,187.71,497.48,185.76,494.56Z"/><path class="cls-4" d="M157.41,105.23c2.17-8.63.25-17.45,1.15-26.14l25.14.07c0,6.15-.63,12.36,0,18.43.68,6.59-1.92,8-7.87,7.56C169.73,104.68,163.55,105.16,157.41,105.23Z"/><path class="cls-17" d="M158.54,118c0-11.8,0-11.8,11.57-11.8,13.18,0,13.18,0,13.18,13.29,0,11.49,0,11.49-11.29,11.49h-.62C158.54,131,158.54,131,158.54,118Z"/></svg>