<svg id="Layer_1" data-name="Layer 1" xmlns="http://www.w3.org/2000/svg" viewBox="0 0 872.1 500"><defs><style>.cls-1{fill:#ce4add;}.cls-2{fill:#c33cce;}.cls-3{fill:#b531bc;}.cls-4{fill:#a728a9;}.cls-5{fill:#ae30b5;}.cls-6{fill:#ba39c4;}.cls-7{fill:#98209e;}.cls-8{fill:#eaac68;}.cls-10,.cls-11,.cls-12,.cls-9{fill:#d88a3d;}.cls-9{opacity:0.75;}.cls-11{opacity:0.5;}.cls-12{opacity:0.25;}.cls-13{fill:#c97a32;}.cls-14{fill:#e5a35d;}.cls-15{fill:#f297ff;}.cls-16{fill:#fff;}.cls-17{fill:#f7caff;}</style></defs><rect class="cls-1" width="872.09" height="500"/><rect class="cls-2" width="872.09" height="337.21"/><rect class="cls-3" width="872.09" height="232.56"/><rect class="cls-4" width="872.09" height="127.91"/><polygon class="cls-4" points="606.04 464.39 606.04 455.66 591.26 455.66 591.26 448.27 576.48 448.27 576.48 440.88 546.91 440.88 546.91 426.09 532.13 426.09 532.13 418.7 495.18 418.7 495.18 396.53 480.4 396.53 480.4 389.14 465.62 389.14 465.62 381.75 436.05 381.75 436.05 366.97 421.27 366.97 421.27 359.58 406.49 359.58 406.49 352.19 376.93 352.19 376.93 344.8 362.15 344.8 362.15 352.19 354.76 352.19 354.76 359.58 339.98 359.58 339.98 366.97 332.59 366.97 332.59 374.36 325.19 374.36 325.19 381.75 317.81 381.75 317.81 389.14 303.02 389.14 303.02 396.53 295.63 396.53 295.63 403.92 288.24 403.92 288.24 411.31 280.85 411.31 280.85 418.7 266.07 418.7 266.07 426.09 258.68 426.09 258.68 433.48 243.9 433.48 243.9 440.88 236.5 440.88 236.5 448.27 221.72 448.27 221.72 455.66 214.33 455.66 214.33 463.05 606.04 464.39"/><rect class="cls-5" x="384.32" y="352.19" width="22.17" height="7.39"/><rect class="cls-5" x="369.54" y="344.8" width="22.17" height="7.39"/><rect class="cls-5" x="399.1" y="359.58" width="22.17" height="7.39"/><rect class="cls-5" x="362.15" y="359.58" width="22.17" height="7.39"/><rect class="cls-5" x="413.88" y="366.97" width="22.17" height="7.39"/><rect class="cls-6" x="384.32" y="344.8" width="7.39" height="7.39"/><rect class="cls-6" x="399.1" y="352.19" width="7.39" height="7.39"/><rect class="cls-6" x="413.88" y="359.58" width="7.39" height="7.39"/><rect class="cls-6" x="428.66" y="366.97" width="7.39" height="7.39"/><rect class="cls-5" x="443.45" y="381.75" width="22.17" height="7.39"/><polygon class="cls-7" points="576.48 477.83 576.48 470.44 561.7 470.44 561.7 463.05 532.13 463.05 532.13 448.27 517.35 448.27 517.35 440.88 480.4 440.88 480.4 418.7 465.62 418.7 465.62 411.31 450.84 411.31 450.84 403.92 443.43 403.92 443.43 396.52 421.27 396.52 421.27 389.14 406.49 389.14 406.49 381.75 391.71 381.75 391.71 374.36 362.15 374.36 362.15 366.97 347.37 366.97 347.37 374.36 339.98 374.36 339.98 381.75 325.2 381.75 325.2 389.14 317.81 389.14 317.81 396.53 310.42 396.53 310.42 403.92 303.02 403.92 303.02 411.31 288.24 411.31 288.24 418.7 280.85 418.7 280.85 426.09 273.46 426.09 273.46 433.48 266.07 433.48 266.07 440.88 251.29 440.88 251.29 448.27 243.9 448.27 243.9 455.66 229.12 455.66 229.12 463.05 221.72 463.05 221.72 470.44 206.94 470.44 206.94 477.83 199.55 477.83 199.55 485.22 591.26 486.56 591.26 477.83 576.48 477.83"/><rect class="cls-5" x="428.66" y="374.36" width="22.17" height="7.39"/><rect class="cls-5" x="458.23" y="389.14" width="22.17" height="7.39"/><rect class="cls-5" x="473.01" y="396.53" width="22.17" height="7.39"/><rect class="cls-6" x="443.45" y="374.36" width="7.39" height="7.39"/><rect class="cls-6" x="458.23" y="381.75" width="7.39" height="7.39"/><rect class="cls-6" x="473.01" y="389.14" width="7.39" height="7.39"/><rect class="cls-5" x="421.27" y="381.75" width="7.39" height="7.39"/><rect class="cls-5" x="406.49" y="374.36" width="7.39" height="7.39"/><rect class="cls-6" x="487.79" y="396.53" width="7.39" height="7.39"/><rect class="cls-5" x="495.18" y="411.31" width="22.17" height="7.39"/><rect class="cls-5" x="480.4" y="403.92" width="22.17" height="7.39"/><rect class="cls-5" x="509.96" y="418.7" width="22.17" height="7.39"/><rect class="cls-5" x="524.74" y="426.09" width="22.17" height="7.39"/><rect class="cls-6" x="509.96" y="411.31" width="7.39" height="7.39"/><rect class="cls-6" x="524.74" y="418.7" width="7.39" height="7.39"/><rect class="cls-6" x="539.52" y="426.09" width="7.39" height="7.39"/><rect class="cls-5" x="554.3" y="440.87" width="22.17" height="7.39"/><rect class="cls-5" x="539.52" y="433.48" width="22.17" height="7.39"/><rect class="cls-5" x="569.09" y="448.27" width="22.17" height="7.39"/><rect class="cls-5" x="583.87" y="455.66" width="22.17" height="7.39"/><rect class="cls-6" x="554.3" y="433.48" width="7.39" height="7.39"/><rect class="cls-6" x="569.09" y="440.87" width="7.39" height="7.39"/><rect class="cls-6" x="583.87" y="448.27" width="7.39" height="7.39"/><rect class="cls-6" x="598.65" y="455.66" width="7.39" height="7.39"/><polygon class="cls-4" points="428.66 455.66 428.66 448.27 413.88 448.27 413.88 440.88 391.71 440.88 391.71 426.09 376.93 426.09 376.93 418.7 362.15 418.7 362.15 411.31 332.58 411.31 332.58 396.53 317.8 396.53 317.8 389.14 280.85 389.14 280.85 366.97 266.07 366.97 266.07 359.58 251.29 359.58 251.29 352.19 221.72 352.19 221.72 337.41 206.94 337.41 206.94 330.02 192.16 330.02 192.16 322.63 162.6 322.63 162.6 315.23 147.82 315.23 147.82 322.63 140.43 322.63 140.43 330.02 125.65 330.02 125.65 337.41 118.26 337.41 118.26 344.8 110.86 344.8 110.86 352.19 103.47 352.19 103.47 359.58 88.69 359.58 88.69 366.97 81.3 366.97 81.3 374.36 73.91 374.36 73.91 381.75 66.52 381.75 66.52 389.14 51.74 389.14 51.74 396.53 44.35 396.53 44.35 403.92 29.57 403.92 29.57 411.31 22.17 411.31 22.17 418.7 7.39 418.7 7.39 426.09 0 426.09 0 463.05 443.44 463.05 443.44 455.66 428.66 455.66"/><rect class="cls-5" x="169.99" y="322.63" width="22.17" height="7.39"/><rect class="cls-5" x="192.16" y="352.19" width="22.17" height="7.39"/><rect class="cls-5" x="221.72" y="381.75" width="22.17" height="7.39"/><rect class="cls-7" x="162.6" y="366.97" width="22.17" height="7.39"/><rect class="cls-5" x="141.25" y="337.41" width="22.17" height="7.39"/><rect class="cls-5" x="155.21" y="315.23" width="22.17" height="7.39"/><rect class="cls-5" x="184.77" y="330.02" width="22.17" height="7.39"/><rect class="cls-5" x="199.55" y="337.41" width="22.17" height="7.39"/><rect class="cls-6" x="169.99" y="315.23" width="7.39" height="7.39"/><rect class="cls-6" x="184.77" y="322.63" width="7.39" height="7.39"/><rect class="cls-6" x="199.55" y="330.02" width="7.39" height="7.39"/><rect class="cls-6" x="214.33" y="337.41" width="7.39" height="7.39"/><rect class="cls-5" x="214.33" y="359.58" width="7.39" height="7.39"/><rect class="cls-5" x="184.77" y="344.8" width="7.39" height="7.39"/><rect class="cls-5" x="184.77" y="359.58" width="7.39" height="7.39"/><rect class="cls-5" x="162.6" y="352.19" width="14.78" height="7.39"/><rect class="cls-5" x="288.24" y="403.92" width="14.78" height="7.39"/><rect class="cls-7" x="155.2" y="359.58" width="7.39" height="7.39"/><rect class="cls-7" x="133.03" y="359.58" width="7.39" height="7.39"/><rect class="cls-5" x="273.46" y="389.14" width="7.39" height="7.39"/><rect class="cls-5" x="303.02" y="411.31" width="7.39" height="7.39"/><rect class="cls-5" x="229.12" y="352.19" width="22.17" height="7.39"/><rect class="cls-5" x="236.51" y="374.36" width="22.17" height="7.39"/><rect class="cls-5" x="221.72" y="366.97" width="14.78" height="7.39"/><rect class="cls-7" x="206.94" y="389.14" width="14.78" height="7.39"/><rect class="cls-7" x="273.45" y="411.31" width="14.78" height="7.39"/><rect class="cls-7" x="236.51" y="403.92" width="36.95" height="7.39"/><polygon class="cls-7" points="288.24 448.26 288.24 440.88 273.46 440.88 273.46 418.7 236.51 418.7 236.51 411.31 221.73 411.31 221.73 403.92 206.94 403.92 206.94 396.53 192.16 396.53 192.16 389.14 177.38 389.14 177.38 381.75 162.6 381.75 162.6 374.36 133.04 374.36 133.04 366.97 118.26 366.97 118.26 374.36 110.87 374.36 110.87 381.75 96.09 381.75 96.09 389.14 88.7 389.14 88.7 396.53 81.31 396.53 81.31 403.92 73.91 403.92 73.91 411.31 59.13 411.31 59.13 418.7 51.74 418.7 51.74 426.09 44.35 426.09 44.35 433.48 36.96 433.48 36.96 440.88 22.18 440.88 22.18 448.26 14.79 448.26 14.79 455.66 0 455.66 0 470.44 303.02 470.44 303.02 448.26 288.24 448.26"/><rect class="cls-5" x="155.21" y="330.02" width="14.78" height="7.39"/><rect class="cls-5" x="214.33" y="344.8" width="22.17" height="7.39"/><rect class="cls-5" x="243.9" y="359.58" width="22.17" height="7.39"/><rect class="cls-5" x="258.68" y="366.97" width="22.17" height="7.39"/><rect class="cls-6" x="229.12" y="344.8" width="7.39" height="7.39"/><rect class="cls-6" x="243.9" y="352.19" width="7.39" height="7.39"/><rect class="cls-6" x="258.68" y="359.58" width="7.39" height="7.39"/><rect class="cls-6" x="273.46" y="366.97" width="7.39" height="7.39"/><rect class="cls-5" x="280.85" y="381.75" width="22.17" height="7.39"/><rect class="cls-5" x="266.07" y="374.36" width="22.17" height="7.39"/><rect class="cls-5" x="295.63" y="389.14" width="22.17" height="7.39"/><rect class="cls-5" x="310.41" y="396.53" width="22.17" height="7.39"/><rect class="cls-6" x="280.85" y="374.36" width="7.39" height="7.39"/><rect class="cls-6" x="295.63" y="381.75" width="7.39" height="7.39"/><rect class="cls-6" x="310.41" y="389.14" width="7.39" height="7.39"/><rect class="cls-6" x="325.19" y="396.53" width="7.39" height="7.39"/><rect class="cls-5" x="339.97" y="411.31" width="22.17" height="7.39"/><rect class="cls-5" x="325.19" y="403.92" width="22.17" height="7.39"/><rect class="cls-5" x="354.76" y="418.7" width="22.17" height="7.39"/><rect class="cls-5" x="369.54" y="426.09" width="22.17" height="7.39"/><rect class="cls-6" x="339.97" y="403.92" width="7.39" height="7.39"/><rect class="cls-6" x="354.76" y="411.31" width="7.39" height="7.39"/><rect class="cls-6" x="369.54" y="418.7" width="7.39" height="7.39"/><rect class="cls-6" x="384.32" y="426.09" width="7.39" height="7.39"/><rect class="cls-5" x="391.71" y="440.88" width="22.17" height="7.39"/><rect class="cls-5" x="376.93" y="433.48" width="22.17" height="7.39"/><rect class="cls-5" x="406.49" y="448.27" width="22.17" height="7.39"/><rect class="cls-5" x="421.27" y="455.66" width="22.17" height="7.39"/><rect class="cls-6" x="391.71" y="433.48" width="7.39" height="7.39"/><rect class="cls-6" x="406.49" y="440.88" width="7.39" height="7.39"/><rect class="cls-6" x="421.27" y="448.27" width="7.39" height="7.39"/><rect class="cls-6" x="436.05" y="455.66" width="7.39" height="7.39"/><polygon class="cls-4" points="443.43 448.27 443.43 440.88 458.22 440.88 458.22 433.48 480.39 433.48 480.39 418.7 495.17 418.7 495.17 411.31 509.95 411.31 509.95 403.92 539.51 403.92 539.51 389.14 554.29 389.14 554.29 381.75 591.25 381.75 591.25 359.58 606.03 359.58 606.03 352.19 620.81 352.19 620.81 344.8 650.37 344.8 650.37 330.02 665.15 330.02 665.15 322.63 679.93 322.63 679.93 315.23 709.5 315.23 709.5 307.84 724.28 307.84 724.28 315.23 731.67 315.23 731.67 322.63 746.45 322.63 746.45 330.02 753.84 330.02 753.84 337.41 761.23 337.41 761.23 344.8 768.62 344.8 768.62 352.19 783.4 352.19 783.4 359.58 790.79 359.58 790.79 366.97 798.19 366.97 798.19 374.36 805.58 374.36 805.58 381.75 820.36 381.75 820.36 389.14 827.75 389.14 827.75 396.53 842.53 396.53 842.53 403.92 849.92 403.92 849.92 411.31 864.7 411.31 864.7 418.7 872.1 418.7 872.1 455.66 428.65 455.66 428.65 448.27 443.43 448.27"/><rect class="cls-5" x="679.93" y="315.23" width="22.17" height="7.39"/><rect class="cls-5" x="657.76" y="344.8" width="22.17" height="7.39"/><rect class="cls-5" x="628.2" y="374.36" width="22.17" height="7.39"/><rect class="cls-7" x="687.32" y="359.58" width="22.17" height="7.39"/><rect class="cls-5" x="708.68" y="330.02" width="22.17" height="7.39"/><rect class="cls-5" x="694.72" y="307.84" width="22.17" height="7.39"/><rect class="cls-5" x="665.15" y="322.63" width="22.17" height="7.39"/><rect class="cls-5" x="650.37" y="330.02" width="22.17" height="7.39"/><rect class="cls-6" x="694.72" y="307.84" width="7.39" height="7.39" transform="translate(1396.82 623.08) rotate(180)"/><rect class="cls-6" x="679.93" y="315.23" width="7.39" height="7.39" transform="translate(1367.26 637.86) rotate(180)"/><rect class="cls-6" x="665.15" y="322.63" width="7.39" height="7.39" transform="translate(1337.7 652.64) rotate(180)"/><rect class="cls-6" x="650.37" y="330.02" width="7.39" height="7.39" transform="translate(1308.13 667.42) rotate(180)"/><rect class="cls-5" x="650.37" y="352.19" width="7.39" height="7.39" transform="translate(1308.13 711.77) rotate(180)"/><rect class="cls-5" x="679.93" y="337.41" width="7.39" height="7.39" transform="translate(1367.26 682.2) rotate(180)"/><rect class="cls-5" x="679.93" y="352.19" width="7.39" height="7.39" transform="translate(1367.26 711.77) rotate(180)"/><rect class="cls-5" x="694.72" y="344.8" width="14.78" height="7.39" transform="translate(1404.21 696.98) rotate(180)"/><rect class="cls-5" x="569.07" y="396.53" width="14.78" height="7.39" transform="translate(1152.93 800.45) rotate(180)"/><rect class="cls-7" x="709.51" y="352.19" width="7.39" height="7.39" transform="translate(1426.4 711.77) rotate(180)"/><rect class="cls-7" x="731.68" y="352.19" width="7.39" height="7.39" transform="translate(1470.74 711.77) rotate(180)"/><rect class="cls-5" x="591.25" y="381.75" width="7.39" height="7.39" transform="translate(1189.88 770.89) rotate(180)"/><rect class="cls-5" x="561.68" y="403.92" width="7.39" height="7.39" transform="translate(1130.76 815.23) rotate(180)"/><rect class="cls-5" x="620.81" y="344.8" width="22.17" height="7.39"/><rect class="cls-5" x="613.42" y="366.97" width="22.17" height="7.39"/><rect class="cls-5" x="635.59" y="359.58" width="14.78" height="7.39"/><rect class="cls-7" x="650.37" y="381.75" width="14.78" height="7.39"/><rect class="cls-7" x="583.86" y="403.92" width="14.78" height="7.39"/><rect class="cls-7" x="598.64" y="396.53" width="36.95" height="7.39"/><polygon class="cls-7" points="583.85 440.88 583.85 433.48 598.64 433.48 598.64 411.31 635.59 411.31 635.59 403.92 650.37 403.92 650.37 396.53 665.15 396.53 665.15 389.14 679.93 389.14 679.93 381.75 694.71 381.75 694.71 374.36 709.49 374.36 709.49 366.97 739.06 366.97 739.06 359.58 753.84 359.58 753.84 366.97 761.23 366.97 761.23 374.36 776.01 374.36 776.01 381.75 783.4 381.75 783.4 389.14 790.79 389.14 790.79 396.53 798.18 396.53 798.18 403.92 812.96 403.92 812.96 411.31 820.35 411.31 820.35 418.7 827.75 418.7 827.75 426.09 835.14 426.09 835.14 433.48 849.92 433.48 849.92 440.88 857.31 440.88 857.31 448.26 872.09 448.26 872.09 463.05 569.07 463.05 569.07 440.88 583.85 440.88"/><rect class="cls-5" x="702.11" y="322.63" width="14.78" height="7.39"/><rect class="cls-5" x="635.59" y="337.41" width="22.17" height="7.39"/><rect class="cls-5" x="606.03" y="352.19" width="22.17" height="7.39"/><rect class="cls-5" x="591.25" y="359.58" width="22.17" height="7.39"/><rect class="cls-6" x="635.59" y="337.41" width="7.39" height="7.39" transform="translate(1278.57 682.2) rotate(180)"/><rect class="cls-6" x="620.81" y="344.8" width="7.39" height="7.39" transform="translate(1249.01 696.98) rotate(180)"/><rect class="cls-6" x="606.03" y="352.19" width="7.39" height="7.39" transform="translate(1219.45 711.77) rotate(180)"/><rect class="cls-6" x="591.25" y="359.58" width="7.39" height="7.39" transform="translate(1189.88 726.55) rotate(180)"/><rect class="cls-5" x="569.07" y="374.36" width="22.17" height="7.39"/><rect class="cls-5" x="583.86" y="366.97" width="22.17" height="7.39"/><rect class="cls-5" x="554.29" y="381.75" width="22.17" height="7.39"/><rect class="cls-5" x="539.51" y="389.14" width="22.17" height="7.39"/><rect class="cls-6" x="583.86" y="366.97" width="7.39" height="7.39" transform="translate(1175.1 741.33) rotate(180)"/><rect class="cls-6" x="569.07" y="374.36" width="7.39" height="7.39" transform="translate(1145.54 756.11) rotate(180)"/><rect class="cls-6" x="554.29" y="381.75" width="7.39" height="7.39" transform="translate(1115.98 770.89) rotate(180)"/><rect class="cls-6" x="539.51" y="389.14" width="7.39" height="7.39" transform="translate(1086.42 785.67) rotate(180)"/><rect class="cls-5" x="509.95" y="403.92" width="22.17" height="7.39"/><rect class="cls-5" x="524.73" y="396.53" width="22.17" height="7.39"/><rect class="cls-5" x="495.17" y="411.31" width="22.17" height="7.39"/><rect class="cls-5" x="480.39" y="418.7" width="22.17" height="7.39"/><rect class="cls-6" x="524.73" y="396.53" width="7.39" height="7.39" transform="translate(1056.85 800.45) rotate(180)"/><rect class="cls-6" x="509.95" y="403.92" width="7.39" height="7.39" transform="translate(1027.29 815.23) rotate(180)"/><rect class="cls-6" x="495.17" y="411.31" width="7.39" height="7.39" transform="translate(997.73 830.02) rotate(180)"/><rect class="cls-6" x="480.39" y="418.7" width="7.39" height="7.39" transform="translate(968.17 844.8) rotate(180)"/><rect class="cls-5" x="458.22" y="433.48" width="22.17" height="7.39"/><rect class="cls-5" x="473" y="426.09" width="22.17" height="7.39"/><rect class="cls-5" x="443.43" y="440.87" width="22.17" height="7.39"/><rect class="cls-5" x="428.65" y="448.27" width="22.17" height="7.39"/><rect class="cls-6" x="473" y="426.09" width="7.39" height="7.39" transform="translate(953.38 859.58) rotate(180)"/><rect class="cls-6" x="458.22" y="433.48" width="7.39" height="7.39" transform="translate(923.82 874.36) rotate(180)"/><rect class="cls-6" x="443.43" y="440.87" width="7.39" height="7.39" transform="translate(894.26 889.14) rotate(180)"/><rect class="cls-6" x="428.65" y="448.27" width="7.39" height="7.39" transform="translate(864.7 903.92) rotate(180)"/><polygon class="cls-8" points="776.01 455.66 776.01 463.05 746.45 463.05 716.89 463.05 716.89 455.66 598.64 455.66 598.64 463.05 561.69 463.05 561.69 455.66 169.98 455.66 169.98 463.05 147.81 463.05 125.64 463.05 125.64 455.66 0 455.66 0 500 872.09 500 872.09 455.66 776.01 455.66"/><rect class="cls-9" y="485.22" width="872.09" height="7.39" transform="translate(872.09 977.83) rotate(180)"/><rect class="cls-10" y="492.61" width="872.09" height="7.39" transform="translate(872.09 992.61) rotate(180)"/><rect class="cls-11" y="477.83" width="872.09" height="7.39" transform="translate(872.09 963.05) rotate(180)"/><rect class="cls-12" y="470.44" width="872.09" height="7.39" transform="translate(872.09 948.27) rotate(180)"/><rect class="cls-10" y="448.27" width="118.25" height="7.39"/><rect class="cls-10" x="22.17" y="440.88" width="81.3" height="7.39"/><rect class="cls-10" x="36.95" y="433.48" width="51.73" height="7.39"/><polygon class="cls-10" points="51.73 426.09 44.34 426.09 44.34 433.48 51.73 433.48 59.13 433.48 59.13 426.09 51.73 426.09"/><polygon class="cls-10" points="66.52 426.09 59.13 426.09 59.13 433.48 66.52 433.48 73.91 433.48 73.91 426.09 66.52 426.09"/><polygon class="cls-13" points="59.13 448.27 36.95 448.27 36.95 455.66 59.13 455.66 81.3 455.66 81.3 448.27 59.13 448.27"/><rect class="cls-14" x="66.52" y="433.48" width="22.17" height="7.39"/><rect class="cls-14" x="51.73" y="426.09" width="22.17" height="7.39"/><rect class="cls-14" x="81.3" y="440.88" width="22.17" height="7.39"/><rect class="cls-14" x="96.08" y="448.27" width="22.17" height="7.39"/><rect class="cls-8" x="66.52" y="426.09" width="7.39" height="7.39"/><rect class="cls-8" x="81.3" y="433.48" width="7.39" height="7.39"/><rect class="cls-8" x="96.08" y="440.88" width="7.39" height="7.39"/><rect class="cls-8" x="110.86" y="448.27" width="7.39" height="7.39"/><rect class="cls-13" x="59.13" y="440.88" width="7.39" height="7.39"/><rect class="cls-10" x="399.09" y="448.27" width="103.47" height="7.39"/><rect class="cls-10" x="406.48" y="440.88" width="81.3" height="7.39"/><rect class="cls-10" x="421.27" y="433.48" width="51.73" height="7.39"/><polygon class="cls-10" points="436.05 426.09 428.66 426.09 428.66 433.48 436.05 433.48 443.44 433.48 443.44 426.09 436.05 426.09"/><polygon class="cls-10" points="450.83 426.09 443.44 426.09 443.44 433.48 450.83 433.48 458.22 433.48 458.22 426.09 450.83 426.09"/><polygon class="cls-13" points="436.05 448.27 406.48 448.27 406.48 455.66 436.05 455.66 465.61 455.66 465.61 448.27 436.05 448.27"/><rect class="cls-14" x="450.83" y="433.48" width="22.17" height="7.39"/><rect class="cls-14" x="436.05" y="426.09" width="22.17" height="7.39"/><rect class="cls-14" x="465.61" y="440.88" width="22.17" height="7.39"/><rect class="cls-14" x="480.39" y="448.27" width="22.17" height="7.39"/><rect class="cls-8" x="450.83" y="426.09" width="7.39" height="7.39"/><rect class="cls-8" x="465.61" y="433.48" width="7.39" height="7.39"/><rect class="cls-8" x="480.39" y="440.88" width="7.39" height="7.39"/><rect class="cls-8" x="495.17" y="448.27" width="7.39" height="7.39"/><rect class="cls-13" x="443.44" y="440.88" width="7.39" height="7.39"/><rect class="cls-13" x="421.27" y="440.88" width="7.39" height="7.39"/><rect class="cls-10" x="606.03" y="448.27" width="103.47" height="7.39"/><rect class="cls-10" x="613.42" y="440.88" width="81.3" height="7.39"/><rect class="cls-10" x="628.2" y="433.48" width="51.73" height="7.39"/><polygon class="cls-10" points="642.98 426.09 635.59 426.09 635.59 433.48 642.98 433.48 650.38 433.48 650.38 426.09 642.98 426.09"/><polygon class="cls-10" points="657.76 426.09 650.38 426.09 650.38 433.48 657.76 433.48 665.16 433.48 665.16 426.09 657.76 426.09"/><polygon class="cls-13" points="642.98 448.27 613.42 448.27 613.42 455.66 642.98 455.66 672.55 455.66 672.55 448.27 642.98 448.27"/><rect class="cls-14" x="657.77" y="433.48" width="22.17" height="7.39"/><rect class="cls-14" x="642.98" y="426.09" width="22.17" height="7.39"/><rect class="cls-14" x="672.55" y="440.88" width="22.17" height="7.39"/><rect class="cls-14" x="687.33" y="448.27" width="22.17" height="7.39"/><rect class="cls-8" x="657.77" y="426.09" width="7.39" height="7.39"/><rect class="cls-8" x="672.55" y="433.48" width="7.39" height="7.39"/><rect class="cls-8" x="687.33" y="440.88" width="7.39" height="7.39"/><rect class="cls-8" x="702.11" y="448.27" width="7.39" height="7.39"/><rect class="cls-13" x="650.37" y="440.88" width="7.39" height="7.39"/><rect class="cls-13" x="628.2" y="440.88" width="7.39" height="7.39"/><rect class="cls-10" x="184.77" y="448.27" width="118.25" height="7.39"/><rect class="cls-10" x="214.33" y="440.88" width="147.81" height="7.39"/><rect class="cls-10" x="229.11" y="433.48" width="73.91" height="7.39"/><rect class="cls-10" x="266.06" y="448.27" width="118.25" height="7.39"/><rect class="cls-10" x="251.28" y="426.09" width="81.3" height="7.39"/><rect class="cls-10" x="303.02" y="433.48" width="51.73" height="7.39"/><rect class="cls-13" x="303.02" y="433.48" width="22.17" height="7.39"/><polygon class="cls-10" points="317.8 426.09 310.41 426.09 310.41 433.48 317.8 433.48 325.19 433.48 325.19 426.09 317.8 426.09"/><polygon class="cls-10" points="332.58 426.09 325.19 426.09 325.19 433.48 332.58 433.48 339.97 433.48 339.97 426.09 332.58 426.09"/><polygon class="cls-13" points="291.93 448.27 236.5 448.27 236.5 455.66 291.93 455.66 347.36 455.66 347.36 448.27 291.93 448.27"/><rect class="cls-14" x="332.58" y="433.48" width="22.17" height="7.39"/><rect class="cls-14" x="280.84" y="426.09" width="59.12" height="7.39"/><rect class="cls-14" x="347.36" y="440.88" width="22.17" height="7.39"/><rect class="cls-14" x="362.14" y="448.27" width="22.17" height="7.39"/><rect class="cls-8" x="332.58" y="426.09" width="7.39" height="7.39"/><rect class="cls-8" x="347.36" y="433.48" width="7.39" height="7.39"/><rect class="cls-8" x="362.14" y="440.88" width="7.39" height="7.39"/><rect class="cls-8" x="376.92" y="448.27" width="7.39" height="7.39"/><rect class="cls-13" x="325.19" y="440.88" width="7.39" height="7.39"/><rect class="cls-13" x="229.11" y="440.88" width="7.39" height="7.39"/><rect class="cls-13" x="243.89" y="440.88" width="59.13" height="7.39"/><rect class="cls-10" x="783.33" y="448.27" width="88.76" height="7.39"/><rect class="cls-10" x="812.9" y="440.88" width="59.2" height="7.39"/><rect class="cls-10" x="827.68" y="433.48" width="44.41" height="7.39"/><rect class="cls-10" x="849.85" y="426.09" width="22.24" height="7.39"/><polygon class="cls-13" points="853.58 448.27 835.07 448.27 835.07 455.66 853.58 455.66 872.09 455.66 872.09 448.27 853.58 448.27"/><rect class="cls-13" x="827.68" y="440.88" width="7.39" height="7.39"/><rect class="cls-13" x="864.63" y="433.48" width="7.39" height="7.39"/><rect class="cls-13" x="842.46" y="440.88" width="29.63" height="7.39"/><rect class="cls-10" x="805.44" y="455.66" width="29.63" height="7.39"/><rect class="cls-13" x="805.44" y="455.66" width="7.39" height="7.39"/><rect class="cls-13" x="554.3" y="448.27" width="7.39" height="7.39"/><rect class="cls-13" x="598.64" y="455.66" width="7.39" height="7.39"/><rect class="cls-13" x="709.5" y="455.66" width="7.39" height="7.39"/><rect class="cls-13" x="775.94" y="470.44" width="7.39" height="7.39"/><rect class="cls-13" x="835.07" y="485.22" width="7.39" height="7.39"/><rect class="cls-13" x="775.94" y="455.66" width="7.39" height="7.39"/><rect class="cls-13" x="561.69" y="455.66" width="7.39" height="7.39"/><rect class="cls-13" x="524.73" y="448.27" width="22.17" height="7.39"/><rect class="cls-10" x="155.2" y="455.66" width="7.39" height="7.39"/><polygon class="cls-13" points="428.66 463.05 399.09 463.05 399.09 470.44 428.66 470.44 458.22 470.44 458.22 463.05 428.66 463.05"/><polygon class="cls-10" points="439.74 463.05 421.26 463.05 421.26 470.44 439.74 470.44 458.22 470.44 458.22 463.05 439.74 463.05"/><polygon class="cls-10" points="635.59 463.05 628.2 463.05 628.2 470.44 635.59 470.44 642.98 470.44 642.98 463.05 635.59 463.05"/><polygon class="cls-13" points="631.9 470.44 613.42 470.44 613.42 477.83 631.9 477.83 650.38 477.83 650.38 470.44 631.9 470.44"/><polygon class="cls-13" points="413.88 470.44 384.31 470.44 384.31 477.83 413.88 477.83 443.44 477.83 443.44 470.44 413.88 470.44"/><rect class="cls-10" x="399.09" y="470.44" width="7.39" height="7.39"/><rect class="cls-10" x="369.53" y="470.44" width="14.78" height="7.39"/><rect class="cls-13" x="650.37" y="463.05" width="7.39" height="7.39"/><rect class="cls-13" x="524.73" y="477.83" width="7.39" height="7.39"/><rect class="cls-10" x="642.98" y="470.44" width="7.39" height="7.39"/><rect class="cls-10" x="657.77" y="470.44" width="7.39" height="7.39"/><polygon class="cls-13" points="206.94 470.44 192.16 470.44 192.16 477.83 206.94 477.83 221.72 477.83 221.72 470.44 206.94 470.44"/><rect class="cls-13" x="229.11" y="463.05" width="7.39" height="7.39"/><rect class="cls-13" x="347.36" y="477.83" width="7.39" height="7.39"/><rect class="cls-10" x="110.86" y="470.44" width="44.34" height="7.39" transform="translate(266.06 948.27) rotate(180)"/><rect class="cls-10" x="236.5" y="470.44" width="7.39" height="7.39"/><polygon class="cls-10" points="724.28 463.05 716.89 463.05 716.89 470.44 724.28 470.44 731.67 470.44 731.67 463.05 724.28 463.05"/><polygon class="cls-10" points="554.3 463.05 546.91 463.05 546.91 470.44 554.3 470.44 561.69 470.44 561.69 463.05 554.3 463.05"/><polygon class="cls-10" points="739.06 470.44 731.67 470.44 731.67 477.83 739.06 477.83 746.45 477.83 746.45 470.44 739.06 470.44"/><rect class="cls-13" x="746.45" y="470.44" width="7.39" height="7.39"/><rect class="cls-10" x="103.47" y="477.83" width="7.39" height="7.39"/><rect class="cls-10" x="51.73" y="477.83" width="7.39" height="7.39"/><rect class="cls-15" x="51.73" y="181.77" width="103.47" height="7.39"/><rect class="cls-15" x="59.12" y="174.38" width="81.3" height="7.39"/><rect class="cls-15" x="73.91" y="166.99" width="51.73" height="7.39"/><polygon class="cls-15" points="88.69 159.6 81.3 159.6 81.3 166.99 88.69 166.99 96.08 166.99 96.08 159.6 88.69 159.6"/><rect class="cls-16" x="103.47" y="166.99" width="22.17" height="7.39"/><rect class="cls-16" x="118.25" y="174.38" width="22.17" height="7.39"/><rect class="cls-16" x="133.03" y="181.77" width="22.17" height="7.39"/><rect class="cls-16" x="88.69" y="159.6" width="22.17" height="7.39"/><rect class="cls-17" x="96.08" y="174.38" width="22.17" height="7.39"/><rect class="cls-17" x="88.69" y="166.99" width="22.17" height="7.39"/><rect class="cls-17" x="81.3" y="159.6" width="14.78" height="7.39"/><rect class="cls-17" x="110.86" y="181.77" width="22.17" height="7.39"/><rect class="cls-15" x="726.75" y="152.95" width="103.47" height="7.39"/><rect class="cls-15" x="734.14" y="145.56" width="81.3" height="7.39"/><rect class="cls-15" x="748.92" y="138.17" width="51.73" height="7.39"/><polygon class="cls-15" points="763.7 130.78 756.31 130.78 756.31 138.17 763.7 138.17 771.09 138.17 771.09 130.78 763.7 130.78"/><rect class="cls-16" x="778.48" y="138.17" width="22.17" height="7.39"/><rect class="cls-16" x="793.26" y="145.56" width="22.17" height="7.39"/><rect class="cls-16" x="808.04" y="152.95" width="22.17" height="7.39"/><rect class="cls-16" x="763.7" y="130.78" width="22.17" height="7.39"/><rect class="cls-17" x="771.09" y="145.56" width="22.17" height="7.39"/><rect class="cls-17" x="763.7" y="138.17" width="22.17" height="7.39"/><rect class="cls-17" x="756.31" y="130.78" width="14.78" height="7.39"/><rect class="cls-17" x="785.87" y="152.95" width="22.17" height="7.39"/><rect class="cls-15" x="421.27" y="210.39" width="51.73" height="7.39"/><rect class="cls-15" x="413.88" y="217.78" width="59.13" height="7.39"/><rect class="cls-15" x="399.1" y="225.17" width="51.73" height="7.39"/><polygon class="cls-15" points="436.05 203 428.66 203 428.66 210.39 436.05 210.39 443.44 210.39 443.44 203 436.05 203"/><rect class="cls-16" x="450.84" y="210.39" width="22.17" height="7.39"/><rect class="cls-16" x="465.62" y="217.78" width="22.17" height="7.39"/><rect class="cls-16" x="480.4" y="225.17" width="22.17" height="7.39"/><rect class="cls-16" x="436.05" y="203" width="22.17" height="7.39"/><rect class="cls-17" x="436.05" y="210.39" width="22.17" height="7.39"/><rect class="cls-17" x="443.45" y="217.78" width="22.17" height="7.39"/><rect class="cls-17" x="428.66" y="203" width="14.78" height="7.39"/><rect class="cls-17" x="458.23" y="225.17" width="22.17" height="7.39"/><rect class="cls-15" x="166.3" y="71.57" width="51.73" height="7.39"/><rect class="cls-15" x="158.9" y="78.96" width="59.12" height="7.39"/><rect class="cls-15" x="144.12" y="86.36" width="51.73" height="7.39"/><polygon class="cls-15" points="181.08 64.18 173.69 64.18 173.69 71.57 181.08 71.57 188.47 71.57 188.47 64.18 181.08 64.18"/><rect class="cls-16" x="195.86" y="71.57" width="22.17" height="7.39"/><rect class="cls-16" x="210.64" y="78.96" width="22.17" height="7.39"/><rect class="cls-16" x="225.42" y="86.36" width="22.17" height="7.39"/><rect class="cls-16" x="181.08" y="64.18" width="22.17" height="7.39"/><rect class="cls-17" x="181.08" y="71.57" width="22.17" height="7.39"/><rect class="cls-17" x="188.47" y="78.96" width="22.17" height="7.39"/><rect class="cls-17" x="173.69" y="64.18" width="14.78" height="7.39"/><rect class="cls-17" x="203.25" y="86.36" width="22.17" height="7.39"/><rect class="cls-15" x="624.09" y="119.7" width="103.47" height="7.39"/><rect class="cls-15" x="631.48" y="112.31" width="81.3" height="7.39"/><polygon class="cls-15" points="661.05 97.52 653.66 97.52 653.66 104.92 661.05 104.92 668.44 104.92 668.44 97.52 661.05 97.52"/><rect class="cls-16" x="690.61" y="112.31" width="22.17" height="7.39"/><rect class="cls-16" x="705.39" y="119.7" width="22.17" height="7.39"/><rect class="cls-17" x="668.44" y="112.31" width="22.17" height="7.39"/><rect class="cls-17" x="661.05" y="104.91" width="22.17" height="7.39"/><rect class="cls-17" x="653.66" y="97.52" width="14.78" height="7.39"/><rect class="cls-17" x="683.22" y="119.7" width="22.17" height="7.39"/><rect class="cls-15" x="587.14" y="104.91" width="103.47" height="7.39"/><rect class="cls-15" x="594.53" y="97.52" width="81.3" height="7.39"/><rect class="cls-15" x="609.31" y="90.13" width="51.73" height="7.39"/><rect class="cls-15" x="557.58" y="119.7" width="59.12" height="7.39"/><polygon class="cls-15" points="624.09 82.74 616.7 82.74 616.7 90.13 624.09 90.13 631.48 90.13 631.48 82.74 624.09 82.74"/><rect class="cls-16" x="638.88" y="90.13" width="22.17" height="7.39"/><rect class="cls-16" x="594.53" y="119.7" width="22.17" height="7.39"/><rect class="cls-16" x="653.66" y="97.52" width="22.17" height="7.39"/><rect class="cls-16" x="668.44" y="104.91" width="22.17" height="7.39"/><rect class="cls-16" x="624.09" y="82.74" width="22.17" height="7.39"/><rect class="cls-17" x="631.48" y="97.52" width="22.17" height="7.39"/><rect class="cls-17" x="624.09" y="90.13" width="22.17" height="7.39"/><rect class="cls-17" x="572.36" y="119.7" width="22.17" height="7.39"/><rect class="cls-17" x="594.53" y="104.91" width="7.39" height="7.39"/><rect class="cls-17" x="616.7" y="82.74" width="14.78" height="7.39"/><rect class="cls-17" x="646.27" y="104.91" width="22.17" height="7.39"/><rect class="cls-15" x="572.36" y="112.31" width="36.95" height="7.39"/><rect class="cls-16" x="587.14" y="112.31" width="22.17" height="7.39"/><rect class="cls-16" x="601.92" y="127.09" width="22.17" height="7.39"/><rect class="cls-17" x="579.75" y="127.09" width="22.17" height="7.39"/><rect class="cls-17" x="579.75" y="112.31" width="7.39" height="7.39"/><rect class="cls-15" x="299.4" y="269.51" width="103.47" height="7.39"/><rect class="cls-15" x="306.79" y="262.12" width="81.3" height="7.39"/><polygon class="cls-15" points="336.35 247.34 328.96 247.34 328.96 254.73 336.35 254.73 343.74 254.73 343.74 247.34 336.35 247.34"/><rect class="cls-16" x="365.91" y="262.12" width="22.17" height="7.39"/><rect class="cls-16" x="380.69" y="269.51" width="22.17" height="7.39"/><rect class="cls-17" x="343.74" y="262.12" width="22.17" height="7.39"/><rect class="cls-17" x="336.35" y="254.73" width="22.17" height="7.39"/><rect class="cls-17" x="328.96" y="247.34" width="14.78" height="7.39"/><rect class="cls-17" x="358.52" y="269.51" width="22.17" height="7.39"/><rect class="cls-15" x="262.44" y="254.73" width="103.47" height="7.39"/><rect class="cls-15" x="269.83" y="247.34" width="81.3" height="7.39"/><rect class="cls-15" x="284.61" y="239.95" width="51.73" height="7.39"/><rect class="cls-15" x="232.88" y="269.51" width="59.12" height="7.39"/><polygon class="cls-15" points="299.4 232.56 292 232.56 292 239.95 299.4 239.95 306.79 239.95 306.79 232.56 299.4 232.56"/><rect class="cls-16" x="314.18" y="239.95" width="22.17" height="7.39"/><rect class="cls-16" x="269.83" y="269.51" width="22.17" height="7.39"/><rect class="cls-16" x="328.96" y="247.34" width="22.17" height="7.39"/><rect class="cls-16" x="343.74" y="254.73" width="22.17" height="7.39"/><rect class="cls-16" x="299.4" y="232.56" width="22.17" height="7.39"/><rect class="cls-17" x="306.79" y="247.34" width="22.17" height="7.39"/><rect class="cls-17" x="299.4" y="239.95" width="22.17" height="7.39"/><rect class="cls-17" x="247.66" y="269.51" width="22.17" height="7.39"/><rect class="cls-17" x="269.83" y="254.73" width="7.39" height="7.39"/><rect class="cls-17" x="292.01" y="232.56" width="14.78" height="7.39"/><rect class="cls-17" x="321.57" y="254.73" width="22.17" height="7.39"/><rect class="cls-15" x="247.66" y="262.12" width="36.95" height="7.39"/><rect class="cls-16" x="262.44" y="262.12" width="22.17" height="7.39"/><rect class="cls-16" x="277.22" y="276.9" width="22.17" height="7.39"/><rect class="cls-17" x="255.05" y="276.9" width="22.17" height="7.39"/><rect class="cls-17" x="255.05" y="262.12" width="7.39" height="7.39"/></svg>