<svg id="Layer_1" data-name="Layer 1" xmlns="http://www.w3.org/2000/svg" viewBox="0 0 204.33 174.42"><defs><style>.cls-1{fill:#a63c3c;}.cls-2{fill:#a63d3c;}.cls-3{fill:#a63b3b;}.cls-4{fill:#a73c3c;}.cls-5{fill:#e24731;}.cls-6{fill:#e6d2cd;}</style></defs><path class="cls-1" d="M29.54,88.48c-1.11-1.84-2.94-1.21-4.51-1.22-6.82-.06-13.64-.19-20.45,0C1.29,87.39,0,86.7,0,83,.21,66.37.16,49.74,0,33.11,0,30.21.6,29,3.85,29.06c8.63.26,17.27.17,25.91.21l.62.73c1.78,9.38.52,18.85.78,28.28-.08,9.56.71,19.14-.45,28.68A3.26,3.26,0,0,1,29.54,88.48Z"/><path class="cls-1" d="M174.82,29c8.29.05,16.58.23,24.87.08,3.24-.06,4.68.51,4.64,4.25-.2,16.59-.16,33.19,0,49.78,0,3.21-.8,4.29-4.15,4.21-8.46-.19-16.92,0-25.37.09A2.94,2.94,0,0,1,173.57,86c-1-3.24-.57-6.58-.59-9.88q-.06-19.65,0-39.3c0-2.14-.14-4.32.6-6.4A2.76,2.76,0,0,1,174.82,29Z"/><path class="cls-2" d="M29.76,29.27c-1-8.94-.18-17.91-.45-26.86C29.24.26,30.49,0,32.17,0,49.8.05,67.42.09,85.05,0c2.93,0,2.6,1.75,2.61,3.59q0,12.72.12,25.45l-.64.72c-4,1.8-8.15.9-12.24,1-5.45.11-10.91.16-16.37-.05-7.76.26-15.53.09-23.29.09-2,0-4-.15-5.58-1.6Z"/><path class="cls-1" d="M116.49,29.11c.06-8.47.23-16.95.12-25.42,0-2.79.73-3.73,3.61-3.71,16.95.13,33.9.16,50.85,0,3.31,0,3.79,1.26,3.74,4.08-.13,8.31,0,16.62,0,24.94l-.33.26c-1.61,1.48-3.63,1.54-5.63,1.54q-23.43.09-46.85,0a9.32,9.32,0,0,1-4.84-1Z"/><path class="cls-1" d="M29.54,88.48l.22-1.26a5.3,5.3,0,0,1,3.61-1.49c7-.25,14-.29,20.94,0,3.51.15,5.66,2.08,5.74,5.63.19,8.13.76,16.27-.34,24.39a3.7,3.7,0,0,1-1.16,1.6c-1.59-1.81-3.72-1-5.62-1.06-6.63-.09-13.27-.14-19.9,0-2.63.06-3.9-.45-3.8-3.48C29.49,104.73,29.45,96.61,29.54,88.48Z"/><path class="cls-1" d="M174.79,87.4c0,8.29-.18,16.58.05,24.86.09,3.34-1,4.16-4.21,4.09-8.27-.17-16.56,0-24.84,0l-.76-.65c-2.08-8.69-1-17.47-.68-26.23a3.34,3.34,0,0,1,3.11-3.4c8.75-.59,17.52-1.35,26.23.47.3.07.53.39.8.6Z"/><path class="cls-3" d="M58.55,117.37l.16-1.13c1.42-1.38,3.23-1.6,5.08-1.62,6.3-.08,12.61-.18,18.91,0,5,.17,6.34,1.31,6.39,6.23.07,7.62.72,15.26-.43,22.86a3.44,3.44,0,0,1-1.19,1.55c-8.31,0-16.62-.13-24.93.05-3.1.07-4.4-.62-4.27-4.05C58.57,133.32,58.48,125.34,58.55,117.37Z"/><path class="cls-1" d="M145.79,116.36c0,8.45-.16,16.9,0,25.35,0,2.83-.81,3.68-3.63,3.63-8.44-.15-16.89,0-25.33,0l-.76-.66c-2.06-8.68-1-17.46-.67-26.21a3.36,3.36,0,0,1,3.12-3.4c8.75-.59,17.52-1.35,26.22.47.29.06.53.39.79.59Z"/><path class="cls-1" d="M116.81,145.33c0,8.48-.19,17,0,25.43,0,2.88-.91,3.69-3.68,3.64-7.31-.16-14.63-.18-21.93,0-2.92.08-3.62-.95-3.58-3.7.11-8.47,0-17-.1-25.42l.2-.2a6,6,0,0,1,4.09-1.45q10.35-.25,20.71,0a6,6,0,0,1,4.08,1.46Z"/><path class="cls-4" d="M87.78,29l28.71.07.16.17a6.61,6.61,0,0,1,1.5,4.64c.11,6.33.24,12.66-.05,19-.22,5-1.83,6.59-6.72,6.82-6.48.3-13,.2-19.45,0-2.91-.08-5.42-1-5.64-4.38a179.74,179.74,0,0,1,0-23.44,4.38,4.38,0,0,1,1.29-2.65Z"/><path class="cls-5" d="M87.58,29.27c0,8.12.15,16.25,0,24.37-.07,3.33.79,4.78,4.42,4.63,6.29-.25,12.6-.27,18.89,0,4.25.19,6-1.13,5.81-5.61-.28-7.78-.05-15.58,0-23.38l57.84,0v57.9c-8.32,0-16.64.13-25,0-3-.06-4.08,1-4,4,.14,8.32,0,16.64,0,25-8.31,0-16.63.14-24.94,0-3,0-4.07,1-4,4,.14,8.31,0,16.63,0,25l-28.88,0c0-8.31-.14-16.63,0-25,0-3-1-4.09-4-4-8.31.17-16.62.1-24.93.12,0-7.78-.25-15.57,0-23.34.12-4.24-1.13-6-5.61-5.8-7.76.31-15.55.11-23.33.12q0-14.49-.08-29c1.76-1.6,4-1.56,6.11-1.58,4.81,0,9.62,0,14.43,0,6.7,0,6.84-.19,6.87-7.09,0-4.81,0-9.63,0-14.44,0-2-.11-4,1.17-5.75Z"/><path class="cls-6" d="M58.29,29.35c0,8.13-.07,16.25.17,24.37.11,3.42-.86,4.64-4.42,4.53-8.12-.22-16.24,0-24.36,0-.45-9.69-.5-19.37,0-29Z"/></svg>