<svg id="Layer_1" data-name="Layer 1" xmlns="http://www.w3.org/2000/svg" viewBox="0 0 100 100"><defs><style>.cls-1{fill:#fefefe;}.cls-2{fill:#fd393b;}.cls-3{fill:#ca2020;}</style></defs><polygon class="cls-1" points="51.34 7.49 27.96 10.13 14.34 25.18 6.7 50.81 10.93 69.09 18.91 81 29.02 88.26 44.44 93.99 63.26 92.92 75.99 88.08 84.41 79.37 91.58 63.53 92.29 35.28 85.31 22.99 77.78 14.83 61.65 6.49 51.34 7.49"/><path class="cls-2" d="M5.64,23.65a18.31,18.31,0,0,1,3.7-.08c.5,0,1,.18,1.51-.19a9.63,9.63,0,0,1,1.2.05c1.08.17,1.4-.29,1.33-1.38-.09-1.44,0-2.89,0-4.33l2.84,0c2.71.07,2.71.07,2.71-2.73V14.7c0-2.69,0-2.69-2.62-2.74,1.27-.5,2.59-.05,3.87-.2.5-.06,1.05.22,1.48-.26a2.29,2.29,0,0,0,1.15.24c1.11.16,1.57-.22,1.48-1.45-.11-1.43,0-2.86,0-4.29l6.82-.06a3.09,3.09,0,0,0,1.41-.17,9.68,9.68,0,0,1,1.32,0c1.05.15,1.43-.24,1.36-1.36-.1-1.43,0-2.88,0-4.33,1.73,0,3.47,0,5.2,0,8.66,0,17.33,0,26,0,1,0,1.32.28,1.25,1.31-.09,1.24,0,2.49,0,3.73,0,.72.22.91.89.9,2.95,0,5.89,0,8.83,0,.94,0,1.19.28,1.14,1.19-.07,1.15,0,2.32,0,3.47-.06.9.16,1.28,1.11,1.2s2.1.07,3.14,0,1.22.33,1.17,1.26c-.07,1.28,0,2.57,0,3.85,0,.65.18.87.82.85,1.21-.05,2.42,0,3.63,0,.84-.05,1,.29,1,1.06,0,3.19,0,6.38,0,9.57,0,1,.25,1.2,1.14,1.14,1.12-.08,2.25,0,3.38,0,.76,0,1,.25.93,1-.05,1.33,0,2.66,0,4,0,.79.25,1,1,1,1.12-.06,2.26,0,3.38,0,.79,0,1.06.21,1,1,0,2.81,0,5.63,0,8.45,0,6.25,0,12.51,0,18.76,0,.94-.25,1.24-1.15,1.17s-2.1,0-3.14,0-1.13.31-1.12,1.2c0,3.14,0,6.29,0,9.44,0,.85-.19,1.19-1.06,1.13s-1.95.08-2.9,0c-1.31-.17-1.59.4-1.5,1.6s0,2.32,0,3.48c0,.64-.21.88-.84.86-1.13,0-2.26,0-3.38,0-.91-.06-1.32.16-1.23,1.21s0,2.4,0,3.6c0,.84-.19,1.19-1.07,1.13-1.12-.07-2.26,0-3.38,0-.76,0-1,.25-1,1,0,1.2-.07,2.41,0,3.6s-.32,1.36-1.29,1.27-1.78.05-2.66,0c-1.13-.11-1.63.24-1.51,1.49.1,1.07,0,2.16,0,3.23S72.7,100,71.78,100c-7.82,0-15.64,0-23.46,0l-13.66,0c.16-.22.46-.32.46-.67,0-1.52,0-3,0-4.54,0-.36-.2-.67-.57-.66-.7,0-1.42-.27-2.08.19A47.63,47.63,0,0,0,26,94.08L24.24,94V91.08c0-2.79,0-2.79-2.64-2.78l-2.71-.12c0-1.07,0-2.14,0-3.21,0-2.71,0-2.71-2.7-2.62l-2.85,0A10.26,10.26,0,0,0,13.58,79c0-2.82-.11-2.91-2.76-2.39L8,76.38q0-4.51,0-9c0-2.71,0-2.71-2.7-2.65l-2.64,0q0-14.64,0-29.27l2.63-.05a8.3,8.3,0,0,1,1.32,0c1.11.16,1.45-.28,1.41-1.43-.08-2.54,0-5.1,0-7.65S8,23.77,5.64,23.65ZM51.31,11.76c-5,0-10.08,0-15.12,0-.83,0-1.14.2-1.09,1.09.07,1.28,0,2.57,0,3.85,0,.85-.27,1-1,1-2.94,0-5.89,0-8.83,0-.81,0-1.05.26-1,1.06.06,1.16,0,2.33,0,3.48s-.15,1.54-1.31,1.4c-1-.12-1.93,0-2.89,0s-1.25.21-1.23,1.22c.06,3.19,0,6.38,0,9.57,0,.78-.23,1-1,1-1.21-.05-2.42,0-3.63,0-.56,0-.83.07-.82.8q0,13.8,0,27.59c0,.85.28,1.06,1,1,1,0,2,.06,3,0S19,64.86,18.94,66c-.09,3.14,0,6.29,0,9.44,0,.76.22,1,1,1,1.17,0,2.34,0,3.5,0,.77,0,1,.26.95,1,0,1.24,0,2.49,0,3.72-.05.92.22,1.22,1.14,1.2,2.9-.06,5.8,0,8.71,0,.79,0,1.06.23,1,1.05-.06,1.32,0,2.65,0,4,0,.71.2.92.89.92q15.3,0,30.6,0c.73,0,1-.17,1-1-.06-1.24,0-2.49,0-3.73-.06-.94.17-1.28,1.16-1.26,2.86.08,5.73,0,8.59,0,.94,0,1.17-.29,1.12-1.2-.08-1.24,0-2.49,0-3.73,0-.75.2-1,1-1,1.08.06,2.18-.05,3.26,0s1.23-.27,1.21-1.25c-.06-3.07,0-6.14,0-9.2,0-1,.19-1.44,1.25-1.33s1.93,0,2.89,0,1.31-.21,1.3-1.28c-.06-5.39,0-10.77,0-16.16,0-3.64,0-7.29,0-10.94,0-.81-.23-1.08-1-1-1.09.06-2.19,0-3.27,0s-1.15-.25-1.14-1.17c.06-3.11,0-6.22,0-9.32,0-1.07-.32-1.37-1.3-1.28s-1.94-.07-2.9,0-1.31-.33-1.24-1.32,0-2.24,0-3.35c.07-1-.17-1.29-1.17-1.26-2.82.07-5.64,0-8.46.05-1,0-1.31-.31-1.24-1.32.09-1.16,0-2.33,0-3.48.07-.95-.24-1.18-1.14-1.17C61.39,11.79,56.35,11.76,51.31,11.76Z"/><path class="cls-3" d="M2.7,35.38q0,14.63,0,29.27C0,64.82,0,64.82,0,62.09Q0,49.52,0,36.94c0-1.84-.33-1.59,1.6-1.62C2,35.32,2.34,35.36,2.7,35.38Z"/><path class="cls-3" d="M5.33,64.7C8,64.64,8,64.64,8,67.35q0,4.52,0,9c-2.63.22-2.63.22-2.64-2.38Q5.37,69.35,5.33,64.7Z"/><path class="cls-3" d="M5.64,23.65C8,23.77,8,23.77,8,26.27s0,5.11,0,7.65c0,1.15-.3,1.59-1.41,1.43a8.3,8.3,0,0,0-1.32,0c0-3.49,0-7,.07-10.46C5.4,24.46,5.14,24,5.64,23.65Z"/><path class="cls-3" d="M16.21,82.35c2.7-.09,2.7-.09,2.7,2.62,0,1.07,0,2.14,0,3.21l-1.45,0q-.21-.27-.42,0h-.55a.13.13,0,0,0-.14-.11C16.09,86.18,16.31,84.26,16.21,82.35Z"/><path class="cls-3" d="M32.46,94.26c.66-.46,1.38-.19,2.08-.19.37,0,.56.3.57.66,0,1.51,0,3,0,4.54,0,.35-.3.45-.46.67-2.22.12-2.22.12-2.22-2.08C32.45,96.66,32.45,95.46,32.46,94.26Z"/><path class="cls-3" d="M10.82,76.6c2.65-.52,2.77-.43,2.76,2.39a10.26,10.26,0,0,1-.22,3.31c-.83-.07-1.69.34-2.48-.23v-.68c0-.13,0-.26,0-.39Z"/><path class="cls-3" d="M35.12.09c0,1.45-.07,2.9,0,4.33.07,1.12-.31,1.51-1.36,1.36a9.68,9.68,0,0,0-1.32,0c0-1.53,0-3.06-.06-4.59,0-.91.24-1.29,1.15-1.15A13.47,13.47,0,0,0,35.12.09Z"/><path class="cls-3" d="M16.29,12c2.62,0,2.62,0,2.62,2.74v.24c0,2.8,0,2.8-2.71,2.73Z"/><path class="cls-3" d="M21.6,88.3c2.64,0,2.64,0,2.64,2.78V94c-2.64.2-2.64.2-2.64-2.5Z"/><path class="cls-3" d="M24.24,6c0,1.43-.08,2.86,0,4.29.09,1.23-.37,1.61-1.48,1.45a2.29,2.29,0,0,1-1.15-.24v-4s.08,0,.08-.06a.89.89,0,0,0-.08-.17l0-.77c.31-.63.92-.38,1.41-.51Z"/><path class="cls-3" d="M13.36,17.72c0,1.44-.07,2.89,0,4.33.07,1.09-.25,1.55-1.33,1.38a9.63,9.63,0,0,0-1.2-.05c0-.13,0-.26,0-.39v-.66c0-.11,0-.22,0-.34V18l0-.25A9.42,9.42,0,0,1,13.36,17.72Z"/><path class="cls-2" d="M23,6c-.49.13-1.1-.12-1.41.51C21.75,5.31,22.54,6.08,23,6Z"/><path class="cls-2" d="M10.87,22.33V23A.61.61,0,0,1,10.87,22.33Z"/><path class="cls-2" d="M17,88.2q.21-.27.42,0Z"/><path class="cls-2" d="M21.65,7.26a.89.89,0,0,1,.08.17s-.06,0-.08.06A.19.19,0,0,1,21.65,7.26Z"/><path class="cls-2" d="M10.93,17.77l0,.25a1.6,1.6,0,0,1-.05-.21Z"/><path class="cls-2" d="M10.88,21.57V22A.27.27,0,0,1,10.88,21.57Z"/><path class="cls-2" d="M10.88,81c0,.13,0,.26,0,.39A.26.26,0,0,1,10.88,81Z"/><path class="cls-2" d="M10.87,81.77v.3C10.74,82,10.77,81.87,10.87,81.77Z"/><path class="cls-2" d="M16.33,88.08a.13.13,0,0,1,.14.11C16.35,88.26,16.3,88.22,16.33,88.08Z"/><path class="cls-2" d="M51.29,76.43c-3.15,0-6.29-.06-9.43,0-1.16,0-1.45-.36-1.36-1.46s0-2.16,0-3.23c.05-.9-.21-1.21-1.14-1.19-2.86.06-5.72,0-8.58,0-.87,0-1.1-.27-1.09-1.12,0-3.15,0-6.3,0-9.44,0-1-.34-1.31-1.24-1.27-1.13,0-2.26,0-3.38,0-.61,0-.86-.2-.86-.86q0-8,0-15.9c0-.76.33-.91,1-.89,1.05,0,2.1-.07,3.14,0s1.41-.35,1.38-1.47c-.08-3.06,0-6.13,0-9.2,0-.85.22-1.14,1.08-1.13,2.9.05,5.81,0,8.71,0,.8,0,1-.25,1-1.05-.06-1.28,0-2.57,0-3.85,0-.68.16-1,.87-1q10,0,19.95,0c.73,0,.87.32.86,1,0,1.32,0,2.65,0,4,0,.72.23.91.9.9,2.82,0,5.64,0,8.46,0,1.07,0,1.48.22,1.44,1.42-.08,3.1,0,6.21,0,9.32,0,.83.24,1.1,1,1.06,1.17,0,2.34,0,3.5,0,.64,0,1,.15,1,.9q0,7.95,0,15.91c0,.64-.18.87-.83.84-1.17-.05-2.34,0-3.51,0-.85-.05-1.12.27-1.12,1.12,0,3.15,0,6.3,0,9.45,0,1.07-.34,1.3-1.32,1.28-2.82-.07-5.64,0-8.46,0-.79,0-1.06.21-1,1,.06,1.2,0,2.41,0,3.6s-.32,1.24-1.24,1.23C57.74,76.4,54.51,76.43,51.29,76.43Zm0-41.11c-3.14,0-6.28,0-9.43,0-1.15,0-1.43.37-1.35,1.46s0,2.24,0,3.35c0,.85-.19,1.2-1.06,1.14-1.13-.07-2.26,0-3.39,0-.74,0-1,.23-1,1q0,7.81,0,15.65c0,.79.28,1,1,1,.92-.05,1.85,0,2.78,0,1.66,0,1.65-.42,1.65,1.75,0,1.08,0,2.16,0,3.23,0,.7.19.94.87.94q10,0,20,0c.73,0,.87-.31.86-1,0-1.37,0-2.73,0-4.1,0-.64.2-.89.83-.87,1.25,0,2.5,0,3.75,0,.63,0,.83-.2.82-.85q0-8,0-15.9c0-.63-.17-.88-.81-.86-1.25,0-2.5,0-3.75,0-.64,0-.85-.21-.83-.85,0-1.2-.06-2.41,0-3.6s-.19-1.51-1.37-1.48C57.65,35.38,54.47,35.32,51.28,35.32Z"/><path class="cls-2" d="M56.77,50v.62c0,2.15,0,2.19-2,2.31-.86,0-.7.57-.7,1.08,0,1.88,0,1.88-1.88,1.88-.84,0-1.69,0-2.53,0s-1.06-.18-1-1c0-.32,0-.66,0-1,.1-.84-.28-1-1-1-1.68,0-1.68,0-1.66-1.71,0-1.07,0-2.15,0-3.22,0-.78.25-1,1-1,1.72,0,1.77,0,1.71-1.76,0-.92.21-1.25,1.13-1.18a31.76,31.76,0,0,0,3.38,0c.68,0,1,.19.89.91,0,.32,0,.66,0,1-.1.77.14,1.08,1,1.07,1.78,0,1.78,0,1.78,1.84Z"/></svg>