<svg id="Layer_1" data-name="Layer 1" xmlns="http://www.w3.org/2000/svg" viewBox="0 0 479.99 229.06"><defs><style>.cls-1{fill:#383c58;}.cls-2{fill:#383c59;}.cls-3{fill:#5c5c5c;}.cls-4{fill:#452926;}.cls-5{fill:#010101;}.cls-6{fill:#0d0d0e;}.cls-7{fill:#4a2d2a;}.cls-8{fill:#010000;}.cls-9{fill:#020202;}.cls-10{fill:#131313;}.cls-11{fill:#141414;}.cls-12{fill:#442926;}.cls-13{fill:#5b5b5b;}.cls-14{fill:#452a27;}.cls-15{fill:#777;}.cls-16{fill:#787878;}.cls-17{fill:#030303;}.cls-18{fill:#121111;}.cls-19{fill:#7d7d7d;}.cls-20{fill:#2b2d42;}.cls-21{fill:#777778;}.cls-22{fill:#939393;}.cls-23{fill:#afafaf;}.cls-24{fill:#5b5c5d;}.cls-25{fill:#cecece;}.cls-26{fill:#e8e8e8;}.cls-27{fill:#e8e8e9;}.cls-28{fill:#787877;}.cls-29{fill:#5c5c5b;}.cls-30{fill:#949494;}.cls-31{fill:#121212;}.cls-32{fill:#5d3c37;}.cls-33{fill:#383b4b;}.cls-34{fill:#8a5646;}.cls-35{fill:#b0654b;}.cls-36{fill:#8a5546;}.cls-37{fill:#8d5a4a;}.cls-38{fill:#010001;}.cls-39{fill:#5c3c37;}.cls-40{fill:#b0b0b0;}.cls-41{fill:#040404;}.cls-42{fill:#949393;}.cls-43{fill:#b0afaf;}.cls-44{fill:#3e3e3e;}.cls-45{fill:#5b5b5c;}.cls-46{fill:#000001;}.cls-47{fill:#383b57;}.cls-48{fill:#8b5646;}.cls-49{fill:#5d3b37;}.cls-50{fill:#cfcece;}.cls-51{fill:#8b5546;}.cls-52{fill:#8d5746;}.cls-53{fill:#8b5645;}.cls-54{fill:#8b5545;}.cls-55{fill:#8a5647;}.cls-56{fill:#555;}.cls-57{fill:#777878;}.cls-58{fill:#b0654c;}.cls-59{fill:#949495;}</style></defs><path class="cls-1" d="M234.73,109c-.53-.32-.23-.83-.24-1.23,0-4.66,0-9.33,0-14,0-.81-.2-1.08-1-1-1.12.08-2.25,0-3.37,0-.91.06-1.1-.3-1.1-1.14,0-6.45,0-12.91.05-19.36,0-1.08-.23-1.42-1.36-1.38a11.74,11.74,0,0,1-3.92-.14c1-.7,2.18-.29,3.27-.35,1.47-.08,1.57-.11,1.58-1.56,0-4,0-8,0-12a4.6,4.6,0,0,1,.27-2.32,1.07,1.07,0,0,1,.38-.29,5.25,5.25,0,0,1,1.85-.17h12.34c1.54,0,1.64-.1,1.64-1.62,0-2.32,0-4.65,0-7,0-1.49-.11-1.59-1.66-1.6-4.73,0-9.47,0-14.21,0-5.48,0-11-.07-16.46,0q-18,0-35.92.05c-1.89,0-1.93,0-1.93,2,0,2.28,0,4.57,0,6.86a2.84,2.84,0,0,1-.33,1.8,1.53,1.53,0,0,1-1.05.32c-2.95,0-5.91,0-8.86,0a1.57,1.57,0,0,1-.94-.28,2.71,2.71,0,0,1-.37-1.8c0-2.41,0-4.83,0-7.24,0-1.51-.11-1.63-1.65-1.63q-9.24,0-18.49,0H95.34c-2.19,0-2.19,0-2.19,2.21s0,4.66,0,7a2.33,2.33,0,0,1-.33,1.43,2.79,2.79,0,0,1-1.8.35q-9.17,0-18.34,0a2.92,2.92,0,0,1-1.69-.3,2.51,2.51,0,0,1-.38-1.79c0-2.41,0-4.83,0-7.24,0-1.47-.2-1.66-1.68-1.66q-19.8,0-39.6,0c-1.5,0-1.63.15-1.65,1.66,0,2.38,0,4.75,0,7.12a3.1,3.1,0,0,1-.3,1.82c-1.48.73-3.05.26-4.57.37s-3.33,0-5,0a2.62,2.62,0,0,1-1.45-.27c-.35-.39-.22-.86-.21-1.31,0-2.65,0-5.3,0-8,0-1.28-.18-1.41-1.44-1.48a12.58,12.58,0,0,1-3.57-.21.77.77,0,0,1-.32-.37,22.14,22.14,0,0,1-.1-4.23c0-1.11.86-1.21,1.68-1.21,3,0,6.08,0,9.12,0l1.75,0q99.48,0,199,0,13,0,26.11,0c2,0,2,0,2-2,0-2.25,0-4.5,0-6.75a3,3,0,0,1,.28-1.7.29.29,0,0,1,.43,0,2.44,2.44,0,0,1,.35,1.67q0,30.88,0,61.77a2.61,2.61,0,0,1-.33,1.68c-.68.14-.59-.44-.66-.78a7.31,7.31,0,0,1-.07-1.62V62.89c0-.41,0-.83,0-1.24,0-.83-.36-1.21-1.2-1.21-1.21,0-2.41,0-3.62,0-3.64.05-7.27.06-10.91,0-1.24,0-2.49,0-3.73,0-.92,0-1.25.37-1.24,1.26q0,3.74,0,7.47c0,.91.38,1.23,1.26,1.26,1.19,0,2.41-.27,3.56.29a.3.3,0,0,1,0,.41c-1.1.58-2.28.28-3.42.3s-1.41.36-1.41,1.39c0,6,0,12,0,17.92,0,1.27.16,1.37,1.47,1.42a19.35,19.35,0,0,1,3.23.12,1.06,1.06,0,0,1,.43.23,1.22,1.22,0,0,1,.24.43,14,14,0,0,1,.12,3.1c0,3.7,0,7.39,0,11.09A2.61,2.61,0,0,1,234.73,109Z"/><path class="cls-2" d="M223.48,5.56c.51,1.31.2,2.68.19,4,0,1,.26,1.3,1.3,1.3q41.31,0,82.62,0h67.49c.4,0,.83-.15,1.2.16l-.18.18c-1.71.55-3.47.24-5.2.24-18.27,0-36.55,0-54.83,0-.58,0-1.16,0-1.74,0-1.74-.15-3.48.08-5.22,0-.39,0-.78,0-1.17,0-.62,0-1.25,0-1.88,0s-1.25,0-1.87,0H226.6c-2.47,0-2.47,0-2.47,2.47,0,2,0,2,2.06,2H281a4.49,4.49,0,0,1,2.32.29.26.26,0,0,1,.05.42,3.63,3.63,0,0,1-2.29.34H226.84c-3,0-2.68-.14-2.71,2.71a3.72,3.72,0,0,1-.33,2.18,2.12,2.12,0,0,1-1.42.35c-6.88,0-13.76.06-20.64,0-4.57.09-9.13,0-13.7,0-6.35,0-12.7.05-19,0-.79.07-1.59,0-2.38,0H77.89a12.48,12.48,0,0,1-1.37,0c-9.09.06-18.17,0-27.26,0-7.33,0-14.66.06-22,0-5,.07-10,0-15,0A2.11,2.11,0,0,1,11,21.88a9.66,9.66,0,0,1-.07-5.61,3.58,3.58,0,0,1,2.27-.37c1.11,0,2.22,0,3.33,0q8.11-.08,16.24,0c8.56-.08,17.13,0,25.69,0,2.33,0,4.66-.05,7,0,1.86,0,3.73,0,5.6,0q13.57-.08,27.15,0c1.78,0,3.57,0,5.35,0q19.06-.08,38.14,0c1.86,0,3.72,0,5.59,0,5.47-.05,11-.06,16.42,0,1.78,0,3.56,0,5.35,0,5.94-.08,11.88,0,17.82,0,5,0,10.06-.05,15.09,0,3.57,0,7.14-.06,10.72,0,3,0,5.9,0,8.86,0,1.46,0,1.57-.11,1.56-1.56,0-3.22.32-2.88-2.85-2.9-2.5,0-5,0-7.49,0-3.48,0-7,.2-10.45-.12a.78.78,0,0,1-.37-.3.39.39,0,0,1,.24-.38,4.7,4.7,0,0,1,2-.21h17.11c1.78,0,1.79-.06,1.85-1.81C223.13,7.57,222.8,6.5,223.48,5.56Z"/><path class="cls-3" d="M376.28,11a18.27,18.27,0,0,1,.14,4.31c0,.74.16,1,1,1,1.16-.07,2.32,0,3.49,0,.29,0,.68-.2.86.24-1,.72-2.1.32-3.15.39-1.67.11-1.71.1-1.72,1.69q0,6.11,0,12.22c0,1.45.07,1.5,1.56,1.59.67,0,1.33,0,2,0,1.28,0,1.64.33,1.67,1.62.05,2.45,0,4.91,0,7.36,0,1.67.08,1.7,1.77,1.76,1.11,0,2.25-.25,3.31.3.5.55.38,1.24.4,1.9s0,1.41,0,2.12.34,1.2,1.19,1.18,1.74,0,2.61,0a2.09,2.09,0,0,1,1.31.32c.68,1.06.33,2.25.37,3.38.07,1.77,0,1.75,1.81,1.81,1.1,0,2.23-.24,3.29.28a1.37,1.37,0,0,1,.38,1c.17,1.29-.24,2.62.28,3.88.41.42.93.3,1.42.3h7.24a2.17,2.17,0,0,1,1.55.32c.5,1.12.21,2.3.25,3.44.06,1.57.16,1.73,1.71,1.73h16.45c3.9,0,3.6-.32,3.6,3.67a3.54,3.54,0,0,1-.26,2,2.48,2.48,0,0,1-1.78.33c-4.77,0-9.54-.06-14.3.06a2,2,0,0,1-.47.06c-4.83.27-9.66.15-14.48.18-.88,0-1.17.43-1.17,1.24s0,1.66,0,2.5-.47,1.48-1.45,1.48c-3.29,0-6.58.1-9.86,0a.81.81,0,0,1-.3-.36,19.09,19.09,0,0,1-.12-4.34,1.41,1.41,0,0,1,1.51-1.49c.91-.06,1.82,0,2.74,0s1.21-.35,1.21-1.19V61.6c0-.86-.39-1.19-1.22-1.18s-1.83,0-2.74,0a1.37,1.37,0,0,1-1.53-1.54c0-1,0-1.91,0-2.87,0-.71-.31-1.08-1.05-1.07h-1.12c-2.29,0-2.29,0-2.29,2.22s0,4.49,0,6.73c0,.6.13,1.28-.51,1.7a.59.59,0,0,1-.33-.31,22.8,22.8,0,0,1-.17-4.6c0-1.49,0-3,0-4.49,0-.91-.38-1.24-1.27-1.27-1.2,0-2.42.26-3.58-.26-.7-1.1-.22-2.33-.36-3.49-.07-.55.18-1.18-.42-1.58-2.74-.32-5.49,0-8.23-.15a3.57,3.57,0,0,1-2.06-.32c-.64-1.66-.34-3.36-.22-5,.05-.66.63-.83,1.2-.88a22.88,22.88,0,0,1,2.87,0c1,0,1.32-.39,1.31-1.34,0-3-.05-6,0-9q0-7.16,0-14.29c0-1.45-.13-1.56-1.54-1.59-1.12,0-2.24,0-3.36,0-5.36.07-10.73,0-16.09,0q-19.72,0-39.44,0c-.75,0-1.6.24-2.2-.51a.72.72,0,0,1,.57-.44,41.38,41.38,0,0,1,5-.05c16.73,0,33.45,0,50.18,0,3.45,0,6.91.05,10.36,0,1.63,0,1.74-.16,1.8-1.8,0-1-.25-2.08.3-3.05A.35.35,0,0,1,376.28,11Z"/><path class="cls-4" d="M387.44,130.8c-.51-1.35-.2-2.75-.19-4.12,0-1-.29-1.22-1.24-1.21q-9.74.06-19.45,0c-.86,0-1.17.19-1.11,1.08.08,1.16,0,2.33,0,3.49,0,.74-.24.9-.92.9a33.61,33.61,0,0,0-4.6.08.28.28,0,0,1,.14-.36,7.42,7.42,0,0,1,3.07-.25c1.56-.06,1.64-.1,1.66-1.61,0-.17,0,0,0-.12-.13-.88.46-2.08-.4-2.56s-2.28-.23-3.44-.15c-.53,0-.62.48-.64.92-.05.83,0,1.66,0,2.49a1.77,1.77,0,0,1-.47,1.49,11.32,11.32,0,0,1-4.81.2c-.86-.06-.95-.8-.95-1.51,0-3.12,0-6.24,0-9.36,0-.16,0-.31,0-.47-.06-1.33-.05-2.67,0-4s.35-1.51,1.6-1.59a23,23,0,0,1,2.49,0c1,0,1.46-.34,1.4-1.38-.05-.78,0-1.58,0-2.37a2.27,2.27,0,0,1,.33-1.43c1.65-.61,3.35-.33,5-.21.65,0,.83.62.89,1.19.08.82,0,1.65,0,2.48,0,1.63.08,1.69,1.67,1.71,3,0,6,0,9,0q8.1-.09,16.18,0c1.85.07,3.72-.32,5.54.25.71,1.06.34,2.25.38,3.39.07,1.83,0,1.8,1.9,1.85,1.1,0,2.24-.28,3.28.36.61,1.09.29,2.27.34,3.42.06,1.6.1,1.68,1.7,1.7.58,0,1.16,0,1.74,0,1.47.06,1.74.33,1.81,1.76,0,.25,0,.5,0,.75,0,2.93-.27,2.72,2.79,2.73.46,0,.91,0,1.37,0,.77.05,1.28.43,1.28,1.23a94.62,94.62,0,0,1-.1,9.82c-.3.65-.91.64-1.49.67-.87,0-1.74,0-2.61,0a1.08,1.08,0,0,0-1.24,1.2c0,.83,0,1.66,0,2.49-.05,1.26-.5,1.77-1.75,1.77s-2.66.29-3.93-.26c-.63-1.13-.2-2.37-.33-3.55-.05-.52.17-1.1-.38-1.49a12.08,12.08,0,0,0-3.06-.16,2.94,2.94,0,0,1-1.77-.36l0,0a2.86,2.86,0,0,1-.36-1.81c0-2.45,0-4.91,0-7.36,0-1.39-.11-1.44-1.51-1.51-1.23-.06-2.5.28-3.69-.33l.05,0c-.57-1.1-.27-2.29-.32-3.44-.07-1.42-.12-1.53-1.48-1.53-3.43,0-3-.36-3,3A2.57,2.57,0,0,1,387.44,130.8Z"/><path class="cls-5" d="M223.48,5.56c0,1.37-.08,2.74,0,4.11.05,1-.32,1.17-1.22,1.17-6.35-.05-12.71-.05-19.07-.06-.41,0-.82,0-1.24.07a2.88,2.88,0,0,1-1.93.29H116.81a8.83,8.83,0,0,1-2-.09,1.1,1.1,0,0,1-.42-.24,11.32,11.32,0,0,1-.08-5.08l.15-.18c.37,0,.74-.08,1.11-.08H222.37C222.74,5.48,223.11,5.53,223.48,5.56Z"/><path d="M479.92,169.27q0,8.89,0,17.8c0,4.48,0,9,0,13.44a3.74,3.74,0,0,0-.21,2c0,1.46,0,1.47-1.46,1.44a2.42,2.42,0,0,0-2.62,3.25,2.64,2.64,0,0,0,2.95,2c.44-.05.88-.31,1.34-.09,0,6.41,0,12.82.07,19.23,0,1-.59.78-1.13.78H455.25q-33.36,0-66.72,0c-1,0-1.33-.17-1.32-1.26q.09-9.68,0-19.36c0-1,.28-1.27,1.24-1.22,1.41.07,2.83,0,4.25,0,.53.54.4,1.24.4,1.89,0,4.11,0,8.23,0,12.34,0,1.59.09,1.67,1.71,1.68,4.65,0,9.3,0,14,0h.48c1.75,0,3.51,0,5.27,0s3.74,0,5.61,0H456.6a10.56,10.56,0,0,1,1.49,0c3.61,0,7.21.1,10.81,0,1.71-.15,3.43.23,5.12-.24.45-.39.33-.92.33-1.41q0-3.62,0-7.23c0-.83,0-1.56,1-1.89.62-.2.5-.76.11-1.09-1.16-1-1.15-2.3-1.15-3.66q0-17,0-34.07a6.22,6.22,0,0,0-.19-2.1,5.87,5.87,0,0,1-.08-1.11c0-.85.35-1.28,1.28-1.21C476.88,169.25,478.41,169,479.92,169.27Z"/><path class="cls-4" d="M409,223.52c-5,0-9.91,0-14.86,0-1.07,0-1.43-.23-1.42-1.37.06-5,0-10,0-15a.12.12,0,0,1,0-.18,17.83,17.83,0,0,1,3.58-.12c1.38-.06,1.48-.13,1.51-1.49,0-.83,0-1.65,0-2.48a1.7,1.7,0,0,1,.38-1.28c1.11-.5,2.29-.21,3.44-.27,1.4-.07,1.58-.22,1.63-1.6,0-.87,0-1.74.06-2.61a1.22,1.22,0,0,1,1.27-1.26,31.26,31.26,0,0,1,3.49,0,1.13,1.13,0,0,1,1.19,1.18,33.33,33.33,0,0,1,0,3.74,1.26,1.26,0,0,1-1.37,1.3c-.87.05-1.75,0-2.62,0s-1.22.32-1.22,1.18c0,4.16-.29,3.45,3.15,3.53,1.82,0,2.05.26,2.05,2.13q0,6.44,0,12.85A2.29,2.29,0,0,1,409,223.52Z"/><path class="cls-5" d="M11,5.3c0-1.5,0-3-.08-4.49,0-.71.25-.81.87-.8C14.92,0,18,0,21.16,0H71.24c.34,0,.67,0,1,.05a1.58,1.58,0,0,1,.39,1.15,5.12,5.12,0,0,0,1.16,3.11c.21.27.6.56.37,1s-.65.32-1,.35-.58,0-.87,0H12.92C12.27,5.64,11.57,5.81,11,5.3Z"/><path class="cls-4" d="M430.71,70.8c0-1.29-.06-2.59,0-3.87.08-1.08-.24-1.42-1.37-1.41-6.33,0-12.66,0-19,0-1.16,0-1.53-.31-1.45-1.46.09-1.37,0-2.75,0-4.12a2.3,2.3,0,0,1-.38-1.76c0-1.19-.05-2.39,0-3.58,0-1.78,0-3.56,0-5.35a.44.44,0,0,1,.24-.35.49.49,0,0,1,.42.08c1.45,0,2.91,0,4.36,0,.29,0,.68-.22.86.23a1.44,1.44,0,0,1-1,.35,9.73,9.73,0,0,1-1.08,0c-3.06.1-2.77-.51-2.78,2.89,0,.7,0,1.4,0,2.1.05,1.81.05,3.61,0,5.41.06,1.08,0,2.16,0,3.24,0,1.49.12,1.6,1.65,1.6,5.81,0,11.62,0,17.43,0a5.75,5.75,0,0,1,1.85.14,1.56,1.56,0,0,1,.4.27.15.15,0,0,1,0,.18,2.88,2.88,0,0,1,.38,1.92c0,4.08,0,8.16,0,12.24,0,1.69.05,1.73,1.76,1.75a20.88,20.88,0,0,1,2.24,0c.8.08,1.4.49,1.42,1.31a70.07,70.07,0,0,1-.14,9.72.89.89,0,0,1-.16.34c-1.68.7-3.42.4-5.13.2-.59-.06-.7-.65-.75-1.16-.07-.71,0-1.42,0-2.12,0-2,0-2-2.1-2-.54,0-1.08,0-1.62,0-1.44,0-1.71-.33-1.77-1.8,0-.88,0-1.75,0-2.62s-.34-1.06-1.06-1.06h-2.37c-1.79,0-2-.28-2.06-2,0-.66,0-1.33,0-2,0-1.35-.14-1.46-1.53-1.49-.87,0-1.75,0-2.62,0-.51,0-1.1-.15-1.17-.74-.19-1.63-.5-3.28.22-4.87h0a2.77,2.77,0,0,1,1.34-.11h13.56A2.82,2.82,0,0,0,430.71,70.8Z"/><path class="cls-5" d="M332.72,163.77c0,1.45,0,2.91,0,4.36,0,.66-.1.94-.86.93q-18.57,0-37.16,0a41.32,41.32,0,0,1-.11-4.72.72.72,0,0,1,.72-.83,10.62,10.62,0,0,1,1.38-.06h34.11C331.46,163.42,332.16,163.25,332.72,163.77Z"/><path d="M278.24,152.76c-1.45,0-2.91-.08-4.36,0-.91,0-1.19-.19-1.18-1.15.05-5.95,0-11.9,0-17.85,0-4.57,0-9.15,0-13.72,1.58-.75,3.24-.39,4.87-.25.46,0,.66.45.72.9a12.52,12.52,0,0,1,0,1.5q0,13.9,0,27.8a16.63,16.63,0,0,0,0,1.87,1.32,1.32,0,0,1,0,.71Z"/><path class="cls-5" d="M436.45,92.78c0-1.73,0-3.46,0-5.19,0-1.5-.05-3,0-4.49.05-1.06-.37-1.4-1.39-1.33s-1.83,0-2.74,0c-1.07.1-1.42-.23-1.41-1.36.07-5,0-10,.05-15,1.45,0,2.91,0,4.37,0,.85,0,1,.25,1,1,0,4.71,0,9.42-.05,14.12,0,1,.3,1.27,1.25,1.2s2.08,0,3.12,0c.85-.06,1.13.17,1.11,1.08-.06,2.91,0,5.83-.05,8.74,0,1,.28,1.22,1.19,1.15,1.08-.07,2.18.06,3.25,0s1.11.28,1.06,1.11c-.07,1.17,0,2.34,0,3.5,0,.65.16.89.83.86,1.17,0,2.34,0,3.5,0,.88,0,1.26.11,1.18,1.12-.1,1.41,0,2.83,0,4.25-1.67.74-3.4.4-5.11.22-.65-.06-.72-.72-.76-1.27-.07-.87,0-1.74,0-2.61s-.35-1.18-1.19-1.2a13.09,13.09,0,0,1-3.59-.19,1.59,1.59,0,0,1-.68-1.5c0-.78,0-1.56,0-2.34,0-1.32-.18-1.43-1.54-1.49a9.72,9.72,0,0,1-3.18-.21Z"/><path d="M267.22,114.57l-25.6,0c-1.63,0-1.63,0-1.63-1.65V109l.18-.15c1.78-.43,3.6-.13,5.4-.2q8.06-.09,16.11,0c1.39-.06,2.79,0,4.18,0a2.06,2.06,0,0,1,1.4.36A8.57,8.57,0,0,1,267.22,114.57Z"/><path d="M398.23,201.75c0,1.53,0,3.06,0,4.59,0,.35.1.88-.43.87-1.68,0-3.37.31-5-.2q0-13.11,0-26.22c0-.69.22-.83.85-.82,1.54,0,3.08,0,4.62,0l.18.16c.5,1.8.15,3.64.23,5.46.08,4.91,0,9.82,0,14.74A1.94,1.94,0,0,1,398.23,201.75Z"/><path class="cls-6" d="M16.23,54.52l6.51,0c.4,1.78.4,1.76,2.19,2.06.6.1,1.53-.05,1.43,1-.08.86-.79,1.2-1.61,1.26a3.85,3.85,0,0,0-1,0c.06.43.4.4.65.44a10.09,10.09,0,0,0,1.74.06H130.29c1.41,0,1.4,0,1.09-1.41-.17-.75.18-1.1.91-1.13,1.63-.06,3.26.13,4.77-.08-.26,0-.7.06-.88-.36s.18-.61.41-.83a5.87,5.87,0,0,0,.74-1,1.12,1.12,0,0,1,1.18-.26,13.51,13.51,0,0,1,1.36,2.48A3.89,3.89,0,0,0,143,59.4c12.24,0,24.48,0,36.72,0q20.85,0,41.71,0a4,4,0,0,1,2.19.29.29.29,0,0,1,.06.43c-.49,0-1-.08-1.49-.08H26.1c-4.71,0-9.42,0-14.13,0-.79,0-1.1-.16-1-1,.09-1.49.06-3,.08-4.49l.18-.16A9.38,9.38,0,0,1,16.23,54.52Z"/><path d="M430.74,65.29c-6.78,0-13.57,0-20.35,0-.93,0-1.26-.24-1.21-1.19.08-1.37,0-2.75,0-4.12,1-.61,2-.31,3-.34,1.82-.05,1.81,0,1.85-1.9a8.59,8.59,0,0,1,.21-3.07c.05-.05.1-.11.16-.16,1.45,0,2.91.08,4.35,0,1.06-.08,1.23.35,1.18,1.26-.07,1.11,0,2.24,0,3.36,0,.72.21.9.91.9,3.28,0,6.55,0,9.83,0A26.21,26.21,0,0,1,430.74,65.29Z"/><path d="M474.45,142v26.76c-.1.19-.21.4-.42.43-1.64.24-3.3.53-4.91-.2a3,3,0,0,1-.27-1.82c0-5.33-.07-10.65,0-16,0-2.5-.43-5-.34-7.47.07-1.77.11-1.86,1.81-1.82A25.51,25.51,0,0,1,474.45,142Z"/><path d="M387.22,43.53c-1.5,0-3,0-4.49.06-.77,0-1-.26-1-1,0-2.87,0-5.74,0-8.6,0-1-.31-1.3-1.28-1.23s-2.16,0-3.24,0c-.65,0-.86-.25-.86-.88q0-7.25,0-14.47c0-.73.29-.92,1-.91,1.46,0,2.91,0,4.37,0,0,1,0,2,0,3,0,2.29,0,2.29,2.35,2.29.79,0,1.58,0,2.37,0,.63,0,.77.21.75.78,0,1.58,0,3.15-.05,4.73l-.16.14a11.92,11.92,0,0,1-3.72.2c-.9,0-1.26.34-1.25,1.25.06,4.07-.41,3.46,3.42,3.53a4,4,0,0,1,1.6.18.69.69,0,0,1,.31.32,38.08,38.08,0,0,1,.17,5.34c-.11,1.69.19,3.4-.19,5.09Z"/><path class="cls-7" d="M442,98.27c1.45,0,2.9,0,4.35,0,.64,0,.9.22.88.87,0,1.12,0,2.24,0,3.35,0,.81.23,1.12,1.06,1.08,1.49,0,3,0,4.47,0s2.83.08,4.25,0c.94,0,1.29.18,1.26,1.22-.07,3.24,0,6.49,0,9.74a1.78,1.78,0,0,1,.38,1.16c0,3,0,6,0,9a1.63,1.63,0,0,1-.13.61.74.74,0,0,1-.29.34c-.6-.23-.52-.78-.55-1.25-.05-.78,0-1.57,0-2.35,0-1.51-.07-1.56-1.63-1.57-.7,0-1.39,0-2.09,0a1.93,1.93,0,0,1-1.11-.22.85.85,0,0,1-.28-.37,13.15,13.15,0,0,1,.17-5.3c1.05-.59,2.19-.28,3.29-.33,1.55-.06,1.63-.09,1.64-1.62,0-2.33,0-4.66,0-7,0-1-.38-1.4-1.4-1.39-3.49.06-3-.32-3.1,2.93a3.09,3.09,0,0,1-.35,2c-1.81.6-3.67.2-5.51.28-1.28.06-2.56,0-3.84,0-1.51,0-1.77-.31-1.81-1.85a26.19,26.19,0,0,0-.17-4,17.57,17.57,0,0,1,.17-5.22A.3.3,0,0,1,442,98.27Z"/><path d="M5.51,43.53c-1.61,0-3.23,0-4.85.09-.59,0-.66-.26-.66-.75q0-10.15,0-20.3c0-.61.19-.78.78-.77,1.58,0,3.15,0,4.73,0l.16.18a3.59,3.59,0,0,1,.22,1.71q0,9,0,17.93a3.56,3.56,0,0,1-.22,1.71C5.62,43.4,5.57,43.47,5.51,43.53Z"/><path class="cls-8" d="M354.47,120c0,3.19,0,6.39,0,9.57,0,1,.33,1.29,1.29,1.24,1.4-.07,2.82,0,4.22,0h0V131c0,1.5,0,3,0,4.49,0,.66-.19.85-.83.82-1.16-.05-2.33,0-3.49,0-.93-.07-1.2.21-1.19,1.16.06,4.78,0,9.56,0,14.33,0,.25,0,.5,0,.75a46.47,46.47,0,0,1-4.72.1c-.61,0-.8-.32-.86-.83a10.44,10.44,0,0,1,0-1.25q0-14.35,0-28.71a3.22,3.22,0,0,1,.25-1.83A9,9,0,0,1,354.47,120Z"/><path class="cls-9" d="M142.49,59.76c-.85-.14-1.71-.23-1.79-1.39a1,1,0,0,0-.7-.79c-.41-.17-1-.23-.44-.89.21-.26,0-.5-.23-.57-.92-.26-.81-.87-.59-1.55a1.94,1.94,0,0,1,1.63-.43h21.8a2.24,2.24,0,0,1,1.55.35h10.79a2.38,2.38,0,0,1,1.66-.35c3.19,0,6.38,0,9.57,0q13.35-.06,26.7,0c3.73,0,7.45-.06,11.18,0,1.73.07,3.47-.24,5.18.21a1.29,1.29,0,0,1,.17.16c0,5.11,0,10.22,0,15.33,0,.76-.31.89-1,.88-1.41,0-2.82,0-4.23,0-.23-3.56-.09-7.12-.08-10.68l0-.31c1.1.05,1.07.9,1.09,1.62.06,2.17,0,4.33,0,6.5,0,1.63.3,1.86,1.92,1.76.89-.06,1.32-.51,1.3-1.34,0-2.32.36-4.66-.39-6.94a3.28,3.28,0,0,1,0-1.73,4.92,4.92,0,0,0-.37-3c-.39-.92-.89-1-1.69-1-12,0-24.05,0-36.08,0-3.91,0-7.82,0-11.73,0a82.64,82.64,0,0,1-9.7-.27c-1.34-.13-2.65.34-4,.23-3.57-.32-7.14-.11-10.71-.24a6.77,6.77,0,0,0-3.3.48c-.49.24-1,0-1.45,0-.22.11-.18.29-.16.44a2,2,0,0,1-1.14,2.28,1.65,1.65,0,0,1-2.09-.66c-1-1.32-2.7-1.41-4-2.2-.4-.25-.61,0-.54.47a3.52,3.52,0,0,0,.87,1.49C142.09,58.31,142.86,58.81,142.49,59.76Z"/><path class="cls-5" d="M81.49.07,93.72,0c6.58,0,13.15,0,19.73,0,.86,0,1.16.18,1.1,1.08-.09,1.49-.06,3-.08,4.48l0,0a2,2,0,0,1-1.4.4c-4.94,0-9.89.06-14.83,0-5.89,0-11.79.13-17.68-.06C79.12,5.33,79,5.06,80,3.93a4.11,4.11,0,0,0,1.13-2.69A1.64,1.64,0,0,1,81.49.07Z"/><path d="M398.17,180l.06-19.21c.62,0,.8.54,1.11.9,1,1.21,1.32,1.24,2.6.41.47-.32,1-1.21,1.52-.66s-.38,1.09-.72,1.6a1.67,1.67,0,0,0-.09.22c1.14.33,1.17,1.25,1.16,2.23,0,4.33,0,8.66,0,13,0,.61.15,1.28-.45,1.73a9.28,9.28,0,0,1-5.12-.17Z"/><path class="cls-9" d="M420,21.8c0-1.53,0-3.07,0-4.61,0-.64.16-.86.83-.85,3.11,0,6.23,0,9.34,0,.61,0,.79.2.78.79,0,3.11,0,6.23,0,9.34,0,.69-.25.83-.87.82-1.54,0-3.08,0-4.61,0l-.15-.16a11.92,11.92,0,0,1-.2-3.72c0-.9-.35-1.24-1.25-1.25a11.63,11.63,0,0,1-3.72-.2Z"/><path d="M11,16.31l0,5.44a.87.87,0,0,1-.37.29c-1.71.1-3.44.49-5.1-.26l0,0c0-5.16,0-10.32,0-15.48,0-.62.11-.9.81-.87,1.58.07,3.16.06,4.74.08l.15.19a4.36,4.36,0,0,1,.22,2q0,3.42,0,6.85A2.47,2.47,0,0,1,11,16.31Z"/><path d="M234.73,109q0-8.12,0-16.21c1.84-.51,3.67-.79,5.46.19a3.24,3.24,0,0,1,.2,1.34q0,6.54,0,13.06A2.26,2.26,0,0,1,240,109l0,0Z"/><path d="M463.72,125.47a43.49,43.49,0,0,1,5.23.11,1.06,1.06,0,0,1,.12.72c0,4.86,0,9.72,0,14.57,0,.51,0,1.11-.62,1.17a9.57,9.57,0,0,1-4.78-.23,2,2,0,0,1-.32-1.41q0-6.59-.06-13.18A2.18,2.18,0,0,1,463.72,125.47Z"/><path class="cls-5" d="M392.7,32.8c3.28,0,6.56-.06,9.84,0,.84,0,1.18-.18,1.12-1.08-.08-1.16,0-2.33,0-3.49-.05-.81.24-1,1-.94,1.45,0,2.91,0,4.36,0,.49.5.36,1.15.34,1.74-.05,1.26.23,2.53-.21,3.76-1,.72-2.09.37-3.13.4-1.84.07-1.85,0-1.86,1.9,0,.75,0,1.5-.05,2.24a1.38,1.38,0,0,1-.62,1.16,3.78,3.78,0,0,1-1.7.23q-3.64,0-7.29,0a3,3,0,0,1-1.68-.29c-.79-1.78-.46-3.6-.22-5.41C392.59,32.92,392.65,32.86,392.7,32.8Z"/><path d="M398.15,141.8h5.3a.53.53,0,0,1,.13.34c-.15,2.86.25,5.7.22,8.55a5,5,0,0,1-.57,2.63c-.08.13-.29.25-.14.41,1.19,1.19-.16,1-.66,1.16a4.81,4.81,0,0,0-3.52,2.86c-.14.32-.17.76-.68.77,0-.58,0-1.16,0-1.74a5.19,5.19,0,0,1,1.35-1.89c-.56.15-.93.56-1.36.14Q398.2,148.41,398.15,141.8Z"/><path class="cls-10" d="M81.49.07c.12,1.71-.1,3.28-1.57,4.44-.73.57-.16.74.33.92-.22.45-.67.45-1.07.5a12.59,12.59,0,0,1-1.37,0H13.39A3.45,3.45,0,0,1,11,5.54h0A.76.76,0,0,1,11,5.38s0-.06,0-.08l61.31,0h1.81A5.67,5.67,0,0,1,72.24.07Z"/><path d="M392.61,130.83c1.54,0,3.07,0,4.6-.05.75,0,1,.22,1,1,0,3.36,0,6.71,0,10.07-1.53,0-3.07-.08-4.6,0-.72,0-.89-.21-.88-.9,0-2.91,0-5.81,0-8.71C392.71,131.73,392.65,131.28,392.61,130.83Z"/><path d="M11,54.53c-1.57,0-3.15,0-4.72,0-.67,0-.83-.2-.82-.84,0-3.39,0-6.79,0-10.18l0,0c1.67-.74,3.39-.36,5.11-.26a1.7,1.7,0,0,1,.39.27v0a2.08,2.08,0,0,1,.42,1.52q0,4,0,8A2.19,2.19,0,0,1,11,54.55Z"/><path d="M409.25,21.84l10.72,0,0,0c.72,1.75.39,3.55.22,5.34a.82.82,0,0,1-.32.35c-1.79.43-3.61.13-5.42.19-1.32.06-2.64,0-3.95,0a1.92,1.92,0,0,1-1.29-.33A23.61,23.61,0,0,1,409.25,21.84Z"/><path d="M458.25,125.49c0-3.66,0-7.33,0-11l5.23.1a20,20,0,0,1,.13,3.94c0,2,0,4.06,0,6.09,0,.85-.29,1.3-1.11,1.26C461.06,125.81,459.59,126.33,458.25,125.49Z"/><path class="cls-5" d="M283.73,163.51a43.79,43.79,0,0,1,0-5.25l.18-.16a3.31,3.31,0,0,1,1.59-.22c2.42,0,4.83,0,7.25,0a2.62,2.62,0,0,1,1.79.36,13.36,13.36,0,0,1,.19,4.8.6.6,0,0,1-.68.59C290.62,163.57,287.17,163.8,283.73,163.51Z"/><path class="cls-11" d="M398.23,158.51a5.14,5.14,0,0,1,5.07-4.08c0-.48-.32-.37-.54-.41s-.65.09-.72-.32.31-.42.59-.43c.53,0,.51-.39.6-.77.46-1.89.16-3.81.22-5.71.05-1.67,0-3.33,0-5,.56,1,.16,2.09.25,3.14.07.78,0,1.57,0,2.35a2.33,2.33,0,0,1,.38,1.66q0,14.75,0,29.48a2.83,2.83,0,0,1-.25,1.46.28.28,0,0,1-.41.1c0-5,0-10,0-15,0-.81-.15-1.29-1.08-1.17-.19,0-.44.05-.54-.19s.16-.43.3-.62c.38-.5,1.26-.55,1.28-1.55a23.49,23.49,0,0,0-2.07,1.48,1.07,1.07,0,0,1-1.68-.26c-.49-.61-1-1.23-1.45-1.85Z"/><path class="cls-12" d="M463.72,141.76c1.37,0,2.74,0,4.11,0,.92.05,1.09-.32,1.09-1.15,0-4.85,0-9.71,0-14.57a4.07,4.07,0,0,1,.05-.49c.32.4.15.88.15,1.31,0,4.62,0,9.24,0,13.85,0,.8.18,1.09,1,1,1.2-.07,2.41,0,3.62,0,.24,0,.6-.18.72.24-1.49,0-3,0-4.48,0-.76,0-1,.25-1,1-.08,2.12.24,4.22.24,6.33q0,9.84,0,19.69l-.24,0a1.05,1.05,0,0,1-.27-.39,6.93,6.93,0,0,1-.13-2v-17.2c0-1.77-.06-1.81-1.82-1.82-3.43,0-3.44,0-3.43-3.41a5.27,5.27,0,0,1,.24-2.33Z"/><path class="cls-13" d="M278.18,152.29A2.28,2.28,0,0,1,278,151c0-9.86,0-19.71,0-29.57,0-1.08-.25-1.48-1.37-1.39-1.33.1-2.66,0-4,0h-.13l-.1-.06a20.89,20.89,0,0,1,.07-5.3.71.71,0,0,1,.31-.33,16.1,16.1,0,0,1,5.23,0,.76.76,0,0,1,.33.31,11.13,11.13,0,0,1,.19,3.31c.05,1.37.1,1.4,1.5,1.47,1.14.06,2.32-.29,3.4.34a.33.33,0,0,1-.12.41,6.31,6.31,0,0,1-2.83.26c-1.84,0-1.91.08-1.91,1.89,0,6.91,0,13.82,0,20.73,0,2.5,0,5,0,7.49C278.61,151.14,278.72,151.8,278.18,152.29Z"/><path class="cls-14" d="M458.25,125.49c1.4,0,2.81,0,4.21,0,.78,0,1-.26,1-1,0-3.31,0-6.62,0-9.92.46.3.21.75.22,1.12,0,3.25,0,6.5.06,9.75v16.29l0,0c-.78-.31-.59-1-.6-1.6,0-2.49,0-5,0-7.49,0-1.44-.13-1.54-1.58-1.54a14.41,14.41,0,0,0-1.74.15,1.62,1.62,0,0,1-1.69-.53,9.56,9.56,0,0,1,.14-5.25Z"/><path class="cls-15" d="M414.45,27.31l5.52,0c.52.59.36,1.32.37,2,.05,3.26-.36,2.82,2.94,2.87.73,0,1.5-.16,2.14.36-.11.51-.53.29-.81.29-1.53,0-3.07,0-4.6,0-1.64.72-3.35.28-5,.31a1.49,1.49,0,0,1-.44-.17.79.79,0,0,1-.29-.36C414.1,30.82,413.75,29,414.45,27.31Z"/><path class="cls-16" d="M409.25,21.84c0,1.81,0,3.62,0,5.43.68,1.07.33,2.27.37,3.41.07,1.69.05,1.68,1.78,1.74,1,0,2.08-.27,3,.32l.11.1a9.71,9.71,0,0,1,0,5.24,11.66,11.66,0,0,1-5.32.11,1,1,0,0,1-.48-.7c-.14-1.59-.45-3.2.24-4.75V27.26c0-1.49,0-3,0-4.47C409,22.48,408.73,22,409.25,21.84Z"/><path class="cls-3" d="M267.22,114.57c0-1.83,0-3.66,0-5.49.05-.06.11-.12.16-.19a10.75,10.75,0,0,1,5.46.09,9.66,9.66,0,0,1,0,5.51l-.07.07a1.9,1.9,0,0,1-1.39.33,34.1,34.1,0,0,0-4,.15Z"/><path class="cls-5" d="M387.2,27.31c1.57,0,3.14,0,4.7,0,.66,0,.84.2.82.84,0,1.56,0,3.14,0,4.7l0,0c-1.68.75-3.41.36-5.13.26a1.9,1.9,0,0,1-.4-.25h0a8.06,8.06,0,0,1,0-5.52Z"/><path class="cls-9" d="M283.74,158.26a29.51,29.51,0,0,0-4.7-.08c-.63,0-.88-.16-.86-.83.06-1.53.05-3.06.06-4.59l0,0c1.66-.8,3.39-.4,5.11-.28a.73.73,0,0,1,.66.66c.13,1.72.51,3.45-.27,5.12Z"/><path d="M267.26,115a.93.93,0,0,1,1-.52c1.48,0,3,0,4.43,0-.09,1.8.35,3.64-.23,5.42-1.46,0-2.92,0-4.37,0-.66,0-.87-.19-.85-.85C267.29,117.79,267.26,116.42,267.26,115Z"/><path class="cls-5" d="M425.42,32.52c-1.57,0-3.14,0-4.72.09-.63,0-.75-.3-.74-.84,0-1.5,0-3,0-4.48h0a8.06,8.06,0,0,1,5.52,0l0,0Z"/><path class="cls-8" d="M387.44,130.8c0-1.45,0-2.91,0-4.36,0-.7.23-1,.93-.94,1.16,0,2.33,0,3.49,0,.67,0,.86.28.85.9,0,1.49-.05,3-.06,4.48Z"/><path class="cls-17" d="M414.47,38.29c0,1.46,0,2.91,0,4.36,0,.74-.13,1-.94,1-1.45-.07-2.91,0-4.36,0-.72-1.59-.29-3.24-.26-4.87,0-.36.31-.57.7-.55A36.79,36.79,0,0,1,414.47,38.29Z"/><path d="M414.71,32.84a44.63,44.63,0,0,1,5.3,0c0,1.66-.05,3.32-.07,5-.23.49-.68.38-1.08.38-1.32,0-2.64,0-4,0a.34.34,0,0,1-.3-.29A38.25,38.25,0,0,1,414.71,32.84Z"/><path class="cls-18" d="M479.92,209a3.11,3.11,0,0,1-3.81-.32,3.24,3.24,0,0,1-.55-3.9,2.42,2.42,0,0,1,2.86-1.21c1,.22,1-.13,1.05-.89s-.38-1.6.45-2.19Z"/><path class="cls-12" d="M469.2,169c1.75-.13,3.53.29,5.26-.25,1.3.55,2.67.09,4,.25.49.07,1.05-.27,1.46.25-1.37,0-2.75.07-4.11,0-1.13-.08-1.52.33-1.35,1.41a6.3,6.3,0,0,1,0,.87c.22,2.64.08,5.28.08,7.92-.76.49-1-.13-1.14-.62a6.84,6.84,0,0,1-.34-2.34c0-1.54,0-3.08,0-4.62,0-.77-.19-1.43-1.17-1.41s-1,.67-1.05,1.39c0,1.12,0,2.24,0,3.37a8.57,8.57,0,0,1,0,1.24c-.07.51-.17,1.12-.78,1.11s-.63-.67-.66-1.15c-.05-1.16,0-2.33,0-3.49a7.3,7.3,0,0,0-.29-2.71,1.1,1.1,0,0,1,.14-1.18Z"/><path class="cls-19" d="M283.73,163.51c3.21,0,6.42,0,9.62,0,.89,0,1.14-.24,1.1-1.11-.07-1.37,0-2.75,0-4.12.66.07.57.62.63,1a14.56,14.56,0,0,1,0,1.87c0,1.88.05,1.91,2,1.92h34.06c.5,0,1,0,1.5,0,3.14-.05,6.28,0,9.43,0a3,3,0,0,1,1.1.15.83.83,0,0,1,.36.31c-2.4.3-4.81.06-7.22.13-1.2,0-2.41,0-3.61.05l-25,0c-4,0-8,0-12,0-.95,0-1.23.29-1.17,1.2.08,1.37.06,2.74.08,4.11-.6-1.06-.21-2.22-.26-3.33-.07-2,0-2-2-2-2.53,0-5.06,0-7.6,0C284.51,163.71,284.06,163.91,283.73,163.51Z"/><path d="M409.21,54.54c0-1.45,0-2.89,0-4.33,0-.69.22-1,.92-.93s1.57,0,2.35,0c.44.92-.28,1-.83,1-1,0-1.36.52-1.33,1.49s.26,1.33,1.19,1.36,1.36-.3,1.39-1.27a4.6,4.6,0,0,1,.58-2.61l1,0c0,1.76,0,3.51,0,5.26h0A7.45,7.45,0,0,1,409.21,54.54Z"/><path class="cls-19" d="M349.18,120q0,15.47,0,30.92c0,1.78-.31,1.65,1.66,1.66,1.21,0,2.41,0,3.61-.06-1.2.61-2.49.28-3.71.22s-1.67.39-1.6,1.65a11.71,11.71,0,0,1-.12,3.69.55.55,0,0,1-.3-.3,13.69,13.69,0,0,1-.14-3.44c0-.91-.37-1.22-1.26-1.24a9.4,9.4,0,0,1-3.54-.23.27.27,0,0,1-.06-.4c.91-.62,1.94-.33,2.91-.36,1.84,0,1.9-.06,1.9-1.89q0-14,0-27.93a5,5,0,0,1,.21-2.1A.34.34,0,0,1,349.18,120Z"/><path class="cls-19" d="M349.05,158.1a16.74,16.74,0,0,1-4.3.15c-.83,0-1,.27-1,1.06a15.74,15.74,0,0,1-.17,4.28l-.12-.11c-.61-.91-.32-1.93-.34-2.9,0-1.9,0-1.91-2-1.92-2.23,0-4.47,0-6.71,0a2.46,2.46,0,0,1-1.67-.33c.19-.89.94-.66,1.48-.67,2.38-.05,4.75,0,7.12,0,1.67,0,1.73-.07,1.74-1.78,0-.66,0-1.33,0-2,0-.44,0-1,.59-1.11l.08.09c.6,1.09.25,2.26.32,3.4.08,1.3.12,1.34,1.45,1.42,1.13.07,2.31-.31,3.39.34Z"/><path class="cls-3" d="M414.47,38.29c-1.44,0-2.89,0-4.34,0-.65,0-1,.14-1,.89.06,1.48.05,3,.07,4.46a46.84,46.84,0,0,0,0,5.43h-.36c-.51-1-.18-2-.25-3.06-.05-.78,0-1.58,0-2.37a43.78,43.78,0,0,1,.08-5.12.63.63,0,0,1,.46-.48l5.37,0a.14.14,0,0,1,.22-.07l0,.1c.09,0,.12.09.09.13a.12.12,0,0,1-.09.06A.59.59,0,0,1,414.47,38.29Z"/><path class="cls-11" d="M398.23,155a1.2,1.2,0,0,0,.82-.22c.3-.23.62-.8,1-.35s-.26.63-.51.85c-.5.44-.66,1.17-1.3,1.47Z"/><path class="cls-16" d="M414.7,38.25a.61.61,0,0,0,0-.19h3.95a1.88,1.88,0,0,0,1.29-.27c.1.63-.36.51-.7.51C417.73,38.29,416.21,38.26,414.7,38.25Z"/><path class="cls-3" d="M430.74,65.29c0-1.75,0-3.5,0-5.24.58.57.22,1.29.25,1.93.07,1.1,0,2.21,0,3.32Z"/><path d="M251,92.52q0-17.92,0-35.85,0-14.67,0-29.35l.17-.18a3.35,3.35,0,0,1,1.71-.25h31.49a3.88,3.88,0,0,1,1.72.22c.43,1.06.8,2.14,1.12,3.23.16.54.3.91.91,1a1.37,1.37,0,0,1,.77.38c.21.21.42.46.32.76a.59.59,0,0,1-.61.36c-1.89-.18-3.9.74-5.64-.65-.21-.17-.37-.09-.55,0a5,5,0,0,1-3.11.68H258.45c-.57,0-1.19-.17-1.64.36a1.7,1.7,0,0,0-.23,1.08c0,4.53,0,9.07,0,13.6a3.77,3.77,0,0,0,.15,1.11,23.53,23.53,0,0,1,0,5.5,5.32,5.32,0,0,0-.15,1.73v28.8c0,.56-.15,1.18.41,1.61a3.35,3.35,0,0,0,1.47.18q20.73.1,41.45,0c1.86-.06,3.73,0,5.59,0q10.83-.07,21.66,0c1.39,0,2.79,0,4.18,0a2.17,2.17,0,0,1,1.4.35,9.48,9.48,0,0,1,.05,5.58c-.86.57-1.84.32-2.77.35a26.92,26.92,0,0,1-2.84,0c-.75.07-1.5,0-2.25,0H258.21a12.52,12.52,0,0,1-1.62,0c-1.83-.07-3.68.27-5.49-.22A.31.31,0,0,1,251,92.52Z"/><path class="cls-3" d="M163.72,54.49l-21.48.07h-4.76a2.4,2.4,0,0,1-1.67.36q-20.65,0-41.31,0c-.61,0-1.26.1-1.75-.44,0-3.21,0-6.41,0-9.62,0-1.15.37-1.36,1.43-1.36q28.71,0,57.44,0c3.63,0,7.25,0,10.87,0,.92,0,1.33.18,1.3,1.23C163.68,48,163.72,51.24,163.72,54.49Z"/><path d="M92.75,54.5l10.5,0,34.23,0c.31,1-.52,1.24-1.22,1.64.73.65,1.6.06,2.34.49-.7.62-1.54.2-2.26.39s-1.35,1-1.91-.13a.65.65,0,0,0-.44.08c-.54.44-1,.78-1.65.09-.2-.23-.56-.06-.73.23a.52.52,0,0,0,.27.82c.72.19.43.62.36,1.05-.09.62-.54.52-.94.54H24.86c-.57,0-1.2.16-1.63-.4-.19-.26-.5-.55-.34-.87s.6-.24.9-.15c.75.23,1.46.39,2.07-.3.18-.22.44-.42.3-.75s-.4-.26-.64-.26a7.15,7.15,0,0,1-1.59-.21c-1.58-.32-1.74-.59-1.19-2.26l4.5-.06a2.38,2.38,0,0,1,1.66-.38H69.34a2.38,2.38,0,0,1,1.66.38Z"/><path class="cls-20" d="M71,54.51l-33,0c-3.58,0-7.15,0-10.72,0,0-3.21,0-6.41,0-9.62,0-1,.34-1.37,1.37-1.37q20.49,0,41,0C70.72,43.52,71,44,71,45,71,48.18,71,51.35,71,54.51Z"/><path class="cls-21" d="M11,43.56l-.12,0-.11,0c-.79-1.37-.47-2.87-.37-4.28.4-5.37.1-10.74.2-16.1a2.94,2.94,0,0,1,.15-1.35.47.47,0,0,1,.22-.09l14.56.05,1.74,0c.73,1.64.4,3.34.24,5-.07.65-.7.77-1.26.81-.95.08-1.91.05-2.87,0s-1.22.32-1.21,1.18v7.5c0,.9.42,1.28,1.29,1.25.42,0,.84,0,1.25,0h196c2.88,0,2.64.12,2.65-2.65,0-2,0-4,0-6a3,3,0,0,1,.31-1.69,8.45,8.45,0,0,1,5.33-.07c.69,1,.37,2.1.4,3.15.06,2,.07,2,2,2h12.11c1.43,0,1.53-.12,1.56-1.58,0-.83,0-1.66,0-2.49,0-.51.11-1.14.68-1.22,1.66-.23,3.35-.57,5,.23,0,3.16-.06,6.33,0,9.49,0,1.14-.27,1.48-1.44,1.48-10.33,0-20.66,0-31,0H23.81c-3.88,0-7.75,0-11.62,0-.93,0-1.26.24-1.21,1.19C11.05,40.81,11,42.18,11,43.56Z"/><path class="cls-22" d="M250.77,27.33c-1.46,0-2.92,0-4.37,0-.71,0-1,.26-.93.95,0,1.21,0,2.42,0,3.62,0,.7-.24.95-.94.95q-7.25,0-14.49,0c-.81,0-1.1-.35-1.08-1.13,0-1.46,0-2.91,0-4.37a1.89,1.89,0,0,0,0-.23c-.11-1.43,0-2.87,0-4.31a1.32,1.32,0,0,1,.41-1.12,3.7,3.7,0,0,1,1.83-.25c6,0,12,0,17.92,0a3.33,3.33,0,0,1,1.94.31,8.41,8.41,0,0,1,0,5.58l0,0h-.11Z"/><path class="cls-3" d="M251,92.52a.37.37,0,0,1,.07.2c-.35.47-.87.44-1.36.45-1.38,0-2.75,0-4.12,0-1.74-.06-3.49.23-5.22-.19a2.47,2.47,0,0,1-.51-.51,10.72,10.72,0,0,1,.07-5.19c1.08-.65,2.27-.31,3.41-.35,1.77-.06,1.78,0,1.79-1.84,0-1.12,0-2.24,0-3.37q-.09-8.06,0-16.12c0-1.37,0-2.74,0-4.12a1.92,1.92,0,0,1,.37-1.41h3.63c1.64,0,1.64,0,1.64,1.59q0,14.73,0,29.46C250.74,91.57,250.55,92.1,251,92.52Z"/><path class="cls-22" d="M229.27,43.58c5,0,10,0,15,0,1,0,1.26.3,1.24,1.27-.06,2.87-.05,5.74,0,8.61,0,.88-.26,1.13-1.13,1.13-5-.05-10.07,0-15.11,0-.44-.43-.35-1-.37-1.53a22,22,0,0,0-.16-4,24.23,24.23,0,0,1-.09-4.34C228.64,44.21,228.74,43.76,229.27,43.58Z"/><path class="cls-21" d="M185.73,54.5H174.51c0-3.24,0-6.49,0-9.73,0-.9.21-1.22,1.17-1.22q18.54,0,37.08,0a.41.41,0,0,1-.21.4,4.64,4.64,0,0,1-2.09.22H187.81c-1.91,0-1.93,0-1.93,2v7A2.7,2.7,0,0,1,185.73,54.5Z"/><path class="cls-22" d="M245.46,65.55V81.76a9,9,0,0,1-5.49.12,2.55,2.55,0,0,1-.37-1.78c0-2.41,0-4.82,0-7.23,0-1-.33-1.39-1.32-1.53-3-.45-3.15-.38-3.15,2.71V90.37a5.75,5.75,0,0,1-.15,1.85.75.75,0,0,1-.3.36.78.78,0,0,0-.21,0,2.34,2.34,0,0,1-.39-1.66V72.71a2.43,2.43,0,0,1,.37-1.66.91.91,0,0,0,0-.23,10,10,0,0,1-.08-5.73c3.39.1,6.78,0,10.17.09A1.32,1.32,0,0,1,245.46,65.55Z"/><path class="cls-9" d="M234.44,71.05q0,10.74,0,21.49c-1.41,0-2.83,0-4.24,0-.66,0-1-.12-1-.88q0-9.87,0-19.73c0-.73.27-.92.95-.9C231.61,71.07,233,71.05,234.44,71.05Z"/><path class="cls-22" d="M11,54.55v-11l4.48,0c.56,0,1,.08,1,.78,0,3.24,0,6.47,0,9.71a1.33,1.33,0,0,1-.18.46Z"/><path class="cls-16" d="M245.46,65.55h-9.55c-.54,0-1.09,0-1.41-.52a6.75,6.75,0,0,1,0-5h11Z"/><path class="cls-23" d="M234.47,60l0,5,0,5.8c-1.5,0-3,0-4.5,0-.58,0-.8-.19-.8-.79q0-4.62,0-9.24c0-.6.22-.8.81-.78C231.48,60,233,60,234.47,60Z"/><path class="cls-24" d="M212.74,43.78c0-.07,0-.15,0-.22l16.55,0c-.59,1.79-.13,3.62-.26,5.43l-.16.17a10.18,10.18,0,0,1-5.17-.07c-.61-1.09-.28-2.28-.33-3.43-.07-1.38-.12-1.49-1.5-1.5h-7.24A3.69,3.69,0,0,1,212.9,44Z"/><path class="cls-22" d="M239.94,92.53l.29.24c.09.22,0,.27-.21.26-.94-.57-2-.17-3-.25a22.66,22.66,0,0,0-2.33,0,.54.54,0,0,0-.05-.22l.08-.07A7.59,7.59,0,0,1,239.94,92.53Z"/><path class="cls-24" d="M229,49c.46,1.82,0,3.68.24,5.51l-.27,0h0a8.43,8.43,0,0,1,0-5.48Z"/><path class="cls-22" d="M223.73,27.29c0,3.21,0,6.41,0,9.62,0,.85-.23,1.19-1.12,1.15-1.41-.07-2.83,0-4.25,0H23.62c-2.12,0-1.86.23-1.87-1.86,0-2.59,0-5.17,0-7.75,0-.84.22-1.21,1.12-1.15s2.09-.06,3.12,0S27.32,27,27.27,26c-.08-1.37,0-2.74,0-4.12h22a18.75,18.75,0,0,1,.14,4.1c0,1.62,0,3.25,0,4.87,0,1.42.15,1.53,1.6,1.57h.37q53.59.09,107.18.06c.29,0,.58,0,.87,0,2.51-.05,5,0,7.54,0q11.92,0,23.84,0h8.86c1.53,0,1.64-.13,1.65-1.63,0-2.29,0-4.58,0-6.86a3.46,3.46,0,0,1,.38-2l22,0A8.06,8.06,0,0,1,223.73,27.29Z"/><path class="cls-25" d="M167,32.78h-7.49a3.37,3.37,0,0,0-1.48-.11H77.71c-1.63,0-1.63,0-1.63-1.61,0-2.63,0-5.25,0-7.87,0-.48-.15-1,.42-1.34.33,0,.66,0,1,0H168c.33,0,.67,0,1,0,.53.26.4.76.4,1.2,0,2.56,0,5.12,0,7.69,0,1.85,0,1.85-1.92,1.92A.94.94,0,0,0,167,32.78Z"/><path class="cls-5" d="M376.12,11.09c0,1.41,0,2.82.09,4.23.05.88-.33,1-1.1,1-3.91-.05-7.82-.06-11.73-.06H309.85c-.46,0-.91,0-1.37,0-.38-.24-.47-.65-.64-1a2.7,2.7,0,0,0-4.59-.55,5.54,5.54,0,0,1-2.2,1.92c-5.51.12-11,0-16.52.05a1.42,1.42,0,0,1-1-.29c-.5,0-1-.05-1.5-.05q-28.35,0-56.71,0c-1.26,0-1.75-.3-1.57-1.58s-.51-2.71.29-3.47,2.23-.19,3.38-.19H304c.75,0,1.5,0,2.25,0,.57,1.72,2.2,2.48,3.36,3.67a.46.46,0,0,0,.67.06c.27-.25.16-.53,0-.76-.49-.56-1.06-1.05-1.55-1.6-.35-.39-.83-.73-.63-1.37H309a7.05,7.05,0,0,1,2.1,1.7c.23.21.47.54.84.33s.21-.56.09-.87c-.36-.89.1-1.11.88-1.11a5.55,5.55,0,0,0,1.35-.05c.38,0,.75,0,1.12,0Z"/><path class="cls-23" d="M11,5.54c.83,0,1.67,0,2.5,0H79.25c.33,0,.66,0,1-.06l16.51.05c.49,0,1,0,1.48,0,.74,1.6.4,3.25.24,4.88,0,.46-.48.64-.92.7a12.52,12.52,0,0,1-1.5,0H72.78a7.72,7.72,0,0,0-1.86.1c-1.88-.22-3.77.35-5.65-.07-10.81,0-21.62.06-32.43,0-4.73,0-9.45,0-14.18,0-1.78,0-1.73,0-1.79,1.82,0,1.09.34,2.25-.4,3.26l-5.48,0C11,12.72,11,9.13,11,5.54Z"/><path class="cls-23" d="M167,32.78s.05-.07.09-.08C169,32.2,169,32.2,169,30c0-2.73,0-5.45,0-8.18q9.59,0,19.17,0,6.79,0,13.57,0c0,3.39,0,6.79,0,10.18,0,.62-.31.77-.86.76H167Z"/><path class="cls-3" d="M223.73,27.29c0-1.82,0-3.64,0-5.46,0-1.42,0-2.83,0-4.25,0-.83.28-1.13,1.08-1a10.63,10.63,0,0,0,1.13,0h57.54l.22.12c.79,1.54.45,3.15.29,4.74-.05.47-.48.65-.91.73a8.8,8.8,0,0,1-1.62.08H253.12a3.31,3.31,0,0,1-2.16-.38H229.24a23.21,23.21,0,0,0-.14,3.91A4.23,4.23,0,0,1,229,27.3h-5.25Z"/><path class="cls-23" d="M76.5,21.84c0,3.4,0,6.8-.06,10.2,0,.41.12.51.47.51h81c.52,0,1.09-.19,1.56.22l-1.62,0H50.6c-1.6,0-1.6,0-1.6-1.63V23.29a2.28,2.28,0,0,1,.25-1.45Z"/><path class="cls-26" d="M141.75,16.31l-37.72,0a2.65,2.65,0,0,1-.49-.09,16.85,16.85,0,0,1-.12-4.81,1,1,0,0,1,1.09-1c3.07-.1,6.13-.09,9.2,0a1.26,1.26,0,0,1,.78.34h0a2.37,2.37,0,0,0,1.34.13c8.69,0,17.37,0,26.06,0A10,10,0,0,1,141.75,16.31Z"/><path class="cls-26" d="M32.75,10.8H65.46a7.75,7.75,0,0,1,0,5.49c-2.5,0-5,.05-7.49.05q-12,0-24,0c-.41,0-.83,0-1.24-.05A8.09,8.09,0,0,1,32.75,10.8Z"/><path class="cls-27" d="M202,16.27a8.5,8.5,0,0,1-.87.07q-15.54,0-31.09,0c-.33,0-.66-.05-1-.08-.8-1.58-.44-3.23-.25-4.86.06-.53.61-.47,1-.47h30.85A3,3,0,0,1,202,11h0A20.73,20.73,0,0,1,202,16.27Z"/><path class="cls-28" d="M98.24,16.29H71A7.73,7.73,0,0,1,71,11a2.75,2.75,0,0,1,1-.07h25.1c1.37,0,1.56.11,1.54,1.46S99,15.05,98.24,16.29Z"/><path class="cls-22" d="M98.24,16.29c0-1.24-.08-2.49,0-3.73S98,11,96.77,11c-8.59.05-17.18,0-25.78,0a.18.18,0,0,1-.27,0c.42-.41,1-.24,1.43-.24,8.21,0,16.41,0,24.62,0,1.22,0,1.59-.35,1.49-1.54s0-2.5,0-3.75H114.5v5.25c-3.2,0-6.41.07-9.61,0-.94,0-1.22.26-1.21,1.2a16.57,16.57,0,0,1-.13,4.22Z"/><path class="cls-15" d="M32.75,10.8v5.49l-16.28,0c0-1.46.1-2.92,0-4.37-.1-1,.29-1.09,1.09-1.09C22.6,10.82,27.67,10.8,32.75,10.8Z"/><path class="cls-23" d="M163.73,16.29H147.24a10,10,0,0,1-.19-5.33c5.36-.08,10.72,0,16.07-.05.76,0,1.1.24,1,1C164,13.36,164.52,14.89,163.73,16.29Z"/><path class="cls-23" d="M202,16.27a13.29,13.29,0,0,1,0-5.22h10.74a7.34,7.34,0,0,1,0,5.24Z"/><path class="cls-29" d="M212.73,16.29c0-1.74,0-3.49,0-5.24,3.2,0,6.4,0,9.6,0,.95,0,1.28.28,1.18,1.2-.14,1.31.56,3-.3,3.83s-2.46.21-3.73.23C217.21,16.32,215,16.3,212.73,16.29Z"/><path class="cls-30" d="M163.73,16.29c0-1.46-.07-2.91,0-4.36.05-.75-.16-.88-.85-.88-5.28,0-10.56,0-15.84,0a8,8,0,0,1-5.22,0q-13,0-26-.05c-.46,0-1,.24-1.39-.25l24.62,0c9.83,0,19.65.06,29.48.07q16.68,0,33.36,0a1.06,1.06,0,0,1,0,.19c-10.49,0-21,0-31.47,0-1.2,0-1.62.27-1.51,1.5s0,2.49,0,3.74Z"/><path class="cls-22" d="M70.72,11H71c0,1.74,0,3.49,0,5.23h-5.5c0-1.83,0-3.66,0-5.49a7.5,7.5,0,0,0,3.43,0A4.24,4.24,0,0,1,70.72,11Z"/><path class="cls-30" d="M141.85,11.09h5.22a34.77,34.77,0,0,1,.17,5.2l-5.49,0C141.78,14.57,141.82,12.83,141.85,11.09Z"/><path class="cls-31" d="M308,11.12c.52,1.18,1.61,1.86,2.44,2.77.38.41.62.71.11,1.22s-.79.37-1.23,0c-.85-.83-1.75-1.61-2.63-2.41a1.33,1.33,0,0,1-.5-1.53Z"/><path class="cls-31" d="M314.21,11.12c-.28.24-.62.16-.94.18-.87,0-1.83,0-.74,1.22.36.41-.1.65-.33.92a.55.55,0,0,1-.93,0c-.77-.79-1.55-1.57-2.32-2.35Z"/><path class="cls-3" d="M283.48,16.35l15.86-.07c.7,0,1.41,0,2.12,0,.2,0,.29.05.26.26-.39.47-1,.42-1.48.43-1.94,0-3.87,0-5.81,0-3.16.07-6.33,0-9.49,0a2.57,2.57,0,0,1-1.43-.37l-.05,0A1.37,1.37,0,0,0,283.48,16.35Z"/><path class="cls-32" d="M441.7,98.28v5.26a2.16,2.16,0,0,1-1.65.38c-2.28,0-4.57,0-6.85,0-1.83,0-1.84,0-1.85,1.9,0,2.37,0,4.74,0,7.11,0,1.68-.29,1.94-2,2-.79,0-1.57,0-2.36,0s-1.14.36-1.15,1.13c0,1,0,1.91,0,2.87s-.48,1.48-1.46,1.46a14.14,14.14,0,0,1-3.95-.19c-.38-.89.29-1.52.68-2.11s.83.19,1.26.36c.5-.16.19-1.09.89-1s.34.78,1,1.31a7,7,0,0,1,.63-4.59,47.83,47.83,0,0,0,.16-7,7.77,7.77,0,0,0-.17-3c-.41-.52-1-.3-1.5-.35-1.17-.13-2.38.29-3.51-.31a4.64,4.64,0,0,1-.31-2.3,6.27,6.27,0,0,0-.23-2.55c-.4-.44-.92-.33-1.41-.33-2.54,0-5.08,0-7.62,0-1.41,0-1.67-.27-1.73-1.67,0-.83,0-1.67,0-2.5.05-1.46.33-1.75,1.77-1.81.87,0,1.75,0,2.62,0,.71,0,1.08-.34,1.08-1.06v-.13c0-4.19.43-3.46-3.22-3.5s-7.08,0-10.62,0c-1.52,0-1.59.08-1.6,1.64,0,.71,0,1.42,0,2.12-.06,1.4-.33,1.7-1.72,1.72-2.45,0-4.91,0-7.36,0-1.86,0-1.89,0-1.9,1.86,0,.63,0,1.25,0,1.88-.08,1.29-.45,1.66-1.78,1.74-.79,0-1.58,0-2.37,0s-1.38.32-1.34,1.3c0,.83,0,1.66,0,2.5a1.31,1.31,0,0,1-1.48,1.44c-.88,0-1.75,0-2.63,0s-1.17.34-1.15,1.2c.06,2.54,0,5.08,0,7.62a2.49,2.49,0,0,1-.38,1.78c-3.27,0-6.55,0-9.82,0-.92,0-1.27-.25-1.2-1.19.07-1.12,0-2.24,0-3.36,0-.78-.29-1-1-1-1.49,0-3,0-4.48,0-.77-1.68-.4-3.41-.24-5.13.05-.52.58-.66,1.05-.72a18.77,18.77,0,0,1,2.25,0c2,0,2,0,2-2,0-.63,0-1.25,0-1.88a1.25,1.25,0,0,1,1.32-1.34c1-.06,1.92,0,2.88,0a1.14,1.14,0,0,0,1.27-1.32c0-.92,0-1.83,0-2.75A1.29,1.29,0,0,1,372,92.42c.91,0,1.83,0,2.75,0s1.31-.36,1.16-1.31a19.11,19.11,0,0,1-.07-2.62,1.34,1.34,0,0,1,1.5-1.55c.92,0,1.84,0,2.75,0s1.27-.4,1.24-1.29a25.26,25.26,0,0,1,0-2.75,1.37,1.37,0,0,1,1.42-1.43c1-.07,1.91-.05,2.87,0s1.2-.38,1.18-1.21,0-1.5,0-2.25a1.85,1.85,0,0,1,.38-1.4,2.51,2.51,0,0,1,1.45-.25c2.78,0,5.57,0,8.35,0,.9,0,1.29-.21,1.22-1.18s0-2,0-3,.27-1.14,1.13-1.13c3.36,0,6.73,0,10.09,0a13.52,13.52,0,0,0,3-.18,2.88,2.88,0,0,1,2.07.19c0,1.37,0,2.75,0,4.12,0,.85.22,1.21,1.12,1.15s2.09.06,3.12,0,1.37.35,1.3,1.35,0,2.16,0,3.24c0,.72.26,1,.95.93,1.21,0,2.42,0,3.62,0,.7,0,1,.23,1,.94,0,1.12,0,2.25,0,3.37-.05.91.21,1.29,1.18,1.22s2.08,0,3.12,0,1.29.34,1.23,1.29,0,2.17,0,3.24c0,.78.27,1,1,1,1.5,0,3,0,4.49,0h0a12.14,12.14,0,0,1,.12,3.07c.07,1.61.21,1.76,1.8,1.81C439.51,97.71,440.71,97.45,441.7,98.28Z"/><path class="cls-16" d="M327.22,92.79l5.43-.05c1.12-.62,2.34-.29,3.52-.33,1.59-.07,1.61-.09,1.67-1.7,0-1.14-.25-2.31.29-3.4.56-.51,1.25-.38,1.9-.4s1.42,0,2.12,0c.85,0,1.18-.36,1.2-1.2A16,16,0,0,1,343.5,82a.82.82,0,0,1,.27-.34,5.37,5.37,0,0,1,2.32-.22c2.74,0,2.49.2,2.51-2.57a13.4,13.4,0,0,1,.06-2.1,1.28,1.28,0,0,1,.17-.42c.05-.06.11-.11.16-.16a1.14,1.14,0,0,1,.41-.18,24.53,24.53,0,0,1,3.09-.08c1.51,0,1.58-.1,1.6-1.64,0-.66,0-1.33,0-2a1.77,1.77,0,0,1,.4-1.38,3.62,3.62,0,0,1,1.84-.21h18.05c1.59,0,1.71-.12,1.72-1.68,0-.83,0-1.66,0-2.49s.44-1.35,1.31-1.3c1.42.08,2.89-.37,4.27.32.44-.36.26-.85.26-1.29,0-2.82.05-5.65,0-8.48,0-1,.33-1.3,1.29-1.24s2.08,0,3.12,0c.65,0,.89.24.87.88,0,1.16,0,2.33,0,3.49,0,.85.22,1.21,1.12,1.15,1.11-.06,2.24,0,3.36,0,.72,0,1.06.16,1.05,1,0,3,0,5.91,0,8.86,0,.69-.22,1-.93,1-1.12,0-2.25,0-3.37,0-.94,0-1.25.35-1.22,1.25.05,1.42,0,2.83,0,4.25-1,.69-2.18.33-3.28.38-1.73.07-1.81.11-1.83,1.85,0,.71,0,1.42,0,2.12,0,.94-.4,1.51-1.41,1.52-2.62.06-5.24,0-7.86,0-1.33,0-1.43.12-1.46,1.42,0,.83,0,1.66,0,2.49-.07,1.24-.35,1.54-1.61,1.57-2.49,0-5,0-7.49,0-1.84,0-1.87,0-1.88,1.89,0,.75,0,1.5,0,2.25A1.23,1.23,0,0,1,359,93.15c-.91,0-1.83.06-2.74,0s-1.47.33-1.42,1.37c0,.79,0,1.58,0,2.37,0,1-.46,1.39-1.43,1.52a58.49,58.49,0,0,1-7.6.24c-1.63,0-1.68.07-1.7,1.69v1.25c0,2.09-.22,2.3-2.27,2.31s-4.32,0-6.49,0a6.32,6.32,0,0,1-.87,0c-1-.08-1.36.42-1.39,1.41,0,1.27.34,2.58-.35,3.79a3.08,3.08,0,0,1-1.81.31H307.27a3.14,3.14,0,0,1-1.81-.3c-.67-1-.34-2.18-.38-3.28-.06-1.86-.06-1.92-1.88-1.91-3.82,0-3.63.09-3.64-3.61,0-1.54-.13-1.64-1.9-1.64H259.11a9.75,9.75,0,0,1-1.62,0c-.41-.06-1,0-1-.64a2.28,2.28,0,0,1,1.66-.37c14.19,0,28.39-.18,42.58.07,7.87.14,15.73,0,23.59.17.42,0,.84,0,1.25,0,.9,0,1.28-.41,1.27-1.29s0-1.5,0-2.25A2.15,2.15,0,0,1,327.22,92.79Z"/><path class="cls-22" d="M294.48,16.55q3,0,5.94,0a2.07,2.07,0,0,0,1.32-.18c.41-.47.93-.36,1.45-.3a12,12,0,0,0,4,.05.81.81,0,0,1,.79.24,2.91,2.91,0,0,0,1.7.19h54c.67,0,1.33,0,2,0a11.11,11.11,0,0,1,.16,3.45c0,1,.41,1.42,1.41,1.39a16.25,16.25,0,0,1,2.61.05c.45.05,1,.13,1,.75-.05,3.55.18,7.11-.11,10.66a2.45,2.45,0,0,1-1.56.32q-6.56,0-13.1,0a2.43,2.43,0,0,1-1.45-.28c-.77-.69-.49-1.63-.5-2.47,0-3.07.22-2.75-2.74-2.77h-1c-.67,0-1,.31-1,1,0,.17,0,0,0,.13,0,4.21-.38,3.56,3.29,3.63.66,0,1.35-.11,1.89.44a2.12,2.12,0,0,1,.33,1.43c0,2.58,0,5.16,0,7.74,0,1.6-.3,1.88-1.92,1.9-1.17,0-2.33,0-3.5,0a.77.77,0,0,1-.55-.39,30.67,30.67,0,0,1-.29-3.45c0-1.32-.12-1.42-1.41-1.45-.74,0-1.48,0-2.23,0a1.53,1.53,0,0,1-1.39-.64,10.78,10.78,0,0,1-.21-3.58c0-.9-.36-1.22-1.26-1.26-1.3-.06-2.65.33-3.9-.33a3.61,3.61,0,0,1-.35-2.28c0-3.24.34-2.82-2.95-2.88-.77,0-1.59.17-2.26-.41-.53-1-.28-2-.31-3.06,0-2-.05-2-2.05-2H297.06c-3,0-3,0-3-3C294.09,18.31,293.84,17.36,294.48,16.55Z"/><path class="cls-16" d="M354.46,32.8H370.7c.09-.12.17-.12.25,0,0,3.19,0,6.38,0,9.57,0,.92-.24,1.26-1.19,1.2-1.11-.07-2.23,0-3.35,0-.78,0-1,.28-1,1,0,1.49,0,3,0,4.47a2,2,0,0,1-1.64.42q-6.52,0-13.07,0a2.59,2.59,0,0,1-1.56-.31,8.8,8.8,0,0,1,0-5.35c1.33-.5,2.71-.2,4.06-.21.93,0,1.21-.28,1.2-1.21-.05-3.19,0-6.38,0-9.57Z"/><path d="M349.22,49.07l16.24,0,10.71,0a24.86,24.86,0,0,1,.08,5.52c-.85.58-1.82.3-2.74.35s-1.88,0-2.82,0c-6.68,0-13.36,0-20,0a2.41,2.41,0,0,1-1.44-.31A9.49,9.49,0,0,1,349.22,49.07Z"/><path class="cls-3" d="M380.72,81.79c.72.08,1-.19,1-1-.06-1.12,0-2.24,0-3.36,0-.84.27-1.21,1.15-1.18,1.45,0,2.9,0,4.35,0v.26c0,1.45,0,2.91,0,4.37,0,.64-.22.91-.87.88s-1.5,0-2.25,0c-2.63,0-2.37-.26-2.38,2.45,0,.7,0,1.41,0,2.12s-.24,1-1,.94c-1.2,0-2.41,0-3.62,0-.69,0-1,.22-.94.93a18.41,18.41,0,0,0,.16,3.23c.21.82-.09,1.41-1.08,1.35a4.28,4.28,0,0,0-.62,0c-1.19.1-2.71-.52-3.49.27s-.15,2.22-.23,3.38a4.28,4.28,0,0,0,0,.62c.09.88-.37,1.22-1.17,1.22-1.08,0-2.17,0-3.25,0-.79,0-1.14.21-1.09,1,.06,1-.06,2,0,3s-.34,1.3-1.29,1.24-2.16,0-3.24,0c-.79,0-1,.28-1,1,.05,1.5,0,3,0,4.5s-.08,2.82,0,4.22c.06,1.07-.35,1.36-1.35,1.28s-2,0-3,0-1.26.21-1.21,1.17c.07,1.36,0,2.73,0,4.1a38.94,38.94,0,0,1-4.71.12.71.71,0,0,1-.8-.76,31.25,31.25,0,0,1,0-4c0-.33.13-.72.56-.69s.48.42.52.76c.09.82.06,1.65.2,2.48.17,1,.82,1,1.57,1s1.29-.3,1.33-1.15c0-.5,0-1,0-1.5a2.91,2.91,0,0,1,3.05-3.22c1.21-.07,1.43-.28,1.44-1.52a6.74,6.74,0,0,1,.55-2.63,5.62,5.62,0,0,0-.2-4,3.84,3.84,0,0,1-.06-2.67c.11-.32.28-.62.69-.61s.49.26.56.56c.15.64.56.58.92.27a1.54,1.54,0,0,1,2.3,0c.46.39,1-.16,1.5-.28a.79.79,0,0,1-.83-.76.6.6,0,0,1,.35-.71c.22-.11.77.27.6-.41-.12-.49-.23-1-.76-1.21a1.6,1.6,0,0,0-.62-.06c-.46,0-.83-.15-.85-.69s.39-1.13.87-1c1.34.42,2.42-.15,3.59-.58a4.87,4.87,0,0,1,1.87,0c1,0,1.35-.45,1.26-1.38a1.64,1.64,0,0,0,0-.5c-.62-1.66.71-2.49,1.52-3.52a.93.93,0,0,1,1.17-.14,3.43,3.43,0,0,0,1.82.27c1.22-.06,1.36-.17,1.27-1.35a4.75,4.75,0,0,0-.12-.74c-.39-1.75-.13-2.28,1.51-3,.46-.19.89-.27,1.13-.84s.83-.54,1.28-.07c.27.29.41.84.94.58a1,1,0,0,0,.44-1.2A5.58,5.58,0,0,1,380.72,81.79Z"/><path d="M376.46,54.53c1.41,0,2.82,0,4.23,0,.82,0,1.06.25,1.05,1.06,0,3.23,0,6.47,0,9.7a35.67,35.67,0,0,1-4.85.12.64.64,0,0,1-.69-.72c-.07-3.24-.16-6.48,0-9.73A.84.84,0,0,1,376.46,54.53Z"/><path class="cls-33" d="M376.46,54.53c0,3.23,0,6.47,0,9.7,0,.79.19,1.13,1,1.09,1.4-.06,2.82,0,4.23,0a.69.69,0,0,1,0,.25c-1.45,0-2.91,0-4.37,0-.64,0-.9.19-.87.86,0,1.12,0,2.25,0,3.37S376.25,71,375.23,71c-6.58,0-13.17,0-19.75,0l-1,0c-1,.65-2.17.31-3.27.36-1.53.07-1.55.09-1.62,1.62,0,1.09.3,2.24-.37,3.26l-.11,0H349c-.69-.93-.36-2-.38-3-.06-2.07-.1-2.14-2.2-2.14l-1,0c-.92,0-1.34.45-1.33,1.39,0,3.92-.39,3.27,3.13,3.34.61,0,1.25-.09,1.76.4a.89.89,0,0,1,0,.23c-1,.66-2.09.33-3.14.37-1.69.06-1.68,0-1.74,1.74,0,1,.29,2.16-.36,3.14h0a.32.32,0,0,1-.41-.13c-.49-1.78-.15-3.6-.22-5.4s-.09-3.48,0-5.21a22.29,22.29,0,0,0,.18-3.83,2.71,2.71,0,0,1,.36-1.78,8.67,8.67,0,0,1,5.26.06c.68.94.37,2,.4,3,.07,1.74.12,1.84,1.85,1.84q11.48,0,22.95,0c1.59,0,1.66-.08,1.66-1.72,0-3,.17-2.72-2.69-2.72H351a2.92,2.92,0,0,1-2-.36c0-.64.5-.57.87-.63a7.51,7.51,0,0,1,1.5,0h22.47c1.93,0,2,0,2-1.94,0-1,0-1.92,0-2.87-.06-1.37,0-2.74,0-4.11a2,2,0,0,1,.39-1.41c0-1.83,0-3.66,0-5.49.58.55.26,1.25.29,1.87C376.51,52.13,376.46,53.33,376.46,54.53Z"/><path d="M398.25,59.79l0-4.25a6.08,6.08,0,0,1,3.13-.6c1.7-.09,3.41,0,5.11,0,1.4,0,1.78.4,1.88,1.75.2,3,0,3.27-3,3.23A69.49,69.49,0,0,1,398.25,59.79Z"/><path class="cls-16" d="M371,32.79h-.25c0-3.28,0-6.56,0-9.83,0-.95-.3-1.24-1.21-1.18-1.08.07-2.16,0-3.24,0-.38,0-.82,0-.8-.52.05-1.57-.27-3.15.19-4.7,1.41,0,2.82,0,4.23,0,.82,0,1.07.27,1.07,1.07C370.94,22.67,371,27.73,371,32.79Z"/><path class="cls-5" d="M398.22,54.53c-1.53,0-3.06,0-4.59,0-.71,0-.95-.22-.93-.93,0-1.53,0-3.06,0-4.59l.18-.16a15.25,15.25,0,0,1,4.67-.15,1,1,0,0,1,1,1,15.25,15.25,0,0,1-.15,4.67Z"/><path d="M392.72,49c-1.49,0-3,0-4.47,0-.84,0-1.06-.28-1-1.07,0-1.49,0-3,0-4.47v0a1.67,1.67,0,0,1,.38-.25,16.44,16.44,0,0,1,5,.06.68.68,0,0,1,.32.33c.2,1.8.52,3.6-.21,5.36Z"/><path d="M398.25,59.79c2.79,0,5.58,0,8.37,0,1,0,1.35-.4,1.34-1.32,0-3.8.45-3.09-3-3.2-2.25-.08-4.48.19-6.72.26,0-.34,0-.67,0-1l0,0a1.92,1.92,0,0,1,1.4-.41h8a1.89,1.89,0,0,1,1.39.41V60L398.9,60C398.66,60,398.4,60.07,398.25,59.79Z"/><path class="cls-31" d="M303.21,16.33h-1.47l-.28-.1c.9-.94,1.53-2.18,2.72-2.76,1.78-.87,3.56.32,4.3,2.76l-.53.09h-.72A19.29,19.29,0,0,1,303.21,16.33Z"/><path class="cls-32" d="M430.71,70.8c-.38.39-.86.23-1.3.23-5,0-10,0-15,0,.33-.37.77-.24,1.17-.24Z"/><path class="cls-34" d="M420.2,119.78c1.57.53,3.19.15,4.79.21.52,0,.46-.49.46-.85,0-1.08.06-2.17,0-3.24s.28-1.46,1.34-1.39,2.08,0,3.12,0c.82,0,1.08-.25,1.07-1.07,0-2.82,0-5.65,0-8.47,0-1.09.21-1.53,1.42-1.49,3.12.09,6.24,0,9.35,0,.52,1.4.2,2.86.22,4.29,0,.9.23,1.26,1.19,1.21,1.36-.07,2.72,0,4.09,0a2.52,2.52,0,0,1,.4,1.79c0,2.45,0,4.91,0,7.37,0,1.3.14,1.36,1.43,1.45s2.51-.33,3.66.39h0a2.23,2.23,0,0,1,.38,1.66c0,2.41,0,4.83,0,7.25,0,1.36.46,1.75,1.85,1.56a6.68,6.68,0,0,1,2.23,0,1.56,1.56,0,0,1,1.43,1.73c0,.46,0,.92,0,1.38,0,5.66,0,11.33,0,17,0,1.67.09,1.74,1.78,1.76.79,0,1.58,0,2.37,0a1.2,1.2,0,0,1,1.3,1.22,25.55,25.55,0,0,1,0,3.5,1.2,1.2,0,0,1-1.15,1.24,15.76,15.76,0,0,1-3,.29c-1,0-1.33.42-1.33,1.36,0,3.57-.24,3,2.93,3.11a7,7,0,0,1,1.37.08,1.31,1.31,0,0,1,1.14,1.16,7.37,7.37,0,0,1,.07,1.24q0,8.88,0,17.74c0,2.24-.31,2.53-2.51,2.56-3.2,0-3-.4-3,3.07,0,1.4.12,1.49,1.52,1.42a10.87,10.87,0,0,1,2.73.21,1.3,1.3,0,0,1,1.21,1.35c0,1.12.05,2.25,0,3.37a1.21,1.21,0,0,1-1.24,1.28,8.77,8.77,0,0,1-.88,0c-3.3.06-3.29.06-3.36,3.43a2.73,2.73,0,0,1-.32,1.68c-1.5.7-3,.4-4.58.23-.6-.38-.33-.74,0-1.11,1.22-1.33,1.23-1.63.08-3.13-.64-.82-.38-1.62.06-2.53-1.48.73-3,0-4.53.37-.5.11-1.05,0-1.23-.56s.28-.9.72-1.16a2.23,2.23,0,0,1,2-.18,3.36,3.36,0,0,0,2.76-.38c.44-.21.76-.52.1-.84-.94-.46-.9-1.06-.38-1.81.21-.31.22-.75.47-1a1.79,1.79,0,0,0,0-2.91.94.94,0,0,1-.06-1.16c.48-1,.35-1.29-.77-1.44a8.89,8.89,0,0,1-2.18-.52c-.47-.19-.82-.47-.76-1s0-1.37.63-1.82c.44-.34.78,0,1.06.31a3.39,3.39,0,0,0,1.94,1.05.42.42,0,0,0,.53-.38c-.1-.26-.32-.23-.52-.19-.46.09-1,.23-1.17-.35s.23-1,.72-1.32a1.79,1.79,0,0,1,.59-.2c.56-.12.66-.32.3-.84a3.15,3.15,0,0,1,0-4c.23-.3.48-.63.23-1s-.62,0-.9-.06a10.14,10.14,0,0,0-4.42-.11c-.55.08-.78-.35-.5-.81a2.59,2.59,0,0,0,.36-2c-.17-.76.41-1.25,1.26-1,1.11.29,2.12.44,2.95-.57a.65.65,0,0,1,.34-.14c.45-.12,1.15.18,1.28-.49a2.12,2.12,0,0,0-.5-2.1,2,2,0,0,1-.59-1.9c.12-4.08.1-8.16,0-12.24,0-1.33.47-2.56.37-3.92,0-.68.83-1.47.36-2.35-.54,1.22-1.25,1.34-2.14.28-.26-.31-.36-.58-.83-.23s-.55-.17-.62-.46a1.26,1.26,0,0,0-1.08-1.05c-1.15-.23-1.38-.61-1.19-1.83s.1-1.53-1.23-1.85a17.19,17.19,0,0,0-2.87-.13c-1.2-.06-1.45-.33-1.47-1.51s.21-1.59,1.34-1.63c3-.11,4.37-1.94,3.85-5-.21-1.27-.15-2.35,1.11-3.19-.79,0-.72.87-1.35.89a13.77,13.77,0,0,1-1.58-.3c-.63-.05-1.25-.05-1.88,0a1.21,1.21,0,0,1-1.44-1.3c-.08-1,0-1.91-.08-2.87-.09-1.21-.42-1.56-1.62-1.57-4.62,0-9.24,0-13.86,0a6.6,6.6,0,0,0-3,1.09c-.41.2-.48.65-.52,1.08a10.76,10.76,0,0,0,.06,2.12c.05.47.05,1-.58,1a1,1,0,0,1-1.19-.86,12.52,12.52,0,0,1,0-1.62c0,.45,0,.91,0,1.37.05,1.29.05,1.3-1.27,1.17-.36,0-.5.13-.69.37-1.31,1.71-1.93,1.64-2.89-.31a.43.43,0,0,0-.48-.25c-.37.7,0,1.31.31,1.93.68,1.54.42,1.94-1.31,1.87a12.16,12.16,0,0,1,.07,5.06,4.66,4.66,0,0,0,0,1.12c.05.52.27.89.84.89s.64-.45.68-.88a14.6,14.6,0,0,0,0-1.62c0-.79,0-1.58,0-2.37s-.09-1.58.79-1.57.55,1,.63,1.52a31.8,31.8,0,0,1,.55,5.33c0,.4.16.84-.29,1.13a11.23,11.23,0,0,1-3.7.13.9.9,0,0,1-.88-.58c0-3.19,0-6.39,0-9.59,0-.85-.23-1.2-1.13-1.14s-2-.05-3,0-1.55-.21-1.42-1.35c.09-.82,0-1.67,0-2.49.1-1.1-.21-1.62-1.42-1.48-.86.1-1.75,0-2.61,0-1.08.11-1.35-.35-1.3-1.35.08-1.37,0-2.74,0-4.11l.15-.17c1.66-.51,3.36-.16,5.05-.23h.46c3.48,0,7-.06,10.43,0A.69.69,0,0,1,420.2,119.78Z"/><path class="cls-32" d="M414.48,141.51c1.55.57,3.16.11,4.73.27a.6.6,0,0,1,.87.05c.56,1.81.17,3.66.25,5.49.08,7.88,0,15.75,0,23.62,0,2.5,0,5,0,7.49,0,1.65-.33,1.93-2,2-.59,0-1.17,0-1.75,0-1.64,0-1.71.1-1.73,1.68,0,.33,0,.66,0,1,0,7.12,0,14.24,0,21.36,0,.46,0,.92,0,1.38-.07,1.44-.36,1.74-1.79,1.81-.62,0-1.25,0-1.87,0-1.46,0-1.57.12-1.58,1.57,0,4.08,0,8.16,0,12.24a2.82,2.82,0,0,1-.41,2H409c0-5,0-10,0-15,0-1.06-.32-1.39-1.34-1.31s-2.08,0-3.12,0c-.58,0-.83-.22-.82-.8,0-1.29,0-2.58,0-3.87,0-.68.32-.85.92-.83,1.12,0,2.25,0,3.37,0,.65,0,1-.15,1-.9,0-1.24,0-2.49,0-3.74,0-.64-.24-.89-.88-.87-1.16,0-2.33,0-3.49,0-.75,0-.92.33-.9,1,0,1,0,2,0,3s-.29,1.63-1.5,1.55-2.66,0-4,0V185.52a2.43,2.43,0,0,1,1.78-.38c.71,0,1.41,0,2.12,0s1.2-.4,1.19-1.22,0-1.58,0-2.37a2.36,2.36,0,0,1,.36-1.55q0-16.35,0-32.71h3.72c1.43,0,1.65-.26,1.58-1.65,0-.82,0-1.65-.07-2.47,0-1,.33-1.39,1.38-1.41C411.72,141.73,413.13,142.07,414.48,141.51Z"/><path class="cls-3" d="M380.72,81.79c.14.3.34.61.13.94a2.25,2.25,0,0,0-.19,1.9,1.4,1.4,0,0,1-.84,1.76c-.61.2-1.05-.29-1.14-1,0-.31-.3-.39-.57-.34s-.33.28-.18.54c.33.59-.12.67-.49.65a2.82,2.82,0,0,0-1.5.52,1.3,1.3,0,0,0-.69,2,3.82,3.82,0,0,1,.22,1.71c0,1-.23,1.3-1.35,1.07-.82-.18-1.74.13-2.49-.5-.08-.06-.25,0-.37,0a4.81,4.81,0,0,0-1.7,2.9,4.34,4.34,0,0,1,.14.6c.23,2,.08,2.19-2,2.22-1,0-2.2-.39-2.85.92-.18.37-.53.28-.85,0a1.79,1.79,0,0,0-1.26-.45c-.49,0-.81.25-.76.77s.46.42.83.3.86-.11,1.08.34a3,3,0,0,1,.49,1.89c0,.15-.16.34-.36.22s-.71-.53-.77.16.35.79,1,.59c-1.31,1.48-1.32,1.49-2.59.42-.35-.29-.6-.14-.87.1a5.8,5.8,0,0,1-.87.7c-.71.39-1.24.35-1.12-.67,0-.21.14-.44-.14-.51s-.4.17-.46.44a4.12,4.12,0,0,0,.19,2.71,5,5,0,0,1,.14,4.09,5,5,0,0,0-.57,2.54c0,1.57-.48,2-2.06,1.83-.4,0-.94-.41-1.12.06-.28.8-1.39,1-1.33,2,0,.79,0,1.59,0,2.38s-.37,1.36-1.33,1.4c-2.11.07-2.25,0-2.42-2.17a8.74,8.74,0,0,0-.12-2.17h-.34c0,1.56,0,3.13,0,4.69,0,.52.57.39.91.39h4.25l0,.22-5.29,0-.27,0c-1.64.67-3.33.37-5,.21-.71-.06-.81-.75-.82-1.35a36.8,36.8,0,0,1,.05-4.33,22.8,22.8,0,0,0,.19-4c0-.93-.44-1.23-1.29-1.22-2.53,0-5.05,0-7.57,0-.61,0-1.26.11-1.76-.4,0-1.46.05-2.92,0-4.37,0-.9.3-1.14,1.15-1.12,2.92,0,5.83,0,8.75,0,.88,0,1.19-.27,1.14-1.14s0-2,0-3,.24-1.17,1.12-1.15c1.83.06,3.67,0,5.5,0,1.16,0,2.31-.16,3.47-.22.58,0,.67-.35.67-.82,0-1.17,0-2.34,0-3.5,0-.7.23-1,.93-1,1.17,0,2.34,0,3.5,0,.8,0,1.14-.21,1.09-1.05-.06-1,0-2.09,0-3.13s.22-1.38,1.3-1.35c2.79.07,5.58,0,8.37,0,1.15,0,1.45-.36,1.36-1.42s0-2.09,0-3.13c0-.77.27-1,1-1C374.88,81.81,377.8,81.79,380.72,81.79Z"/><path class="cls-34" d="M376.47,114.52c-.1-3.41.14-6.82-.14-10.23-.05-.71.36-.75.84-.75,1.17,0,2.34-.05,3.5,0,.84,0,1.1-.28,1.06-1.09-.05-1.08,0-2.16,0-3.25,0-.69.22-1,.93-.95,1,0,1.92,0,2.88,0,1.69,0,1.69,0,1.69-1.75,0-.92,0-1.84,0-2.75s.26-1,1-1c2.92,0,5.84,0,8.75,0,1,0,1.34-.26,1.27-1.26s0-2.25,0-3.38c0-.63.2-.89.87-.89q7.24,0,14.49,0c.74,0,.93.3.91,1,0,1.21,0,2.42,0,3.63,0,.73-.28.94-1,.92-1.17,0-2.34,0-3.5,0-.85,0-1.09.3-1.05,1.1A29.52,29.52,0,0,1,409,97c0,.84.28,1.07,1.09,1.06,2.87,0,5.74,0,8.62,0,.43,0,.93-.19,1.29.24a3,3,0,0,1-2.11.39c-1,0-2,0-3.06,0a28.16,28.16,0,0,0-5.11.18c-.56.43-.3,1.05-.36,1.59-.13,1.07.31,2.2-.36,3.21a13.13,13.13,0,0,1-5.15,0c-.46-.35-.43-.87-.45-1.37,0-.66,0-1.33,0-2,0-1.6-.08-1.66-1.71-1.68-.45,0-.91,0-1.37,0-1.58-.12-1.64,0-1.69,1.6a10.89,10.89,0,0,1-.18,3.22.8.8,0,0,1-.33.3,6.2,6.2,0,0,1-2.23.18c-2.95,0-2.72-.27-2.73,2.8,0,2,0,4.08,0,6.12a2.26,2.26,0,0,1-.36,1.66Z"/><path class="cls-35" d="M392.73,114.49c0-3.28,0-6.57,0-9.85,0-.9.3-1.16,1.16-1.12,1.45,0,2.91,0,4.36,0,.68,1,.33,2.17.37,3.27.06,1.83,0,1.85,1.9,1.85,2.89,0,2.58.26,2.6-2.61v-.49c0-1.55-.08-1.58-1.6-1.65-1.09-.06-2.24.3-3.27-.37,0-1.45,0-2.9,0-4.35,0-.82.41-1.26,1.11-1.09a14.91,14.91,0,0,0,3.46.17c.69,0,1,.23,1,.94,0,1.45,0,2.9,0,4.35a1.28,1.28,0,0,1,.25.4,73.53,73.53,0,0,1,0,10.39.86.86,0,0,1-.32.36,10.75,10.75,0,0,1-5.43-.15Z"/><path class="cls-5" d="M376.26,125.25c-3.25,0-6.49,0-9.74,0-.8,0-1.15-.21-1.06-1.05.13-1.35-.58-3.07.3-4s2.45-.22,3.73-.22c5.5,0,11,0,16.48,0,1,0,1.36.25,1.26,1.26a16.71,16.71,0,0,0,0,2.74c.08,1-.22,1.29-1.24,1.27C382.75,125.21,379.5,125.25,376.26,125.25Z"/><path class="cls-36" d="M398.18,114.55h5.49a1.33,1.33,0,0,1,.41,1.24c-.1,1.4.39,2.86-.36,4.21l-.05.06c-1.49,0-3-.07-4.48,0-.76,0-1-.26-1-1C398.23,117.54,398.19,116,398.18,114.55Z"/><path class="cls-8" d="M360,130.77c0-1.37,0-2.74,0-4.11,0-.83.18-1.25,1.1-1.16,1.35.15,3.09-.58,3.95.31s.14,2.54.24,3.86c.07.81-.21,1.1-1,1.07-1.41-.05-2.82,0-4.23,0Z"/><path class="cls-35" d="M420,147.27l0-5.46a2.27,2.27,0,0,1-.35-1.43c0-2.62,0-5.25,0-7.87,0-1.68.42-2.06,2.07-2.12.71,0,1.42,0,2.12,0,.88,0,1.31-.37,1.3-1.27s0-1.58,0-2.37c0-1,.45-1.57,1.5-1.58,4.66,0,9.33,0,14,0a1.37,1.37,0,0,1,1.53,1.55c0,1,.05,2,0,3-.09,1.24-.52,1.63-1.76,1.56a8,8,0,0,0-2.49.1c-.32.08-.73.13-.81.49a7.12,7.12,0,0,0,0,3.58c.2.68,1,.47,1.54.44.88-.07,1.87.39,2.59-.44.2-.24.14-.64.15-1,0-.7,0-1.41,0-2.12.15-1.33.67-1.84,2-1.92a25.44,25.44,0,0,1,2.62,0,1.46,1.46,0,0,1,1.6,1.53c.05,1.13.05,2.25,0,3.38a1.24,1.24,0,0,1-1.34,1.32c-.91.05-1.83,0-2.74,0a1.21,1.21,0,0,0-1.38,1.37c0,3.92-.23,3.27,3.09,3.32,2.19,0,2.38.22,2.4,2.46,0,3.39-.3,3,3,3,.38,0,.75,0,1.13,0a1.25,1.25,0,0,1,1.34,1.32c0,.34,0,.67,0,1,0,6,0,11.91,0,17.87,0,2.09-.23,2.35-2.28,2.3-1.18,0-2.41.31-3.55-.31-.74-.87-.41-1.91-.43-2.88,0-2.29,0-2.29-2.34-2.3-.54,0-1.08,0-1.62,0a1.42,1.42,0,0,1-1.39-1,10.43,10.43,0,0,1-.15-2.84c0-.92-.27-1.38-1.28-1.36-3.72.09-3.16-.5-3.24,3.24,0,1,.44,1.3,1.36,1.28a17.85,17.85,0,0,1,3.1.08c.7.22.76.81.79,1.4.05.91,0,1.82,0,2.73s.38,1.29,1.27,1.27,1.58,0,2.36,0a2.07,2.07,0,0,1,1.52.41,9.76,9.76,0,0,1,.08,5.41c-.49.5-1.14.41-1.75.43s-1.41,0-2.11,0c-1-.06-1.4.36-1.39,1.38.06,3.84-.34,3.31,3.3,3.37a2.72,2.72,0,0,1,1.9.38c.59,1.14.26,2.36.32,3.55.07,1.45.1,1.53,1.58,1.55.83,0,1.66,0,2.49,0a1.3,1.3,0,0,1,1.42,1.39q0,1.62,0,3.24a1.27,1.27,0,0,1-1.43,1.36c-.91,0-1.83.05-2.74,0s-1.27.36-1.31,1.25c-.07,1.27.25,2.58-.29,3.82-.87.71-1.91.39-2.88.42-2.26.05-2.35.1-2.34,2.3,0,2.58-.22,2.43,2.42,2.47.94,0,1.93-.26,2.78.39a10.56,10.56,0,0,1,0,5.41c-.49.51-1.14.41-1.75.43a18.57,18.57,0,0,1-2.11,0c-1-.06-1.39.39-1.38,1.4.06,3.77-.34,3.3,3.19,3.35a2.84,2.84,0,0,1,2,.4c.56,1.1.25,2.29.31,3.44.07,1.47.17,1.62,1.67,1.63,2.46,0,4.91,0,7.36,0,1.67,0,2,.31,1.95,2,0,1.22.34,2.5-.37,3.66-.46,0-.92,0-1.37,0H416.33c-.63,0-1.25,0-1.87,0a8.5,8.5,0,0,1-.21-4.89c.12-.76.93-.74,1.55-.75,2.29,0,4.58,0,6.87,0s2.39,0,2.39-2.46c0-2.24,0-2.24-2.29-2.24-3.21,0-3.21,0-3.21-3.15,0-2.13,0-4.25,0-6.37s.23-2.26,2.33-2.28c.66,0,1.33,0,2,0,.86,0,1.18-.4,1.18-1.22,0-4.07.29-3.42-3.2-3.48-2.05,0-2.28-.25-2.3-2.31,0-.75,0-1.5,0-2.25.09-1.24.47-1.62,1.69-1.71.88-.06,1.75,0,2.63,0s1.15-.36,1.14-1.14c0-.37,0-.75,0-1.12V149.88c0-2.21,0-2.18-2.19-2.22C421.89,147.64,420.86,147.92,420,147.27Z"/><path class="cls-32" d="M458.21,201.76c0-1.49,0-3,0-4.49,0-.75.22-1.05,1-1,1.16.05,2.33,0,3.49,0,.74,0,1.07-.2,1-1,0-1.12,0-2.25,0-3.37,0-.6-.16-.87-.83-.94a10.49,10.49,0,0,0-3.58-.06c-.67.16-1.11-.16-1.1-.94,0-1.21,0-2.42,0-3.62,0-.67.27-.87.89-.86,1.17,0,2.34,0,3.5,0,.8,0,1.12-.29,1.12-1.1q0-9.93,0-19.85c0-.74-.28-1.07-1-1-1.12,0-2.25,0-3.37,0-.77,0-1.16-.17-1.11-1a32,32,0,0,0,0-3.25c0-.76.24-1.08,1-1a28.9,28.9,0,0,0,3.72-.22c.6,0,.83-.27.79-.84a2.08,2.08,0,0,1,0-.25c-.07-1.32.53-3-.23-3.87s-2.51-.3-3.82-.28c-1.11,0-1.48-.26-1.47-1.45.06-6.28,0-12.57.06-18.85,0-1.33-.55-1.61-1.62-1.72s-1.94.22-2.95.06-1-.48-1-1.2c0-3.2,0-6.41,0-9.61h1c.65.37.36.89.29,1.42a44.63,44.63,0,0,0-.1,7.58c0,.19.06.41.43.45a40.72,40.72,0,0,1-.23-6.43,4.68,4.68,0,0,1,.08-1.24,1.25,1.25,0,0,1,1.51-1,1,1,0,0,1,1,1.31,44.4,44.4,0,0,1-.37,4.47,2.67,2.67,0,0,0,.85,2.91c.41.35.65.86,1,1.24,1.22.66,2.42-.14,3.65,0,1.58.15,1.59,0,1.59,1.67q0,4,0,8.07c0,.44-.15.92.22,1.31,0,1.49.05,3,0,4.48,0,.74.22,1,1,1,1-.05,2,.06,3,0s1.3.35,1.3,1.35c0,6.8,0,13.61,0,20.42.67,2.9.26,5.84.39,8.77.08,1.82.05,1.79,1.92,1.84,1.09,0,2.24-.29,3.26.4.12,1.33.05,2.66.05,4,0,7.91,0,15.82,0,23.73a10.19,10.19,0,0,0,.23,3c.3,1-.26,2-.24,3.08,0,2.83,0,5.66,0,8.49a2.25,2.25,0,0,1-.12,1.23H469c-.67-1-.33-2.09-.37-3.15-.07-1.76-.15-1.89-1.94-1.93-.62,0-1.24,0-1.86,0-1.14.05-1.37-.17-1.45-1.33,0-.79,0-1.58,0-2.37,0-1.5-.1-1.59-1.65-1.61-.87,0-1.74,0-2.61,0a1.13,1.13,0,0,1-1.19-1.18,19.66,19.66,0,0,1,.12-4.47.69.69,0,0,1,.28-.33,10.29,10.29,0,0,1,3.71-.21c1,0,1.39-.39,1.36-1.41-.08-3.91.46-3.3-3.26-3.37a3.74,3.74,0,0,1-1.72-.21Z"/><path class="cls-34" d="M420,147.27c1.54,0,3.08,0,4.62,0,.64,0,.94.22.88.87,0,.25,0,.5,0,.75,0,13.45,0,26.9,0,40.35,0,1.32-.38,1.68-1.61,1.56-.95-.1-1.92,0-2.88,0-.73,0-1.06.29-1.05,1,0,1.21,0,2.41,0,3.62,0,.68.29.86.91.85,1.21,0,2.41,0,3.62,0,.66,0,1,.15,1,.9q-.06,1.88,0,3.75c0,.65-.25.88-.89.87-1.25,0-2.5,0-3.75,0-.64,0-.88.23-.88.88,0,3.08,0,6.16,0,9.24,0,.75.34.91,1,.9,1.16,0,2.33,0,3.5,0,.73,0,1.07.19,1,1-.05,1.16,0,2.33,0,3.5,0,.71-.23.93-1,1-2.91.11-5.82.05-8.73,0-1,0-1.3.33-1.25,1.29.07,1.33,0,2.66,0,4H409.2c0-5,0-9.91,0-14.86,0-1.06.21-1.54,1.37-1.42.95.1,1.91,0,2.87,0s1.07-.28,1.06-1.08c0-3.2,0-6.41,0-9.62,0-5.12,0-10.24,0-15.36,0-.91.22-1.29,1.18-1.21s2-.07,3,0c1.15.12,1.37-.36,1.36-1.41-.05-5.46,0-10.91,0-16.36Z"/><path class="cls-37" d="M458.21,207.26c0,1.41,0,2.82,0,4.23-.05.95.19,1.37,1.23,1.29s2.24,0,3.36,0c.71,0,1,.27.94.95,0,1.21,0,2.41,0,3.62,0,.64.07,1,.92.8a10.68,10.68,0,0,1,3.43,0c.7.08,1,.4.94,1.14-.06,1.41,0,2.82,0,4.23-3.58.13-7.17.13-10.75,0,0-1.13,0-2.25,0-3.37,0-2.1.24-1.89-1.83-1.89-2.58,0-5.15,0-7.73,0-1.06,0-1.52-.28-1.45-1.4.08-1.37,0-2.74,0-4.11l.16-.15a10.83,10.83,0,0,1,3.68-.2c1,0,1.3-.39,1.3-1.33a12.77,12.77,0,0,1,.17-3.7.85.85,0,0,1,.33-.32C454.65,206.86,456.45,206.55,458.21,207.26Z"/><path d="M455.85,225.05c-.5,1.91-1.11,2.39-2.81,2.46-12.11.56-24.22.09-36.33.24a3.44,3.44,0,0,1-2.43-1.8.74.74,0,0,1,.64-.92,8.32,8.32,0,0,1,1.12,0q18.3,0,36.61,0C453.72,225,454.74,225.53,455.85,225.05Z"/><path d="M477.24,210.76c1.48-.24,1.75.43,1.74,1.63-.06,4.41,0,8.83,0,13.24,0,1.58-.5,2.12-2,2.12H457.29c-.35,0-.82.18-1-.27s.27-.65.49-.93a2,2,0,0,1,1.85-.81c3.61.19,7.21-.18,10.82-.25,1.17,0,2.28-.72,3.5-.49a4.21,4.21,0,0,0,.5,0c.86.06,1.93.7,2.51.06.73-.8.68-2.1.72-3.19.08-2.42,0-4.83,0-7.25a1.74,1.74,0,0,1,.39-1.39A1.7,1.7,0,0,0,477.24,210.76Z"/><path d="M391.15,220.75V209.09a.62.62,0,0,0-.42.83c.5,3.18.1,6.39.24,9.59a3.18,3.18,0,0,1-.46,1.65c-.48.92-.4,1.68.67,2.13a1.35,1.35,0,0,1,.77,1.43c0,1.06.6,1.15,1.41.94.54-.13,1.13-.86,1.54.12.15.35-1,1.95-1.42,2-1.46,0-2.92,0-4.38,0-.83,0-.9-.65-.9-1.35,0-4.91,0-9.82,0-14.74a4.09,4.09,0,0,0-.52-2.27c-.55-.88-.05-1.22.75-1.33.4-.06.82.05,1.22,0,1.79-.15,1.79-.16,1.79,1.62,0,3.29,0,6.58,0,9.87C391.45,219.94,391.57,220.36,391.15,220.75Z"/><path d="M404.47,227.76h-8.1c-.36,0-.81.09-1-.31s.28-.6.47-.89a3.06,3.06,0,0,1,3.36-1.35c2.53.3,5.1,0,7.66.48a20.39,20.39,0,0,0,3.92.08,2.89,2.89,0,0,1,1.1.12c.7.3,1.78.58,1.66,1.41s-1.2.43-1.84.45C409.29,227.79,406.88,227.76,404.47,227.76Z"/><path class="cls-18" d="M474.45,223.51V180a.36.36,0,0,1,0-.51l0-8c.38.38.22.86.23,1.3,0,11.68,0,23.36,0,35a3.66,3.66,0,0,0,1.35,3.38c.24.16.7.41.47.76s-.46,1.07-1,.94c-1-.25-.75.46-.76.92,0,2.79,0,5.57,0,8.36C474.69,222.65,474.87,223.14,474.45,223.51Z"/><path class="cls-10" d="M72.45,4.52c-.75-.2-1-1.24-1.87-.8-.27.13-.43-.49-.11-.57.82-.21.72-.9,1.1-1.5Z"/><path class="cls-3" d="M409,54.55H398.2c0-1.53,0-3.06,0-4.59,0-.7-.22-.93-.92-.92-1.53,0-3.06,0-4.59,0l0-5.45a1.25,1.25,0,0,1,1.12-.43c3.14,0,6.29-.14,9.44.06a1.3,1.3,0,0,1,.43.2,1,1,0,0,1,.27.37,14,14,0,0,1,.13,3.6c0,1,.38,1.33,1.33,1.3a19.28,19.28,0,0,1,2.74,0,.87.87,0,0,1,.57.34c.55,1.34.13,2.75.25,4.13C409,53.65,409,54.1,409,54.55Z"/><path class="cls-16" d="M409.21,54.54h5.26c0,1.49,0,3,0,4.47.05.87-.31,1-1.08,1-1.41-.05-2.82,0-4.23,0Z"/><path d="M413.46,49.31c.07,1.16-.32,2.28-.28,3.46,0,.94-.81.78-1.4.76s-1.59.26-1.8-.81c-.08-.4,0-.84,0-1.25-.12-1.06.28-1.56,1.4-1.44.51,0,1.16.16,1.11-.72Z"/><path class="cls-17" d="M403.78,43.79a.87.87,0,0,0,0-.22l.17-.17c1.7-.28,3.4-.62,5.05.21,0,1.81-.05,3.62-.08,5.42a.33.33,0,0,0-.17,0l-.49,0a1.2,1.2,0,0,1-.17-1.17,11.62,11.62,0,0,0,.27-1.2c.26-1.86-.3-2.47-2.15-2.51C405.36,44.12,404.5,44.37,403.78,43.79Z"/><path class="cls-4" d="M441.7,98.28a16.7,16.7,0,0,0-4.29-.23c-.68,0-1.05-.26-1.1-.87a11.38,11.38,0,0,1,.14-4.39c1.38,0,2.75,0,4.12,0,.89,0,1.14.35,1.17,1.19.06,1.44-.31,2.91.24,4.32Z"/><path class="cls-8" d="M440.77,87.16c-.13,1.4-.19,2.43-.34,3.44-.09.58-.39,1-1.12.76a14.35,14.35,0,0,0-1.43-.38c-.82-.18-1.42-.28-.58-1.33.49-.61.2-1.62.13-2.43a5.47,5.47,0,0,1,.73-2.82c.22-.5.55-.8,1-.26C440,85.12,441.22,85.94,440.77,87.16Z"/><path class="cls-8" d="M446.2,95.56c0,.94.28,2.12-1.17,2.17-2.37.08-3.07-.48-3.07-2.19s.45-2,2.39-2S446.21,93.54,446.2,95.56Z"/><path class="cls-38" d="M450.55,102.73a6.48,6.48,0,0,0-1.69-.23.48.48,0,0,1-.54-.41c-.05-.38.23-.5.54-.54.84-.12,1.33-.43.93-1.4-.2-.5.17-.74.57-.94a1.5,1.5,0,0,1,1.75.19,1.36,1.36,0,0,1,.11,1.82C451.88,101.84,452,102.94,450.55,102.73Z"/><path class="cls-8" d="M440.15,82.57c-.13.28-.18.69-.61.66a.83.83,0,0,1-.72-.89c0-.4.42-.29.69-.3S440.2,82.06,440.15,82.57Z"/><path class="cls-23" d="M240,93l.21-.26,5.24,0a1.92,1.92,0,0,1,.4,1.4c0,3,0,6.11,0,9.17v.48c.06,1.27,0,2.53,0,3.8a1.77,1.77,0,0,1-.41,1.37L240,109Z"/><path class="cls-1" d="M245.45,109l.06-5.22a1.79,1.79,0,0,1,1.41-.36q6.66,0,13.34,0c1.56,0,1.87.27,1.84,1.8,0,1.26.37,2.58-.36,3.77Z"/><path class="cls-3" d="M261.74,109c0-1.37-.06-2.74,0-4.11,0-.89-.28-1.13-1.14-1.13-5,0-10.06,0-15.09,0a.37.37,0,0,1,0-.23,2.1,2.1,0,0,1,1.64-.43q9.23,0,18.46,0c1.73,0,2,.31,2,2.07,0,1.26.33,2.57-.34,3.78l-.09.1Z"/><path class="cls-4" d="M403.69,180c0,1.36,0,2.73,0,4.09.06,1.06-.28,1.51-1.4,1.45-1.36-.08-2.73,0-4.09,0,0-1.83,0-3.67,0-5.5l5.23,0A.65.65,0,0,0,403.69,180Z"/><path d="M142.49,59.76A2.71,2.71,0,0,0,141.41,58a3.46,3.46,0,0,1-1.12-2.09c-.06-.26-.41-.52-.07-.77a.73.73,0,0,1,.83.07c1.46,1,3.45,1,4.59,2.58.41.57,1.09,1.08,1.82.48s1.22-1.29.59-2.26c-.13-.2-.36-.4-.18-.66s.55-.11.77,0a1.45,1.45,0,0,0,1.82,0,2.88,2.88,0,0,1,1.69-.33c2.89,0,5.79-.12,8.67,0,2.12.12,4.21,0,6.31,0a52.68,52.68,0,0,1,7.31.39,21.64,21.64,0,0,0,3.08-.24c2.78,0,5.56.16,8.35-.12.88-.09,1.88.14,2.83.14h32c2,0,4,0,6.06,0,.45,0,1.48-.31.68.83-.16.24.14.54.4.7a.91.91,0,0,1,.41,1c-.47,3.46.61,6.88.27,10.34-.07.67,0,1.53-.65,1.75a4.72,4.72,0,0,1-3.06,0c-.43-.15-.3-.72-.3-1.13,0-2.45,0-4.91,0-7.37,0-.67-.08-1.24-.76-1.56h-79.5Z"/><path d="M138.21,59.78c-.47,0-1,.08-.94-.56,0-.45.42-.61.79-.63a.78.78,0,0,1,.85.72C139,59.91,138.45,59.7,138.21,59.78Z"/><path d="M377.71,27.31c0-.91-.29-2,.06-2.71a5.6,5.6,0,0,0,0-4.33,4.82,4.82,0,0,1,0-1.61,1.36,1.36,0,0,1,1.52-1.32,1.24,1.24,0,0,1,1.21,1.33,6.71,6.71,0,0,1-.29,2.95,1.48,1.48,0,0,0-.17.71c.16.69.52,1.27-.77,1-.8-.14-.58.8-.27,1.06.87.7.94,1.63,1.25,2.58a13.7,13.7,0,0,1,.53,3.24c.09.94-.53,1.45-1,2-.26.35-.63.33-1-.09a3.57,3.57,0,0,1-1-3A16.67,16.67,0,0,0,377.71,27.31Z"/><path class="cls-22" d="M387.22,27.28V32.8c-1.45,0-2.91-.08-4.36,0-.9,0-1.15-.29-1.1-1.15.06-1.11.05-2.24,0-3.36,0-.75.19-1,1-1C384.23,27.32,385.73,27.28,387.22,27.28Z"/><path d="M383.94,26.54a1.42,1.42,0,0,1-1.59-.72,1.33,1.33,0,0,0-1.19-.55c-.53,0-.69-.38-.69-.85s.29-.62.72-.63c1.09,0,2-.89,3.11-.77a.14.14,0,0,0,.11,0c.09-.59.2-1.14,1-.94,1.15.28-.42.94.2,1.37.26.19.31.65.34,1C386.07,26.07,385.65,26.55,383.94,26.54Z"/><path class="cls-16" d="M387.2,32.79l.25,0c.72,1.74.43,3.52.18,5.3a.38.38,0,0,1-.39.21Z"/><path class="cls-3" d="M387.24,38.28a1,1,0,0,0,.24,0l.16.18a9.44,9.44,0,0,1-.18,5.11h-.25Z"/><path class="cls-39" d="M452.7,120c-1.45,0-2.91,0-4.37,0-.88,0-1.15-.26-1.14-1.13,0-3.29,0-6.59,0-9.88h5.47a1.63,1.63,0,0,1,.42,1.48c-.1,1.33.36,2.71-.37,4C452.71,116.35,452.71,118.19,452.7,120Z"/><path d="M452.72,114.5c0-1.82,0-3.64-.05-5.46,0-1.45,0-2.91,0-4.36,0-.62.18-1,.85-.87a.56.56,0,0,1,.13,0c1.36.06,3.1-.55,4,.22s.25,2.58.3,3.93c.06,1.78-.05,3.57,0,5.35.05,1-.33,1.29-1.28,1.24C455.38,114.47,454.05,114.51,452.72,114.5Z"/><path class="cls-32" d="M458.21,130.77a3.74,3.74,0,0,1-2.31-3.49c.23-1.8.37-3.61.53-5.42a.69.69,0,0,0-.79-.77c-.48,0-1.21,0-1.16.8.14,2.47-.46,5,.36,7.41.12.36.11.66-.24.86a.62.62,0,0,1-.86-.26,1.26,1.26,0,0,1-.27-.67c0-2.5,0-5,0-7.49,0-.57.8-1,.23-1.71.91,0,1.83.07,2.73,0,1.18-.12,1.59.25,1.55,1.48a10.38,10.38,0,0,0,.2,4C458.2,127.28,458.2,129,458.21,130.77Z"/><path class="cls-22" d="M10.74,21.84A2.16,2.16,0,0,1,11,23.16c0,4.61.11,9.22-.05,13.83-.09,2.19-.17,4.38-.19,6.58l-5.27,0V21.78Z"/><path d="M350.22,135.11c0-4.12,0-8.24,0-12.35a2.12,2.12,0,0,1,2.79-2.17,1,1,0,0,1,.7,1.07c-.06,2.78.12,5.56-.1,8.34-.1,1.31.77,2.3,1.37,3.34.29.49.93.46,1.44.07.29-.24.58-.49,1-.28.63.32,1.54.55,1.41,1.37s-1,.8-1.74.76a6.91,6.91,0,0,1-1.09-.19,2.82,2.82,0,0,0-3.53,2.92c0,1.87,0,3.75,0,5.62a2.12,2.12,0,0,0,.52,1.84c.35.3.24.66-.05,1-.58.65-1.14,1.32-1.72,2-.19.21-.38.56-.69.45s-.3-.55-.3-.88c0-3.16,0-6.32,0-9.48Z"/><path d="M353.16,148.72c0,.18,0,.34.08.5a1.79,1.79,0,0,1-2,2.29c-.39,0-.82-.1-.43-.68A14.84,14.84,0,0,1,353.16,148.72Z"/><path class="cls-22" d="M185.73,54.5a2.09,2.09,0,0,1-.25-1.32c0-2.7.05-5.4,0-8.1,0-1.06.32-1.32,1.34-1.31,8.64,0,17.29,0,25.94,0h0a1.68,1.68,0,0,1,.37,1.16c0,2.77,0,5.54,0,8.31a1.22,1.22,0,0,1-.62,1.25Z"/><path class="cls-21" d="M212.48,54.5a2.22,2.22,0,0,0,.25-1.43c0-3.1,0-6.19,0-9.29,3.26,0,6.53,0,9.8,0,.91,0,1.25.24,1.2,1.18-.07,1.36,0,2.73,0,4.09a7.8,7.8,0,0,1,0,5.45Z"/><path class="cls-1" d="M223.69,54.49c0-1.82,0-3.63,0-5.45l5.22,0,0,5.48Z"/><path d="M91.3,1.3c2.33,0,4.66,0,7,0,1.4,0,2.74.43,4.17.34,1-.07,1.33,1.2,2,1.88.14.16,0,.42-.23.49a3.18,3.18,0,0,1-.62,0c-6.9.11-13.79.36-20.69.26-.91,0-1.3,0-.77-1.16.84-1.79.72-1.85,2.71-1.85Z"/><path d="M108.63,1.3c1,.11,2.21.09,3.4.15,1.84.08.81,1.41,1,2.07s-.74.5-1.23.52c-1.12,0-2.26-.09-3.37,0-1.39.16-2.27-.64-3.19-1.4a.94.94,0,0,1-.41-1c.14-.44.58-.39,1-.39Z"/><path class="cls-22" d="M425.47,27.3H420V21.78c1.53,0,3.06,0,4.59,0,.7,0,.94.21.92.91C425.42,24.24,425.46,25.77,425.47,27.3Z"/><path class="cls-40" d="M403.46,43.5l-10.79.1v0c-.64-1.64-.34-3.32-.2-5a.69.69,0,0,1,.3-.35l10.67,0A8.2,8.2,0,0,1,403.46,43.5Z"/><path class="cls-23" d="M403.46,43.5c0-1.75,0-3.5,0-5.25a17.85,17.85,0,0,0,.16-4.56c0-.76.22-1,1-1,1.45.06,2.9,0,4.35,0,.16,1.75-.17,3.52.19,5.26l-.23.23c-.43.52-1,.42-1.61.44s-1.4,0-2.1,0-1.12.34-1.1,1.12,0,1.48,0,2.22a2.24,2.24,0,0,1-.37,1.53v0Z"/><path class="cls-23" d="M387.48,38.27l0-5.5h5.28c0,1.82,0,3.64,0,5.45l-.06.06a7.28,7.28,0,0,1-5.24,0Z"/><path class="cls-5" d="M406.41,27.79c1.8,0,2,.24,1.81,2,0,.41,0,.84,0,1.25a1.23,1.23,0,0,1-1.79,1.12c-2-.58-2-.63-2-2.53C404.53,28,404.79,27.79,406.41,27.79Z"/><path class="cls-23" d="M414.4,32.74c-1.41,0-2.82,0-4.23,0-.81,0-1-.32-1-1,0-1.49,0-3,0-4.48l5.24,0C414.43,29.12,414.42,30.93,414.4,32.74Z"/><path class="cls-4" d="M474.44,179.51V180c-1.46,0-2.92-.05-4.37,0-.89,0-1.14-.29-1.13-1.15,0-3.28,0-6.57,0-9.86h.24c.73,2.51.48,5.09.52,7.64,0,.27-.12.69.3.7s.44-.43.44-.76c0-1.74.05-3.49,0-5.23,0-1.08.46-1.36,1.42-1.38s1.57.24,1.61,1.37c.07,2.4-.26,4.81.21,7.2C473.78,179.06,473.84,179.47,474.44,179.51Z"/><path class="cls-13" d="M283.72,114.55c0,1.44,0,2.88,0,4.32,0,.38.22.83-.24,1.12v-.23c-.66-1-.33-2.1-.37-3.16-.06-1.64-.06-1.64-1.69-1.7-1.06,0-2.17.29-3.17-.35l-.07-.07a9.49,9.49,0,0,1,0-5.51,10.06,10.06,0,0,1,5.6,0A8.91,8.91,0,0,1,283.72,114.55Z"/><path class="cls-16" d="M278.24,109.05l-.06,5.43h-5.42l-.06-5.44A7.78,7.78,0,0,1,278.24,109.05Z"/><path d="M278.24,114.55c1.44,0,2.89,0,4.33,0,.7,0,.93.22.91.92,0,1.44,0,2.88,0,4.32-1.5,0-3,0-4.48.08-.72,0-.8-.37-.79-.94C278.23,117.45,278.23,116,278.24,114.55Z"/><path class="cls-17" d="M414.73,38l-.22.07V32.84a.34.34,0,0,1,.2,0C414.72,34.55,414.72,36.25,414.73,38Z"/><path class="cls-22" d="M278.24,109.05H272.7l-5.43-.07c0-1.45-.07-2.91,0-4.36,0-.79-.21-1.09-1.05-1.09-6.9,0-13.8,0-20.7,0l0-10.77,5.56-.07,5.43.09a7.82,7.82,0,0,1,0,5.23c.41.42.94.23,1.42.23,13.53,0,27.07,0,40.6,0,1.22,0,1.62.35,1.5,1.54-.1.95,0,1.91,0,2.87,0,.65.23.9.88.88,1.16,0,2.33,0,3.49,0,.86,0,1.2.22,1.16,1.12-.07,1.45,0,2.91,0,4.37a2,2,0,0,1-1.63.42H285.29a2.09,2.09,0,0,1-1.53-.37Z"/><path d="M332.72,163.52l0-5.22c3.23,0,6.45,0,9.68,0,.9,0,1.13.29,1.08,1.13-.07,1.36-.06,2.72-.08,4.08Z"/><path class="cls-41" d="M348.93,158c-1.45,0-2.9,0-4.35,0-.66,0-.87-.21-.85-.86,0-1.45,0-2.9,0-4.35,1.45,0,2.9,0,4.35,0,.65,0,.87.19.85.84C348.92,155.09,348.94,156.54,348.93,158Z"/><path class="cls-16" d="M403.72,43.55c0-1.4,0-2.81-.05-4.21,0-.91.34-1.12,1.16-1.09,1.36,0,2.72,0,4.08,0,0,1.8,0,3.59,0,5.38Z"/><path class="cls-16" d="M294.48,16.55c0,1.38,0,2.75,0,4.12,0,.88.25,1.15,1.13,1.14,4,0,7.91,0,11.86,0,8,0,15.91,0,23.86,0,1.19,0,1.5.36,1.43,1.48-.08,1.32,0,2.66,0,4a1.54,1.54,0,0,0-.17.19,2.69,2.69,0,0,1-1.45.26H293.37c-.25,0-.5,0-.74,0-.79,0-1.57,0-2.35,0s-1.37,0-2.06,0-1.4.15-2-.33l-11.7,0q-11.77,0-23.54,0c0-1.82,0-3.64,0-5.46l31.17,0c1.59,0,1.62,0,1.58-1.64a11.33,11.33,0,0,0-.2-3.58Z"/><path class="cls-22" d="M332.72,87.27l-5.47,0a1.71,1.71,0,0,1-.42-1.38c0-3.18-.05-6.37,0-9.55-.07-2.91,0-5.82,0-8.72,0-1.53-.1-1.63-1.63-1.64-4.11,0-8.22,0-12.34,0-2,0-2.21-.2-2.22-2.2,0-2.53,0-5.06,0-7.6a2.74,2.74,0,0,1,.2-1.44c.52-.67,1.27-.54,1.95-.54,4.07,0,8.14,0,12.21,0,1.84,0,1.85,0,1.86-1.89,0-2.9,0-5.81,0-8.71-.07-3.14,0-6.27,0-9.41a2.31,2.31,0,0,1,.28-1.31,2,2,0,0,1,1.64-.37,17.69,17.69,0,0,1,3.85.15.84.84,0,0,1,.34.36,4.79,4.79,0,0,1,.19,1.85q0,25.21,0,50.43a3.84,3.84,0,0,1-.23,1.84Z"/><path class="cls-3" d="M327.2,76.3c0,3.64,0,7.29.05,10.93H305.44c-.64-1-.3-2.16-.34-3.25-.06-1.79,0-1.8-1.78-1.81-1.15,0-2.31,0-3.46,0-8.37.09-16.74,0-25.11,0-2.5,0-5,0-7.49,0-3.16.06-6.31,0-9.47,0a1.94,1.94,0,0,1-1.3-.32,29.77,29.77,0,0,1-.07-5.34c.27-.52.78-.57,1.28-.61s1,0,1.5,0H303c2.76,0,2.85.09,2.85,2.89,0,2.61,0,2.61,2.6,2.61h11c1.82,0,1.84,0,1.86-1.91,0-.71,0-1.42,0-2.12s.25-1.18.84-1.27C323.87,75.84,325.57,75.53,327.2,76.3Z"/><path class="cls-3" d="M256.47,98c0-1.74,0-3.49,0-5.23.37,0,.74-.06,1.12-.06h68.77c.29,0,.58,0,.87,0,0,1.37-.05,2.75,0,4.12,0,1-.3,1.39-1.35,1.38-7.53,0-15.07.17-22.6-.06-13.28-.4-26.55,0-39.82-.19C261.13,98,258.8,98,256.47,98Z"/><path class="cls-1" d="M256.44,54.51c0-1.81,0-3.61,0-5.42.05-.06.11-.12.16-.19a3.49,3.49,0,0,1,1.83-.27h45a6.75,6.75,0,0,1,1.49.1c.44.1.83.32.86.79a11.63,11.63,0,0,1-.19,5,2.44,2.44,0,0,1-1.66.37q-22.92,0-45.82,0a3.67,3.67,0,0,1-1.23-.14A.9.9,0,0,1,256.44,54.51Z"/><path class="cls-22" d="M256.5,81.82h10.74c.64.9.34,1.93.37,2.9.06,1.85.06,1.9,1.89,1.9h28.18a5,5,0,0,1,2.09.2.35.35,0,0,1,.2.4,1.87,1.87,0,0,1-.25,0l-43.21,0A20.08,20.08,0,0,1,256.5,81.82Z"/><path class="cls-31" d="M332.72,32.8l-5.48,0a2.12,2.12,0,0,1-1.42.37c-6.76,0-13.52.06-20.29,0-1.78,0-3.57.05-5.35,0-12.77,0-25.53.06-38.29,0a33.4,33.4,0,0,1-5.1-.14.61.61,0,0,1-.32-.33,2.28,2.28,0,0,1,1.34-.15h21.55a9.92,9.92,0,0,0,2.1-.22c.38-.09.73-.09.77-.6,0-.3.16-.6.53-.57s.43.34.46.64a.73.73,0,0,0,.83.73c1.64,0,3.29,0,5.08-.13-2.58-.84-3-2.81-2.92-5.06h2c.14.48.07,1.09,1,.74s1.59.21,1.39,1.27a2.35,2.35,0,0,0,2,2.78,10.92,10.92,0,0,0,1.62.05q18.13,0,36.28,0a4.27,4.27,0,0,1,2.09.24A.29.29,0,0,1,332.72,32.8Z"/><path class="cls-3" d="M338.25,87.32c0,1.48-.05,3,0,4.46,0,.74-.22,1-1,1-1.53-.06-3.06,0-4.59-.05,0-1.83.05-3.65.07-5.47h0c1.7-.71,3.45-.33,5.19-.24A.71.71,0,0,1,338.25,87.32Z"/><path class="cls-22" d="M300,87.24V87a7.59,7.59,0,0,1,0-5.19c1.54,0,3.08,0,4.62-.06.73,0,.92.29.91,1,0,1.5,0,3,0,4.49Z"/><path class="cls-1" d="M256.5,81.82c0,1.81,0,3.61,0,5.42-.48-.28-.27-.75-.27-1.12q0-15.27,0-30.53a1.56,1.56,0,0,1,.18-1.08l.06.05a3.14,3.14,0,0,1,.36,2.14c0,1.1,0,2.21,0,3.32.05,1.74,0,3.48,0,5.23s0,3.6,0,5.4v.47c-.1,1.79.34,3.61-.32,5.36C256.51,78.26,256.51,80,256.5,81.82Z"/><path class="cls-1" d="M256.42,49.09a1.39,1.39,0,0,1-.18-1q0-7.2,0-14.4c0-.36-.09-.75.24-1.05v.12a2.51,2.51,0,0,1,.39,1.88c0,1.2,0,2.39,0,3.58,0,1.76.05,3.51,0,5.27.06,1.36,0,2.72,0,4.08a1.91,1.91,0,0,1-.36,1.4Z"/><path class="cls-21" d="M229,27.3c0-1.45,0-2.9,0-4.35,0-.39-.16-.84.26-1.14,0,1.44,0,2.88,0,4.32C229.21,26.53,229.36,27,229,27.3Z"/><path class="cls-23" d="M239.94,92.53l-5.19,0q0-10.29,0-20.58c0-.84.21-1.15,1.11-1.17,1.17,0,2.3.29,3.46.27.79,0,.68.56.68,1,0,3.24,0,6.48,0,9.72a8.84,8.84,0,0,1,0,5.5C240,89.05,240,90.79,239.94,92.53Z"/><path class="cls-15" d="M240,87.3c0-1.83,0-3.66,0-5.5l5.45,0c0,1.46,0,2.92,0,4.37.06,1-.34,1.21-1.23,1.17C242.85,87.24,241.43,87.29,240,87.3Z"/><path d="M337.35,15.8H314.5c-.29,0-.59,0-.88,0-.58,0-1.27,0-1.55-.55s.32-1.08.75-1.4c.69-.52.63-1.58,1.67-1.89a8.53,8.53,0,0,1,2.7-.15q22.72,0,45.46,0c.33,0,.66,0,1,0,.64,0,.79.31.5.89-.4.78-.87,1.53.23,2.25.49.32,0,.6-.34.58-1.22-.1-2.38.29-3.59.28Q348.9,15.78,337.35,15.8Z"/><path d="M375,13.8c0,2.11-.4,2.42-2.48,2-.69-.12-1.65.12-2-.43s.62-1.11.71-1.8a2,2,0,0,1,.19-.45c.18-.44-.1-1.15.54-1.28a3.88,3.88,0,0,1,2.45.12C375.27,12.41,374.86,13.22,375,13.8Z"/><path class="cls-42" d="M420,103.52c1.44,0,2.87,0,4.3,0,.37,0,.83-.22,1.12.24-1,.66-2.1.31-3.16.35-1.87.06-1.87,0-1.9,1.86,0,2.83.1,5.65-.06,8.47a.87.87,0,0,1-.37.29,37.12,37.12,0,0,1-5.48.13c-1.34.06-2.68,0-4,0a1.87,1.87,0,0,1-1.27-.34,2.11,2.11,0,0,1-.27-1.32c0-2.7,0-5.4,0-8.1,0-1.46.25-1.77,1.64-1.7,2.58.13,5.13-.45,7.7-.33A2.71,2.71,0,0,1,420,103.52Z"/><path class="cls-23" d="M420.21,114.51a2,2,0,0,1-.25-1.2c0-2.79,0-5.57,0-8.36,0-1,.29-1.23,1.21-1.18,1.41.07,2.83,0,4.25,0q0,5,.05,9.93c0,.38,0,.76-.49.84A6.44,6.44,0,0,1,420.21,114.51Z"/><path class="cls-43" d="M420,103.52c-3.27.09-6.55.2-9.82.24-.81,0-1,.35-1,1,0,3.25,0,6.49,0,9.73.73,1.65.33,3.36.26,5a1,1,0,0,1-.26.39l-.2,0a1.66,1.66,0,0,1-.44-1.36c0-1.36,0-2.72,0-4.08,0-2.94,0-5.88,0-8.83,0-1.45-.11-1.49-1.56-1.57-1.09-.06-2.25.31-3.27-.38a.89.89,0,0,1,0-.23l5.22,0a3,3,0,0,1,.38-.23,16.6,16.6,0,0,1,3.23-.12c1.43,0,1.51-.11,1.53-1.59,0-.66,0-1.32,0-2,0-.5.07-1,.59-1.28l5.26,0Z"/><path class="cls-39" d="M420.21,114.51l4.75.06c-.08,1.19-1,2.27-.37,3.58.09.19,0,1-.66,1s-.43-.59-.48-1a3.89,3.89,0,0,0-.09-.47,1.41,1.41,0,0,0-.27,0c-.2.9-.14,2.28-1.44.56-.38-.5-.66,0-.57.42.15.76-.31.94-.88,1.07H420a6.6,6.6,0,0,1,0-5.23A.19.19,0,0,0,420.21,114.51Z"/><path d="M283.76,109.06l21.7,0h27.25c3.27,0,6.54.06,9.81,0,.94,0,1.26.28,1.16,1.2-.14,1.43.24,2.89-.21,4.31-1.38,0-2.75,0-4.12,0-.89-.05-1.26.13-1.19,1.12.1,1.37,0,2.75,0,4.12a29.6,29.6,0,0,1-5.07.13c-.61,0-.67-.53-.73-1a16.38,16.38,0,0,1,0-2.62c0-1-.41-1.37-1.41-1.37-3,0-6,0-9,0-3.64,0-7.28.06-10.92,0-1.25,0-2.5,0-3.74,0s-1.41.14-1.42,1.46c0,2.38,0,4.75,0,7.12a2.77,2.77,0,0,1-.34,1.8,26.51,26.51,0,0,1-5.49,0c0-3.24,0-6.49,0-9.74,0-.68-.05-1-.91-1-5.12,0-10.24,0-15.37,0Z"/><path class="cls-3" d="M343.47,81.78l.26,0c0,1.49-.05,3,0,4.48,0,.75-.22,1-1,1-1.49,0-3,0-4.48,0l-.08-.08c-.67-1.65-.34-3.34-.22-5a.73.73,0,0,1,.64-.68C340.22,81.39,341.87,81.05,343.47,81.78Z"/><path class="cls-3" d="M349.22,76.29c0-1.45,0-2.89,0-4.34,0-.7.24-.94.94-.92,1.44,0,2.89,0,4.33,0,0,1.42,0,2.84,0,4.25,0,.77-.26,1-1,1C352.05,76.26,350.64,76.29,349.22,76.29Z"/><path class="cls-3" d="M343.73,81.79c0-1.44,0-2.88,0-4.33,0-.68.21-1,.92-.94,1.44,0,2.88,0,4.33,0,0,1.44,0,2.88,0,4.32,0,.69-.23,1-.93.93C346.61,81.76,345.17,81.79,343.73,81.79Z"/><path class="cls-16" d="M332.72,32.8l-.05-.27a8.15,8.15,0,0,1,0-5.21l.07-.08c1.49,0,3,.07,4.46,0,.75,0,1,.23,1,1,0,1.48,0,3,0,4.45,0,.07-.11.13-.16.19a9.58,9.58,0,0,1-5.41-.13Z"/><path class="cls-16" d="M354.47,32.79c-1.41,0-2.83,0-4.24,0-.88,0-1.31-.24-1.27-1.2.05-1.12,0-2.24,0-3.36,0-.69.21-1,.93-1,1.24,0,2.49,0,3.74,0,.67,0,.85.28.84.9,0,1.53,0,3.07,0,4.61Z"/><path class="cls-16" d="M338.27,32.73c1.41,0,2.82.11,4.22,0,1-.06,1.29.33,1.24,1.28-.07,1.33,0,2.66,0,4l-.17.17a12.25,12.25,0,0,1-5.42-.13,8.67,8.67,0,0,1,.07-5.26Z"/><path class="cls-16" d="M343.72,38c1.33.53,2.72.21,4.07.23.93,0,1.35.28,1.18,1.2-.25,1.36.52,2.7,0,4-1.63.73-3.31.36-5,.24a.62.62,0,0,1-.54-.61c-.08-1.68-.38-3.37.18-5Z"/><path class="cls-44" d="M343.65,38.11c0,1.45.1,2.9.06,4.35,0,.79.19,1.12,1,1.08,1.4-.06,2.82,0,4.23,0l.25.27c0,1.76,0,3.53,0,5.29s0,3.62,0,5.44a.27.27,0,0,1-.4-.08c-.5-1.75-.16-3.54-.23-5.31,0-1.27,0-2.55,0-3.83,0-.77-.32-1.14-1.11-1.13s-1.49,0-2.23,0-1.15.4-1.17,1.21a13.76,13.76,0,0,1-.16,3.45.54.54,0,0,1-.32.29.5.5,0,0,1-.33-.27,10.6,10.6,0,0,1-.16-3.32c0-1-.41-1.35-1.4-1.38-1.17,0-2.39.33-3.51-.32.1-.71.7-.6,1.15-.63a25.22,25.22,0,0,1,2.61,0c.77,0,1.13-.31,1.13-1.11,0-4,.39-3.28-3.09-3.4-.62,0-1.46.35-1.77-.62Z"/><path class="cls-3" d="M303.21,16.33h4A8.67,8.67,0,0,1,303.21,16.33Z"/><path class="cls-22" d="M349,54.52h.24l19.74,0c.58,0,1.16,0,1.74,0,.07,0,.17.06.21.13.74,1,.59,4.5-.23,5.49a4.75,4.75,0,0,1-2.08.23H346c-1.85,0-1.84,0-1.91,1.87,0,1.12.38,2.36-.61,3.32a9.25,9.25,0,0,1-5.34,0,3,3,0,0,1-.34-1.8v-13a3.15,3.15,0,0,1,.32-1.81,8.18,8.18,0,0,1,5.35,0h0c.77.5.6,1.31.61,2,.05,3.08,0,3.07,3.11,3.11A2.68,2.68,0,0,1,349,54.52Z"/><path class="cls-16" d="M370.7,60a11.9,11.9,0,0,0,0-5.44l5.5,0c0,1.83,0,3.65,0,5.47A7.8,7.8,0,0,1,370.7,60Z"/><path d="M338.24,49.05q0,8.24,0,16.47c.59.89.31,1.91.35,2.87a18.13,18.13,0,0,1,0,2.33c.05,1.31,0,2.63,0,4,0,.9.36,1.21,1.24,1.25,1.21,0,2.48-.33,3.63.35v5.51c-1.28,0-2.57.1-3.83,0s-1.55.36-1.46,1.52,0,2.63,0,3.95l-5.47,0V32.79l5.5,0,0,5.22c1.21.6,2.5.24,3.74.23s1.69.22,1.53,1.48.51,2.79-.29,3.57-2.29.13-3.48.23c-.51,0-1.08-.24-1.51.25A7.73,7.73,0,0,1,338.24,49.05Z"/><path class="cls-3" d="M370.7,60h5.49c0,1.37,0,2.75,0,4.12.06,1-.34,1.17-1.23,1.16q-12.31,0-24.61,0c-.47,0-1-.23-1.4.26h0l-5.27,0a.18.18,0,0,1-.28,0c.55-1.36.22-2.79.22-4.18,0-1,.29-1.34,1.33-1.33C353.56,60,362.13,60,370.7,60Z"/><path class="cls-5" d="M349,65.56q13.11,0,26.22,0c.86,0,1.07.32,1,1.09a23.1,23.1,0,0,0,0,3c.07,1-.3,1.17-1.21,1.17-4.87,0-9.74,0-14.61,0-3.28,0-6.57,0-9.86,0-1.31,0-1.67-.42-1.58-1.65s0-2.41,0-3.62Z"/><path class="cls-45" d="M343.44,65.52l.28,0c0,1.39,0,2.78,0,4.17a2.09,2.09,0,0,1-.27,1.3,6.54,6.54,0,0,1-5.22-.23c0-1.75,0-3.51,0-5.26Z"/><path class="cls-46" d="M349,76.31c-1.45,0-2.9,0-4.35,0-.7,0-1-.21-.94-.92,0-1.12.05-2.25,0-3.36,0-.76.29-1.11,1-1.13q1.74-.06,3.48,0c.68,0,.87.45.86,1.09,0,1.46,0,2.91,0,4.36Z"/><path class="cls-47" d="M338.23,70.78a39.57,39.57,0,0,0,5.22.23c0,1.75,0,3.51,0,5.26-1.45,0-2.9,0-4.35,0-.7,0-.94-.25-.92-.94C338.24,73.85,338.22,72.32,338.23,70.78Z"/><path class="cls-16" d="M387.48,38.27l5.24,0c0,1.76,0,3.52,0,5.28h-5.22Z"/><path class="cls-48" d="M447.2,169c1.55,0,3.09,0,4.63,0,.63,0,.89-.22.88-.87q0-10,0-20c0-.74-.32-.92-1-.9-1,0-2.09-.07-3.12,0-1.21.13-1.51-.38-1.42-1.48s0-2,0-3c0-.85-.3-1.09-1.09-1.05-1.12.05-2.25,0-3.38,0-.83,0-1.09-.29-1.05-1.09.05-1,0-2.08,0-3.12a1.13,1.13,0,0,1,1.28-1.31c1.09,0,2.17,0,3.25,0,.67,0,1-.17,1-.91,0-1.2,0-2.41,0-3.62,0-.68-.3-1-1-1-1,0-2.09,0-3.13,0s-1.34.53-1.38,1.37q-.06,1.56,0,3.12c0,.74-.21,1.06-1,1-1.08,0-2.17,0-3.25,0-.72,0-1.08-.17-1-1,.05-1.12,0-2.25,0-3.37,0-.6.15-.88.82-.94a8.88,8.88,0,0,1,3.33-.07c.67.18,1.12-.16,1.11-.94,0-1.2,0-2.41,0-3.62,0-.67-.28-.85-.9-.85q-7.26,0-14.5,0c-.65,0-.89.25-.87.88,0,1,0,2,0,3s-.28,1.47-1.35,1.39-1.91,0-2.87,0-1.32.31-1.31,1.29c0,3.25,0,6.5,0,9.75l-.71,0c-.25-2.25-.5-4.51-.76-6.76,0-.3.18-.8-.27-.83s-.46.48-.47.84c0,1.54,0,3.08,0,4.62,0,.62-.09,1.29-.85,1.26s-1.44-.16-1.44-1.29.37-2.46.29-3.71c0-.78.16-1.58-.4-2.28a.66.66,0,0,1,.14-.91c.3-.27.53,0,.75.17s.42.46.74.21.21-.65.06-1a4.88,4.88,0,0,1-.8-2.2c0-.51.11-.95.67-1s.65.47.76.84c.17.55,0,1.33.95,1.31s1.18-.61,1.32-1.26c.18-.83.47-.89,1.06-.37s1,.39,1-.48a7.31,7.31,0,0,1,.25-2.36c0,.59,0,1.19,0,1.78a1,1,0,0,0,1.06,1.11c.84-.07.19-.69.2-1.06,0-.67,0-1.33,0-2s.42-1.09,1.13-1.52c1.55-.92,3.15-.84,4.8-.84h12c1.31,0,1.74.42,1.82,1.77.06,1.07-.06,2.15.09,3.23.1.69.38.74.94.76,1.11,0,2.24-.22,3.31.37.49.27.65-.12.66-.56s.14-.75.61-.79a.85.85,0,0,1,.71.45.6.6,0,0,1-.18.88c-1.84.7-1,2.14-.84,3.25a3.91,3.91,0,0,1-3.9,4.63,1.4,1.4,0,0,0-1.38,2.08c.21.57.66.41,1,.42a11,11,0,0,1,4.17.47c.67.28.88.53.56,1.17a2.48,2.48,0,0,0-.31,1.19c0,.66,0,1.11.95,1s1.45.56,1.42,1.75c.37,0,.34-.29.38-.51s.1-.51.45-.46.29.26.3.47a1.1,1.1,0,0,0,.34.91c.28.24.57.51,1,.36s.49-.53.35-.92-.16-.72.28-.78.59.34.53.67c-.17.85,1.05,2-.52,2.56-.06,0-.14.16-.12.19.88,1.58-.45,3.07-.16,4.69a27.13,27.13,0,0,1,.07,4.86v5a8.75,8.75,0,0,1,0,1.62c-.12.67-.17,1.07.56,1.58s.57,1.78.55,2.75c0,.13-.23.38-.29.37-1.69-.52-2.92,2.1-4.8.68a.59.59,0,0,0-.84.8,1.32,1.32,0,0,1-.34,1.94c-.15.13-.32.32-.16.53s.36.07.56,0a5.38,5.38,0,0,1,3.83.05c.19.1.33.23.51,0,.34-.48.71-.54,1.11,0a1,1,0,0,1-.06,1.47c-1,.73-.85,1.65-.79,2.66a1.35,1.35,0,0,0,.73,1.3.72.72,0,0,1,.42.82c-.09.46-.48.37-.8.39a2.92,2.92,0,0,0-.73.09c-.45.18-.87.6-.75,1,.19.66.66.15,1,0s.67-.29.92,0a.79.79,0,0,1,0,1c-.26.32-.71.68-1.06.37-.66-.57-1.88-.31-2.12-1.47a.36.36,0,0,0-.5-.25c-.66.37-.31,1.14-.59,1.69-.16.32,0,.59.46.7a7,7,0,0,0,2.41.52,1.4,1.4,0,0,1,1.4.86c.32.66-.27.74-.57,1s-.22.69.15,1c1.14,1.05,1.14,1.64.16,2.79-.5.58-.61,1.39-1.08,2-.29.4.47.54.81.67s.68.07.69.55a.73.73,0,0,1-.56.73c-1.23.45-2.38,1.18-3.79.38-.7-.4-1.33.23-1.92.6a.42.42,0,0,0-.14.56c.12.24.41.42.61.32,1.51-.72,3.22.47,4.71-.55a.72.72,0,0,1,1,.19c.22.44-.29.49-.51.71a1.24,1.24,0,0,0,0,1.94c1.29,1.16,1.25,2.56-.19,3.41a.78.78,0,0,0-.44.69.64.64,0,0,1-.8.07,1,1,0,0,1-.21-.37,14.42,14.42,0,0,1-.11-2.86c0-2,0-1.94-2-2a8.21,8.21,0,0,1-3-.2l-.15-.16v-3.74c0-1.75,0-1.75,1.82-1.75,1,0,1.91,0,2.86,0,.58,0,.83-.22.82-.81,0-1.2,0-2.41,0-3.61,0-.68-.3-.86-.91-.84-1.2,0-2.41,0-3.61,0-.79,0-1-.28-1-1,0-1.49,0-3,0-4.49l.15-.15a11.89,11.89,0,0,1,3.57-.21c1.28-.07,1.38-.14,1.4-1.45q0-.93,0-1.86c0-1.32-.12-1.39-1.4-1.46a11.89,11.89,0,0,1-3.57-.21l-.15-.15V169Z"/><path class="cls-43" d="M420,114.54c0,1.74,0,3.49,0,5.23a.78.78,0,0,1-.68.23l-10.1,0a1.49,1.49,0,0,1,0-.21c1-.65,2.07-.33,3.12-.36,1.69-.07,1.68-.06,1.74-1.74,0-1-.29-2.15.36-3.13Z"/><path class="cls-49" d="M452.72,201.78l.74,0h4.74a8.12,8.12,0,0,1,0,5.5h0l-5.49,0A7.83,7.83,0,0,1,452.72,201.78Z"/><path class="cls-35" d="M409,114.52c0,1.83,0,3.66.05,5.48h-5.29c0-1.81,0-3.63-.05-5.45l0,0A7.58,7.58,0,0,1,409,114.52Z"/><path d="M343.77,117.16c0-2.63,0-2.63,2.69-2.63s2.56,0,2.56,2.53c0,2.77,0,2.77-2.73,2.77C343.77,119.83,343.77,119.83,343.77,117.16Z"/><path class="cls-50" d="M414.69,98.3a11.74,11.74,0,0,0-.2,4c0,.92-.26,1.24-1.19,1.19-1.36-.07-2.73,0-4.09,0a25.59,25.59,0,0,1,0-5.25Z"/><path class="cls-42" d="M409.19,98.28c0,1.75,0,3.5,0,5.25l-.27,0c0-1.36,0-2.71,0-4.07C409,99.05,408.81,98.61,409.19,98.28Z"/><path class="cls-25" d="M409,114.52h-5.25c0-3.59,0-7.17,0-10.75,1.37,0,2.75,0,4.12,0,.89,0,1.14.29,1.13,1.15C408.93,108.11,409,111.32,409,114.52Z"/><path class="cls-48" d="M398.21,103.53c1.41,0,2.82,0,4.23,0,.72,0,1.07.18,1,1-.05,1.24,0,2.49,0,3.74,0,.58-.22.82-.8.8-1.21,0-2.41,0-3.61,0-.68,0-.86-.3-.85-.91,0-1.53,0-3.07,0-4.6Z"/><path class="cls-48" d="M441.71,162.77a1.25,1.25,0,0,0,1.35.77c1.07-.08,2.14,0,3.21,0,.69,0,1,.23,1,.93,0,1.53,0,3.05,0,4.58h0c-1.41,0-2.82,0-4.23,0-1,.05-1.33-.36-1.28-1.32s0-2.15,0-3.23c0-.4.11-.88-.5-1C441,163,441.15,162.75,441.71,162.77Z"/><path class="cls-51" d="M452.72,201.78v5.46l0,0a10.28,10.28,0,0,1-5.31.14l-.17-.16v-5.5l.17-.16a10.28,10.28,0,0,1,5.31.15Z"/><path class="cls-52" d="M447.21,180c-1.41,0-2.82,0-4.23,0-1,0-1.33-.36-1.28-1.32a26.9,26.9,0,0,0,0-3.11c-.06-.91.33-1.13,1.16-1.1,1.45.05,2.91,0,4.36,0h0a8.15,8.15,0,0,1,0,5.51Z"/><path class="cls-51" d="M447.21,212.76c-1.41,0-2.82,0-4.23,0-1,0-1.33-.36-1.28-1.31a26.88,26.88,0,0,0,0-3.11c-.06-.92.33-1.13,1.17-1.1,1.44.05,2.9,0,4.35,0h0a8.12,8.12,0,0,1,0,5.5Z"/><path class="cls-53" d="M447.21,201.76c-1.45,0-2.9,0-4.35,0-.84,0-1.23-.19-1.17-1.11a29.62,29.62,0,0,0,0-3c0-1,.39-1.45,1.41-1.43,1.36,0,2.73,0,4.1,0h0a8.12,8.12,0,0,1,0,5.5Z"/><path class="cls-51" d="M439,196.26c-2.59,0-2.61,0-2.58-2.63,0-3.24-.59-2.84,3.06-2.86.48,0,.93.22,1.46.07s.72.28.72.76c0,1.32,0,2.65,0,4,0,.56-.32.69-.8.68Z"/><path class="cls-54" d="M441.71,162.77a.75.75,0,0,0-.5.75c-1.25,0-2.49,0-3.74,0-.72,0-1.06-.18-1-1,.05-1.15,0-2.32,0-3.48,0-.58.23-.82.81-.81,1.2,0,2.41,0,3.61,0,.67,0,.86.28.85.9C441.69,160.36,441.71,161.56,441.71,162.77Z"/><path class="cls-55" d="M458.2,207.26v-5.5c1.49,0,3,0,4.47,0,.71,0,1.08.16,1,1q-.07,1.8,0,3.6c0,.81-.33,1-1,1C461.18,207.24,459.69,207.26,458.2,207.26Z"/><path class="cls-35" d="M447.2,212.76v-5.5l5.49,0c0,1.49,0,3,0,4.49,0,.78-.27,1-1,1C450.2,212.73,448.7,212.76,447.2,212.76Z"/><path d="M403.78,43.79c1.23,0,2.47,0,3.71,0,.65,0,.84.2,1,.88.39,1.52-.14,2.91-.29,4.36-1.25,0-2.49,0-3.74,0-.58,0-.83-.2-.8-.79A41.88,41.88,0,0,1,403.78,43.79Z"/><path class="cls-1" d="M310.93,114.58l11,0a32.91,32.91,0,0,1,.13,5.06c0,1.36,0,2.73,0,4.09,0,.83.32,1.2,1.18,1.19,1.32,0,2.64,0,4,0s2.7,0,4.05,0a1.77,1.77,0,0,1,1.38.38c-.81.54-1.71.15-2.57.22s-1.89,0-2.84,0a3.24,3.24,0,0,1-2.15.39c-1.12,0-2.24,0-3.35,0-1.74,0-3.48,0-5.21,0-1.12,0-2.24,0-3.36,0-1.83,0-1.81,0-1.85,1.89a6.25,6.25,0,0,1-.28,2.94.29.29,0,0,1-.4,0,3.54,3.54,0,0,1-.32-2.17c0-3,.25-2.66-2.76-2.71-.64,0-1.33.13-1.89-.37.09-.64.63-.57,1.06-.61.7-.08,1.41,0,2.11,0,1.64,0,1.71-.07,1.71-1.66,0-2.33,0-4.65,0-7A2.32,2.32,0,0,1,310.93,114.58Z"/><path d="M321.79,125.54h5.47c0,6.84,0,13.69,0,20.53,0,1-.24,1.28-1.22,1.22-1.44-.09-2.9,0-4.35,0l-.16-.18a2.56,2.56,0,0,1-.21-1.22c0-3.19,0-6.38,0-9.57,0-1.84-.05-3.68,0-5.52-.06-1.25,0-2.49,0-3.74A1.71,1.71,0,0,1,321.79,125.54Z"/><path class="cls-3" d="M327.27,125.27h-4.61c-.48,0-.94,0-.94-.68,0-3.16,0-6.31,0-9.47a1.81,1.81,0,0,1,.22-.58c3.24,0,6.48,0,9.72,0,.84,0,1.08.27,1,1.07-.05,1.12,0,2.25,0,3.37,0,.63.19.91.85.89,1.54,0,3.07-.06,4.61-.09-.11.53-.53.29-.8.29-1.54,0-3.07,0-4.61,0a3.22,3.22,0,0,1-2.15.38c-3.46,0-2.95-.38-3,3.07A2.73,2.73,0,0,1,327.27,125.27Z"/><path d="M305.51,158c0-3.35,0-6.7-.07-10.06,0-.54.16-.71.7-.69,1.62,0,3.23,0,4.85,0l.14.16a10.28,10.28,0,0,1,.21,3,2.85,2.85,0,0,0,.26,1.65c.93.58,1.95.24,2.92.27,1.8.08,1.84.06,1.81,1.8a23.32,23.32,0,0,1-.1,3.83h0A93.51,93.51,0,0,1,305.51,158Z"/><path d="M311,147.29,310.93,131c1.6-.69,3.27-.34,4.91-.24.59,0,.69.65.71,1.17,0,.95,0,1.91,0,2.87,0,3.58,0,7.16,0,10.75a2.94,2.94,0,0,1-.25,1.7,7.78,7.78,0,0,1-5.36,0Z"/><path d="M327.27,125.27c0-1.45,0-2.9,0-4.35,0-.71.23-1,.93-.92,1.54,0,3.07,0,4.6,0l-.09,5.24Z"/><path class="cls-38" d="M305.7,125.47c1.36,0,2.72.09,4.08.06.77,0,1,.25,1,1-.06,1.4-.06,2.8-.09,4.2a17.43,17.43,0,0,1-5.15,0l-.06-5.23.1-.1Z"/><path d="M321.7,147.26a40.3,40.3,0,0,1,0,5.27,43.45,43.45,0,0,1-4.84.11.59.59,0,0,1-.68-.58c0-1.6-.37-3.22.2-4.8a7.78,7.78,0,0,1,5.32,0Z"/><path class="cls-56" d="M316.47,147.26c0,1.45,0,2.9,0,4.35,0,.7.22,1,.93.94,1.45,0,2.9,0,4.35,0-1.25.58-2.58.25-3.86.21s-1.51.35-1.46,1.51a9.63,9.63,0,0,1-.18,3.78c0-1.4-.07-2.8,0-4.2,0-.8-.2-1.1-1-1.05-1.07.06-2.15,0-3.22,0-.34,0-.75.17-1-.25,1-.69,2.08-.34,3.13-.38,1.7-.07,1.69-.06,1.76-1.75,0-1.06-.3-2.16.37-3.15,0-5,0-10,0-15,0-1.07-.33-1.36-1.34-1.29-1.33.08-2.66,0-4,0s-2.86,0-4.29-.07c-.38,0-.82.22-1.12-.21l5.15,0,.33,0c1.75-.67,3.53-.38,5.31-.19a.81.81,0,0,1,.34.32,28.38,28.38,0,0,1,.19,5.45c.07,3.18,0,6.35,0,9.52A1.91,1.91,0,0,1,316.47,147.26Z"/><path class="cls-56" d="M305.51,158l10.72,0c-.11.24-.33.21-.53.21H306C305.8,158.24,305.57,158.28,305.51,158Z"/><path class="cls-1" d="M300,125.26h5.39c.15.07.17.16.05.28v0c-1.53,0-3.06,0-4.59,0C300.59,125.49,300.2,125.73,300,125.26Z"/><path d="M332.69,27.32c0,1.74,0,3.47,0,5.21H293a4.69,4.69,0,0,1-3.16-2.08c-.22-.52.16-.76.42-1.07s.2-.75-.14-1.08-.58-.15-.86.09-.6.92-1.21.33-.1-1,.19-1.39h2a37.4,37.4,0,0,0,3.07,3.22c.29.29.62.68,1,.24s.06-.76-.23-1.07-.89-.86-1.29-1.33c-.25-.29-.66-.57-.32-1.05,2,0,4,0,6,0Z"/><path class="cls-31" d="M292.48,27.34c.34,1,1.31,1.55,2,2.31.46.5.65.88.09,1.46s-.9.27-1.31-.15c-.8-.83-1.63-1.65-2.45-2.46a1.4,1.4,0,0,1-.59-1.17Z"/><path class="cls-57" d="M256.5,49V43.57c.66-.61,1.49-.43,2.26-.43h43.31c3.36,0,2.95.25,3-2.91v-.37c0-1.53.14-1.65,1.6-2.06,2.52,0,5.05.17,7.58.11,2,0,4.07.09,6.1-.13,1.15-.12,1.61.31,1.72,1.45a25.05,25.05,0,0,1,0,2.74c0,.85.36,1.21,1.2,1.19s1.58,0,2.37,0a2.18,2.18,0,0,1,1.53.38c0,3.25,0,6.5,0,9.75,0,1-.24,1.29-1.25,1.28-4.59-.05-9.17,0-13.75,0-.44,0-.93-.17-1.29.25-1.84.09-3.69.46-5.48-.26,0-1.54,0-3.09,0-4.63,0-.64-.23-.93-.88-.87-.25,0-.5,0-.75,0H257.5Z"/><path class="cls-16" d="M256.52,76.48c0-1.82,0-3.64,0-5.46.62-.51,1.36-.33,2.05-.33q19.62,0,39.24,0c2,0,4.08-.2,6.11-.31.86,0,1.14-.45,1.17-1.25.06-1.2-.25-2.42.29-3.58,1-.69,2.09-.36,3.14-.39,1.8-.06,1.82,0,1.83-1.81,0-2,0-3.91,0-5.86,0-.53-.18-1.22.6-1.46,0,2.7.08,5.41,0,8.1,0,1.21.39,1.44,1.49,1.43,4.53-.06,9.06,0,13.59,0,.92,0,1.24.24,1.22,1.19-.06,3.2,0,6.4,0,9.6-1.46,0-2.91,0-4.37,0-.8,0-1.14.29-1.12,1.1,0,1.08,0,2.17,0,3.25,0,.82-.17,1.18-1.09,1.17-4.66,0-9.33,0-14,0-.85,0-1.23-.27-1.19-1.15,0-1.13,0-2.25,0-3.38,0-.78-.28-1.06-1-1a4.21,4.21,0,0,1-.5,0H258.11A3.43,3.43,0,0,0,256.52,76.48Z"/><path class="cls-3" d="M311,56c-.38.43-.21.95-.22,1.43,0,2.32,0,4.65,0,7,0,.89-.29,1.15-1.14,1.12-1.37-.06-2.74,0-4.11,0a1.72,1.72,0,0,1-.41-1.39c0-.75,0-1.5,0-2.25,0-1.27-.16-1.39-1.47-1.43-.46,0-.92,0-1.37,0q-21.74,0-43.45,0a3.37,3.37,0,0,1-2.28-.38c0-1.83,0-3.66,0-5.5l41.47,0h11.68a2,2,0,0,1,1.3.26Z"/><path class="cls-3" d="M327.21,43.53c-1.54,0-3.08,0-4.62,0-.64,0-.89-.23-.88-.88,0-1.2,0-2.41,0-3.62,0-.76-.34-1-1.08-1a79.13,79.13,0,0,1-13.42,0h-.5c-.67.28-.82-.24-.64-.6.55-1.15,0-1.85-.82-2.54a2.25,2.25,0,0,1,.19-2.09h21.78Z"/><path class="cls-23" d="M300,81.83c0,1.73,0,3.46,0,5.19q-15.8,0-31.6,0c-.83,0-1.21-.18-1.16-1.1.07-1.37,0-2.75,0-4.12Z"/><path class="cls-23" d="M261.73,32.81c7.49,0,15-.06,22.49-.06,5.33,0,10.66,0,16,.07a16.73,16.73,0,0,1,.1,4.47,1.06,1.06,0,0,1-1.13,1.08c-.42,0-.84,0-1.25,0H263.82a12.48,12.48,0,0,1-1.37,0c-.44,0-.9-.2-1-.67C261.31,36.06,261,34.4,261.73,32.81Z"/><path class="cls-22" d="M261.73,32.81c0,1.33.06,2.66,0,4-.06,1,.28,1.26,1.26,1.26,6.65,0,13.3,0,20,0q7.6,0,15.21,0c2.07,0,1.78.23,1.84-1.89,0-1.11-.24-2.24.23-3.32h5.25l0,2.23a3.09,3.09,0,0,1,.3,2.41,1.35,1.35,0,0,1-1.15,1.16,6.22,6.22,0,0,1-1.36.09H258.51c-.69,0-1.43.14-2-.46,0-1.81,0-3.61,0-5.42Z"/><path class="cls-22" d="M256.49,60.06l46.11,0c.63,0,1.25,0,1.87,0s1,.24,1,1c0,1.5,0,3,0,4.5,0,1.33-.06,2.66,0,4,0,.93-.19,1.27-1.23,1.31-11.67.48-23.35.09-35,.21-4.24,0-8.48,0-12.73,0a.49.49,0,0,1,0-.24c.68-.57,1.5-.39,2.28-.39h38.33c2.47,0,2.47,0,2.46-2.47,0-1.91-.05-2-1.95-2q-19.41,0-38.83,0c-.8,0-1.71.24-2.29-.62C256.5,63.56,256.49,61.81,256.49,60.06Z"/><path class="cls-23" d="M256.5,65.31a3.23,3.23,0,0,0,1.71.22c13.4,0,26.8,0,40.2,0,1.25,0,1.75.29,1.57,1.58s.51,2.7-.28,3.48-2.23.21-3.38.21q-19.92,0-39.82,0Z"/><path class="cls-3" d="M256.52,38.23c7.27,0,14.55.06,21.82.07q12.66,0,25.31,0c1.82,0,1.81,0,1.82-1.86,0-.45,0-.91,0-1.37,1.34.48,1.54.88,1,2.13-.2.43-.38.76.28.87-1.15.15-1.39.85-1.28,1.89s0,1.83,0,2.75c0,.65-.24.92-.88.87a8.58,8.58,0,0,0-.88,0h-46c-.42,0-.84,0-1.25,0C256.51,41.79,256.52,40,256.52,38.23Z"/><path class="cls-50" d="M414.45,114.54c0,1.46,0,2.92,0,4.37,0,.65-.23.89-.87.88-1.46,0-2.92,0-4.37,0,0-1.74,0-3.48,0-5.23Z"/><path class="cls-22" d="M305.47,125.54l-.05-.28c0-3.23.05-6.46,0-9.69,0-.78.17-1.11,1-1.06,1.48.08,3,0,4.47.07,0,3.23,0,6.46,0,9.7,0,.81-.25,1.06-1.07,1.06a17.3,17.3,0,0,0-4.19.13A.68.68,0,0,0,305.47,125.54Z"/><path class="cls-15" d="M349,54.52c-1.42,0-2.83,0-4.24,0-.84,0-1-.3-1.06-1.08,0-1.48.27-3-.21-4.45h.26a7.42,7.42,0,0,1,5.23.06Z"/><path class="cls-16" d="M338.24,49.05c0-1.76,0-3.51,0-5.26,1.44,0,2.89,0,4.34,0,.69,0,.95.22.93.93,0,1.44,0,2.89,0,4.33Z"/><path d="M349,49.07,343.74,49c0-1.41,0-2.82,0-4.23,0-.73.18-1.06,1-1,1.12.05,2.24,0,3.36,0,.73,0,.94.27.92,1C348.94,46.16,349,47.62,349,49.07Z"/><path class="cls-58" d="M447.2,201.76v-5.5c1.5,0,3,0,4.5,0,.75,0,1,.23,1,1-.05,1.5,0,3,0,4.5Z"/><path class="cls-35" d="M447.2,180v-5.51c1.5,0,3,0,4.48,0,.7,0,1.07.15,1,1-.05,1.19-.05,2.4,0,3.6,0,.8-.34,1-1,1C450.19,180,448.69,180,447.2,180Z"/><path class="cls-34" d="M449.69,192.55c0,.36-.18.7-.63.66-.67,0-.63-.68-.75-1.11a.39.39,0,0,1,.5-.49C449.24,191.73,449.68,191.91,449.69,192.55Z"/><path class="cls-34" d="M448.89,145.77c0,.18-.12.36-.31.34s-.36-.3-.36-.56,0-.47.32-.38S448.86,145.53,448.89,145.77Z"/><path d="M404.46,46.42a2,2,0,0,1,3-1.81,1,1,0,0,1,.48.82c0,.42,0,.83,0,1.25a1.87,1.87,0,0,1-2.85,1.76C404.16,48,404.55,47.09,404.46,46.42Z"/><path class="cls-59" d="M316.46,130.77H311c0-1.44,0-2.89,0-4.33,0-.66.15-1,.89-1,1.52.06,3.05.06,4.58.08A7.08,7.08,0,0,1,316.46,130.77Z"/><path class="cls-3" d="M316.46,130.77c0-1.74,0-3.48,0-5.22h5.35l-.09,5.25a7.62,7.62,0,0,1-5.22,0Z"/><path class="cls-23" d="M316.47,147.26l0-11a7.34,7.34,0,0,1,5.22,0q.15,5.5,0,11Z"/><path class="cls-30" d="M321.73,136.27l-5.22,0,0-5.51h5.22A41.75,41.75,0,0,1,321.73,136.27Z"/><path class="cls-30" d="M316.22,147.25c0,1.41,0,2.83,0,4.23,0,.8-.2,1.12-1,1.08-1.41-.06-2.82,0-4.23,0v-5.27Z"/></svg>